G04 #@! TF.GenerationSoftware,KiCad,Pcbnew,10.0.5*
G04 #@! TF.CreationDate,2026-08-16T13:39:24-07:00*
G04 #@! TF.ProjectId,microphone_array_v2,6d696372-6f70-4686-9f6e-655f61727261,rev?*
G04 #@! TF.SameCoordinates,Original*
G04 #@! TF.FileFunction,Copper,L4,Bot*
G04 #@! TF.FilePolarity,Positive*
%FSLAX46Y46*%
G04 Gerber Fmt 4.6, Leading zero omitted, Abs format (unit mm)*
G04 Created by KiCad (PCBNEW 10.0.5) date 2026-08-16 13:39:24*
%MOMM*%
%LPD*%
G01*
G04 APERTURE LIST*
G04 #@! TA.AperFunction,ComponentPad*
%ADD10R,1.700000X1.700000*%
G04 #@! TD*
G04 #@! TA.AperFunction,ComponentPad*
%ADD11C,1.700000*%
G04 #@! TD*
G04 #@! TA.AperFunction,ViaPad*
%ADD12C,0.450000*%
G04 #@! TD*
G04 #@! TA.AperFunction,Conductor*
%ADD13C,0.200000*%
G04 #@! TD*
G04 #@! TA.AperFunction,Conductor*
%ADD14C,0.600000*%
G04 #@! TD*
G04 #@! TA.AperFunction,Conductor*
%ADD15C,0.150000*%
G04 #@! TD*
G04 #@! TA.AperFunction,Conductor*
%ADD16C,0.250000*%
G04 #@! TD*
G04 APERTURE END LIST*
D10*
X165240000Y-179190000D03*
D11*
X165240000Y-181730000D03*
X162700000Y-179190000D03*
X162700000Y-181730000D03*
X160160000Y-179190000D03*
X160160000Y-181730000D03*
X157620000Y-179190000D03*
X157620000Y-181730000D03*
X155080000Y-179190000D03*
X155080000Y-181730000D03*
X152540000Y-179190000D03*
X152540000Y-181730000D03*
X150000000Y-179190000D03*
X150000000Y-181730000D03*
X147460000Y-179190000D03*
X147460000Y-181730000D03*
X144920000Y-179190000D03*
X144920000Y-181730000D03*
X142380000Y-179190000D03*
X142380000Y-181730000D03*
X139840000Y-179190000D03*
X139840000Y-181730000D03*
X137300000Y-179190000D03*
X137300000Y-181730000D03*
X134760000Y-179190000D03*
X134760000Y-181730000D03*
D10*
X189210000Y-138570000D03*
D11*
X186670000Y-138570000D03*
X184130000Y-138570000D03*
X181590000Y-138570000D03*
X179050000Y-138570000D03*
X176510000Y-138570000D03*
X173970000Y-138570000D03*
X171430000Y-138570000D03*
X168890000Y-138570000D03*
X166350000Y-138570000D03*
X163810000Y-138570000D03*
X161270000Y-138570000D03*
X158730000Y-138570000D03*
X156190000Y-138570000D03*
X153650000Y-138570000D03*
X151110000Y-138570000D03*
X148570000Y-138570000D03*
X146030000Y-138570000D03*
X143490000Y-138570000D03*
X140950000Y-138570000D03*
X138410000Y-138570000D03*
X135870000Y-138570000D03*
X133330000Y-138570000D03*
X130790000Y-138570000D03*
D10*
X189210000Y-161430000D03*
D11*
X186670000Y-161430000D03*
X184130000Y-161430000D03*
X181590000Y-161430000D03*
X179050000Y-161430000D03*
X176510000Y-161430000D03*
X173970000Y-161430000D03*
X171430000Y-161430000D03*
X168890000Y-161430000D03*
X166350000Y-161430000D03*
X163810000Y-161430000D03*
X161270000Y-161430000D03*
X158730000Y-161430000D03*
X156190000Y-161430000D03*
X153650000Y-161430000D03*
X151110000Y-161430000D03*
X148570000Y-161430000D03*
X146030000Y-161430000D03*
X143490000Y-161430000D03*
X140950000Y-161430000D03*
X138410000Y-161430000D03*
X135870000Y-161430000D03*
X133330000Y-161430000D03*
X130790000Y-161430000D03*
D12*
X110352523Y-110352523D03*
X145625000Y-150075000D03*
X201801924Y-171457059D03*
X150000000Y-200370000D03*
X150000000Y-93930000D03*
X185172323Y-112161699D03*
X166069880Y-194455134D03*
X98198075Y-171457059D03*
X147950000Y-203220000D03*
X110918208Y-186182653D03*
X98198075Y-128542940D03*
X153312500Y-167000000D03*
X198384367Y-172260364D03*
X131985098Y-198417895D03*
X112161699Y-114827675D03*
X159899999Y-169800000D03*
X98373692Y-151885128D03*
X93930000Y-150000000D03*
X168014900Y-101582103D03*
X129928593Y-192797648D03*
X128501835Y-103024918D03*
X206070000Y-150000000D03*
X189647476Y-110352523D03*
X103464187Y-130724234D03*
X170071405Y-107202350D03*
X189647476Y-189647476D03*
X186182653Y-189081790D03*
X103464187Y-169275765D03*
X167275000Y-168450000D03*
X197220865Y-152165609D03*
X107202350Y-129928593D03*
X169275765Y-103464187D03*
X145625000Y-155925000D03*
X200370000Y-150000000D03*
X131527539Y-100046630D03*
X157000000Y-129525000D03*
X144535000Y-146800000D03*
X181858876Y-184921511D03*
X151885128Y-201626307D03*
X101582103Y-131985098D03*
X101615631Y-127739634D03*
X189541565Y-122817180D03*
X158275000Y-168450000D03*
X152049999Y-96780000D03*
X147834389Y-197220865D03*
X128542940Y-98198075D03*
X148114871Y-98373692D03*
X171457059Y-201801924D03*
X114383031Y-114383031D03*
X103024918Y-171498164D03*
X171498164Y-196975081D03*
X203220000Y-152049999D03*
X152165609Y-102779133D03*
X185616968Y-185616968D03*
X151535000Y-159200000D03*
X105544864Y-166069880D03*
X138062500Y-175800000D03*
X171457059Y-98198075D03*
X154375000Y-150725000D03*
X128542940Y-201801924D03*
X115078487Y-181858876D03*
X114827675Y-187838299D03*
X201626307Y-148114871D03*
X144450000Y-168450000D03*
X133930118Y-105544864D03*
X156200000Y-159200000D03*
X96780000Y-147950000D03*
X172260364Y-101615631D03*
X177131203Y-189507077D03*
X130724234Y-196535812D03*
X146562500Y-175800000D03*
X196535812Y-130724234D03*
X187838299Y-185172323D03*
X150000000Y-99630000D03*
X194455134Y-133930118D03*
X201801924Y-128542940D03*
X99630000Y-150000000D03*
X110352523Y-189647476D03*
X114383031Y-185616968D03*
X185616968Y-114383031D03*
X184921511Y-118141122D03*
X102779133Y-147834389D03*
X199953368Y-131527539D03*
X110458433Y-177182818D03*
X198417895Y-168014900D03*
X145425000Y-143950000D03*
X149275000Y-168450000D03*
X196535812Y-169275765D03*
X168472459Y-199953368D03*
X196975081Y-128501835D03*
X169275765Y-196535812D03*
X113817345Y-110918208D03*
X154000000Y-127525000D03*
X130724234Y-103464187D03*
X145429999Y-169800000D03*
X127739634Y-198384367D03*
X100046630Y-168472459D03*
X192797648Y-170071405D03*
X118141122Y-115078487D03*
X189081790Y-113817345D03*
X122868795Y-110492921D03*
X150000000Y-206070000D03*
X153800000Y-170300000D03*
X155900000Y-165400000D03*
X153100000Y-171700000D03*
X137894539Y-108426597D03*
X193041375Y-154725464D03*
X172700000Y-150300000D03*
X161800000Y-169300000D03*
X113997365Y-174056190D03*
X145274534Y-193041375D03*
X175100000Y-140900000D03*
X172700000Y-151700000D03*
X183776256Y-122906559D03*
X187956688Y-170836981D03*
X170836981Y-112043311D03*
X162105460Y-191573402D03*
X175100000Y-139600000D03*
X163100000Y-170200000D03*
X186002634Y-125943808D03*
X174056190Y-186002634D03*
X168200000Y-176500000D03*
X108426596Y-162105459D03*
X129163017Y-187956688D03*
X116223742Y-177093439D03*
X169800000Y-176500000D03*
X154725464Y-106958624D03*
X112043311Y-129163018D03*
X125943809Y-113997365D03*
X122906560Y-116223743D03*
X177093439Y-183776256D03*
X191573402Y-137894539D03*
X106958624Y-145274534D03*
X187786672Y-134348247D03*
X191500000Y-150000000D03*
X143700000Y-174600000D03*
X146200000Y-180100000D03*
X143300000Y-171700000D03*
X188341000Y-165881362D03*
X178920667Y-178920667D03*
X121079332Y-121079332D03*
X111658999Y-134118637D03*
X144400000Y-150100000D03*
X139800000Y-147800000D03*
X139800000Y-150200000D03*
X143700000Y-150200000D03*
X155100000Y-155900000D03*
X151300000Y-149000000D03*
X155100000Y-150400000D03*
X141300000Y-145800000D03*
X140600000Y-144200000D03*
X153800000Y-183200000D03*
X146300000Y-183100000D03*
X152300000Y-176100000D03*
X150000000Y-109100000D03*
X134118637Y-111658999D03*
X121079332Y-178920666D03*
X134118637Y-188341000D03*
X165651752Y-187786672D03*
X150000000Y-191500000D03*
X137100000Y-174800000D03*
X135900000Y-176000000D03*
X137800000Y-170300000D03*
X137800000Y-171700000D03*
X178920666Y-121079332D03*
X165881361Y-111658999D03*
X143000000Y-177200000D03*
X142700000Y-172300000D03*
X112213326Y-165651751D03*
X108500000Y-150000000D03*
X137800000Y-168600000D03*
X141800000Y-168300000D03*
X135500000Y-171700000D03*
X146100000Y-175100000D03*
X146200000Y-173600000D03*
X153700000Y-176500000D03*
X139800000Y-183600000D03*
X143000000Y-175500000D03*
X139000000Y-163000000D03*
X132700000Y-162900000D03*
X151100000Y-171700000D03*
X161900000Y-171700000D03*
X161900000Y-170300000D03*
X147900000Y-171700000D03*
D13*
X153800000Y-170300000D02*
X153100000Y-171000000D01*
X153100000Y-171000000D02*
X153100000Y-171700000D01*
X155900000Y-165400000D02*
X158700000Y-162600000D01*
X158700000Y-162600000D02*
X158700000Y-161400000D01*
D14*
X193136239Y-146237710D02*
X193041375Y-154725464D01*
X137894539Y-108426597D02*
X146237710Y-106863760D01*
X131705885Y-110754422D02*
X137894539Y-108426597D01*
X115087808Y-124386939D02*
X118729662Y-120049107D01*
X170836981Y-112043311D02*
X175613059Y-115087807D01*
X134295623Y-190351735D02*
X129163017Y-187956688D01*
X113997365Y-174056190D02*
X110754421Y-168294113D01*
X162200000Y-169300000D02*
X161800000Y-169300000D01*
X116223742Y-177093439D02*
X113997365Y-174056190D01*
X192056353Y-160303064D02*
X190351735Y-165704376D01*
X162105460Y-191573402D02*
X153762288Y-193136239D01*
X108426596Y-162105459D02*
X106863760Y-153762288D01*
X179950892Y-118729661D02*
X183776256Y-122906559D01*
X125943809Y-113997365D02*
X131705885Y-110754422D01*
X106863760Y-153762288D02*
X106958624Y-145274534D01*
X190351735Y-165704376D02*
X187956688Y-170836981D01*
X172700000Y-151700000D02*
X172700000Y-150300000D01*
X129163017Y-187956688D02*
X124386939Y-184912191D01*
X106958624Y-145274534D02*
X108707545Y-136968377D01*
X168294114Y-189245577D02*
X162105460Y-191573402D01*
X175613059Y-115087807D02*
X179950892Y-118729661D01*
X193041375Y-154725464D02*
X192056353Y-160303064D01*
X112043311Y-129163018D02*
X115087808Y-124386939D01*
X108707545Y-136968377D02*
X112043311Y-129163018D01*
X124386939Y-184912191D02*
X120049106Y-181270337D01*
X153762288Y-193136239D02*
X145274534Y-193041375D01*
X120049106Y-181270337D02*
X116223742Y-177093439D01*
X189245577Y-131705885D02*
X191573402Y-137894539D01*
X191573402Y-137894539D02*
X193136239Y-146237710D01*
X187956688Y-170836981D02*
X184912191Y-175613060D01*
X146237710Y-106863760D02*
X154725464Y-106958624D01*
X139696934Y-192056353D02*
X134295623Y-190351735D01*
X118729662Y-120049107D02*
X122906560Y-116223743D01*
X122906560Y-116223743D02*
X125943809Y-113997365D01*
X145274534Y-193041375D02*
X139696934Y-192056353D01*
X110754421Y-168294113D02*
X108426596Y-162105459D01*
X183776256Y-122906559D02*
X186002634Y-125943808D01*
X181270337Y-179950892D02*
X177093439Y-183776256D01*
X163100000Y-170200000D02*
X162200000Y-169300000D01*
X186002634Y-125943808D02*
X189245577Y-131705885D01*
X184912191Y-175613060D02*
X181270337Y-179950892D01*
X169800000Y-176500000D02*
X168200000Y-176500000D01*
D13*
X175100000Y-140900000D02*
X175100000Y-139600000D01*
D14*
X174056190Y-186002634D02*
X168294114Y-189245577D01*
X177093439Y-183776256D02*
X174056190Y-186002634D01*
D13*
X179250000Y-140770000D02*
X180320000Y-140770000D01*
X187786672Y-134348247D02*
X186608425Y-133170000D01*
X179050000Y-143970000D02*
X179050000Y-140570000D01*
X186608425Y-133170000D02*
X179050000Y-133170000D01*
X191500000Y-150000000D02*
X185470000Y-143970000D01*
X179050000Y-140570000D02*
X179250000Y-140770000D01*
X185470000Y-143970000D02*
X179050000Y-143970000D01*
X179050000Y-136570000D02*
X179050000Y-138570000D01*
X179050000Y-133170000D02*
X179050000Y-136570000D01*
X180320000Y-136370000D02*
X179050000Y-137640000D01*
X180320000Y-140770000D02*
X180320000Y-136370000D01*
X143700000Y-174600000D02*
X145700000Y-174600000D01*
X147300000Y-175400000D02*
X147300000Y-176400000D01*
X146200000Y-177500000D02*
X146200000Y-180100000D01*
X145900000Y-174400000D02*
X146300000Y-174400000D01*
X145700000Y-174600000D02*
X145900000Y-174400000D01*
X146300000Y-174400000D02*
X147300000Y-175400000D01*
X147300000Y-176400000D02*
X146200000Y-177500000D01*
X151100000Y-162800000D02*
X151100000Y-161400000D01*
X143300000Y-171700000D02*
X143300000Y-170600000D01*
X143300000Y-170600000D02*
X151100000Y-162800000D01*
X189210000Y-165012362D02*
X189210000Y-164430000D01*
X178920667Y-178920667D02*
X178920667Y-164430000D01*
X189210000Y-164430000D02*
X189210000Y-163430000D01*
X188341000Y-165881362D02*
X189210000Y-165012362D01*
X189210000Y-163430000D02*
X189210000Y-161430000D01*
X178920667Y-164430000D02*
X189210000Y-164430000D01*
X111658999Y-134118637D02*
X113110362Y-135570000D01*
X133329999Y-133329999D02*
X133329999Y-135570000D01*
X133329999Y-135570000D02*
X133329999Y-136570000D01*
X133329999Y-136570000D02*
X133330000Y-138570000D01*
X121079332Y-121079332D02*
X133329999Y-133329999D01*
X113110362Y-135570000D02*
X133329999Y-135570000D01*
D15*
X144300000Y-150000000D02*
X144300000Y-149900000D01*
X144300000Y-149900000D02*
X142200000Y-147800000D01*
X144400000Y-150100000D02*
X144300000Y-150000000D01*
X142200000Y-147800000D02*
X139800000Y-147800000D01*
X143700000Y-150200000D02*
X139800000Y-150200000D01*
D14*
X155100000Y-151700000D02*
X154000000Y-151700000D01*
X141300000Y-145800000D02*
X141300000Y-144900000D01*
X154000000Y-151700000D02*
X151300000Y-149000000D01*
D13*
X155100000Y-155900000D02*
X155100000Y-150400000D01*
D14*
X141300000Y-144900000D02*
X140600000Y-144200000D01*
D13*
X146300000Y-183100000D02*
X144900000Y-181700000D01*
X152300000Y-176100000D02*
X152300000Y-177100000D01*
X153800000Y-178600000D02*
X153800000Y-183200000D01*
X152300000Y-177100000D02*
X153800000Y-178600000D01*
X143490000Y-115610000D02*
X143490000Y-134770000D01*
X143490000Y-134770000D02*
X143490000Y-136570000D01*
X134118637Y-111658999D02*
X143490000Y-121030362D01*
X143490000Y-136570000D02*
X143490000Y-138570000D01*
X150000000Y-109100000D02*
X143490000Y-115610000D01*
X134118637Y-188341000D02*
X136030000Y-186429637D01*
X138410000Y-163430000D02*
X138410000Y-161430000D01*
X132369998Y-167630000D02*
X138410000Y-167630000D01*
X138410000Y-167630000D02*
X138410000Y-163430000D01*
X136030000Y-183930000D02*
X136030000Y-176990000D01*
X138410000Y-174610000D02*
X138410000Y-166030000D01*
X121079332Y-178920666D02*
X132369998Y-167630000D01*
X136030000Y-186429637D02*
X136030000Y-183930000D01*
X136030000Y-176990000D02*
X138410000Y-174610000D01*
X163970000Y-176990000D02*
X165651752Y-175308248D01*
X161430000Y-176990000D02*
X166350000Y-172070000D01*
X166350000Y-165230000D02*
X166350000Y-163430000D01*
X163970000Y-183930000D02*
X163970000Y-176990000D01*
X166350000Y-172070000D02*
X166350000Y-165230000D01*
X161430000Y-183930000D02*
X161430000Y-176990000D01*
X157570000Y-183930000D02*
X161430000Y-183930000D01*
X165651752Y-165230000D02*
X166350000Y-165230000D01*
X150000000Y-191500000D02*
X157570000Y-183930000D01*
X166350000Y-163430000D02*
X166350000Y-161430000D01*
X163970000Y-186104920D02*
X163970000Y-183930000D01*
X165651752Y-187786672D02*
X163970000Y-186104920D01*
X165651752Y-175308248D02*
X165651752Y-165230000D01*
X137100000Y-174800000D02*
X135900000Y-176000000D01*
X137800000Y-171700000D02*
X137800000Y-170300000D01*
X165881361Y-111658999D02*
X168890000Y-114667638D01*
X168890000Y-136570000D02*
X168890000Y-138570000D01*
X168890000Y-133970000D02*
X168890000Y-136570000D01*
X178920666Y-121079332D02*
X168890000Y-131109998D01*
X168890000Y-114667638D02*
X168890000Y-133970000D01*
X141100000Y-177900000D02*
X139800000Y-179200000D01*
X143000000Y-177200000D02*
X142300000Y-177900000D01*
X142300000Y-177900000D02*
X141100000Y-177900000D01*
X141000000Y-170200000D02*
X141000000Y-161400000D01*
X142700000Y-171900000D02*
X141000000Y-170200000D01*
X142700000Y-172300000D02*
X142700000Y-171900000D01*
X135870000Y-163430000D02*
X135870000Y-161430000D01*
X135870000Y-166829999D02*
X135870000Y-163430000D01*
X108500000Y-150000000D02*
X114530000Y-156030000D01*
X113391574Y-166829999D02*
X135870000Y-166829999D01*
X137140000Y-163630000D02*
X135870000Y-162360000D01*
X137140000Y-159230000D02*
X137140000Y-163630000D01*
X114530000Y-156030000D02*
X135870000Y-156030000D01*
X135870000Y-156030000D02*
X135870000Y-159430000D01*
X112213326Y-165651751D02*
X113391574Y-166829999D01*
X136070000Y-159230000D02*
X137140000Y-159230000D01*
X135870000Y-159430000D02*
X136070000Y-159230000D01*
X137800000Y-169400000D02*
X137800000Y-168600000D01*
X141800000Y-168200000D02*
X148600000Y-161400000D01*
X135500000Y-171700000D02*
X137800000Y-169400000D01*
X146100000Y-175100000D02*
X142400000Y-178800000D01*
X150800000Y-173600000D02*
X153700000Y-176500000D01*
X146200000Y-173600000D02*
X150800000Y-173600000D01*
X139800000Y-183600000D02*
X139800000Y-181700000D01*
D16*
X140400000Y-172200000D02*
X140400000Y-164400000D01*
X132300000Y-162900000D02*
X130800000Y-161400000D01*
X140400000Y-164400000D02*
X139000000Y-163000000D01*
X143000000Y-174800000D02*
X140400000Y-172200000D01*
X132700000Y-162900000D02*
X132300000Y-162900000D01*
X143000000Y-175500000D02*
X143000000Y-174800000D01*
D13*
X151100000Y-171700000D02*
X155200000Y-167600000D01*
X155200000Y-167600000D02*
X155200000Y-162400000D01*
X155200000Y-162400000D02*
X156200000Y-161400000D01*
X161900000Y-171700000D02*
X161900000Y-170300000D01*
X147900000Y-171700000D02*
X147900000Y-167100000D01*
X147900000Y-167100000D02*
X153600000Y-161400000D01*
M02*
