G04 #@! TF.GenerationSoftware,KiCad,Pcbnew,10.0.5*
G04 #@! TF.CreationDate,2026-08-16T13:39:24-07:00*
G04 #@! TF.ProjectId,microphone_array_v2,6d696372-6f70-4686-9f6e-655f61727261,rev?*
G04 #@! TF.SameCoordinates,Original*
G04 #@! TF.FileFunction,Copper,L1,Top*
G04 #@! TF.FilePolarity,Positive*
%FSLAX46Y46*%
G04 Gerber Fmt 4.6, Leading zero omitted, Abs format (unit mm)*
G04 Created by KiCad (PCBNEW 10.0.5) date 2026-08-16 13:39:24*
%MOMM*%
%LPD*%
G01*
G04 APERTURE LIST*
G04 Aperture macros list*
%AMRoundRect*
0 Rectangle with rounded corners*
0 $1 Rounding radius*
0 $2 $3 $4 $5 $6 $7 $8 $9 X,Y pos of 4 corners*
0 Add a 4 corners polygon primitive as box body*
4,1,4,$2,$3,$4,$5,$6,$7,$8,$9,$2,$3,0*
0 Add four circle primitives for the rounded corners*
1,1,$1+$1,$2,$3*
1,1,$1+$1,$4,$5*
1,1,$1+$1,$6,$7*
1,1,$1+$1,$8,$9*
0 Add four rect primitives between the rounded corners*
20,1,$1+$1,$2,$3,$4,$5,0*
20,1,$1+$1,$4,$5,$6,$7,0*
20,1,$1+$1,$6,$7,$8,$9,0*
20,1,$1+$1,$8,$9,$2,$3,0*%
%AMRotRect*
0 Rectangle, with rotation*
0 The origin of the aperture is its center*
0 $1 length*
0 $2 width*
0 $3 Rotation angle, in degrees counterclockwise*
0 Add horizontal line*
21,1,$1,$2,0,0,$3*%
G04 Aperture macros list end*
G04 #@! TA.AperFunction,SMDPad,CuDef*
%ADD10RoundRect,0.140000X0.140000X0.170000X-0.140000X0.170000X-0.140000X-0.170000X0.140000X-0.170000X0*%
G04 #@! TD*
G04 #@! TA.AperFunction,SMDPad,CuDef*
%ADD11RotRect,0.400000X0.950000X315.000000*%
G04 #@! TD*
G04 #@! TA.AperFunction,SMDPad,CuDef*
%ADD12RotRect,1.300000X0.350000X315.000000*%
G04 #@! TD*
G04 #@! TA.AperFunction,SMDPad,CuDef*
%ADD13RotRect,0.350000X2.300000X315.000000*%
G04 #@! TD*
G04 #@! TA.AperFunction,SMDPad,CuDef*
%ADD14RotRect,0.400000X0.950000X22.500000*%
G04 #@! TD*
G04 #@! TA.AperFunction,SMDPad,CuDef*
%ADD15RotRect,1.300000X0.350000X22.500000*%
G04 #@! TD*
G04 #@! TA.AperFunction,SMDPad,CuDef*
%ADD16RotRect,0.350000X2.300000X22.500000*%
G04 #@! TD*
G04 #@! TA.AperFunction,SMDPad,CuDef*
%ADD17C,1.000000*%
G04 #@! TD*
G04 #@! TA.AperFunction,SMDPad,CuDef*
%ADD18RoundRect,0.150000X-0.512500X-0.150000X0.512500X-0.150000X0.512500X0.150000X-0.512500X0.150000X0*%
G04 #@! TD*
G04 #@! TA.AperFunction,SMDPad,CuDef*
%ADD19C,1.500000*%
G04 #@! TD*
G04 #@! TA.AperFunction,SMDPad,CuDef*
%ADD20RoundRect,0.135000X-0.135000X-0.185000X0.135000X-0.185000X0.135000X0.185000X-0.135000X0.185000X0*%
G04 #@! TD*
G04 #@! TA.AperFunction,SMDPad,CuDef*
%ADD21RotRect,0.400000X0.950000X225.000000*%
G04 #@! TD*
G04 #@! TA.AperFunction,SMDPad,CuDef*
%ADD22RotRect,1.300000X0.350000X225.000000*%
G04 #@! TD*
G04 #@! TA.AperFunction,SMDPad,CuDef*
%ADD23RotRect,0.350000X2.300000X225.000000*%
G04 #@! TD*
G04 #@! TA.AperFunction,SMDPad,CuDef*
%ADD24RoundRect,0.140000X-0.103484X0.194399X-0.210635X-0.064287X0.103484X-0.194399X0.210635X0.064287X0*%
G04 #@! TD*
G04 #@! TA.AperFunction,SMDPad,CuDef*
%ADD25RoundRect,0.140000X0.219203X0.021213X0.021213X0.219203X-0.219203X-0.021213X-0.021213X-0.219203X0*%
G04 #@! TD*
G04 #@! TA.AperFunction,SMDPad,CuDef*
%ADD26RoundRect,0.135000X0.185000X-0.135000X0.185000X0.135000X-0.185000X0.135000X-0.185000X-0.135000X0*%
G04 #@! TD*
G04 #@! TA.AperFunction,SMDPad,CuDef*
%ADD27RoundRect,0.250000X0.533841X0.056028X0.256056X0.471763X-0.533841X-0.056028X-0.256056X-0.471763X0*%
G04 #@! TD*
G04 #@! TA.AperFunction,SMDPad,CuDef*
%ADD28RoundRect,0.135000X0.226274X0.035355X0.035355X0.226274X-0.226274X-0.035355X-0.035355X-0.226274X0*%
G04 #@! TD*
G04 #@! TA.AperFunction,SMDPad,CuDef*
%ADD29RotRect,0.400000X0.950000X247.500000*%
G04 #@! TD*
G04 #@! TA.AperFunction,SMDPad,CuDef*
%ADD30RotRect,1.300000X0.350000X247.500000*%
G04 #@! TD*
G04 #@! TA.AperFunction,SMDPad,CuDef*
%ADD31RotRect,0.350000X2.300000X247.500000*%
G04 #@! TD*
G04 #@! TA.AperFunction,SMDPad,CuDef*
%ADD32RoundRect,0.140000X0.021213X-0.219203X0.219203X-0.021213X-0.021213X0.219203X-0.219203X0.021213X0*%
G04 #@! TD*
G04 #@! TA.AperFunction,SMDPad,CuDef*
%ADD33RotRect,0.400000X0.950000X157.500000*%
G04 #@! TD*
G04 #@! TA.AperFunction,SMDPad,CuDef*
%ADD34RotRect,1.300000X0.350000X157.500000*%
G04 #@! TD*
G04 #@! TA.AperFunction,SMDPad,CuDef*
%ADD35RotRect,0.350000X2.300000X157.500000*%
G04 #@! TD*
G04 #@! TA.AperFunction,SMDPad,CuDef*
%ADD36RoundRect,0.100000X-0.637500X-0.100000X0.637500X-0.100000X0.637500X0.100000X-0.637500X0.100000X0*%
G04 #@! TD*
G04 #@! TA.AperFunction,SMDPad,CuDef*
%ADD37RoundRect,0.250000X-0.533841X-0.056028X-0.256056X-0.471763X0.533841X0.056028X0.256056X0.471763X0*%
G04 #@! TD*
G04 #@! TA.AperFunction,SMDPad,CuDef*
%ADD38RoundRect,0.135000X-0.222580X0.053927X-0.119255X-0.195520X0.222580X-0.053927X0.119255X0.195520X0*%
G04 #@! TD*
G04 #@! TA.AperFunction,SMDPad,CuDef*
%ADD39RoundRect,0.135000X0.119255X-0.195520X0.222580X0.053927X-0.119255X0.195520X-0.222580X-0.053927X0*%
G04 #@! TD*
G04 #@! TA.AperFunction,SMDPad,CuDef*
%ADD40RoundRect,0.250000X-0.312500X-1.450000X0.312500X-1.450000X0.312500X1.450000X-0.312500X1.450000X0*%
G04 #@! TD*
G04 #@! TA.AperFunction,SMDPad,CuDef*
%ADD41RoundRect,0.135000X0.222580X-0.053927X0.119255X0.195520X-0.222580X0.053927X-0.119255X-0.195520X0*%
G04 #@! TD*
G04 #@! TA.AperFunction,SMDPad,CuDef*
%ADD42RoundRect,0.135000X0.195520X0.119255X-0.053927X0.222580X-0.195520X-0.119255X0.053927X-0.222580X0*%
G04 #@! TD*
G04 #@! TA.AperFunction,SMDPad,CuDef*
%ADD43RoundRect,0.135000X-0.195520X-0.119255X0.053927X-0.222580X0.195520X0.119255X-0.053927X0.222580X0*%
G04 #@! TD*
G04 #@! TA.AperFunction,SMDPad,CuDef*
%ADD44RoundRect,0.135000X0.053927X0.222580X-0.195520X0.119255X-0.053927X-0.222580X0.195520X-0.119255X0*%
G04 #@! TD*
G04 #@! TA.AperFunction,SMDPad,CuDef*
%ADD45RoundRect,0.250000X-0.056028X0.533841X-0.471763X0.256056X0.056028X-0.533841X0.471763X-0.256056X0*%
G04 #@! TD*
G04 #@! TA.AperFunction,SMDPad,CuDef*
%ADD46RoundRect,0.250000X1.000000X0.650000X-1.000000X0.650000X-1.000000X-0.650000X1.000000X-0.650000X0*%
G04 #@! TD*
G04 #@! TA.AperFunction,SMDPad,CuDef*
%ADD47RoundRect,0.140000X-0.210635X0.064287X-0.103484X-0.194399X0.210635X-0.064287X0.103484X0.194399X0*%
G04 #@! TD*
G04 #@! TA.AperFunction,SMDPad,CuDef*
%ADD48RoundRect,0.140000X-0.140000X-0.170000X0.140000X-0.170000X0.140000X0.170000X-0.140000X0.170000X0*%
G04 #@! TD*
G04 #@! TA.AperFunction,SMDPad,CuDef*
%ADD49R,0.400000X0.950000*%
G04 #@! TD*
G04 #@! TA.AperFunction,SMDPad,CuDef*
%ADD50R,1.300000X0.350000*%
G04 #@! TD*
G04 #@! TA.AperFunction,SMDPad,CuDef*
%ADD51R,0.350000X2.300000*%
G04 #@! TD*
G04 #@! TA.AperFunction,SMDPad,CuDef*
%ADD52RoundRect,0.225000X-0.225000X-0.250000X0.225000X-0.250000X0.225000X0.250000X-0.225000X0.250000X0*%
G04 #@! TD*
G04 #@! TA.AperFunction,SMDPad,CuDef*
%ADD53RoundRect,0.135000X-0.185000X0.135000X-0.185000X-0.135000X0.185000X-0.135000X0.185000X0.135000X0*%
G04 #@! TD*
G04 #@! TA.AperFunction,SMDPad,CuDef*
%ADD54R,0.950000X0.400000*%
G04 #@! TD*
G04 #@! TA.AperFunction,SMDPad,CuDef*
%ADD55R,0.350000X1.300000*%
G04 #@! TD*
G04 #@! TA.AperFunction,SMDPad,CuDef*
%ADD56R,2.300000X0.350000*%
G04 #@! TD*
G04 #@! TA.AperFunction,SMDPad,CuDef*
%ADD57RotRect,0.400000X0.950000X112.500000*%
G04 #@! TD*
G04 #@! TA.AperFunction,SMDPad,CuDef*
%ADD58RotRect,1.300000X0.350000X112.500000*%
G04 #@! TD*
G04 #@! TA.AperFunction,SMDPad,CuDef*
%ADD59RotRect,0.350000X2.300000X112.500000*%
G04 #@! TD*
G04 #@! TA.AperFunction,SMDPad,CuDef*
%ADD60RoundRect,0.135000X-0.119255X0.195520X-0.222580X-0.053927X0.119255X-0.195520X0.222580X0.053927X0*%
G04 #@! TD*
G04 #@! TA.AperFunction,SMDPad,CuDef*
%ADD61RotRect,0.400000X0.950000X337.500000*%
G04 #@! TD*
G04 #@! TA.AperFunction,SMDPad,CuDef*
%ADD62RotRect,1.300000X0.350000X337.500000*%
G04 #@! TD*
G04 #@! TA.AperFunction,SMDPad,CuDef*
%ADD63RotRect,0.350000X2.300000X337.500000*%
G04 #@! TD*
G04 #@! TA.AperFunction,SMDPad,CuDef*
%ADD64RoundRect,0.140000X0.103484X-0.194399X0.210635X0.064287X-0.103484X0.194399X-0.210635X-0.064287X0*%
G04 #@! TD*
G04 #@! TA.AperFunction,SMDPad,CuDef*
%ADD65RoundRect,0.135000X0.035355X-0.226274X0.226274X-0.035355X-0.035355X0.226274X-0.226274X0.035355X0*%
G04 #@! TD*
G04 #@! TA.AperFunction,SMDPad,CuDef*
%ADD66RoundRect,0.135000X-0.226274X-0.035355X-0.035355X-0.226274X0.226274X0.035355X0.035355X0.226274X0*%
G04 #@! TD*
G04 #@! TA.AperFunction,SMDPad,CuDef*
%ADD67RoundRect,0.218750X-0.218750X-0.381250X0.218750X-0.381250X0.218750X0.381250X-0.218750X0.381250X0*%
G04 #@! TD*
G04 #@! TA.AperFunction,SMDPad,CuDef*
%ADD68RotRect,0.400000X0.950000X202.500000*%
G04 #@! TD*
G04 #@! TA.AperFunction,SMDPad,CuDef*
%ADD69RotRect,1.300000X0.350000X202.500000*%
G04 #@! TD*
G04 #@! TA.AperFunction,SMDPad,CuDef*
%ADD70RotRect,0.350000X2.300000X202.500000*%
G04 #@! TD*
G04 #@! TA.AperFunction,SMDPad,CuDef*
%ADD71RoundRect,0.135000X-0.053927X-0.222580X0.195520X-0.119255X0.053927X0.222580X-0.195520X0.119255X0*%
G04 #@! TD*
G04 #@! TA.AperFunction,SMDPad,CuDef*
%ADD72RoundRect,0.140000X0.064287X0.210635X-0.194399X0.103484X-0.064287X-0.210635X0.194399X-0.103484X0*%
G04 #@! TD*
G04 #@! TA.AperFunction,SMDPad,CuDef*
%ADD73RoundRect,0.140000X-0.194399X-0.103484X0.064287X-0.210635X0.194399X0.103484X-0.064287X0.210635X0*%
G04 #@! TD*
G04 #@! TA.AperFunction,SMDPad,CuDef*
%ADD74RotRect,0.400000X0.950000X292.500000*%
G04 #@! TD*
G04 #@! TA.AperFunction,SMDPad,CuDef*
%ADD75RotRect,1.300000X0.350000X292.500000*%
G04 #@! TD*
G04 #@! TA.AperFunction,SMDPad,CuDef*
%ADD76RotRect,0.350000X2.300000X292.500000*%
G04 #@! TD*
G04 #@! TA.AperFunction,SMDPad,CuDef*
%ADD77RoundRect,0.250000X-0.250000X-0.475000X0.250000X-0.475000X0.250000X0.475000X-0.250000X0.475000X0*%
G04 #@! TD*
G04 #@! TA.AperFunction,SMDPad,CuDef*
%ADD78RoundRect,0.140000X0.170000X-0.140000X0.170000X0.140000X-0.170000X0.140000X-0.170000X-0.140000X0*%
G04 #@! TD*
G04 #@! TA.AperFunction,SMDPad,CuDef*
%ADD79RotRect,0.400000X0.950000X67.500000*%
G04 #@! TD*
G04 #@! TA.AperFunction,SMDPad,CuDef*
%ADD80RotRect,1.300000X0.350000X67.500000*%
G04 #@! TD*
G04 #@! TA.AperFunction,SMDPad,CuDef*
%ADD81RotRect,0.350000X2.300000X67.500000*%
G04 #@! TD*
G04 #@! TA.AperFunction,SMDPad,CuDef*
%ADD82RoundRect,0.135000X-0.035355X0.226274X-0.226274X0.035355X0.035355X-0.226274X0.226274X-0.035355X0*%
G04 #@! TD*
G04 #@! TA.AperFunction,SMDPad,CuDef*
%ADD83RoundRect,0.140000X-0.170000X0.140000X-0.170000X-0.140000X0.170000X-0.140000X0.170000X0.140000X0*%
G04 #@! TD*
G04 #@! TA.AperFunction,SMDPad,CuDef*
%ADD84RoundRect,0.135000X0.135000X0.185000X-0.135000X0.185000X-0.135000X-0.185000X0.135000X-0.185000X0*%
G04 #@! TD*
G04 #@! TA.AperFunction,SMDPad,CuDef*
%ADD85RoundRect,0.140000X-0.219203X-0.021213X-0.021213X-0.219203X0.219203X0.021213X0.021213X0.219203X0*%
G04 #@! TD*
G04 #@! TA.AperFunction,SMDPad,CuDef*
%ADD86RoundRect,0.140000X0.194399X0.103484X-0.064287X0.210635X-0.194399X-0.103484X0.064287X-0.210635X0*%
G04 #@! TD*
G04 #@! TA.AperFunction,SMDPad,CuDef*
%ADD87RoundRect,0.140000X-0.021213X0.219203X-0.219203X0.021213X0.021213X-0.219203X0.219203X-0.021213X0*%
G04 #@! TD*
G04 #@! TA.AperFunction,SMDPad,CuDef*
%ADD88RoundRect,0.140000X0.210635X-0.064287X0.103484X0.194399X-0.210635X0.064287X-0.103484X-0.194399X0*%
G04 #@! TD*
G04 #@! TA.AperFunction,SMDPad,CuDef*
%ADD89RotRect,0.400000X0.950000X45.000000*%
G04 #@! TD*
G04 #@! TA.AperFunction,SMDPad,CuDef*
%ADD90RotRect,1.300000X0.350000X45.000000*%
G04 #@! TD*
G04 #@! TA.AperFunction,SMDPad,CuDef*
%ADD91RotRect,0.350000X2.300000X45.000000*%
G04 #@! TD*
G04 #@! TA.AperFunction,SMDPad,CuDef*
%ADD92RotRect,0.400000X0.950000X135.000000*%
G04 #@! TD*
G04 #@! TA.AperFunction,SMDPad,CuDef*
%ADD93RotRect,1.300000X0.350000X135.000000*%
G04 #@! TD*
G04 #@! TA.AperFunction,SMDPad,CuDef*
%ADD94RotRect,0.350000X2.300000X135.000000*%
G04 #@! TD*
G04 #@! TA.AperFunction,SMDPad,CuDef*
%ADD95R,1.300000X1.200000*%
G04 #@! TD*
G04 #@! TA.AperFunction,SMDPad,CuDef*
%ADD96RoundRect,0.140000X-0.064287X-0.210635X0.194399X-0.103484X0.064287X0.210635X-0.194399X0.103484X0*%
G04 #@! TD*
G04 #@! TA.AperFunction,SMDPad,CuDef*
%ADD97RoundRect,0.250000X0.056028X-0.533841X0.471763X-0.256056X-0.056028X0.533841X-0.471763X0.256056X0*%
G04 #@! TD*
G04 #@! TA.AperFunction,ComponentPad*
%ADD98R,1.700000X1.700000*%
G04 #@! TD*
G04 #@! TA.AperFunction,ComponentPad*
%ADD99C,1.700000*%
G04 #@! TD*
G04 #@! TA.AperFunction,ViaPad*
%ADD100C,0.450000*%
G04 #@! TD*
G04 #@! TA.AperFunction,Conductor*
%ADD101C,0.150000*%
G04 #@! TD*
G04 #@! TA.AperFunction,Conductor*
%ADD102C,0.300000*%
G04 #@! TD*
G04 #@! TA.AperFunction,Conductor*
%ADD103C,0.250000*%
G04 #@! TD*
G04 #@! TA.AperFunction,Conductor*
%ADD104C,0.200000*%
G04 #@! TD*
G04 #@! TA.AperFunction,Conductor*
%ADD105C,0.600000*%
G04 #@! TD*
G04 #@! TA.AperFunction,Conductor*
%ADD106C,0.520000*%
G04 #@! TD*
G04 #@! TA.AperFunction,Conductor*
%ADD107C,0.280000*%
G04 #@! TD*
G04 #@! TA.AperFunction,Conductor*
%ADD108C,0.360000*%
G04 #@! TD*
G04 #@! TA.AperFunction,Conductor*
%ADD109C,0.440000*%
G04 #@! TD*
G04 #@! TA.AperFunction,Conductor*
%ADD110C,0.500000*%
G04 #@! TD*
G04 #@! TA.AperFunction,Conductor*
%ADD111C,0.400000*%
G04 #@! TD*
G04 APERTURE END LIST*
D10*
X199229763Y-152213713D03*
X198269763Y-152213713D03*
D11*
X187473123Y-113163272D03*
X188427717Y-112208678D03*
X187791321Y-111572282D03*
X186836727Y-112526876D03*
D12*
X186412463Y-113587536D03*
D13*
X188498428Y-113233983D03*
D12*
X188851981Y-111148018D03*
D13*
X186766016Y-111501571D03*
D14*
X130307644Y-101282542D03*
X129791021Y-100035305D03*
X128959530Y-100379720D03*
X129476153Y-101626957D03*
D15*
X130293716Y-102424823D03*
D16*
X130765339Y-100362344D03*
D15*
X128973458Y-99237439D03*
D16*
X128501835Y-101299918D03*
D17*
X152600000Y-169900000D03*
D18*
X151862500Y-166050000D03*
X151862500Y-167000000D03*
X151862500Y-167950000D03*
X154137500Y-167950000D03*
X154137500Y-166050000D03*
D19*
X189130000Y-133792000D03*
D20*
X157490000Y-153500000D03*
X158510000Y-153500000D03*
D21*
X186836727Y-187473123D03*
X187791321Y-188427717D03*
X188427717Y-187791321D03*
X187473123Y-186836727D03*
D22*
X186412463Y-186412463D03*
D23*
X186766016Y-188498428D03*
D22*
X188851981Y-188851981D03*
D23*
X188498428Y-186766016D03*
D24*
X170884619Y-105364780D03*
X170517243Y-106251704D03*
D25*
X183245367Y-186376031D03*
X182566545Y-185697209D03*
D26*
X141700000Y-172810000D03*
X141700000Y-171790000D03*
D27*
X125249346Y-112958028D03*
X124193762Y-111378236D03*
D26*
X155270368Y-101995432D03*
X155270368Y-100975432D03*
D28*
X182180429Y-182180429D03*
X181459181Y-181459181D03*
D20*
X198004567Y-155270368D03*
X199024567Y-155270368D03*
D19*
X120051000Y-120051000D03*
D29*
X198373042Y-170523846D03*
X199620279Y-171040469D03*
X199964694Y-170208978D03*
X198717457Y-169692355D03*
D30*
X197575176Y-169706283D03*
D31*
X198700081Y-171498164D03*
D30*
X200762560Y-171026541D03*
D31*
X199637655Y-169234660D03*
D32*
X113623968Y-183245367D03*
X114302790Y-182566545D03*
D33*
X129476153Y-198373042D03*
X128959530Y-199620279D03*
X129791021Y-199964694D03*
X130307644Y-198717457D03*
D34*
X130293716Y-197575176D03*
D35*
X128501835Y-198700081D03*
D34*
X128973458Y-200762560D03*
D35*
X130765339Y-199637655D03*
D20*
X137990000Y-153500000D03*
X139010000Y-153500000D03*
D36*
X147137500Y-150075000D03*
X147137500Y-150725000D03*
X147137500Y-151375000D03*
X147137500Y-152025000D03*
X147137500Y-152675000D03*
X147137500Y-153325000D03*
X147137500Y-153975000D03*
X147137500Y-154625000D03*
X147137500Y-155275000D03*
X147137500Y-155925000D03*
X152862500Y-155925000D03*
X152862500Y-155275000D03*
X152862500Y-154625000D03*
X152862500Y-153975000D03*
X152862500Y-153325000D03*
X152862500Y-152675000D03*
X152862500Y-152025000D03*
X152862500Y-151375000D03*
X152862500Y-150725000D03*
X152862500Y-150075000D03*
D37*
X174750653Y-187041971D03*
X175806237Y-188621763D03*
D26*
X152100000Y-172810000D03*
X152100000Y-171790000D03*
D38*
X163501366Y-196367319D03*
X163891704Y-197309677D03*
D20*
X157490000Y-148500000D03*
X158510000Y-148500000D03*
D19*
X150000000Y-107646000D03*
D39*
X132584076Y-192045757D03*
X132974414Y-191103399D03*
D40*
X126862500Y-167000000D03*
X131137500Y-167000000D03*
D41*
X136498633Y-103632680D03*
X136108295Y-102690322D03*
D42*
X192045757Y-167415923D03*
X191103399Y-167025585D03*
D43*
X192333553Y-173239737D03*
X193275911Y-173630075D03*
D44*
X192045757Y-132584076D03*
X191103399Y-132974414D03*
D45*
X112958028Y-174750653D03*
X111378236Y-175806237D03*
D46*
X138500000Y-167000000D03*
X134500000Y-167000000D03*
D26*
X150000000Y-195510000D03*
X150000000Y-194490000D03*
D47*
X133205789Y-103670477D03*
X133573165Y-104557401D03*
D48*
X142520000Y-146800000D03*
X143480000Y-146800000D03*
D20*
X157490000Y-151000000D03*
X158510000Y-151000000D03*
D49*
X150450000Y-97455000D03*
X150450000Y-96105000D03*
X149550000Y-96105000D03*
X149550000Y-97455000D03*
D50*
X150000000Y-98505000D03*
D51*
X151225000Y-96780000D03*
D50*
X150000000Y-95055000D03*
D51*
X148775000Y-96780000D03*
D52*
X165725000Y-167000000D03*
X167275000Y-167000000D03*
D26*
X139100000Y-172810000D03*
X139100000Y-171790000D03*
D52*
X147725000Y-167000000D03*
X149275000Y-167000000D03*
D48*
X149520000Y-159200000D03*
X150480000Y-159200000D03*
D53*
X150000000Y-104490000D03*
X150000000Y-105510000D03*
D20*
X141990000Y-151000000D03*
X143010000Y-151000000D03*
D54*
X202545000Y-150450000D03*
X203895000Y-150450000D03*
X203895000Y-149550000D03*
X202545000Y-149550000D03*
D55*
X201495000Y-150000000D03*
D56*
X203220000Y-151225000D03*
D55*
X204945000Y-150000000D03*
D56*
X203220000Y-148775000D03*
D44*
X103632680Y-163501366D03*
X102690322Y-163891704D03*
D57*
X101282542Y-169692355D03*
X100035305Y-170208978D03*
X100379720Y-171040469D03*
X101626957Y-170523846D03*
D58*
X102424823Y-169706283D03*
D59*
X100362344Y-169234660D03*
D58*
X99237439Y-171026541D03*
D59*
X101299918Y-171498164D03*
D20*
X137990000Y-146000000D03*
X139010000Y-146000000D03*
D60*
X167415923Y-107954242D03*
X167025585Y-108896600D03*
D61*
X170523846Y-101626957D03*
X171040469Y-100379720D03*
X170208978Y-100035305D03*
X169692355Y-101282542D03*
D62*
X169706283Y-102424823D03*
D63*
X171498164Y-101299918D03*
D62*
X171026541Y-99237439D03*
D63*
X169234660Y-100362344D03*
D64*
X129115380Y-194635219D03*
X129482756Y-193748295D03*
D19*
X154000000Y-126000000D03*
D52*
X156725000Y-167000000D03*
X158275000Y-167000000D03*
D19*
X120051000Y-179949000D03*
D20*
X147490000Y-143000000D03*
X148510000Y-143000000D03*
D65*
X187671068Y-119782358D03*
X188392316Y-119061110D03*
D19*
X157000000Y-128000000D03*
X166208000Y-189130000D03*
D66*
X180217641Y-187671068D03*
X180938889Y-188392316D03*
D20*
X137990000Y-148500000D03*
X139010000Y-148500000D03*
D49*
X149550000Y-202545000D03*
X149550000Y-203895000D03*
X150450000Y-203895000D03*
X150450000Y-202545000D03*
D50*
X150000000Y-201495000D03*
D51*
X148775000Y-203220000D03*
D50*
X150000000Y-204945000D03*
D51*
X151225000Y-203220000D03*
D43*
X107954242Y-132584076D03*
X108896600Y-132974414D03*
D52*
X153425000Y-159200000D03*
X154975000Y-159200000D03*
D19*
X179949000Y-179949000D03*
D67*
X161437500Y-167000000D03*
X163562500Y-167000000D03*
D60*
X126760262Y-192333553D03*
X126369924Y-193275911D03*
D26*
X144300000Y-172810000D03*
X144300000Y-171790000D03*
D19*
X166877000Y-164723000D03*
D68*
X169692355Y-198717457D03*
X170208978Y-199964694D03*
X171040469Y-199620279D03*
X170523846Y-198373042D03*
D69*
X169706283Y-197575176D03*
D70*
X169234660Y-199637655D03*
D69*
X171026541Y-200762560D03*
D70*
X171498164Y-198700081D03*
D19*
X110870000Y-166208000D03*
D20*
X104490000Y-150000000D03*
X105510000Y-150000000D03*
D71*
X196367319Y-136498633D03*
X197309677Y-136108295D03*
D54*
X97455000Y-149550000D03*
X96105000Y-149550000D03*
X96105000Y-150450000D03*
X97455000Y-150450000D03*
D55*
X98505000Y-150000000D03*
D56*
X96780000Y-148775000D03*
D55*
X95055000Y-150000000D03*
D56*
X96780000Y-151225000D03*
D72*
X196329522Y-133205789D03*
X195442598Y-133573165D03*
D73*
X105364780Y-129115380D03*
X106251704Y-129482756D03*
D74*
X198717457Y-130307644D03*
X199964694Y-129791021D03*
X199620279Y-128959530D03*
X198373042Y-129476153D03*
D75*
X197575176Y-130293716D03*
D76*
X199637655Y-130765339D03*
D75*
X200762560Y-128973458D03*
D76*
X198700081Y-128501835D03*
D28*
X119782358Y-112328931D03*
X119061110Y-111607683D03*
D53*
X144729631Y-198004567D03*
X144729631Y-199024567D03*
D77*
X142550000Y-167000000D03*
X144450000Y-167000000D03*
D78*
X147786286Y-199229763D03*
X147786286Y-198269763D03*
D19*
X179949000Y-120051000D03*
D38*
X132584076Y-107954242D03*
X132974414Y-108896600D03*
D48*
X100770236Y-147786286D03*
X101730236Y-147786286D03*
D71*
X107954242Y-167415923D03*
X108896600Y-167025585D03*
D79*
X101626957Y-129476153D03*
X100379720Y-128959530D03*
X100035305Y-129791021D03*
X101282542Y-130307644D03*
D80*
X102424823Y-130293716D03*
D81*
X101299918Y-128501835D03*
D80*
X99237439Y-128973458D03*
D81*
X100362344Y-130765339D03*
D82*
X112328931Y-180217641D03*
X111607683Y-180938889D03*
D83*
X152213713Y-100770236D03*
X152213713Y-101730236D03*
D84*
X195510000Y-150000000D03*
X194490000Y-150000000D03*
D66*
X117819570Y-117819570D03*
X118540818Y-118540818D03*
D26*
X136500000Y-172810000D03*
X136500000Y-171790000D03*
D85*
X116754632Y-113623968D03*
X117433454Y-114302790D03*
D77*
X156550000Y-169800000D03*
X158450000Y-169800000D03*
D86*
X194635219Y-170884619D03*
X193748295Y-170517243D03*
D18*
X147862500Y-174850000D03*
X147862500Y-175800000D03*
X147862500Y-176750000D03*
X150137500Y-176750000D03*
X150137500Y-175800000D03*
X150137500Y-174850000D03*
D26*
X149500000Y-172810000D03*
X149500000Y-171790000D03*
D87*
X186376031Y-116754632D03*
X185697209Y-117433454D03*
D39*
X173239737Y-107666446D03*
X173630075Y-106724088D03*
D65*
X117819570Y-182180429D03*
X118540818Y-181459181D03*
D88*
X166794210Y-196329522D03*
X166426834Y-195442598D03*
D26*
X154700000Y-172810000D03*
X154700000Y-171790000D03*
D89*
X113163272Y-112526876D03*
X112208678Y-111572282D03*
X111572282Y-112208678D03*
X112526876Y-113163272D03*
D90*
X113587536Y-113587536D03*
D91*
X113233983Y-111501571D03*
D90*
X111148018Y-111148018D03*
D91*
X111501571Y-113233983D03*
D92*
X112526876Y-186836727D03*
X111572282Y-187791321D03*
X112208678Y-188427717D03*
X113163272Y-187473123D03*
D93*
X113587536Y-186412463D03*
D94*
X111501571Y-186766016D03*
D93*
X111148018Y-188851981D03*
D94*
X113233983Y-188498428D03*
D95*
X141950000Y-143950000D03*
X144050000Y-143950000D03*
X144050000Y-142050000D03*
X141950000Y-142050000D03*
D96*
X103670477Y-166794210D03*
X104557401Y-166426834D03*
D20*
X157490000Y-146000000D03*
X158510000Y-146000000D03*
D26*
X146900000Y-172810000D03*
X146900000Y-171790000D03*
D18*
X139362500Y-174850000D03*
X139362500Y-175800000D03*
X139362500Y-176750000D03*
X141637500Y-176750000D03*
X141637500Y-175800000D03*
X141637500Y-174850000D03*
D17*
X146860000Y-164602000D03*
D42*
X107666446Y-126760262D03*
X106724088Y-126369924D03*
D48*
X143020000Y-169800000D03*
X143980000Y-169800000D03*
D82*
X182180429Y-117819570D03*
X181459181Y-118540818D03*
D97*
X187041971Y-125249346D03*
X188621763Y-124193762D03*
D41*
X167415923Y-192045757D03*
X167025585Y-191103399D03*
D19*
X174145000Y-130830999D03*
D20*
X137990000Y-151000000D03*
X139010000Y-151000000D03*
D84*
X101995432Y-144729631D03*
X100975432Y-144729631D03*
D98*
X165240000Y-179190000D03*
D99*
X165240000Y-181730000D03*
X162700000Y-179190000D03*
X162700000Y-181730000D03*
X160160000Y-179190000D03*
X160160000Y-181730000D03*
X157620000Y-179190000D03*
X157620000Y-181730000D03*
X155080000Y-179190000D03*
X155080000Y-181730000D03*
X152540000Y-179190000D03*
X152540000Y-181730000D03*
X150000000Y-179190000D03*
X150000000Y-181730000D03*
X147460000Y-179190000D03*
X147460000Y-181730000D03*
X144920000Y-179190000D03*
X144920000Y-181730000D03*
X142380000Y-179190000D03*
X142380000Y-181730000D03*
X139840000Y-179190000D03*
X139840000Y-181730000D03*
X137300000Y-179190000D03*
X137300000Y-181730000D03*
X134760000Y-179190000D03*
X134760000Y-181730000D03*
D98*
X189210000Y-138570000D03*
D99*
X186670000Y-138570000D03*
X184130000Y-138570000D03*
X181590000Y-138570000D03*
X179050000Y-138570000D03*
X176510000Y-138570000D03*
X173970000Y-138570000D03*
X171430000Y-138570000D03*
X168890000Y-138570000D03*
X166350000Y-138570000D03*
X163810000Y-138570000D03*
X161270000Y-138570000D03*
X158730000Y-138570000D03*
X156190000Y-138570000D03*
X153650000Y-138570000D03*
X151110000Y-138570000D03*
X148570000Y-138570000D03*
X146030000Y-138570000D03*
X143490000Y-138570000D03*
X140950000Y-138570000D03*
X138410000Y-138570000D03*
X135870000Y-138570000D03*
X133330000Y-138570000D03*
X130790000Y-138570000D03*
D98*
X189210000Y-161430000D03*
D99*
X186670000Y-161430000D03*
X184130000Y-161430000D03*
X181590000Y-161430000D03*
X179050000Y-161430000D03*
X176510000Y-161430000D03*
X173970000Y-161430000D03*
X171430000Y-161430000D03*
X168890000Y-161430000D03*
X166350000Y-161430000D03*
X163810000Y-161430000D03*
X161270000Y-161430000D03*
X158730000Y-161430000D03*
X156190000Y-161430000D03*
X153650000Y-161430000D03*
X151110000Y-161430000D03*
X148570000Y-161430000D03*
X146030000Y-161430000D03*
X143490000Y-161430000D03*
X140950000Y-161430000D03*
X138410000Y-161430000D03*
X135870000Y-161430000D03*
X133330000Y-161430000D03*
X130790000Y-161430000D03*
D100*
X110352523Y-110352523D03*
X145625000Y-150075000D03*
X201801924Y-171457059D03*
X150000000Y-200370000D03*
X150000000Y-93930000D03*
X185172323Y-112161699D03*
X166069880Y-194455134D03*
X98198075Y-171457059D03*
X147950000Y-203220000D03*
X110918208Y-186182653D03*
X98198075Y-128542940D03*
X153312500Y-167000000D03*
X198384367Y-172260364D03*
X131985098Y-198417895D03*
X112161699Y-114827675D03*
X159899999Y-169800000D03*
X98373692Y-151885128D03*
X93930000Y-150000000D03*
X168014900Y-101582103D03*
X129928593Y-192797648D03*
X128501835Y-103024918D03*
X206070000Y-150000000D03*
X189647476Y-110352523D03*
X103464187Y-130724234D03*
X170071405Y-107202350D03*
X189647476Y-189647476D03*
X186182653Y-189081790D03*
X103464187Y-169275765D03*
X167275000Y-168450000D03*
X197220865Y-152165609D03*
X107202350Y-129928593D03*
X169275765Y-103464187D03*
X145625000Y-155925000D03*
X200370000Y-150000000D03*
X131527539Y-100046630D03*
X157000000Y-129525000D03*
X144535000Y-146800000D03*
X181858876Y-184921511D03*
X151885128Y-201626307D03*
X101582103Y-131985098D03*
X101615631Y-127739634D03*
X189541565Y-122817180D03*
X158275000Y-168450000D03*
X152049999Y-96780000D03*
X147834389Y-197220865D03*
X128542940Y-98198075D03*
X148114871Y-98373692D03*
X171457059Y-201801924D03*
X114383031Y-114383031D03*
X103024918Y-171498164D03*
X171498164Y-196975081D03*
X203220000Y-152049999D03*
X152165609Y-102779133D03*
X185616968Y-185616968D03*
X151535000Y-159200000D03*
X105544864Y-166069880D03*
X138062500Y-175800000D03*
X171457059Y-98198075D03*
X154375000Y-150725000D03*
X128542940Y-201801924D03*
X115078487Y-181858876D03*
X114827675Y-187838299D03*
X201626307Y-148114871D03*
X144450000Y-168450000D03*
X133930118Y-105544864D03*
X156200000Y-159200000D03*
X96780000Y-147950000D03*
X172260364Y-101615631D03*
X177131203Y-189507077D03*
X130724234Y-196535812D03*
X146562500Y-175800000D03*
X196535812Y-130724234D03*
X187838299Y-185172323D03*
X150000000Y-99630000D03*
X194455134Y-133930118D03*
X201801924Y-128542940D03*
X99630000Y-150000000D03*
X110352523Y-189647476D03*
X114383031Y-185616968D03*
X185616968Y-114383031D03*
X184921511Y-118141122D03*
X102779133Y-147834389D03*
X199953368Y-131527539D03*
X110458433Y-177182818D03*
X198417895Y-168014900D03*
X145425000Y-143950000D03*
X149275000Y-168450000D03*
X196535812Y-169275765D03*
X168472459Y-199953368D03*
X196975081Y-128501835D03*
X169275765Y-196535812D03*
X113817345Y-110918208D03*
X154000000Y-127525000D03*
X130724234Y-103464187D03*
X145429999Y-169800000D03*
X127739634Y-198384367D03*
X100046630Y-168472459D03*
X192797648Y-170071405D03*
X118141122Y-115078487D03*
X189081790Y-113817345D03*
X122868795Y-110492921D03*
X150000000Y-206070000D03*
X153800000Y-170300000D03*
X155900000Y-165400000D03*
X153100000Y-171700000D03*
X137894539Y-108426597D03*
X193041375Y-154725464D03*
X172700000Y-150300000D03*
X161800000Y-169300000D03*
X113997365Y-174056190D03*
X145274534Y-193041375D03*
X175100000Y-140900000D03*
X172700000Y-151700000D03*
X183776256Y-122906559D03*
X187956688Y-170836981D03*
X170836981Y-112043311D03*
X162105460Y-191573402D03*
X175100000Y-139600000D03*
X163100000Y-170200000D03*
X186002634Y-125943808D03*
X174056190Y-186002634D03*
X168200000Y-176500000D03*
X108426596Y-162105459D03*
X129163017Y-187956688D03*
X116223742Y-177093439D03*
X169800000Y-176500000D03*
X154725464Y-106958624D03*
X112043311Y-129163018D03*
X125943809Y-113997365D03*
X122906560Y-116223743D03*
X177093439Y-183776256D03*
X191573402Y-137894539D03*
X106958624Y-145274534D03*
X187786672Y-134348247D03*
X191500000Y-150000000D03*
X143700000Y-174600000D03*
X146200000Y-180100000D03*
X143300000Y-171700000D03*
X188341000Y-165881362D03*
X178920667Y-178920667D03*
X121079332Y-121079332D03*
X111658999Y-134118637D03*
X144400000Y-150100000D03*
X139800000Y-147800000D03*
X139800000Y-150200000D03*
X143700000Y-150200000D03*
X155100000Y-155900000D03*
X151300000Y-149000000D03*
X155100000Y-150400000D03*
X141300000Y-145800000D03*
X140600000Y-144200000D03*
X153800000Y-183200000D03*
X146300000Y-183100000D03*
X152300000Y-176100000D03*
X150000000Y-109100000D03*
X134118637Y-111658999D03*
X121079332Y-178920666D03*
X134118637Y-188341000D03*
X165651752Y-187786672D03*
X150000000Y-191500000D03*
X137100000Y-174800000D03*
X135900000Y-176000000D03*
X137800000Y-170300000D03*
X137800000Y-171700000D03*
X178920666Y-121079332D03*
X165881361Y-111658999D03*
X143000000Y-177200000D03*
X142700000Y-172300000D03*
X112213326Y-165651751D03*
X108500000Y-150000000D03*
X137800000Y-168600000D03*
X141800000Y-168300000D03*
X135500000Y-171700000D03*
X146100000Y-175100000D03*
X146200000Y-173600000D03*
X153700000Y-176500000D03*
X139800000Y-183600000D03*
X143000000Y-175500000D03*
X139000000Y-163000000D03*
X132700000Y-162900000D03*
X151100000Y-171700000D03*
X161900000Y-171700000D03*
X161900000Y-170300000D03*
X147900000Y-171700000D03*
D101*
X199230000Y-151790000D02*
X199230000Y-152210000D01*
X201520000Y-151200000D02*
X199820000Y-151200000D01*
X199230000Y-152210000D02*
X199020000Y-152420000D01*
X202545000Y-150450000D02*
X202270000Y-150450000D01*
X201870000Y-150850000D02*
X201520000Y-151200000D01*
X199020000Y-152420000D02*
X199020000Y-155270000D01*
X199820000Y-151200000D02*
X199230000Y-151790000D01*
X202270000Y-150450000D02*
X201870000Y-150850000D01*
D102*
X188621763Y-124193762D02*
X189541565Y-122817180D01*
X195442598Y-133573165D02*
X194455134Y-133930118D01*
X147786286Y-198269763D02*
X147834389Y-197220865D01*
X130765339Y-100362344D02*
X131527539Y-100046630D01*
X139362500Y-175800000D02*
X138062500Y-175800000D01*
X167275000Y-167000000D02*
X167275000Y-168450000D01*
X169234660Y-199637655D02*
X168472459Y-199953368D01*
X171498164Y-198700081D02*
X171498164Y-196975081D01*
X198269763Y-152213713D02*
X197220865Y-152165609D01*
D101*
X203895000Y-150450000D02*
X203220000Y-151225000D01*
D102*
X186412463Y-186412463D02*
X185616968Y-185616968D01*
X144450000Y-167000000D02*
X144450000Y-168450000D01*
X114302790Y-182566545D02*
X115078487Y-181858876D01*
X188498428Y-186766016D02*
X187838299Y-185172323D01*
X199637655Y-169234660D02*
X198417895Y-168014900D01*
X151862500Y-167000000D02*
X153312500Y-167000000D01*
D101*
X187791321Y-188427717D02*
X186766016Y-188498428D01*
D102*
X129482756Y-193748295D02*
X129928593Y-192797648D01*
X200762560Y-128973458D02*
X201801924Y-128542940D01*
X128973458Y-200762560D02*
X128542940Y-201801924D01*
X148775000Y-203220000D02*
X147950000Y-203220000D01*
X166426834Y-195442598D02*
X166069880Y-194455134D01*
X102424823Y-169706283D02*
X103464187Y-169275765D01*
X130765339Y-199637655D02*
X131985098Y-198417895D01*
X111378236Y-175806237D02*
X110458433Y-177182818D01*
X149275000Y-167000000D02*
X149275000Y-168450000D01*
X186766016Y-111501571D02*
X185172323Y-112161699D01*
X150000000Y-98505000D02*
X150000000Y-99630000D01*
X111501571Y-113233983D02*
X112161699Y-114827675D01*
X171026541Y-99237439D02*
X171457059Y-98198075D01*
X144050000Y-143950000D02*
X145425000Y-143950000D01*
X113233983Y-188498428D02*
X114827675Y-187838299D01*
X198700081Y-171498164D02*
X198384367Y-172260364D01*
X143980000Y-169800000D02*
X145429999Y-169800000D01*
X186412463Y-113587536D02*
X185616968Y-114383031D01*
X186766016Y-188498428D02*
X186182653Y-189081790D01*
X95055000Y-150000000D02*
X93930000Y-150000000D01*
D101*
X149550000Y-203895000D02*
X148775000Y-203220000D01*
D102*
X124193762Y-111378236D02*
X122868795Y-110492921D01*
X130293716Y-102424823D02*
X130724234Y-103464187D01*
X188851981Y-188851981D02*
X189647476Y-189647476D01*
X201495000Y-150000000D02*
X200370000Y-150000000D01*
D101*
X96105000Y-149550000D02*
X96780000Y-148775000D01*
D102*
X101730236Y-147786286D02*
X102779133Y-147834389D01*
X113587536Y-113587536D02*
X114383031Y-114383031D01*
X96780000Y-151225000D02*
X98373692Y-151885128D01*
X158275000Y-167000000D02*
X158275000Y-168450000D01*
X106251704Y-129482756D02*
X107202350Y-129928593D01*
X188498428Y-113233983D02*
X189081790Y-113817345D01*
X117433454Y-114302790D02*
X118141122Y-115078487D01*
X171026541Y-200762560D02*
X171457059Y-201801924D01*
X203220000Y-151225000D02*
X203220000Y-152049999D01*
X111148018Y-188851981D02*
X110352523Y-189647476D01*
X147137500Y-150075000D02*
X145625000Y-150075000D01*
X143480000Y-146800000D02*
X144535000Y-146800000D01*
X185697209Y-117433454D02*
X184921511Y-118141122D01*
X100362344Y-130765339D02*
X101582103Y-131985098D01*
X147862500Y-175800000D02*
X146562500Y-175800000D01*
X133573165Y-104557401D02*
X133930118Y-105544864D01*
X193748295Y-170517243D02*
X192797648Y-170071405D01*
X171498164Y-101299918D02*
X172260364Y-101615631D01*
X169706283Y-197575176D02*
X169275765Y-196535812D01*
X128501835Y-198700081D02*
X127739634Y-198384367D01*
D101*
X111572282Y-187791321D02*
X111501571Y-186766016D01*
D102*
X128973458Y-99237439D02*
X128542940Y-98198075D01*
X175806237Y-188621763D02*
X177131203Y-189507077D01*
X96780000Y-148775000D02*
X96780000Y-147950000D01*
X154975000Y-159200000D02*
X156200000Y-159200000D01*
X169234660Y-100362344D02*
X168014900Y-101582103D01*
X99237439Y-171026541D02*
X98198075Y-171457059D01*
X104557401Y-166426834D02*
X105544864Y-166069880D01*
X197575176Y-130293716D02*
X196535812Y-130724234D01*
X111501571Y-186766016D02*
X110918208Y-186182653D01*
D101*
X150450000Y-96105000D02*
X151225000Y-96780000D01*
D102*
X150000000Y-204945000D02*
X150000000Y-206070000D01*
X170517243Y-106251704D02*
X170071405Y-107202350D01*
X151225000Y-203220000D02*
X151885128Y-201626307D01*
X147137500Y-155925000D02*
X145625000Y-155925000D01*
X101299918Y-128501835D02*
X101615631Y-127739634D01*
X150000000Y-95055000D02*
X150000000Y-93930000D01*
X130293716Y-197575176D02*
X130724234Y-196535812D01*
X152213713Y-101730236D02*
X152165609Y-102779133D01*
X188851981Y-111148018D02*
X189647476Y-110352523D01*
X113233983Y-111501571D02*
X113817345Y-110918208D01*
X151225000Y-96780000D02*
X152049999Y-96780000D01*
X199637655Y-130765339D02*
X199953368Y-131527539D01*
X148775000Y-96780000D02*
X148114871Y-98373692D01*
X200762560Y-171026541D02*
X201801924Y-171457059D01*
X157000000Y-128000000D02*
X157000000Y-129525000D01*
X150480000Y-159200000D02*
X151535000Y-159200000D01*
X99237439Y-128973458D02*
X98198075Y-128542940D01*
X98505000Y-150000000D02*
X99630000Y-150000000D01*
X197575176Y-169706283D02*
X196535812Y-169275765D01*
X203220000Y-148775000D02*
X201626307Y-148114871D01*
X204945000Y-150000000D02*
X206070000Y-150000000D01*
D101*
X112208678Y-111572282D02*
X113233983Y-111501571D01*
X188427717Y-112208678D02*
X188498428Y-113233983D01*
D102*
X154000000Y-126000000D02*
X154000000Y-127525000D01*
X113587536Y-186412463D02*
X114383031Y-185616968D01*
X102424823Y-130293716D02*
X103464187Y-130724234D01*
X100362344Y-169234660D02*
X100046630Y-168472459D01*
X101299918Y-171498164D02*
X103024918Y-171498164D01*
X182566545Y-185697209D02*
X181858876Y-184921511D01*
X150000000Y-201495000D02*
X150000000Y-200370000D01*
X111148018Y-111148018D02*
X110352523Y-110352523D01*
X198700081Y-128501835D02*
X196975081Y-128501835D01*
X152862500Y-150725000D02*
X154375000Y-150725000D01*
X169706283Y-102424823D02*
X169275765Y-103464187D01*
X128501835Y-101299918D02*
X128501835Y-103024918D01*
X158450000Y-169800000D02*
X159899999Y-169800000D01*
D101*
X187278669Y-114418386D02*
X186076588Y-115620468D01*
X187278669Y-113357726D02*
X187278669Y-113923411D01*
X186373572Y-116751839D02*
X186373572Y-117048823D01*
X187473123Y-113163272D02*
X187278669Y-113357726D01*
X186373572Y-117048823D02*
X188388826Y-119064078D01*
X186076588Y-116454854D02*
X186373572Y-116751839D01*
X186076588Y-115620468D02*
X186076588Y-116454854D01*
X187278669Y-113923411D02*
X187278669Y-114418386D01*
D103*
X159772651Y-115871635D02*
X162151621Y-118250605D01*
D101*
X169030633Y-98437767D02*
X168638664Y-98600126D01*
D103*
X165292715Y-116583868D02*
X161983829Y-116583868D01*
X172422379Y-123713532D02*
X173859414Y-123713532D01*
X160000000Y-144510000D02*
X160000000Y-140770000D01*
X159772651Y-136142651D02*
X159772651Y-115871635D01*
D101*
X187985775Y-110317168D02*
X187314024Y-109645416D01*
X187314024Y-109645416D02*
X186889760Y-109645416D01*
D103*
X168272726Y-119563879D02*
X172422379Y-123713532D01*
D101*
X187791321Y-111572282D02*
X187985775Y-111377828D01*
X170314216Y-99781238D02*
X170097738Y-99258613D01*
D103*
X164612965Y-119563879D02*
X168272726Y-119563879D01*
X160000000Y-140770000D02*
X160000000Y-136370000D01*
X162151621Y-122025223D02*
X164612965Y-119563879D01*
D101*
X170208978Y-100035305D02*
X170314216Y-99781238D01*
D103*
X173859414Y-123713532D02*
X184061333Y-112473843D01*
X162151621Y-118250605D02*
X162151621Y-122025223D01*
D101*
X187985775Y-111377828D02*
X187985775Y-110812143D01*
D103*
X161983829Y-116583868D02*
X167107931Y-102295643D01*
D101*
X187985775Y-110812143D02*
X187985775Y-110317168D01*
X169908319Y-98801316D02*
X169030633Y-98437767D01*
X186889760Y-109645416D02*
X184061333Y-112473843D01*
D103*
X168272726Y-119563879D02*
X165292715Y-116583868D01*
X158510000Y-146000000D02*
X160000000Y-144510000D01*
X160000000Y-136370000D02*
X159772651Y-136142651D01*
D101*
X170097738Y-99258613D02*
X169908319Y-98801316D01*
X168638664Y-98600126D02*
X167107931Y-102295643D01*
X186836727Y-112526876D02*
X186642273Y-112721330D01*
X186076588Y-112721330D02*
X185581613Y-112721330D01*
X185581613Y-112721330D02*
X184379531Y-113923411D01*
X184379531Y-113923411D02*
X184379531Y-115620468D01*
X186642273Y-112721330D02*
X186076588Y-112721330D01*
X184379531Y-115620468D02*
X182180429Y-117819570D01*
X133202267Y-103671679D02*
X133476645Y-103785331D01*
X133476645Y-103785331D02*
X136109702Y-102694683D01*
X130412882Y-101536609D02*
X130935507Y-101753087D01*
X132043366Y-103513101D02*
X132814238Y-103832406D01*
X130935507Y-101753087D02*
X131392804Y-101942506D01*
X129791021Y-100035305D02*
X130307644Y-101282542D01*
X131392804Y-101942506D02*
X132043366Y-103513101D01*
X130307644Y-101282542D02*
X130412882Y-101536609D01*
X132814238Y-103832406D02*
X133202267Y-103671679D01*
D103*
X141641458Y-116527850D02*
X142628970Y-115540338D01*
X139367629Y-118801679D02*
X135271973Y-118801679D01*
D101*
X149150000Y-95430000D02*
X148800000Y-95080000D01*
D103*
X142628970Y-115540338D02*
X148332157Y-115540338D01*
X139178181Y-122556635D02*
X141641458Y-120093358D01*
D101*
X126996685Y-100083306D02*
X126834326Y-100475275D01*
D103*
X133263039Y-119831736D02*
X135987938Y-122556635D01*
X148332157Y-115540338D02*
X147550000Y-99380000D01*
D101*
X147550000Y-95380000D02*
X147550000Y-99380000D01*
D103*
X132060000Y-136370000D02*
X133263039Y-135166961D01*
X132060000Y-140770000D02*
X132060000Y-136370000D01*
X141641458Y-120093358D02*
X141641458Y-116527850D01*
D101*
X128959530Y-100379720D02*
X128854292Y-100125653D01*
X149550000Y-95830000D02*
X149150000Y-95430000D01*
X128854292Y-100125653D02*
X128331667Y-99909175D01*
D103*
X139010000Y-146000000D02*
X133780000Y-140770000D01*
X141641458Y-116527850D02*
X139367629Y-118801679D01*
X133263039Y-135166961D02*
X133263039Y-119831736D01*
D101*
X127874370Y-99719756D02*
X126996685Y-100083306D01*
D103*
X133780000Y-140770000D02*
X132060000Y-140770000D01*
X135987938Y-122556635D02*
X139178181Y-122556635D01*
D101*
X128331667Y-99909175D02*
X127874370Y-99719756D01*
X149550000Y-96105000D02*
X149550000Y-95830000D01*
D103*
X135271973Y-118801679D02*
X128365060Y-104170792D01*
D101*
X126834326Y-100475275D02*
X128365060Y-104170792D01*
X148800000Y-95080000D02*
X147850000Y-95080000D01*
X147850000Y-95080000D02*
X147550000Y-95380000D01*
X129364913Y-102403649D02*
X129175494Y-102860946D01*
X129476153Y-101626957D02*
X129581391Y-101881024D01*
X129826055Y-104431541D02*
X131393930Y-105080976D01*
X129175494Y-102860946D02*
X129826055Y-104431541D01*
X131393930Y-105080976D02*
X132584076Y-107954242D01*
X129581391Y-101881024D02*
X129364913Y-102403649D01*
D104*
X153800000Y-168700000D02*
X154800000Y-168700000D01*
X152600000Y-169900000D02*
X153800000Y-168700000D01*
X153000000Y-171800000D02*
X152100000Y-171800000D01*
X154800000Y-168700000D02*
X154900000Y-168600000D01*
X154900000Y-168600000D02*
X155000000Y-168600000D01*
X155900000Y-167700000D02*
X155900000Y-167500000D01*
X153100000Y-171700000D02*
X153000000Y-171800000D01*
X155800000Y-165500000D02*
X155900000Y-165400000D01*
X155900000Y-167500000D02*
X155800000Y-167400000D01*
X153000000Y-169500000D02*
X153800000Y-170300000D01*
X155000000Y-168600000D02*
X155900000Y-167700000D01*
X155800000Y-167400000D02*
X155800000Y-165500000D01*
D105*
X140900000Y-164600000D02*
X142550000Y-164600000D01*
D104*
X150300000Y-166050000D02*
X150300000Y-167950000D01*
D105*
X151862500Y-164602500D02*
X151862500Y-166050000D01*
X147720000Y-164600000D02*
X146420000Y-163300000D01*
X142550000Y-164600000D02*
X147720000Y-164600000D01*
D104*
X142550000Y-167000000D02*
X142550000Y-169600000D01*
D105*
X138500000Y-167000000D02*
X140900000Y-164600000D01*
D104*
X142750000Y-169800000D02*
X143020000Y-169800000D01*
X150300000Y-167950000D02*
X151862500Y-167950000D01*
D105*
X147720000Y-164600000D02*
X151860000Y-164600000D01*
D104*
X151862500Y-166050000D02*
X150300000Y-166050000D01*
D105*
X147725000Y-164605000D02*
X147725000Y-167000000D01*
D104*
X142550000Y-169600000D02*
X142750000Y-169800000D01*
D105*
X146030000Y-163300000D02*
X146030000Y-161430000D01*
X142550000Y-164600000D02*
X142550000Y-167000000D01*
X146420000Y-163300000D02*
X146030000Y-163300000D01*
X174100000Y-172200000D02*
X174100000Y-163900000D01*
D104*
X175800000Y-139600000D02*
X176100000Y-139900000D01*
D106*
X177534835Y-134234835D02*
X177446447Y-134146447D01*
D105*
X174100000Y-148400000D02*
X174100000Y-142400000D01*
D107*
X174100000Y-163525000D02*
X174100000Y-163400000D01*
D108*
X174100000Y-148775000D02*
X174100000Y-148650000D01*
D105*
X156725000Y-167000000D02*
X156550000Y-167175000D01*
X161800000Y-169300000D02*
X161400000Y-168900000D01*
D109*
X177623223Y-134323223D02*
X177534835Y-134234835D01*
D105*
X161400000Y-167000000D02*
X161437500Y-167000000D01*
D104*
X174100000Y-163400000D02*
X172800000Y-162100000D01*
D110*
X174056190Y-186002634D02*
X174750653Y-187041971D01*
D108*
X174100000Y-142150000D02*
X174100000Y-142025000D01*
D110*
X193041375Y-154725464D02*
X198004567Y-155270368D01*
D104*
X174100000Y-130800000D02*
X174145000Y-130830999D01*
D105*
X156725000Y-164605000D02*
X156725000Y-167000000D01*
X163500000Y-170600000D02*
X163100000Y-170200000D01*
D109*
X176094293Y-132794293D02*
X176005905Y-132705905D01*
D104*
X177700000Y-139200000D02*
X177700000Y-139000000D01*
D110*
X125943809Y-113997365D02*
X125249346Y-112958028D01*
D105*
X156720000Y-164600000D02*
X161440000Y-164600000D01*
D110*
X113997365Y-174056190D02*
X112958028Y-174750653D01*
X183776256Y-122906559D02*
X187671068Y-119782358D01*
D105*
X156550000Y-168600000D02*
X156550000Y-169800000D01*
D110*
X116223742Y-177093439D02*
X112328931Y-180217641D01*
D104*
X175100000Y-139600000D02*
X175800000Y-139600000D01*
D109*
X174100000Y-142275000D02*
X174100000Y-142150000D01*
D106*
X174100000Y-148525000D02*
X174100000Y-148400000D01*
D105*
X177446447Y-134146447D02*
X176182681Y-132882681D01*
X154140000Y-166047500D02*
X154140000Y-164600000D01*
D109*
X174100000Y-148650000D02*
X174100000Y-148525000D01*
D105*
X163500000Y-170700000D02*
X163500000Y-170600000D01*
D104*
X172800000Y-161900000D02*
X172700000Y-161800000D01*
D110*
X129163017Y-187956688D02*
X126760262Y-192333553D01*
X162105460Y-191573402D02*
X163501366Y-196367319D01*
D107*
X175917516Y-132617516D02*
X175829128Y-132529128D01*
D104*
X175829128Y-132529128D02*
X174100000Y-130800000D01*
D110*
X187956688Y-170836981D02*
X192333553Y-173239737D01*
X108426596Y-162105459D02*
X103632680Y-163501366D01*
D106*
X176182681Y-132882681D02*
X176094293Y-132794293D01*
D104*
X172800000Y-162100000D02*
X172800000Y-161900000D01*
D106*
X174100000Y-142400000D02*
X174100000Y-142275000D01*
D104*
X176100000Y-139900000D02*
X177000000Y-139900000D01*
D110*
X145274534Y-193041375D02*
X144729631Y-198004567D01*
D109*
X174100000Y-163775000D02*
X174100000Y-163650000D01*
D108*
X177711612Y-134411612D02*
X177623223Y-134323223D01*
D104*
X177800000Y-138900000D02*
X177800000Y-134500000D01*
D105*
X177100000Y-183800000D02*
X169800000Y-176500000D01*
D110*
X112043311Y-129163018D02*
X107666446Y-126760262D01*
X186002634Y-125943808D02*
X187041971Y-125249346D01*
X170836981Y-112043311D02*
X173239737Y-107666446D01*
X186002634Y-125943808D02*
X186626236Y-125527131D01*
D107*
X174100000Y-148900000D02*
X174100000Y-148775000D01*
D104*
X172700000Y-150300000D02*
X174100000Y-148900000D01*
X177000000Y-139900000D02*
X177700000Y-139200000D01*
D110*
X106958624Y-145274534D02*
X101995432Y-144729631D01*
D104*
X174100000Y-141900000D02*
X175100000Y-140900000D01*
D105*
X156550000Y-167175000D02*
X156550000Y-168600000D01*
D108*
X174100000Y-163650000D02*
X174100000Y-163525000D01*
D110*
X191573402Y-137894539D02*
X196367319Y-136498633D01*
X122906560Y-116223743D02*
X119782358Y-112328931D01*
D107*
X177800000Y-134500000D02*
X177711612Y-134411612D01*
D105*
X169800000Y-176500000D02*
X174100000Y-172200000D01*
D110*
X137894539Y-108426597D02*
X136498633Y-103632680D01*
D105*
X161437500Y-164602500D02*
X161437500Y-167000000D01*
D108*
X176005905Y-132705905D02*
X175917516Y-132617516D01*
D104*
X172700000Y-161800000D02*
X172700000Y-151700000D01*
D105*
X168200000Y-176500000D02*
X163600000Y-171900000D01*
D110*
X154725464Y-106958624D02*
X155270368Y-101995432D01*
D105*
X161400000Y-168900000D02*
X161400000Y-167000000D01*
D104*
X177700000Y-139000000D02*
X177800000Y-138900000D01*
D106*
X174100000Y-163900000D02*
X174100000Y-163775000D01*
D105*
X163600000Y-170800000D02*
X163500000Y-170700000D01*
X163600000Y-171900000D02*
X163600000Y-170800000D01*
D110*
X177093439Y-183776256D02*
X180217641Y-187671068D01*
D107*
X174100000Y-142025000D02*
X174100000Y-141900000D01*
D105*
X154140000Y-164600000D02*
X156720000Y-164600000D01*
D104*
X194490000Y-150000000D02*
X191500000Y-150000000D01*
X191103399Y-132974414D02*
X187786672Y-134348247D01*
D101*
X155700000Y-155300000D02*
X152900000Y-155300000D01*
X152900000Y-155300000D02*
X152862500Y-155275000D01*
X157500000Y-153500000D02*
X155700000Y-155300000D01*
D103*
X169000000Y-165400000D02*
X169000000Y-183472149D01*
X158358541Y-183472149D02*
X159701909Y-184815517D01*
X167620000Y-163630000D02*
X169000000Y-165010000D01*
D101*
X171145707Y-199874346D02*
X171668332Y-200090824D01*
X150849999Y-204570000D02*
X151199999Y-204920000D01*
X152450000Y-204620000D02*
X152450000Y-200620001D01*
D103*
X158510000Y-153500000D02*
X164240000Y-159230000D01*
X169000000Y-183472149D02*
X158358541Y-183472149D01*
X158358541Y-183472149D02*
X153375705Y-188454985D01*
X159701909Y-184815517D02*
X166435623Y-184815517D01*
D101*
X173003314Y-199916693D02*
X173165673Y-199524724D01*
D103*
X164240000Y-159230000D02*
X167620000Y-159230000D01*
D101*
X150449999Y-204170000D02*
X150849999Y-204570000D01*
X172125629Y-200280243D02*
X173003314Y-199916693D01*
X171040469Y-199620279D02*
X171145707Y-199874346D01*
X150450000Y-203895000D02*
X150449999Y-204170000D01*
D103*
X153375705Y-188454985D02*
X151861215Y-188454985D01*
D101*
X173165673Y-199524724D02*
X171634939Y-195829207D01*
X151199999Y-204920000D02*
X152150000Y-204920000D01*
D103*
X169000000Y-165010000D02*
X169000000Y-165400000D01*
X167620000Y-159230000D02*
X167620000Y-163630000D01*
X151861215Y-188454985D02*
X152450000Y-200620001D01*
D101*
X171668332Y-200090824D02*
X172125629Y-200280243D01*
X152150000Y-204920000D02*
X152450000Y-204620000D01*
D103*
X166435623Y-184815517D02*
X171634939Y-195829207D01*
D101*
X183248160Y-186373572D02*
X182951176Y-186373572D01*
X186642273Y-187278669D02*
X186076588Y-187278669D01*
X185581613Y-187278669D02*
X184379531Y-186076588D01*
X183545145Y-186076588D02*
X183248160Y-186373572D01*
X184379531Y-186076588D02*
X183545145Y-186076588D01*
X186076588Y-187278669D02*
X185581613Y-187278669D01*
X182951176Y-186373572D02*
X180935921Y-188388826D01*
X186836727Y-187473123D02*
X186642273Y-187278669D01*
D103*
X175500000Y-165910000D02*
X175500000Y-172624517D01*
X188122628Y-163671692D02*
X197704356Y-167107931D01*
X179578765Y-167758002D02*
X183665075Y-163671692D01*
X183665075Y-163671692D02*
X188122628Y-163671692D01*
X176045752Y-172624517D02*
X179578765Y-169091504D01*
X175500000Y-151000000D02*
X177780000Y-153280000D01*
X179578765Y-167758002D02*
X179988786Y-168168023D01*
D101*
X201399873Y-168638664D02*
X197704356Y-167107931D01*
X188427717Y-187791321D02*
X188622171Y-187985775D01*
D103*
X177780000Y-159230000D02*
X177780000Y-163630000D01*
X158510000Y-151000000D02*
X175500000Y-151000000D01*
D101*
X189187856Y-187985775D02*
X189682831Y-187985775D01*
X190354583Y-186889760D02*
X187526156Y-184061333D01*
D103*
X179988786Y-168168023D02*
X179988786Y-177219895D01*
D101*
X190354583Y-187314024D02*
X190354583Y-186889760D01*
D103*
X177780000Y-163630000D02*
X175500000Y-165910000D01*
D101*
X200218761Y-170314216D02*
X200741386Y-170097738D01*
X188622171Y-187985775D02*
X189187856Y-187985775D01*
D103*
X177780000Y-153280000D02*
X177780000Y-159230000D01*
D101*
X201198683Y-169908319D02*
X201562232Y-169030633D01*
D103*
X179988786Y-177219895D02*
X187526156Y-184061333D01*
D101*
X189682831Y-187985775D02*
X190354583Y-187314024D01*
X200741386Y-170097738D02*
X201198683Y-169908319D01*
D103*
X175500000Y-172624517D02*
X176045752Y-172624517D01*
X179578765Y-169091504D02*
X179578765Y-167758002D01*
D101*
X199964694Y-170208978D02*
X200218761Y-170314216D01*
X201562232Y-169030633D02*
X201399873Y-168638664D01*
X184379531Y-184379531D02*
X182180429Y-182180429D01*
X186076588Y-184379531D02*
X184379531Y-184379531D01*
X187278669Y-186642273D02*
X187278669Y-186076588D01*
X187473123Y-186836727D02*
X187278669Y-186642273D01*
X187278669Y-186076588D02*
X187278669Y-185581613D01*
X187278669Y-185581613D02*
X186076588Y-184379531D01*
X170173944Y-104431541D02*
X170493249Y-105202413D01*
X170418608Y-101881024D02*
X170635086Y-102403649D01*
X170493249Y-105202413D02*
X170881278Y-105363140D01*
X170881278Y-105363140D02*
X170994930Y-105637518D01*
X171040469Y-100379720D02*
X170523846Y-101626957D01*
X170523846Y-101626957D02*
X170418608Y-101881024D01*
X170824505Y-102860946D02*
X170173944Y-104431541D01*
X170635086Y-102403649D02*
X170824505Y-102860946D01*
X170994930Y-105637518D02*
X173627986Y-106728166D01*
D104*
X146200000Y-182300000D02*
X145600000Y-182900000D01*
X141637500Y-174850000D02*
X143537500Y-174850000D01*
X138600000Y-183000000D02*
X137300000Y-181700000D01*
X145400000Y-182900000D02*
X145300000Y-183000000D01*
X143537500Y-174850000D02*
X141700000Y-173012500D01*
X146200000Y-180100000D02*
X146200000Y-182300000D01*
X141700000Y-173012500D02*
X141700000Y-172810000D01*
X143500000Y-174800000D02*
X143700000Y-174600000D01*
X145600000Y-182900000D02*
X145400000Y-182900000D01*
X145300000Y-183000000D02*
X138600000Y-183000000D01*
X141800000Y-171700000D02*
X143300000Y-171700000D01*
X141700000Y-171800000D02*
X141800000Y-171700000D01*
D101*
X150450000Y-97730000D02*
X150850000Y-98130000D01*
X152210000Y-100770000D02*
X152420000Y-100980000D01*
X151200000Y-98480000D02*
X151200000Y-100180000D01*
X150850000Y-98130000D02*
X151200000Y-98480000D01*
X151200000Y-100180000D02*
X151790000Y-100770000D01*
X152420000Y-100980000D02*
X155270000Y-100980000D01*
X151790000Y-100770000D02*
X152210000Y-100770000D01*
X150450000Y-97455000D02*
X150450000Y-97730000D01*
D104*
X191103399Y-167025585D02*
X188341000Y-165881362D01*
X181459181Y-181459181D02*
X178920667Y-178920667D01*
X118540818Y-118540818D02*
X121079332Y-121079332D01*
X108896600Y-132974414D02*
X111658999Y-134118637D01*
D101*
X198118975Y-170418608D02*
X197596350Y-170635086D01*
X194362481Y-170994930D02*
X193271833Y-173627986D01*
X194636859Y-170881278D02*
X194362481Y-170994930D01*
X197596350Y-170635086D02*
X197139053Y-170824505D01*
X199620279Y-171040469D02*
X198373042Y-170523846D01*
X195568458Y-170173944D02*
X194797586Y-170493249D01*
X197139053Y-170824505D02*
X195568458Y-170173944D01*
X194797586Y-170493249D02*
X194636859Y-170881278D01*
X198373042Y-170523846D02*
X198118975Y-170418608D01*
X198463390Y-169587117D02*
X198246912Y-169064492D01*
X198717457Y-169692355D02*
X198463390Y-169587117D01*
X194919023Y-168606069D02*
X192045757Y-167415923D01*
X196486898Y-167956633D02*
X194919023Y-168606069D01*
X198057493Y-168607195D02*
X196486898Y-167956633D01*
X198246912Y-169064492D02*
X198057493Y-168607195D01*
X113626427Y-182951176D02*
X111611173Y-180935921D01*
X112526876Y-186836727D02*
X112721330Y-186642273D01*
X113923411Y-183545145D02*
X113626427Y-183248160D01*
X112721330Y-185581613D02*
X113923411Y-184379531D01*
X113923411Y-184379531D02*
X113923411Y-183545145D01*
X113626427Y-183248160D02*
X113626427Y-182951176D01*
X112721330Y-186076588D02*
X112721330Y-185581613D01*
X112721330Y-186642273D02*
X112721330Y-186076588D01*
X128959530Y-199620279D02*
X129476153Y-198373042D01*
X129581391Y-198118975D02*
X129364913Y-197596350D01*
X129118721Y-194636859D02*
X129005069Y-194362481D01*
X129005069Y-194362481D02*
X126372013Y-193271833D01*
X129364913Y-197596350D02*
X129175494Y-197139053D01*
X129826055Y-195568458D02*
X129506750Y-194797586D01*
X129175494Y-197139053D02*
X129826055Y-195568458D01*
X129506750Y-194797586D02*
X129118721Y-194636859D01*
X129476153Y-198373042D02*
X129581391Y-198118975D01*
D103*
X122500000Y-163200000D02*
X122500000Y-174669704D01*
X131630000Y-163200000D02*
X122500000Y-163200000D01*
D101*
X130969366Y-201562232D02*
X131361335Y-201399873D01*
D103*
X139010000Y-153500000D02*
X133280000Y-159230000D01*
D101*
X130091680Y-201198683D02*
X130969366Y-201562232D01*
X129902261Y-200741386D02*
X130091680Y-201198683D01*
X131361335Y-201399873D02*
X132892068Y-197704356D01*
X112014224Y-189682831D02*
X112685975Y-190354583D01*
D103*
X132060000Y-163630000D02*
X131630000Y-163200000D01*
X136589882Y-185298730D02*
X137341024Y-185298730D01*
D101*
X113110239Y-190354583D02*
X115938666Y-187526156D01*
X112685975Y-190354583D02*
X113110239Y-190354583D01*
D103*
X132060000Y-159230000D02*
X132060000Y-163630000D01*
D101*
X112014224Y-188622171D02*
X112014224Y-189187856D01*
X112014224Y-189187856D02*
X112014224Y-189682831D01*
D103*
X124472452Y-174669704D02*
X127593413Y-177790665D01*
D101*
X129791021Y-199964694D02*
X129685783Y-200218761D01*
D103*
X127593413Y-177790665D02*
X127910887Y-177790665D01*
X133280000Y-159230000D02*
X132060000Y-159230000D01*
X129058546Y-177767394D02*
X124796392Y-177767394D01*
X127910887Y-177790665D02*
X130556342Y-180436120D01*
D101*
X112208678Y-188427717D02*
X112014224Y-188622171D01*
D103*
X137341024Y-185298730D02*
X132892068Y-197704356D01*
X122500000Y-174669704D02*
X124472452Y-174669704D01*
X130556342Y-180436120D02*
X131727272Y-180436120D01*
X124796392Y-177767394D02*
X115938666Y-187526156D01*
X131727272Y-180436120D02*
X129058546Y-177767394D01*
X131727272Y-180436120D02*
X136589882Y-185298730D01*
D101*
X129685783Y-200218761D02*
X129902261Y-200741386D01*
X131392804Y-198057493D02*
X132043366Y-196486898D01*
X130935507Y-198246912D02*
X131392804Y-198057493D01*
X130307644Y-198717457D02*
X130412882Y-198463390D01*
X130412882Y-198463390D02*
X130935507Y-198246912D01*
X131393930Y-194919023D02*
X132584076Y-192045757D01*
X132043366Y-196486898D02*
X131393930Y-194919023D01*
X144500000Y-152700000D02*
X145400000Y-153600000D01*
X138000000Y-153500000D02*
X138300000Y-153200000D01*
X145800000Y-154800000D02*
X146300000Y-155300000D01*
X145400000Y-154300000D02*
X145800000Y-154700000D01*
X145800000Y-154700000D02*
X145800000Y-154800000D01*
X146300000Y-155300000D02*
X147100000Y-155300000D01*
X138300000Y-153200000D02*
X138300000Y-153100000D01*
X145400000Y-153600000D02*
X145400000Y-154300000D01*
X138700000Y-152700000D02*
X144500000Y-152700000D01*
X138300000Y-153100000D02*
X138700000Y-152700000D01*
X147100000Y-155300000D02*
X147137500Y-155275000D01*
D103*
X150000000Y-154625000D02*
X152862500Y-154625000D01*
X150000000Y-154625000D02*
X147137500Y-154625000D01*
X143010000Y-149400000D02*
X150000000Y-149400000D01*
X143010000Y-151000000D02*
X143010000Y-149400000D01*
X150000000Y-152025000D02*
X152862500Y-152025000D01*
X150000000Y-150725000D02*
X147137500Y-150725000D01*
X150000000Y-149400000D02*
X150000000Y-155925000D01*
X150000000Y-153325000D02*
X152862500Y-153325000D01*
X150000000Y-152025000D02*
X147137500Y-152025000D01*
X150000000Y-153325000D02*
X147137500Y-153325000D01*
X150000000Y-155925000D02*
X152862500Y-155925000D01*
D101*
X138700000Y-146700000D02*
X138600000Y-146700000D01*
X147100000Y-151400000D02*
X147000000Y-151300000D01*
X138600000Y-146700000D02*
X138000000Y-146100000D01*
X147000000Y-151300000D02*
X146800000Y-151300000D01*
X139800000Y-147800000D02*
X138700000Y-146700000D01*
X138000000Y-146100000D02*
X138000000Y-146000000D01*
X146700000Y-151400000D02*
X145700000Y-151400000D01*
X147137500Y-151375000D02*
X147100000Y-151400000D01*
X145700000Y-151400000D02*
X144400000Y-150100000D01*
X146800000Y-151300000D02*
X146700000Y-151400000D01*
X138600000Y-149200000D02*
X138000000Y-148600000D01*
X138000000Y-148600000D02*
X138000000Y-148500000D01*
X146800000Y-152600000D02*
X146700000Y-152700000D01*
X147000000Y-152600000D02*
X146800000Y-152600000D01*
X143700000Y-150500000D02*
X143700000Y-150200000D01*
X138800000Y-149300000D02*
X138700000Y-149200000D01*
X138700000Y-149200000D02*
X138600000Y-149200000D01*
X138900000Y-149300000D02*
X138800000Y-149300000D01*
X147100000Y-152700000D02*
X147000000Y-152600000D01*
X147137500Y-152675000D02*
X147100000Y-152700000D01*
X139800000Y-150200000D02*
X138900000Y-149300000D01*
X145900000Y-152700000D02*
X143700000Y-150500000D01*
X146700000Y-152700000D02*
X145900000Y-152700000D01*
X146300000Y-154000000D02*
X145900000Y-153600000D01*
X146800000Y-153900000D02*
X146700000Y-154000000D01*
X145900000Y-153600000D02*
X145900000Y-153400000D01*
X147137500Y-153975000D02*
X147100000Y-154000000D01*
X138700000Y-151700000D02*
X138600000Y-151700000D01*
X143500000Y-151700000D02*
X143300000Y-151700000D01*
X145900000Y-153400000D02*
X144000000Y-151500000D01*
X144000000Y-151500000D02*
X143700000Y-151500000D01*
X147000000Y-153900000D02*
X146800000Y-153900000D01*
X138800000Y-151800000D02*
X138700000Y-151700000D01*
X147100000Y-154000000D02*
X147000000Y-153900000D01*
X143700000Y-151500000D02*
X143500000Y-151700000D01*
X138600000Y-151700000D02*
X138000000Y-151100000D01*
X138000000Y-151100000D02*
X138000000Y-151000000D01*
X143300000Y-151700000D02*
X143200000Y-151800000D01*
X146700000Y-154000000D02*
X146300000Y-154000000D01*
X143200000Y-151800000D02*
X138800000Y-151800000D01*
X152862500Y-153975000D02*
X152900000Y-154000000D01*
X153000000Y-153900000D02*
X153200000Y-153900000D01*
X153300000Y-154000000D02*
X154500000Y-154000000D01*
X154500000Y-154000000D02*
X157500000Y-151000000D01*
X153200000Y-153900000D02*
X153300000Y-154000000D01*
X152900000Y-154000000D02*
X153000000Y-153900000D01*
X153700000Y-152700000D02*
X157500000Y-148900000D01*
X152900000Y-152700000D02*
X153000000Y-152600000D01*
X157500000Y-148900000D02*
X157500000Y-148500000D01*
X153300000Y-152700000D02*
X153700000Y-152700000D01*
X152862500Y-152675000D02*
X152900000Y-152700000D01*
X153000000Y-152600000D02*
X153200000Y-152600000D01*
X153200000Y-152600000D02*
X153300000Y-152700000D01*
X152000000Y-151400000D02*
X151700000Y-151100000D01*
X152900000Y-151400000D02*
X152000000Y-151400000D01*
X155400000Y-146000000D02*
X157500000Y-146000000D01*
X152862500Y-151375000D02*
X152900000Y-151400000D01*
X151700000Y-149700000D02*
X155400000Y-146000000D01*
X151700000Y-151100000D02*
X151700000Y-149700000D01*
D104*
X154900000Y-160700000D02*
X155100000Y-160700000D01*
D105*
X142000000Y-144000000D02*
X141950000Y-143950000D01*
D104*
X165100000Y-162900000D02*
X165155233Y-162955233D01*
X164300000Y-160200000D02*
X164400000Y-160300000D01*
X154400000Y-157000000D02*
X154600000Y-156800000D01*
X164500000Y-160300000D02*
X165100000Y-160900000D01*
X164100000Y-160200000D02*
X164300000Y-160200000D01*
X153400000Y-158900000D02*
X153700000Y-158600000D01*
X165155233Y-162955233D02*
X166900000Y-164700000D01*
X154200000Y-157900000D02*
X154200000Y-157600000D01*
D105*
X143000000Y-147700000D02*
X142900000Y-147700000D01*
X142500000Y-146800000D02*
X141500000Y-145800000D01*
D104*
X154400000Y-157400000D02*
X154400000Y-157000000D01*
X164400000Y-160300000D02*
X164500000Y-160300000D01*
X153400000Y-159200000D02*
X153400000Y-158900000D01*
X153300000Y-150100000D02*
X152900000Y-150100000D01*
D105*
X141500000Y-145800000D02*
X141300000Y-145800000D01*
X152000000Y-157900000D02*
X150500000Y-157900000D01*
X142900000Y-147700000D02*
X142500000Y-147300000D01*
X140800000Y-144000000D02*
X142000000Y-144000000D01*
D104*
X166900000Y-164700000D02*
X166877000Y-164723000D01*
X153700000Y-158600000D02*
X153700000Y-158400000D01*
X154700000Y-156500000D02*
X154700000Y-156300000D01*
X154600000Y-156600000D02*
X154700000Y-156500000D01*
X165100000Y-160900000D02*
X165100000Y-162900000D01*
D105*
X145300000Y-148000000D02*
X144100000Y-148000000D01*
X166900000Y-164700000D02*
X165700000Y-165900000D01*
X165700000Y-167000000D02*
X165725000Y-167000000D01*
X144100000Y-148000000D02*
X144000000Y-148100000D01*
X153400000Y-158900000D02*
X152500000Y-158000000D01*
D104*
X154200000Y-157600000D02*
X154400000Y-157400000D01*
D105*
X143500000Y-147900000D02*
X143200000Y-147900000D01*
X150500000Y-157900000D02*
X150200000Y-158200000D01*
X165700000Y-165900000D02*
X165700000Y-167000000D01*
X151300000Y-149000000D02*
X149100000Y-146800000D01*
X149500000Y-159200000D02*
X149520000Y-159200000D01*
D104*
X164000000Y-160100000D02*
X164100000Y-160200000D01*
X153400000Y-150000000D02*
X153300000Y-150100000D01*
X153400000Y-159200000D02*
X154900000Y-160700000D01*
D105*
X140600000Y-144200000D02*
X140800000Y-144000000D01*
D104*
X154700000Y-150000000D02*
X153400000Y-150000000D01*
X153700000Y-158400000D02*
X154200000Y-157900000D01*
X155100000Y-150400000D02*
X154700000Y-150000000D01*
D105*
X150200000Y-158200000D02*
X150000000Y-158200000D01*
X149100000Y-146800000D02*
X146500000Y-146800000D01*
X152100000Y-158000000D02*
X152000000Y-157900000D01*
X143700000Y-148100000D02*
X143500000Y-147900000D01*
X146500000Y-146800000D02*
X145300000Y-148000000D01*
D104*
X152900000Y-150100000D02*
X152862500Y-150075000D01*
D105*
X142000000Y-142000000D02*
X141950000Y-142050000D01*
D104*
X155700000Y-160100000D02*
X164000000Y-160100000D01*
D105*
X142000000Y-144000000D02*
X142000000Y-142000000D01*
X143200000Y-147900000D02*
X143000000Y-147700000D01*
X144000000Y-148100000D02*
X143700000Y-148100000D01*
X150000000Y-158200000D02*
X149500000Y-158700000D01*
D104*
X155100000Y-160700000D02*
X155700000Y-160100000D01*
X153425000Y-159200000D02*
X153400000Y-159200000D01*
X154700000Y-156300000D02*
X155100000Y-155900000D01*
D105*
X152500000Y-158000000D02*
X152100000Y-158000000D01*
X149500000Y-158700000D02*
X149500000Y-159200000D01*
X163562500Y-167000000D02*
X165725000Y-167000000D01*
X142500000Y-146800000D02*
X142520000Y-146800000D01*
D104*
X154600000Y-156800000D02*
X154600000Y-156600000D01*
D105*
X142500000Y-147300000D02*
X142500000Y-146800000D01*
D104*
X152100000Y-174787500D02*
X152100000Y-172810000D01*
X150137500Y-174850000D02*
X152037500Y-174850000D01*
X152037500Y-174850000D02*
X152100000Y-174787500D01*
X153100000Y-183500000D02*
X146700000Y-183500000D01*
X152100000Y-175900000D02*
X152300000Y-176100000D01*
X153700000Y-183200000D02*
X153500000Y-183400000D01*
X152100000Y-174800000D02*
X152100000Y-175900000D01*
X153200000Y-183400000D02*
X153100000Y-183500000D01*
X146700000Y-183500000D02*
X146300000Y-183100000D01*
X153500000Y-183400000D02*
X153200000Y-183400000D01*
D101*
X167185761Y-196167593D02*
X166797732Y-196328320D01*
X168607195Y-198057493D02*
X167956633Y-196486898D01*
X170208978Y-199964694D02*
X169692355Y-198717457D01*
X169587117Y-198463390D02*
X169064492Y-198246912D01*
X167956633Y-196486898D02*
X167185761Y-196167593D01*
X169692355Y-198717457D02*
X169587117Y-198463390D01*
X169064492Y-198246912D02*
X168607195Y-198057493D01*
X166523354Y-196214668D02*
X163890297Y-197305316D01*
X166797732Y-196328320D02*
X166523354Y-196214668D01*
X199874346Y-128854292D02*
X200090824Y-128331667D01*
D103*
X170607658Y-140285004D02*
X175726812Y-140285004D01*
X181198320Y-135271972D02*
X195829207Y-128365060D01*
D101*
X199620279Y-128959530D02*
X199874346Y-128854292D01*
X204919999Y-147850000D02*
X204619999Y-147550000D01*
D103*
X171036772Y-136370000D02*
X170160000Y-136370000D01*
X167620000Y-136370000D02*
X169376138Y-134613862D01*
D101*
X200280243Y-127874370D02*
X199916693Y-126996685D01*
D103*
X175726812Y-140285004D02*
X176680698Y-141238890D01*
X184459661Y-148332157D02*
X200620000Y-147550000D01*
X170160000Y-140770000D02*
X169984102Y-140594102D01*
D101*
X204570000Y-149150000D02*
X204920000Y-148800000D01*
D103*
X179248092Y-140770000D02*
X180320000Y-140770000D01*
D101*
X204170000Y-149550000D02*
X204570000Y-149150000D01*
D103*
X172792910Y-134613862D02*
X171036772Y-136370000D01*
X180320000Y-136370000D02*
X181198320Y-135491680D01*
X176680698Y-141238890D02*
X176680698Y-143337394D01*
X169984102Y-139661448D02*
X170607658Y-140285004D01*
D101*
X199916693Y-126996685D02*
X199524724Y-126834326D01*
D103*
X181675461Y-148332157D02*
X184459661Y-148332157D01*
X169376138Y-134613862D02*
X172792910Y-134613862D01*
X169984102Y-140594102D02*
X169984102Y-139661448D01*
X176680698Y-143337394D02*
X179248092Y-140770000D01*
X170160000Y-136370000D02*
X170160000Y-140770000D01*
X181198320Y-135491680D02*
X181198320Y-135271972D01*
X176680698Y-143337394D02*
X181675461Y-148332157D01*
X180320000Y-140770000D02*
X180320000Y-136370000D01*
D101*
X203895000Y-149550000D02*
X204170000Y-149550000D01*
X204920000Y-148800000D02*
X204919999Y-147850000D01*
D103*
X166240000Y-140770000D02*
X167620000Y-140770000D01*
D101*
X199524724Y-126834326D02*
X195829207Y-128365060D01*
D103*
X167620000Y-140770000D02*
X167620000Y-136370000D01*
D101*
X200090824Y-128331667D02*
X200280243Y-127874370D01*
D103*
X158510000Y-148500000D02*
X166240000Y-140770000D01*
D101*
X204619999Y-147550000D02*
X200620000Y-147550000D01*
D104*
X132974414Y-108896600D02*
X134118637Y-111658999D01*
X150000000Y-105510000D02*
X150000000Y-109100000D01*
X132974414Y-191103399D02*
X134118637Y-188341000D01*
X118540818Y-181459181D02*
X121079332Y-178920666D01*
D111*
X166750000Y-181730000D02*
X166750000Y-177700000D01*
X162700000Y-171000000D02*
X126860000Y-171000000D01*
X166750000Y-177700000D02*
X162700000Y-177700000D01*
X162700000Y-177700000D02*
X162700000Y-171000000D01*
D105*
X165240000Y-181730000D02*
X162700000Y-181730000D01*
D111*
X126860000Y-171000000D02*
X126862500Y-167000000D01*
X165240000Y-181730000D02*
X166750000Y-181730000D01*
D105*
X131137500Y-167000000D02*
X134500000Y-167000000D01*
D101*
X195568458Y-129826055D02*
X194919023Y-131393930D01*
X198118975Y-129581391D02*
X197596350Y-129364913D01*
X198373042Y-129476153D02*
X198118975Y-129581391D01*
X194919023Y-131393930D02*
X192045757Y-132584076D01*
X197596350Y-129364913D02*
X197139053Y-129175494D01*
X197139053Y-129175494D02*
X195568458Y-129826055D01*
X151200000Y-201520001D02*
X151200000Y-199820000D01*
X150450000Y-202545000D02*
X150450000Y-202270000D01*
X150450000Y-202270000D02*
X150850000Y-201870000D01*
X150850000Y-201870000D02*
X151200000Y-201520001D01*
X151200000Y-199820000D02*
X150000000Y-198620000D01*
X150000000Y-198620000D02*
X150000000Y-195510000D01*
D104*
X167025585Y-191103399D02*
X165651752Y-187786672D01*
X150000000Y-194490000D02*
X150000000Y-191500000D01*
D101*
X149550000Y-97730000D02*
X149150000Y-98130000D01*
X148800000Y-100180000D02*
X150000000Y-101380000D01*
X148800000Y-98480000D02*
X148800000Y-100180000D01*
X150000000Y-101380000D02*
X150000000Y-104490000D01*
X149150000Y-98130000D02*
X148800000Y-98480000D01*
X149550000Y-97455000D02*
X149550000Y-97730000D01*
D104*
X136000000Y-177900000D02*
X137300000Y-179200000D01*
X139362500Y-174850000D02*
X137462500Y-174850000D01*
X139100000Y-173212500D02*
X139100000Y-172810000D01*
X137500000Y-174800000D02*
X137100000Y-174800000D01*
X135900000Y-176000000D02*
X136000000Y-176100000D01*
X137462500Y-174850000D02*
X139100000Y-173212500D01*
X136000000Y-176100000D02*
X136000000Y-177900000D01*
X137800000Y-170300000D02*
X137800000Y-170000000D01*
X137600000Y-169800000D02*
X137600000Y-169500000D01*
X137500000Y-169400000D02*
X137500000Y-169200000D01*
X140600000Y-162700000D02*
X142200000Y-162700000D01*
X137500000Y-169200000D02*
X136600000Y-168300000D01*
X137600000Y-169500000D02*
X137500000Y-169400000D01*
X139000000Y-171700000D02*
X137800000Y-171700000D01*
X136600000Y-168300000D02*
X136600000Y-166300000D01*
X136600000Y-166300000D02*
X140300000Y-162600000D01*
X140500000Y-162600000D02*
X140600000Y-162700000D01*
X139100000Y-171800000D02*
X139000000Y-171700000D01*
X140300000Y-162600000D02*
X140500000Y-162600000D01*
X142200000Y-162700000D02*
X143500000Y-161400000D01*
X137800000Y-170000000D02*
X137600000Y-169800000D01*
D103*
X140500000Y-145000000D02*
X140500000Y-151000000D01*
X156190000Y-145000000D02*
X140500000Y-145000000D01*
X140500000Y-151000000D02*
X141990000Y-151000000D01*
X156190000Y-138570000D02*
X156190000Y-145000000D01*
D101*
X202545000Y-149550000D02*
X202270000Y-149550001D01*
X198620000Y-150000000D02*
X195510000Y-150000000D01*
X199820000Y-148800001D02*
X198620000Y-150000000D01*
X201870000Y-149150001D02*
X201520000Y-148800000D01*
X202270000Y-149550001D02*
X201870000Y-149150001D01*
X201520000Y-148800000D02*
X199820000Y-148800001D01*
X101753087Y-169064492D02*
X101942506Y-168607195D01*
X101536609Y-169587117D02*
X101753087Y-169064492D01*
X101942506Y-168607195D02*
X103513101Y-167956633D01*
X103513101Y-167956633D02*
X103832406Y-167185761D01*
X103832406Y-167185761D02*
X103671679Y-166797732D01*
X103785331Y-166523354D02*
X102694683Y-163890297D01*
X101282542Y-169692355D02*
X101536609Y-169587117D01*
X100035305Y-170208978D02*
X101282542Y-169692355D01*
X103671679Y-166797732D02*
X103785331Y-166523354D01*
X96105000Y-150450000D02*
X95830000Y-150449999D01*
D103*
X116527850Y-158358541D02*
X118801678Y-160632369D01*
X115877090Y-141458541D02*
X115877090Y-144913048D01*
D101*
X95830000Y-150449999D02*
X95430000Y-150849999D01*
D103*
X118801678Y-164728026D02*
X104170792Y-171634939D01*
D101*
X95080000Y-151200000D02*
X95080000Y-152150000D01*
D103*
X116832997Y-140502634D02*
X115877090Y-141458541D01*
D101*
X95080000Y-152150000D02*
X95380000Y-152450000D01*
X100083306Y-173003314D02*
X100475275Y-173165673D01*
D103*
X128512634Y-140502634D02*
X116832997Y-140502634D01*
X115505036Y-145285102D02*
X115505036Y-149410501D01*
D101*
X99719756Y-172125629D02*
X100083306Y-173003314D01*
D103*
X115877090Y-144913048D02*
X115505036Y-145285102D01*
X116527850Y-158358541D02*
X115540338Y-157371029D01*
D101*
X95430000Y-150849999D02*
X95080000Y-151200000D01*
D103*
X115505036Y-149410501D02*
X115723200Y-149628665D01*
X115723200Y-149628665D02*
X115723200Y-153918040D01*
D101*
X100379720Y-171040469D02*
X100125653Y-171145707D01*
X95380000Y-152450000D02*
X99380000Y-152450000D01*
D103*
X139010000Y-151000000D02*
X128512634Y-140502634D01*
D101*
X99909175Y-171668332D02*
X99719756Y-172125629D01*
D103*
X115723200Y-153918040D02*
X116527850Y-154722690D01*
X116527850Y-154722690D02*
X116527850Y-158358541D01*
D101*
X100475275Y-173165673D02*
X104170792Y-171634939D01*
D103*
X118801678Y-160632369D02*
X118801678Y-164728026D01*
X115540338Y-151667842D02*
X99380000Y-152450000D01*
D101*
X100125653Y-171145707D02*
X99909175Y-171668332D01*
D103*
X115540338Y-157371029D02*
X115540338Y-151667842D01*
D101*
X102403649Y-170635086D02*
X102860946Y-170824505D01*
X102860946Y-170824505D02*
X104431541Y-170173944D01*
X101626957Y-170523846D02*
X101881024Y-170418608D01*
X105080976Y-168606069D02*
X107954242Y-167415923D01*
X101881024Y-170418608D02*
X102403649Y-170635086D01*
X104431541Y-170173944D02*
X105080976Y-168606069D01*
X169692355Y-101282542D02*
X169587117Y-101536609D01*
X169587117Y-101536609D02*
X169064492Y-101753087D01*
X168606069Y-105080976D02*
X167415923Y-107954242D01*
X169064492Y-101753087D02*
X168607195Y-101942506D01*
X167956633Y-103513101D02*
X168606069Y-105080976D01*
X168607195Y-101942506D02*
X167956633Y-103513101D01*
D104*
X181459181Y-118540818D02*
X178920666Y-121079332D01*
X167025585Y-108896600D02*
X165881361Y-111658999D01*
D103*
X145000000Y-143000000D02*
X147490000Y-143000000D01*
X144050000Y-142050000D02*
X145000000Y-143000000D01*
X148510000Y-143000000D02*
X148510000Y-138570000D01*
D101*
X99258613Y-129902261D02*
X98801316Y-130091680D01*
X98600126Y-131361335D02*
X102295643Y-132892068D01*
D103*
X129520000Y-136370000D02*
X131111867Y-134778133D01*
D101*
X111572282Y-112208678D02*
X111377828Y-112014224D01*
D103*
X139010000Y-148500000D02*
X131280000Y-140770000D01*
D101*
X109645416Y-113110239D02*
X112473843Y-115938666D01*
D103*
X124279334Y-134558258D02*
X127786084Y-131051508D01*
X129520000Y-140770000D02*
X129520000Y-136370000D01*
X127786084Y-129837114D02*
X112473843Y-115938666D01*
D101*
X109645416Y-112685975D02*
X109645416Y-113110239D01*
D103*
X130371317Y-132949639D02*
X128762698Y-134558258D01*
X128762698Y-134558258D02*
X124279334Y-134558258D01*
D101*
X111377828Y-112014224D02*
X110812143Y-112014224D01*
D103*
X127786084Y-131051508D02*
X127786084Y-129837114D01*
X131111867Y-126692523D02*
X130371317Y-127433073D01*
X124279334Y-134558258D02*
X121761015Y-137076577D01*
D101*
X100035305Y-129791021D02*
X99781238Y-129685783D01*
D103*
X131280000Y-140770000D02*
X129520000Y-140770000D01*
D101*
X98437767Y-130969366D02*
X98600126Y-131361335D01*
X99781238Y-129685783D02*
X99258613Y-129902261D01*
D103*
X131111867Y-134778133D02*
X131111867Y-126692523D01*
X121761015Y-139872819D02*
X102295643Y-132892068D01*
D101*
X110317168Y-112014224D02*
X109645416Y-112685975D01*
D103*
X121761015Y-137076577D02*
X121761015Y-139872819D01*
D101*
X110812143Y-112014224D02*
X110317168Y-112014224D01*
X98801316Y-130091680D02*
X98437767Y-130969366D01*
D103*
X130371317Y-127433073D02*
X130371317Y-132949639D01*
D101*
X148800001Y-201520000D02*
X148800001Y-199820000D01*
X149150001Y-201870000D02*
X148800001Y-201520000D01*
X148800001Y-199820000D02*
X148210001Y-199230000D01*
X147580001Y-199020000D02*
X144730001Y-199020000D01*
X149550001Y-202270000D02*
X149150001Y-201870000D01*
X147790001Y-199230000D02*
X147580001Y-199020000D01*
X149550000Y-202545000D02*
X149550001Y-202270000D01*
X148210001Y-199230000D02*
X147790001Y-199230000D01*
X105080976Y-131393930D02*
X107954242Y-132584076D01*
X101282542Y-130307644D02*
X101536609Y-130412882D01*
X101942506Y-131392804D02*
X103513101Y-132043366D01*
X103513101Y-132043366D02*
X105080976Y-131393930D01*
X101536609Y-130412882D02*
X101753087Y-130935507D01*
X101753087Y-130935507D02*
X101942506Y-131392804D01*
D104*
X144037500Y-176750000D02*
X144000000Y-176800000D01*
X141637500Y-176750000D02*
X144037500Y-176750000D01*
X144000000Y-176800000D02*
X143400000Y-177400000D01*
X144300000Y-176487500D02*
X144300000Y-172810000D01*
X143200000Y-177400000D02*
X143000000Y-177200000D01*
X144037500Y-176750000D02*
X144300000Y-176487500D01*
X143400000Y-177400000D02*
X143200000Y-177400000D01*
X143500000Y-172400000D02*
X143200000Y-172400000D01*
X143200000Y-172400000D02*
X143100000Y-172300000D01*
X144300000Y-171800000D02*
X144100000Y-171800000D01*
X144100000Y-171800000D02*
X143500000Y-172400000D01*
X143100000Y-172300000D02*
X142700000Y-172300000D01*
D101*
X168606069Y-194919023D02*
X167415923Y-192045757D01*
X170523846Y-198373042D02*
X170418608Y-198118975D01*
X170173944Y-195568458D02*
X168606069Y-194919023D01*
X170418608Y-198118975D02*
X170635086Y-197596350D01*
X170824505Y-197139053D02*
X170173944Y-195568458D01*
X170635086Y-197596350D02*
X170824505Y-197139053D01*
D104*
X108896600Y-167025585D02*
X112213326Y-165651751D01*
X105510000Y-150000000D02*
X108500000Y-150000000D01*
D101*
X100180000Y-151200000D02*
X101380000Y-150000000D01*
X97730000Y-150450000D02*
X98130000Y-150850000D01*
X101380000Y-150000000D02*
X104490000Y-150000000D01*
X98480000Y-151200000D02*
X100180000Y-151200000D01*
X98130000Y-150850000D02*
X98480000Y-151200000D01*
X97455000Y-150450000D02*
X97730000Y-150450000D01*
X196167593Y-132814238D02*
X196328320Y-133202267D01*
X196486898Y-132043366D02*
X196167593Y-132814238D01*
X198246912Y-130935507D02*
X198057493Y-131392804D01*
X198057493Y-131392804D02*
X196486898Y-132043366D01*
X199964694Y-129791021D02*
X198717457Y-130307644D01*
X196214668Y-133476645D02*
X197305316Y-136109702D01*
X198463390Y-130412882D02*
X198246912Y-130935507D01*
X198717457Y-130307644D02*
X198463390Y-130412882D01*
X196328320Y-133202267D02*
X196214668Y-133476645D01*
X98480000Y-148800000D02*
X100180000Y-148800001D01*
X100770000Y-147790001D02*
X100980000Y-147580001D01*
X98130000Y-149150001D02*
X98480000Y-148800000D01*
X100980000Y-147580001D02*
X100980000Y-144730000D01*
X100180000Y-148800001D02*
X100770000Y-148210001D01*
X100770000Y-148210001D02*
X100770000Y-147790001D01*
X97730000Y-149550001D02*
X98130000Y-149150001D01*
X97455000Y-149550000D02*
X97730000Y-149550001D01*
X104431541Y-129826055D02*
X105202413Y-129506750D01*
X102403649Y-129364913D02*
X102860946Y-129175494D01*
X102860946Y-129175494D02*
X104431541Y-129826055D01*
X101881024Y-129581391D02*
X102403649Y-129364913D01*
X100379720Y-128959530D02*
X101626957Y-129476153D01*
X105637518Y-129005069D02*
X106728166Y-126372013D01*
X105202413Y-129506750D02*
X105363140Y-129118721D01*
X101626957Y-129476153D02*
X101881024Y-129581391D01*
X105363140Y-129118721D02*
X105637518Y-129005069D01*
X113923411Y-112721330D02*
X114418386Y-112721330D01*
X115620468Y-113923411D02*
X116454854Y-113923411D01*
X116751839Y-113626427D02*
X117048823Y-113626427D01*
X117048823Y-113626427D02*
X119064078Y-111611173D01*
X113163272Y-112526876D02*
X113357726Y-112721330D01*
X113357726Y-112721330D02*
X113923411Y-112721330D01*
X116454854Y-113923411D02*
X116751839Y-113626427D01*
X114418386Y-112721330D02*
X115620468Y-113923411D01*
X112721330Y-113357726D02*
X112721330Y-113923411D01*
X115620468Y-115620468D02*
X117819570Y-117819570D01*
X112721330Y-113923411D02*
X112721330Y-114418386D01*
X113923411Y-115620468D02*
X115620468Y-115620468D01*
X112526876Y-113163272D02*
X112721330Y-113357726D01*
X112721330Y-114418386D02*
X113923411Y-115620468D01*
D104*
X136500000Y-176200000D02*
X136600000Y-176100000D01*
X136600000Y-175800000D02*
X136100000Y-175300000D01*
X139362500Y-176750000D02*
X136962500Y-176750000D01*
X133600000Y-178700000D02*
X133500000Y-178800000D01*
X134800000Y-176200000D02*
X134800000Y-177300000D01*
X133600000Y-178500000D02*
X133600000Y-178700000D01*
X135700000Y-175400000D02*
X135600000Y-175400000D01*
X135600000Y-175400000D02*
X134800000Y-176200000D01*
X134800000Y-177300000D02*
X133600000Y-178500000D01*
X136600000Y-176100000D02*
X136600000Y-175800000D01*
X133500000Y-178800000D02*
X133500000Y-180400000D01*
X135800000Y-175300000D02*
X135700000Y-175400000D01*
X136500000Y-176287500D02*
X136500000Y-172810000D01*
X133500000Y-180400000D02*
X134800000Y-181700000D01*
X136962500Y-176750000D02*
X136500000Y-176287500D01*
X136100000Y-175300000D02*
X135800000Y-175300000D01*
X138100000Y-168300000D02*
X141800000Y-168300000D01*
X136500000Y-171800000D02*
X135600000Y-171800000D01*
X135600000Y-171800000D02*
X135500000Y-171700000D01*
X137800000Y-168600000D02*
X138100000Y-168300000D01*
X146000000Y-174800000D02*
X146000000Y-175000000D01*
X146000000Y-175000000D02*
X146100000Y-175100000D01*
X145962500Y-174850000D02*
X148002500Y-172810000D01*
X148002500Y-172810000D02*
X149500000Y-172810000D01*
X147862500Y-174850000D02*
X145962500Y-174850000D01*
X142100000Y-184000000D02*
X141700000Y-183600000D01*
X158300000Y-182900000D02*
X158100000Y-182900000D01*
X154900000Y-183000000D02*
X154000000Y-183900000D01*
X145462500Y-172810000D02*
X146900000Y-172810000D01*
X158100000Y-177900000D02*
X158900000Y-178700000D01*
X158000000Y-183000000D02*
X154900000Y-183000000D01*
X155100000Y-177900000D02*
X158100000Y-177900000D01*
X145500000Y-172800000D02*
X145500000Y-172900000D01*
X145462500Y-176750000D02*
X145462500Y-172810000D01*
X153700000Y-176500000D02*
X155100000Y-177900000D01*
X153400000Y-183900000D02*
X153300000Y-184000000D01*
X145500000Y-172900000D02*
X146200000Y-173600000D01*
X147862500Y-176750000D02*
X145462500Y-176750000D01*
X153300000Y-184000000D02*
X142100000Y-184000000D01*
X158100000Y-182900000D02*
X158000000Y-183000000D01*
X141700000Y-183600000D02*
X139800000Y-183600000D01*
X154000000Y-183900000D02*
X153400000Y-183900000D01*
X158900000Y-178700000D02*
X158900000Y-182300000D01*
X158900000Y-182300000D02*
X158300000Y-182900000D01*
X152500000Y-176800000D02*
X152500000Y-177300000D01*
X152900000Y-183000000D02*
X148800000Y-183000000D01*
X153800000Y-178600000D02*
X153800000Y-182300000D01*
X153000000Y-182900000D02*
X152900000Y-183000000D01*
X152537500Y-176750000D02*
X154700000Y-174587500D01*
X152537500Y-176750000D02*
X152500000Y-176800000D01*
X153200000Y-182900000D02*
X153000000Y-182900000D01*
X150137500Y-176750000D02*
X152537500Y-176750000D01*
X148800000Y-183000000D02*
X147500000Y-181700000D01*
X154700000Y-174587500D02*
X154700000Y-172810000D01*
X153800000Y-182300000D02*
X153200000Y-182900000D01*
X152500000Y-177300000D02*
X153800000Y-178600000D01*
D103*
X141700000Y-175700000D02*
X142800000Y-175700000D01*
X142800000Y-175700000D02*
X143000000Y-175500000D01*
X132800000Y-162800000D02*
X132700000Y-162900000D01*
X139000000Y-163000000D02*
X138800000Y-162800000D01*
X141637500Y-175800000D02*
X141600000Y-175800000D01*
X149000000Y-175800000D02*
X150137500Y-175800000D01*
X141637500Y-175800000D02*
X140500000Y-175800000D01*
X140500000Y-175800000D02*
X140500000Y-177900000D01*
X141600000Y-175800000D02*
X141700000Y-175700000D01*
X149000000Y-177900000D02*
X149000000Y-175800000D01*
X138800000Y-162800000D02*
X132800000Y-162800000D01*
X140500000Y-177900000D02*
X149000000Y-177900000D01*
D104*
X149500000Y-171800000D02*
X149600000Y-171700000D01*
X149600000Y-171700000D02*
X151100000Y-171700000D01*
D101*
X114418386Y-187278669D02*
X115620468Y-186076588D01*
X115620468Y-184379531D02*
X117819570Y-182180429D01*
X113923411Y-187278669D02*
X114418386Y-187278669D01*
X113163272Y-187473123D02*
X113357726Y-187278669D01*
X113357726Y-187278669D02*
X113923411Y-187278669D01*
X115620468Y-186076588D02*
X115620468Y-184379531D01*
D104*
X162800000Y-167700000D02*
X162700000Y-167600000D01*
X160400000Y-171800000D02*
X160500000Y-171700000D01*
X160500000Y-171700000D02*
X161900000Y-171700000D01*
X161900000Y-170300000D02*
X163400000Y-168800000D01*
X162800000Y-167900000D02*
X162800000Y-167700000D01*
X163400000Y-168800000D02*
X163400000Y-168500000D01*
X154700000Y-171800000D02*
X160400000Y-171800000D01*
X163400000Y-168500000D02*
X162800000Y-167900000D01*
X162700000Y-162500000D02*
X163800000Y-161400000D01*
X162700000Y-167600000D02*
X162700000Y-162500000D01*
X147000000Y-171700000D02*
X147900000Y-171700000D01*
X146900000Y-171800000D02*
X147000000Y-171700000D01*
M02*
