G04 #@! TF.GenerationSoftware,KiCad,Pcbnew,10.0.5*
G04 #@! TF.CreationDate,2026-08-16T13:39:24-07:00*
G04 #@! TF.ProjectId,microphone_array_v2,6d696372-6f70-4686-9f6e-655f61727261,rev?*
G04 #@! TF.SameCoordinates,Original*
G04 #@! TF.FileFunction,Legend,Bot*
G04 #@! TF.FilePolarity,Positive*
%FSLAX46Y46*%
G04 Gerber Fmt 4.6, Leading zero omitted, Abs format (unit mm)*
G04 Created by KiCad (PCBNEW 10.0.5) date 2026-08-16 13:39:24*
%MOMM*%
%LPD*%
G01*
G04 APERTURE LIST*
%ADD10C,0.160000*%
%ADD11C,0.150000*%
%ADD12C,0.120000*%
%ADD13R,1.700000X1.700000*%
%ADD14C,1.700000*%
G04 APERTURE END LIST*
D10*
X166800000Y-168139346D02*
X167266667Y-167472680D01*
X167600000Y-168139346D02*
X167600000Y-166739346D01*
X167600000Y-166739346D02*
X167066667Y-166739346D01*
X167066667Y-166739346D02*
X166933334Y-166806013D01*
X166933334Y-166806013D02*
X166866667Y-166872680D01*
X166866667Y-166872680D02*
X166800000Y-167006013D01*
X166800000Y-167006013D02*
X166800000Y-167206013D01*
X166800000Y-167206013D02*
X166866667Y-167339346D01*
X166866667Y-167339346D02*
X166933334Y-167406013D01*
X166933334Y-167406013D02*
X167066667Y-167472680D01*
X167066667Y-167472680D02*
X167600000Y-167472680D01*
X166200000Y-168139346D02*
X166200000Y-166739346D01*
X166200000Y-166739346D02*
X165666667Y-166739346D01*
X165666667Y-166739346D02*
X165533334Y-166806013D01*
X165533334Y-166806013D02*
X165466667Y-166872680D01*
X165466667Y-166872680D02*
X165400000Y-167006013D01*
X165400000Y-167006013D02*
X165400000Y-167206013D01*
X165400000Y-167206013D02*
X165466667Y-167339346D01*
X165466667Y-167339346D02*
X165533334Y-167406013D01*
X165533334Y-167406013D02*
X165666667Y-167472680D01*
X165666667Y-167472680D02*
X166200000Y-167472680D01*
X164800000Y-168139346D02*
X164800000Y-167206013D01*
X164800000Y-166739346D02*
X164866667Y-166806013D01*
X164866667Y-166806013D02*
X164800000Y-166872680D01*
X164800000Y-166872680D02*
X164733334Y-166806013D01*
X164733334Y-166806013D02*
X164800000Y-166739346D01*
X164800000Y-166739346D02*
X164800000Y-166872680D01*
X163066666Y-168139346D02*
X163066666Y-166739346D01*
X163066666Y-166739346D02*
X162533333Y-166739346D01*
X162533333Y-166739346D02*
X162400000Y-166806013D01*
X162400000Y-166806013D02*
X162333333Y-166872680D01*
X162333333Y-166872680D02*
X162266666Y-167006013D01*
X162266666Y-167006013D02*
X162266666Y-167206013D01*
X162266666Y-167206013D02*
X162333333Y-167339346D01*
X162333333Y-167339346D02*
X162400000Y-167406013D01*
X162400000Y-167406013D02*
X162533333Y-167472680D01*
X162533333Y-167472680D02*
X163066666Y-167472680D01*
X160933333Y-168139346D02*
X161733333Y-168139346D01*
X161333333Y-168139346D02*
X161333333Y-166739346D01*
X161333333Y-166739346D02*
X161466666Y-166939346D01*
X161466666Y-166939346D02*
X161600000Y-167072680D01*
X161600000Y-167072680D02*
X161733333Y-167139346D01*
X159333333Y-166872680D02*
X159266666Y-166806013D01*
X159266666Y-166806013D02*
X159133333Y-166739346D01*
X159133333Y-166739346D02*
X158800000Y-166739346D01*
X158800000Y-166739346D02*
X158666666Y-166806013D01*
X158666666Y-166806013D02*
X158600000Y-166872680D01*
X158600000Y-166872680D02*
X158533333Y-167006013D01*
X158533333Y-167006013D02*
X158533333Y-167139346D01*
X158533333Y-167139346D02*
X158600000Y-167339346D01*
X158600000Y-167339346D02*
X159400000Y-168139346D01*
X159400000Y-168139346D02*
X158533333Y-168139346D01*
X157333333Y-166739346D02*
X157600000Y-166739346D01*
X157600000Y-166739346D02*
X157733333Y-166806013D01*
X157733333Y-166806013D02*
X157800000Y-166872680D01*
X157800000Y-166872680D02*
X157933333Y-167072680D01*
X157933333Y-167072680D02*
X158000000Y-167339346D01*
X158000000Y-167339346D02*
X158000000Y-167872680D01*
X158000000Y-167872680D02*
X157933333Y-168006013D01*
X157933333Y-168006013D02*
X157866667Y-168072680D01*
X157866667Y-168072680D02*
X157733333Y-168139346D01*
X157733333Y-168139346D02*
X157466667Y-168139346D01*
X157466667Y-168139346D02*
X157333333Y-168072680D01*
X157333333Y-168072680D02*
X157266667Y-168006013D01*
X157266667Y-168006013D02*
X157200000Y-167872680D01*
X157200000Y-167872680D02*
X157200000Y-167539346D01*
X157200000Y-167539346D02*
X157266667Y-167406013D01*
X157266667Y-167406013D02*
X157333333Y-167339346D01*
X157333333Y-167339346D02*
X157466667Y-167272680D01*
X157466667Y-167272680D02*
X157733333Y-167272680D01*
X157733333Y-167272680D02*
X157866667Y-167339346D01*
X157866667Y-167339346D02*
X157933333Y-167406013D01*
X157933333Y-167406013D02*
X158000000Y-167539346D01*
X156600000Y-167606013D02*
X155533334Y-167606013D01*
X155000001Y-166739346D02*
X154666667Y-168139346D01*
X154666667Y-168139346D02*
X154400001Y-167139346D01*
X154400001Y-167139346D02*
X154133334Y-168139346D01*
X154133334Y-168139346D02*
X153800001Y-166739346D01*
X153333334Y-167739346D02*
X152666667Y-167739346D01*
X153466667Y-168139346D02*
X153000001Y-166739346D01*
X153000001Y-166739346D02*
X152533334Y-168139346D01*
X151800001Y-167472680D02*
X151800001Y-168139346D01*
X152266667Y-166739346D02*
X151800001Y-167472680D01*
X151800001Y-167472680D02*
X151333334Y-166739346D01*
X149800000Y-167606013D02*
X148733334Y-167606013D01*
X147000000Y-168139346D02*
X147000000Y-166739346D01*
X147000000Y-166739346D02*
X146466667Y-166739346D01*
X146466667Y-166739346D02*
X146333334Y-166806013D01*
X146333334Y-166806013D02*
X146266667Y-166872680D01*
X146266667Y-166872680D02*
X146200000Y-167006013D01*
X146200000Y-167006013D02*
X146200000Y-167206013D01*
X146200000Y-167206013D02*
X146266667Y-167339346D01*
X146266667Y-167339346D02*
X146333334Y-167406013D01*
X146333334Y-167406013D02*
X146466667Y-167472680D01*
X146466667Y-167472680D02*
X147000000Y-167472680D01*
X145600000Y-168139346D02*
X145600000Y-166739346D01*
X144933333Y-168139346D02*
X144933333Y-166739346D01*
X144933333Y-166739346D02*
X144133333Y-168139346D01*
X144133333Y-168139346D02*
X144133333Y-166739346D01*
X141666666Y-168139346D02*
X142466666Y-168139346D01*
X142066666Y-168139346D02*
X142066666Y-166739346D01*
X142066666Y-166739346D02*
X142199999Y-166939346D01*
X142199999Y-166939346D02*
X142333333Y-167072680D01*
X142333333Y-167072680D02*
X142466666Y-167139346D01*
X139999999Y-168139346D02*
X139999999Y-166739346D01*
X139999999Y-166739346D02*
X139533333Y-167739346D01*
X139533333Y-167739346D02*
X139066666Y-166739346D01*
X139066666Y-166739346D02*
X139066666Y-168139346D01*
X138466666Y-167739346D02*
X137799999Y-167739346D01*
X138599999Y-168139346D02*
X138133333Y-166739346D01*
X138133333Y-166739346D02*
X137666666Y-168139346D01*
X136399999Y-168139346D02*
X136866666Y-167472680D01*
X137199999Y-168139346D02*
X137199999Y-166739346D01*
X137199999Y-166739346D02*
X136666666Y-166739346D01*
X136666666Y-166739346D02*
X136533333Y-166806013D01*
X136533333Y-166806013D02*
X136466666Y-166872680D01*
X136466666Y-166872680D02*
X136399999Y-167006013D01*
X136399999Y-167006013D02*
X136399999Y-167206013D01*
X136399999Y-167206013D02*
X136466666Y-167339346D01*
X136466666Y-167339346D02*
X136533333Y-167406013D01*
X136533333Y-167406013D02*
X136666666Y-167472680D01*
X136666666Y-167472680D02*
X137199999Y-167472680D01*
X135799999Y-168139346D02*
X135799999Y-166739346D01*
X134999999Y-168139346D02*
X135599999Y-167339346D01*
X134999999Y-166739346D02*
X135799999Y-167539346D01*
X134399999Y-167406013D02*
X133933333Y-167406013D01*
X133733333Y-168139346D02*
X134399999Y-168139346D01*
X134399999Y-168139346D02*
X134399999Y-166739346D01*
X134399999Y-166739346D02*
X133733333Y-166739346D01*
X133133332Y-168139346D02*
X133133332Y-166739346D01*
X133133332Y-166739346D02*
X132799999Y-166739346D01*
X132799999Y-166739346D02*
X132599999Y-166806013D01*
X132599999Y-166806013D02*
X132466666Y-166939346D01*
X132466666Y-166939346D02*
X132399999Y-167072680D01*
X132399999Y-167072680D02*
X132333332Y-167339346D01*
X132333332Y-167339346D02*
X132333332Y-167539346D01*
X132333332Y-167539346D02*
X132399999Y-167806013D01*
X132399999Y-167806013D02*
X132466666Y-167939346D01*
X132466666Y-167939346D02*
X132599999Y-168072680D01*
X132599999Y-168072680D02*
X132799999Y-168139346D01*
X132799999Y-168139346D02*
X133133332Y-168139346D01*
X192666668Y-149239346D02*
X191866668Y-149239346D01*
X192266668Y-150639346D02*
X192266668Y-149239346D01*
X191466668Y-150239346D02*
X190800001Y-150239346D01*
X191600001Y-150639346D02*
X191133335Y-149239346D01*
X191133335Y-149239346D02*
X190666668Y-150639346D01*
X190200001Y-150639346D02*
X190200001Y-149239346D01*
X190200001Y-149239346D02*
X189400001Y-150639346D01*
X189400001Y-150639346D02*
X189400001Y-149239346D01*
X188000001Y-149306013D02*
X188133334Y-149239346D01*
X188133334Y-149239346D02*
X188333334Y-149239346D01*
X188333334Y-149239346D02*
X188533334Y-149306013D01*
X188533334Y-149306013D02*
X188666668Y-149439346D01*
X188666668Y-149439346D02*
X188733334Y-149572680D01*
X188733334Y-149572680D02*
X188800001Y-149839346D01*
X188800001Y-149839346D02*
X188800001Y-150039346D01*
X188800001Y-150039346D02*
X188733334Y-150306013D01*
X188733334Y-150306013D02*
X188666668Y-150439346D01*
X188666668Y-150439346D02*
X188533334Y-150572680D01*
X188533334Y-150572680D02*
X188333334Y-150639346D01*
X188333334Y-150639346D02*
X188200001Y-150639346D01*
X188200001Y-150639346D02*
X188000001Y-150572680D01*
X188000001Y-150572680D02*
X187933334Y-150506013D01*
X187933334Y-150506013D02*
X187933334Y-150039346D01*
X187933334Y-150039346D02*
X188200001Y-150039346D01*
X186266667Y-150639346D02*
X186266667Y-149239346D01*
X186266667Y-149239346D02*
X185466667Y-150639346D01*
X185466667Y-150639346D02*
X185466667Y-149239346D01*
X184866667Y-150239346D02*
X184200000Y-150239346D01*
X185000000Y-150639346D02*
X184533334Y-149239346D01*
X184533334Y-149239346D02*
X184066667Y-150639346D01*
X183600000Y-150639346D02*
X183600000Y-149239346D01*
X183600000Y-149239346D02*
X182800000Y-150639346D01*
X182800000Y-150639346D02*
X182800000Y-149239346D01*
X181866667Y-149239346D02*
X181600000Y-149239346D01*
X181600000Y-149239346D02*
X181466667Y-149306013D01*
X181466667Y-149306013D02*
X181333333Y-149439346D01*
X181333333Y-149439346D02*
X181266667Y-149706013D01*
X181266667Y-149706013D02*
X181266667Y-150172680D01*
X181266667Y-150172680D02*
X181333333Y-150439346D01*
X181333333Y-150439346D02*
X181466667Y-150572680D01*
X181466667Y-150572680D02*
X181600000Y-150639346D01*
X181600000Y-150639346D02*
X181866667Y-150639346D01*
X181866667Y-150639346D02*
X182000000Y-150572680D01*
X182000000Y-150572680D02*
X182133333Y-150439346D01*
X182133333Y-150439346D02*
X182200000Y-150172680D01*
X182200000Y-150172680D02*
X182200000Y-149706013D01*
X182200000Y-149706013D02*
X182133333Y-149439346D01*
X182133333Y-149439346D02*
X182000000Y-149306013D01*
X182000000Y-149306013D02*
X181866667Y-149239346D01*
X179533333Y-150639346D02*
X179266666Y-150639346D01*
X179266666Y-150639346D02*
X179133333Y-150572680D01*
X179133333Y-150572680D02*
X179066666Y-150506013D01*
X179066666Y-150506013D02*
X178933333Y-150306013D01*
X178933333Y-150306013D02*
X178866666Y-150039346D01*
X178866666Y-150039346D02*
X178866666Y-149506013D01*
X178866666Y-149506013D02*
X178933333Y-149372680D01*
X178933333Y-149372680D02*
X178999999Y-149306013D01*
X178999999Y-149306013D02*
X179133333Y-149239346D01*
X179133333Y-149239346D02*
X179399999Y-149239346D01*
X179399999Y-149239346D02*
X179533333Y-149306013D01*
X179533333Y-149306013D02*
X179599999Y-149372680D01*
X179599999Y-149372680D02*
X179666666Y-149506013D01*
X179666666Y-149506013D02*
X179666666Y-149839346D01*
X179666666Y-149839346D02*
X179599999Y-149972680D01*
X179599999Y-149972680D02*
X179533333Y-150039346D01*
X179533333Y-150039346D02*
X179399999Y-150106013D01*
X179399999Y-150106013D02*
X179133333Y-150106013D01*
X179133333Y-150106013D02*
X178999999Y-150039346D01*
X178999999Y-150039346D02*
X178933333Y-149972680D01*
X178933333Y-149972680D02*
X178866666Y-149839346D01*
X178266666Y-150639346D02*
X178266666Y-149239346D01*
X177466666Y-150639346D02*
X178066666Y-149839346D01*
X177466666Y-149239346D02*
X178266666Y-150039346D01*
X175799999Y-150106013D02*
X174733333Y-150106013D01*
X172999999Y-149239346D02*
X172999999Y-150372680D01*
X172999999Y-150372680D02*
X172933333Y-150506013D01*
X172933333Y-150506013D02*
X172866666Y-150572680D01*
X172866666Y-150572680D02*
X172733333Y-150639346D01*
X172733333Y-150639346D02*
X172466666Y-150639346D01*
X172466666Y-150639346D02*
X172333333Y-150572680D01*
X172333333Y-150572680D02*
X172266666Y-150506013D01*
X172266666Y-150506013D02*
X172199999Y-150372680D01*
X172199999Y-150372680D02*
X172199999Y-149239346D01*
X171599999Y-150572680D02*
X171399999Y-150639346D01*
X171399999Y-150639346D02*
X171066666Y-150639346D01*
X171066666Y-150639346D02*
X170933332Y-150572680D01*
X170933332Y-150572680D02*
X170866666Y-150506013D01*
X170866666Y-150506013D02*
X170799999Y-150372680D01*
X170799999Y-150372680D02*
X170799999Y-150239346D01*
X170799999Y-150239346D02*
X170866666Y-150106013D01*
X170866666Y-150106013D02*
X170933332Y-150039346D01*
X170933332Y-150039346D02*
X171066666Y-149972680D01*
X171066666Y-149972680D02*
X171333332Y-149906013D01*
X171333332Y-149906013D02*
X171466666Y-149839346D01*
X171466666Y-149839346D02*
X171533332Y-149772680D01*
X171533332Y-149772680D02*
X171599999Y-149639346D01*
X171599999Y-149639346D02*
X171599999Y-149506013D01*
X171599999Y-149506013D02*
X171533332Y-149372680D01*
X171533332Y-149372680D02*
X171466666Y-149306013D01*
X171466666Y-149306013D02*
X171333332Y-149239346D01*
X171333332Y-149239346D02*
X170999999Y-149239346D01*
X170999999Y-149239346D02*
X170799999Y-149306013D01*
X169733333Y-149906013D02*
X169533333Y-149972680D01*
X169533333Y-149972680D02*
X169466666Y-150039346D01*
X169466666Y-150039346D02*
X169399999Y-150172680D01*
X169399999Y-150172680D02*
X169399999Y-150372680D01*
X169399999Y-150372680D02*
X169466666Y-150506013D01*
X169466666Y-150506013D02*
X169533333Y-150572680D01*
X169533333Y-150572680D02*
X169666666Y-150639346D01*
X169666666Y-150639346D02*
X170199999Y-150639346D01*
X170199999Y-150639346D02*
X170199999Y-149239346D01*
X170199999Y-149239346D02*
X169733333Y-149239346D01*
X169733333Y-149239346D02*
X169599999Y-149306013D01*
X169599999Y-149306013D02*
X169533333Y-149372680D01*
X169533333Y-149372680D02*
X169466666Y-149506013D01*
X169466666Y-149506013D02*
X169466666Y-149639346D01*
X169466666Y-149639346D02*
X169533333Y-149772680D01*
X169533333Y-149772680D02*
X169599999Y-149839346D01*
X169599999Y-149839346D02*
X169733333Y-149906013D01*
X169733333Y-149906013D02*
X170199999Y-149906013D01*
X168799999Y-150106013D02*
X167733333Y-150106013D01*
X166266666Y-150506013D02*
X166333333Y-150572680D01*
X166333333Y-150572680D02*
X166533333Y-150639346D01*
X166533333Y-150639346D02*
X166666666Y-150639346D01*
X166666666Y-150639346D02*
X166866666Y-150572680D01*
X166866666Y-150572680D02*
X167000000Y-150439346D01*
X167000000Y-150439346D02*
X167066666Y-150306013D01*
X167066666Y-150306013D02*
X167133333Y-150039346D01*
X167133333Y-150039346D02*
X167133333Y-149839346D01*
X167133333Y-149839346D02*
X167066666Y-149572680D01*
X167066666Y-149572680D02*
X167000000Y-149439346D01*
X167000000Y-149439346D02*
X166866666Y-149306013D01*
X166866666Y-149306013D02*
X166666666Y-149239346D01*
X166666666Y-149239346D02*
X166533333Y-149239346D01*
X166533333Y-149239346D02*
X166333333Y-149306013D01*
X166333333Y-149306013D02*
X166266666Y-149372680D01*
X164799999Y-149239346D02*
X163999999Y-149239346D01*
X164399999Y-150639346D02*
X164399999Y-149239346D01*
X163533332Y-150639346D02*
X163533332Y-149239346D01*
X163533332Y-149906013D02*
X162733332Y-149906013D01*
X162733332Y-150639346D02*
X162733332Y-149239346D01*
X162066665Y-150639346D02*
X162066665Y-149239346D01*
X161466665Y-150572680D02*
X161266665Y-150639346D01*
X161266665Y-150639346D02*
X160933332Y-150639346D01*
X160933332Y-150639346D02*
X160799998Y-150572680D01*
X160799998Y-150572680D02*
X160733332Y-150506013D01*
X160733332Y-150506013D02*
X160666665Y-150372680D01*
X160666665Y-150372680D02*
X160666665Y-150239346D01*
X160666665Y-150239346D02*
X160733332Y-150106013D01*
X160733332Y-150106013D02*
X160799998Y-150039346D01*
X160799998Y-150039346D02*
X160933332Y-149972680D01*
X160933332Y-149972680D02*
X161199998Y-149906013D01*
X161199998Y-149906013D02*
X161333332Y-149839346D01*
X161333332Y-149839346D02*
X161399998Y-149772680D01*
X161399998Y-149772680D02*
X161466665Y-149639346D01*
X161466665Y-149639346D02*
X161466665Y-149506013D01*
X161466665Y-149506013D02*
X161399998Y-149372680D01*
X161399998Y-149372680D02*
X161333332Y-149306013D01*
X161333332Y-149306013D02*
X161199998Y-149239346D01*
X161199998Y-149239346D02*
X160866665Y-149239346D01*
X160866665Y-149239346D02*
X160666665Y-149306013D01*
X158999998Y-149906013D02*
X158533332Y-149906013D01*
X158333332Y-150639346D02*
X158999998Y-150639346D01*
X158999998Y-150639346D02*
X158999998Y-149239346D01*
X158999998Y-149239346D02*
X158333332Y-149239346D01*
X157733331Y-150639346D02*
X157733331Y-149239346D01*
X157733331Y-149239346D02*
X156933331Y-150639346D01*
X156933331Y-150639346D02*
X156933331Y-149239346D01*
X156266664Y-150639346D02*
X156266664Y-149239346D01*
X156266664Y-149239346D02*
X155933331Y-149239346D01*
X155933331Y-149239346D02*
X155733331Y-149306013D01*
X155733331Y-149306013D02*
X155599998Y-149439346D01*
X155599998Y-149439346D02*
X155533331Y-149572680D01*
X155533331Y-149572680D02*
X155466664Y-149839346D01*
X155466664Y-149839346D02*
X155466664Y-150039346D01*
X155466664Y-150039346D02*
X155533331Y-150306013D01*
X155533331Y-150306013D02*
X155599998Y-150439346D01*
X155599998Y-150439346D02*
X155733331Y-150572680D01*
X155733331Y-150572680D02*
X155933331Y-150639346D01*
X155933331Y-150639346D02*
X156266664Y-150639346D01*
D11*
X167464819Y-180126666D02*
X168179104Y-180126666D01*
X168179104Y-180126666D02*
X168321961Y-180079047D01*
X168321961Y-180079047D02*
X168417200Y-179983809D01*
X168417200Y-179983809D02*
X168464819Y-179840952D01*
X168464819Y-179840952D02*
X168464819Y-179745714D01*
X168464819Y-181126666D02*
X168464819Y-180555238D01*
X168464819Y-180840952D02*
X167464819Y-180840952D01*
X167464819Y-180840952D02*
X167607676Y-180745714D01*
X167607676Y-180745714D02*
X167702914Y-180650476D01*
X167702914Y-180650476D02*
X167750533Y-180555238D01*
X191044819Y-138236666D02*
X191759104Y-138236666D01*
X191759104Y-138236666D02*
X191901961Y-138189047D01*
X191901961Y-138189047D02*
X191997200Y-138093809D01*
X191997200Y-138093809D02*
X192044819Y-137950952D01*
X192044819Y-137950952D02*
X192044819Y-137855714D01*
X191140057Y-138665238D02*
X191092438Y-138712857D01*
X191092438Y-138712857D02*
X191044819Y-138808095D01*
X191044819Y-138808095D02*
X191044819Y-139046190D01*
X191044819Y-139046190D02*
X191092438Y-139141428D01*
X191092438Y-139141428D02*
X191140057Y-139189047D01*
X191140057Y-139189047D02*
X191235295Y-139236666D01*
X191235295Y-139236666D02*
X191330533Y-139236666D01*
X191330533Y-139236666D02*
X191473390Y-139189047D01*
X191473390Y-139189047D02*
X192044819Y-138617619D01*
X192044819Y-138617619D02*
X192044819Y-139236666D01*
X191044819Y-161096666D02*
X191759104Y-161096666D01*
X191759104Y-161096666D02*
X191901961Y-161049047D01*
X191901961Y-161049047D02*
X191997200Y-160953809D01*
X191997200Y-160953809D02*
X192044819Y-160810952D01*
X192044819Y-160810952D02*
X192044819Y-160715714D01*
X191044819Y-161477619D02*
X191044819Y-162096666D01*
X191044819Y-162096666D02*
X191425771Y-161763333D01*
X191425771Y-161763333D02*
X191425771Y-161906190D01*
X191425771Y-161906190D02*
X191473390Y-162001428D01*
X191473390Y-162001428D02*
X191521009Y-162049047D01*
X191521009Y-162049047D02*
X191616247Y-162096666D01*
X191616247Y-162096666D02*
X191854342Y-162096666D01*
X191854342Y-162096666D02*
X191949580Y-162049047D01*
X191949580Y-162049047D02*
X191997200Y-162001428D01*
X191997200Y-162001428D02*
X192044819Y-161906190D01*
X192044819Y-161906190D02*
X192044819Y-161620476D01*
X192044819Y-161620476D02*
X191997200Y-161525238D01*
X191997200Y-161525238D02*
X191949580Y-161477619D01*
D12*
X133430000Y-183060000D02*
X133430000Y-177860000D01*
X163970000Y-177860000D02*
X133430000Y-177860000D01*
X163970000Y-180460000D02*
X163970000Y-177860000D01*
X166570000Y-177860000D02*
X165240000Y-177860000D01*
X166570000Y-179190000D02*
X166570000Y-177860000D01*
X166570000Y-180460000D02*
X163970000Y-180460000D01*
X166570000Y-183060000D02*
X133430000Y-183060000D01*
X166570000Y-183060000D02*
X166570000Y-180460000D01*
X129410000Y-139950000D02*
X129410000Y-137190000D01*
X187940000Y-137190000D02*
X129410000Y-137190000D01*
X187940000Y-139950000D02*
X129410000Y-139950000D01*
X187940000Y-139950000D02*
X187940000Y-137190000D01*
X189210000Y-139950000D02*
X190590000Y-139950000D01*
X190590000Y-139950000D02*
X190590000Y-138570000D01*
X129410000Y-162810000D02*
X129410000Y-160050000D01*
X187940000Y-160050000D02*
X129410000Y-160050000D01*
X187940000Y-162810000D02*
X129410000Y-162810000D01*
X187940000Y-162810000D02*
X187940000Y-160050000D01*
X189210000Y-162810000D02*
X190590000Y-162810000D01*
X190590000Y-162810000D02*
X190590000Y-161430000D01*
%LPC*%
D13*
X165240000Y-179190000D03*
D14*
X165240000Y-181730000D03*
X162700000Y-179190000D03*
X162700000Y-181730000D03*
X160160000Y-179190000D03*
X160160000Y-181730000D03*
X157620000Y-179190000D03*
X157620000Y-181730000D03*
X155080000Y-179190000D03*
X155080000Y-181730000D03*
X152540000Y-179190000D03*
X152540000Y-181730000D03*
X150000000Y-179190000D03*
X150000000Y-181730000D03*
X147460000Y-179190000D03*
X147460000Y-181730000D03*
X144920000Y-179190000D03*
X144920000Y-181730000D03*
X142380000Y-179190000D03*
X142380000Y-181730000D03*
X139840000Y-179190000D03*
X139840000Y-181730000D03*
X137300000Y-179190000D03*
X137300000Y-181730000D03*
X134760000Y-179190000D03*
X134760000Y-181730000D03*
D13*
X189210000Y-138570000D03*
D14*
X186670000Y-138570000D03*
X184130000Y-138570000D03*
X181590000Y-138570000D03*
X179050000Y-138570000D03*
X176510000Y-138570000D03*
X173970000Y-138570000D03*
X171430000Y-138570000D03*
X168890000Y-138570000D03*
X166350000Y-138570000D03*
X163810000Y-138570000D03*
X161270000Y-138570000D03*
X158730000Y-138570000D03*
X156190000Y-138570000D03*
X153650000Y-138570000D03*
X151110000Y-138570000D03*
X148570000Y-138570000D03*
X146030000Y-138570000D03*
X143490000Y-138570000D03*
X140950000Y-138570000D03*
X138410000Y-138570000D03*
X135870000Y-138570000D03*
X133330000Y-138570000D03*
X130790000Y-138570000D03*
D13*
X189210000Y-161430000D03*
D14*
X186670000Y-161430000D03*
X184130000Y-161430000D03*
X181590000Y-161430000D03*
X179050000Y-161430000D03*
X176510000Y-161430000D03*
X173970000Y-161430000D03*
X171430000Y-161430000D03*
X168890000Y-161430000D03*
X166350000Y-161430000D03*
X163810000Y-161430000D03*
X161270000Y-161430000D03*
X158730000Y-161430000D03*
X156190000Y-161430000D03*
X153650000Y-161430000D03*
X151110000Y-161430000D03*
X148570000Y-161430000D03*
X146030000Y-161430000D03*
X143490000Y-161430000D03*
X140950000Y-161430000D03*
X138410000Y-161430000D03*
X135870000Y-161430000D03*
X133330000Y-161430000D03*
X130790000Y-161430000D03*
%LPD*%
M02*
