%TF.GenerationSoftware,KiCad,Pcbnew,10.0.5*%
%TF.CreationDate,2026-08-03T07:07:47-07:00*%
%TF.ProjectId,microphone_array_v2,6d696372-6f70-4686-9f6e-655f61727261,A*%
%TF.SameCoordinates,Original*%
%TF.FileFunction,Drillmap*%
%TF.FilePolarity,Positive*%
%FSLAX45Y45*%
G04 Gerber Fmt 4.5, Leading zero omitted, Abs format (unit mm)*
G04 Created by KiCad (PCBNEW 10.0.5) date 2026-08-03 07:07:47*
%MOMM*%
%LPD*%
G01*
G04 APERTURE LIST*
%ADD10C,0.100000*%
%ADD11C,0.200000*%
%ADD12C,0.320000*%
G04 APERTURE END LIST*
D10*
X21000000Y-15000000D02*
G75*
G02*
X9000000Y-15000000I-6000000J0D01*
G01*
X9000000Y-15000000D02*
G75*
G02*
X21000000Y-15000000I6000000J0D01*
G01*
D11*
D12*
X11680415Y-16951167D02*
X12000415Y-17271167D01*
X12000415Y-16951167D02*
X11680415Y-17271167D01*
X12728833Y-11680415D02*
X13048833Y-12000415D01*
X13048833Y-11680415D02*
X12728833Y-12000415D01*
X16951167Y-17999585D02*
X17271167Y-18319585D01*
X17271167Y-17999585D02*
X16951167Y-18319585D01*
X17999585Y-12728833D02*
X18319585Y-13048833D01*
X18319585Y-12728833D02*
X17999585Y-13048833D01*
D11*
X9255777Y-21316484D02*
X9255777Y-21116484D01*
X9255777Y-21116484D02*
X9303396Y-21116484D01*
X9303396Y-21116484D02*
X9331967Y-21126008D01*
X9331967Y-21126008D02*
X9351015Y-21145055D01*
X9351015Y-21145055D02*
X9360539Y-21164103D01*
X9360539Y-21164103D02*
X9370063Y-21202198D01*
X9370063Y-21202198D02*
X9370063Y-21230770D01*
X9370063Y-21230770D02*
X9360539Y-21268865D01*
X9360539Y-21268865D02*
X9351015Y-21287912D01*
X9351015Y-21287912D02*
X9331967Y-21306960D01*
X9331967Y-21306960D02*
X9303396Y-21316484D01*
X9303396Y-21316484D02*
X9255777Y-21316484D01*
X9455777Y-21316484D02*
X9455777Y-21183150D01*
X9455777Y-21221246D02*
X9465301Y-21202198D01*
X9465301Y-21202198D02*
X9474824Y-21192674D01*
X9474824Y-21192674D02*
X9493872Y-21183150D01*
X9493872Y-21183150D02*
X9512920Y-21183150D01*
X9579586Y-21316484D02*
X9579586Y-21183150D01*
X9579586Y-21116484D02*
X9570063Y-21126008D01*
X9570063Y-21126008D02*
X9579586Y-21135531D01*
X9579586Y-21135531D02*
X9589110Y-21126008D01*
X9589110Y-21126008D02*
X9579586Y-21116484D01*
X9579586Y-21116484D02*
X9579586Y-21135531D01*
X9703396Y-21316484D02*
X9684348Y-21306960D01*
X9684348Y-21306960D02*
X9674824Y-21287912D01*
X9674824Y-21287912D02*
X9674824Y-21116484D01*
X9808158Y-21316484D02*
X9789110Y-21306960D01*
X9789110Y-21306960D02*
X9779586Y-21287912D01*
X9779586Y-21287912D02*
X9779586Y-21116484D01*
X10036729Y-21316484D02*
X10036729Y-21116484D01*
X10036729Y-21116484D02*
X10103396Y-21259341D01*
X10103396Y-21259341D02*
X10170063Y-21116484D01*
X10170063Y-21116484D02*
X10170063Y-21316484D01*
X10351015Y-21316484D02*
X10351015Y-21211722D01*
X10351015Y-21211722D02*
X10341491Y-21192674D01*
X10341491Y-21192674D02*
X10322444Y-21183150D01*
X10322444Y-21183150D02*
X10284348Y-21183150D01*
X10284348Y-21183150D02*
X10265301Y-21192674D01*
X10351015Y-21306960D02*
X10331967Y-21316484D01*
X10331967Y-21316484D02*
X10284348Y-21316484D01*
X10284348Y-21316484D02*
X10265301Y-21306960D01*
X10265301Y-21306960D02*
X10255777Y-21287912D01*
X10255777Y-21287912D02*
X10255777Y-21268865D01*
X10255777Y-21268865D02*
X10265301Y-21249817D01*
X10265301Y-21249817D02*
X10284348Y-21240293D01*
X10284348Y-21240293D02*
X10331967Y-21240293D01*
X10331967Y-21240293D02*
X10351015Y-21230770D01*
X10446253Y-21183150D02*
X10446253Y-21383150D01*
X10446253Y-21192674D02*
X10465301Y-21183150D01*
X10465301Y-21183150D02*
X10503396Y-21183150D01*
X10503396Y-21183150D02*
X10522444Y-21192674D01*
X10522444Y-21192674D02*
X10531967Y-21202198D01*
X10531967Y-21202198D02*
X10541491Y-21221246D01*
X10541491Y-21221246D02*
X10541491Y-21278389D01*
X10541491Y-21278389D02*
X10531967Y-21297436D01*
X10531967Y-21297436D02*
X10522444Y-21306960D01*
X10522444Y-21306960D02*
X10503396Y-21316484D01*
X10503396Y-21316484D02*
X10465301Y-21316484D01*
X10465301Y-21316484D02*
X10446253Y-21306960D01*
X10627205Y-21297436D02*
X10636729Y-21306960D01*
X10636729Y-21306960D02*
X10627205Y-21316484D01*
X10627205Y-21316484D02*
X10617682Y-21306960D01*
X10617682Y-21306960D02*
X10627205Y-21297436D01*
X10627205Y-21297436D02*
X10627205Y-21316484D01*
X10627205Y-21192674D02*
X10636729Y-21202198D01*
X10636729Y-21202198D02*
X10627205Y-21211722D01*
X10627205Y-21211722D02*
X10617682Y-21202198D01*
X10617682Y-21202198D02*
X10627205Y-21192674D01*
X10627205Y-21192674D02*
X10627205Y-21211722D01*
X8795000Y-21545000D02*
X8995000Y-21745000D01*
X8995000Y-21545000D02*
X8795000Y-21745000D01*
X9236729Y-21536484D02*
X9360539Y-21536484D01*
X9360539Y-21536484D02*
X9293872Y-21612674D01*
X9293872Y-21612674D02*
X9322444Y-21612674D01*
X9322444Y-21612674D02*
X9341491Y-21622198D01*
X9341491Y-21622198D02*
X9351015Y-21631722D01*
X9351015Y-21631722D02*
X9360539Y-21650770D01*
X9360539Y-21650770D02*
X9360539Y-21698389D01*
X9360539Y-21698389D02*
X9351015Y-21717436D01*
X9351015Y-21717436D02*
X9341491Y-21726960D01*
X9341491Y-21726960D02*
X9322444Y-21736484D01*
X9322444Y-21736484D02*
X9265301Y-21736484D01*
X9265301Y-21736484D02*
X9246253Y-21726960D01*
X9246253Y-21726960D02*
X9236729Y-21717436D01*
X9446253Y-21717436D02*
X9455777Y-21726960D01*
X9455777Y-21726960D02*
X9446253Y-21736484D01*
X9446253Y-21736484D02*
X9436729Y-21726960D01*
X9436729Y-21726960D02*
X9446253Y-21717436D01*
X9446253Y-21717436D02*
X9446253Y-21736484D01*
X9531967Y-21555531D02*
X9541491Y-21546008D01*
X9541491Y-21546008D02*
X9560539Y-21536484D01*
X9560539Y-21536484D02*
X9608158Y-21536484D01*
X9608158Y-21536484D02*
X9627205Y-21546008D01*
X9627205Y-21546008D02*
X9636729Y-21555531D01*
X9636729Y-21555531D02*
X9646253Y-21574579D01*
X9646253Y-21574579D02*
X9646253Y-21593627D01*
X9646253Y-21593627D02*
X9636729Y-21622198D01*
X9636729Y-21622198D02*
X9522444Y-21736484D01*
X9522444Y-21736484D02*
X9646253Y-21736484D01*
X9770063Y-21536484D02*
X9789110Y-21536484D01*
X9789110Y-21536484D02*
X9808158Y-21546008D01*
X9808158Y-21546008D02*
X9817682Y-21555531D01*
X9817682Y-21555531D02*
X9827205Y-21574579D01*
X9827205Y-21574579D02*
X9836729Y-21612674D01*
X9836729Y-21612674D02*
X9836729Y-21660293D01*
X9836729Y-21660293D02*
X9827205Y-21698389D01*
X9827205Y-21698389D02*
X9817682Y-21717436D01*
X9817682Y-21717436D02*
X9808158Y-21726960D01*
X9808158Y-21726960D02*
X9789110Y-21736484D01*
X9789110Y-21736484D02*
X9770063Y-21736484D01*
X9770063Y-21736484D02*
X9751015Y-21726960D01*
X9751015Y-21726960D02*
X9741491Y-21717436D01*
X9741491Y-21717436D02*
X9731967Y-21698389D01*
X9731967Y-21698389D02*
X9722444Y-21660293D01*
X9722444Y-21660293D02*
X9722444Y-21612674D01*
X9722444Y-21612674D02*
X9731967Y-21574579D01*
X9731967Y-21574579D02*
X9741491Y-21555531D01*
X9741491Y-21555531D02*
X9751015Y-21546008D01*
X9751015Y-21546008D02*
X9770063Y-21536484D01*
X9960539Y-21536484D02*
X9979586Y-21536484D01*
X9979586Y-21536484D02*
X9998634Y-21546008D01*
X9998634Y-21546008D02*
X10008158Y-21555531D01*
X10008158Y-21555531D02*
X10017682Y-21574579D01*
X10017682Y-21574579D02*
X10027205Y-21612674D01*
X10027205Y-21612674D02*
X10027205Y-21660293D01*
X10027205Y-21660293D02*
X10017682Y-21698389D01*
X10017682Y-21698389D02*
X10008158Y-21717436D01*
X10008158Y-21717436D02*
X9998634Y-21726960D01*
X9998634Y-21726960D02*
X9979586Y-21736484D01*
X9979586Y-21736484D02*
X9960539Y-21736484D01*
X9960539Y-21736484D02*
X9941491Y-21726960D01*
X9941491Y-21726960D02*
X9931967Y-21717436D01*
X9931967Y-21717436D02*
X9922444Y-21698389D01*
X9922444Y-21698389D02*
X9912920Y-21660293D01*
X9912920Y-21660293D02*
X9912920Y-21612674D01*
X9912920Y-21612674D02*
X9922444Y-21574579D01*
X9922444Y-21574579D02*
X9931967Y-21555531D01*
X9931967Y-21555531D02*
X9941491Y-21546008D01*
X9941491Y-21546008D02*
X9960539Y-21536484D01*
X10112920Y-21736484D02*
X10112920Y-21603150D01*
X10112920Y-21622198D02*
X10122444Y-21612674D01*
X10122444Y-21612674D02*
X10141491Y-21603150D01*
X10141491Y-21603150D02*
X10170063Y-21603150D01*
X10170063Y-21603150D02*
X10189110Y-21612674D01*
X10189110Y-21612674D02*
X10198634Y-21631722D01*
X10198634Y-21631722D02*
X10198634Y-21736484D01*
X10198634Y-21631722D02*
X10208158Y-21612674D01*
X10208158Y-21612674D02*
X10227205Y-21603150D01*
X10227205Y-21603150D02*
X10255777Y-21603150D01*
X10255777Y-21603150D02*
X10274825Y-21612674D01*
X10274825Y-21612674D02*
X10284348Y-21631722D01*
X10284348Y-21631722D02*
X10284348Y-21736484D01*
X10379586Y-21736484D02*
X10379586Y-21603150D01*
X10379586Y-21622198D02*
X10389110Y-21612674D01*
X10389110Y-21612674D02*
X10408158Y-21603150D01*
X10408158Y-21603150D02*
X10436729Y-21603150D01*
X10436729Y-21603150D02*
X10455777Y-21612674D01*
X10455777Y-21612674D02*
X10465301Y-21631722D01*
X10465301Y-21631722D02*
X10465301Y-21736484D01*
X10465301Y-21631722D02*
X10474825Y-21612674D01*
X10474825Y-21612674D02*
X10493872Y-21603150D01*
X10493872Y-21603150D02*
X10522444Y-21603150D01*
X10522444Y-21603150D02*
X10541491Y-21612674D01*
X10541491Y-21612674D02*
X10551015Y-21631722D01*
X10551015Y-21631722D02*
X10551015Y-21736484D01*
X10941491Y-21526960D02*
X10770063Y-21784103D01*
X11198634Y-21536484D02*
X11217682Y-21536484D01*
X11217682Y-21536484D02*
X11236729Y-21546008D01*
X11236729Y-21546008D02*
X11246253Y-21555531D01*
X11246253Y-21555531D02*
X11255777Y-21574579D01*
X11255777Y-21574579D02*
X11265301Y-21612674D01*
X11265301Y-21612674D02*
X11265301Y-21660293D01*
X11265301Y-21660293D02*
X11255777Y-21698389D01*
X11255777Y-21698389D02*
X11246253Y-21717436D01*
X11246253Y-21717436D02*
X11236729Y-21726960D01*
X11236729Y-21726960D02*
X11217682Y-21736484D01*
X11217682Y-21736484D02*
X11198634Y-21736484D01*
X11198634Y-21736484D02*
X11179587Y-21726960D01*
X11179587Y-21726960D02*
X11170063Y-21717436D01*
X11170063Y-21717436D02*
X11160539Y-21698389D01*
X11160539Y-21698389D02*
X11151015Y-21660293D01*
X11151015Y-21660293D02*
X11151015Y-21612674D01*
X11151015Y-21612674D02*
X11160539Y-21574579D01*
X11160539Y-21574579D02*
X11170063Y-21555531D01*
X11170063Y-21555531D02*
X11179587Y-21546008D01*
X11179587Y-21546008D02*
X11198634Y-21536484D01*
X11351015Y-21717436D02*
X11360539Y-21726960D01*
X11360539Y-21726960D02*
X11351015Y-21736484D01*
X11351015Y-21736484D02*
X11341491Y-21726960D01*
X11341491Y-21726960D02*
X11351015Y-21717436D01*
X11351015Y-21717436D02*
X11351015Y-21736484D01*
X11551015Y-21736484D02*
X11436729Y-21736484D01*
X11493872Y-21736484D02*
X11493872Y-21536484D01*
X11493872Y-21536484D02*
X11474825Y-21565055D01*
X11474825Y-21565055D02*
X11455777Y-21584103D01*
X11455777Y-21584103D02*
X11436729Y-21593627D01*
X11627206Y-21555531D02*
X11636729Y-21546008D01*
X11636729Y-21546008D02*
X11655777Y-21536484D01*
X11655777Y-21536484D02*
X11703396Y-21536484D01*
X11703396Y-21536484D02*
X11722444Y-21546008D01*
X11722444Y-21546008D02*
X11731967Y-21555531D01*
X11731967Y-21555531D02*
X11741491Y-21574579D01*
X11741491Y-21574579D02*
X11741491Y-21593627D01*
X11741491Y-21593627D02*
X11731967Y-21622198D01*
X11731967Y-21622198D02*
X11617682Y-21736484D01*
X11617682Y-21736484D02*
X11741491Y-21736484D01*
X11912920Y-21536484D02*
X11874825Y-21536484D01*
X11874825Y-21536484D02*
X11855777Y-21546008D01*
X11855777Y-21546008D02*
X11846253Y-21555531D01*
X11846253Y-21555531D02*
X11827206Y-21584103D01*
X11827206Y-21584103D02*
X11817682Y-21622198D01*
X11817682Y-21622198D02*
X11817682Y-21698389D01*
X11817682Y-21698389D02*
X11827206Y-21717436D01*
X11827206Y-21717436D02*
X11836729Y-21726960D01*
X11836729Y-21726960D02*
X11855777Y-21736484D01*
X11855777Y-21736484D02*
X11893872Y-21736484D01*
X11893872Y-21736484D02*
X11912920Y-21726960D01*
X11912920Y-21726960D02*
X11922444Y-21717436D01*
X11922444Y-21717436D02*
X11931967Y-21698389D01*
X11931967Y-21698389D02*
X11931967Y-21650770D01*
X11931967Y-21650770D02*
X11922444Y-21631722D01*
X11922444Y-21631722D02*
X11912920Y-21622198D01*
X11912920Y-21622198D02*
X11893872Y-21612674D01*
X11893872Y-21612674D02*
X11855777Y-21612674D01*
X11855777Y-21612674D02*
X11836729Y-21622198D01*
X11836729Y-21622198D02*
X11827206Y-21631722D01*
X11827206Y-21631722D02*
X11817682Y-21650770D01*
X12055777Y-21536484D02*
X12074825Y-21536484D01*
X12074825Y-21536484D02*
X12093872Y-21546008D01*
X12093872Y-21546008D02*
X12103396Y-21555531D01*
X12103396Y-21555531D02*
X12112920Y-21574579D01*
X12112920Y-21574579D02*
X12122444Y-21612674D01*
X12122444Y-21612674D02*
X12122444Y-21660293D01*
X12122444Y-21660293D02*
X12112920Y-21698389D01*
X12112920Y-21698389D02*
X12103396Y-21717436D01*
X12103396Y-21717436D02*
X12093872Y-21726960D01*
X12093872Y-21726960D02*
X12074825Y-21736484D01*
X12074825Y-21736484D02*
X12055777Y-21736484D01*
X12055777Y-21736484D02*
X12036729Y-21726960D01*
X12036729Y-21726960D02*
X12027206Y-21717436D01*
X12027206Y-21717436D02*
X12017682Y-21698389D01*
X12017682Y-21698389D02*
X12008158Y-21660293D01*
X12008158Y-21660293D02*
X12008158Y-21612674D01*
X12008158Y-21612674D02*
X12017682Y-21574579D01*
X12017682Y-21574579D02*
X12027206Y-21555531D01*
X12027206Y-21555531D02*
X12036729Y-21546008D01*
X12036729Y-21546008D02*
X12055777Y-21536484D01*
X12198634Y-21536484D02*
X12198634Y-21574579D01*
X12274825Y-21536484D02*
X12274825Y-21574579D01*
X12570063Y-21812674D02*
X12560539Y-21803150D01*
X12560539Y-21803150D02*
X12541491Y-21774579D01*
X12541491Y-21774579D02*
X12531968Y-21755531D01*
X12531968Y-21755531D02*
X12522444Y-21726960D01*
X12522444Y-21726960D02*
X12512920Y-21679341D01*
X12512920Y-21679341D02*
X12512920Y-21641246D01*
X12512920Y-21641246D02*
X12522444Y-21593627D01*
X12522444Y-21593627D02*
X12531968Y-21565055D01*
X12531968Y-21565055D02*
X12541491Y-21546008D01*
X12541491Y-21546008D02*
X12560539Y-21517436D01*
X12560539Y-21517436D02*
X12570063Y-21507912D01*
X12731968Y-21603150D02*
X12731968Y-21736484D01*
X12684348Y-21526960D02*
X12636729Y-21669817D01*
X12636729Y-21669817D02*
X12760539Y-21669817D01*
X12989110Y-21736484D02*
X12989110Y-21536484D01*
X13074825Y-21736484D02*
X13074825Y-21631722D01*
X13074825Y-21631722D02*
X13065301Y-21612674D01*
X13065301Y-21612674D02*
X13046253Y-21603150D01*
X13046253Y-21603150D02*
X13017682Y-21603150D01*
X13017682Y-21603150D02*
X12998634Y-21612674D01*
X12998634Y-21612674D02*
X12989110Y-21622198D01*
X13198634Y-21736484D02*
X13179587Y-21726960D01*
X13179587Y-21726960D02*
X13170063Y-21717436D01*
X13170063Y-21717436D02*
X13160539Y-21698389D01*
X13160539Y-21698389D02*
X13160539Y-21641246D01*
X13160539Y-21641246D02*
X13170063Y-21622198D01*
X13170063Y-21622198D02*
X13179587Y-21612674D01*
X13179587Y-21612674D02*
X13198634Y-21603150D01*
X13198634Y-21603150D02*
X13227206Y-21603150D01*
X13227206Y-21603150D02*
X13246253Y-21612674D01*
X13246253Y-21612674D02*
X13255777Y-21622198D01*
X13255777Y-21622198D02*
X13265301Y-21641246D01*
X13265301Y-21641246D02*
X13265301Y-21698389D01*
X13265301Y-21698389D02*
X13255777Y-21717436D01*
X13255777Y-21717436D02*
X13246253Y-21726960D01*
X13246253Y-21726960D02*
X13227206Y-21736484D01*
X13227206Y-21736484D02*
X13198634Y-21736484D01*
X13379587Y-21736484D02*
X13360539Y-21726960D01*
X13360539Y-21726960D02*
X13351015Y-21707912D01*
X13351015Y-21707912D02*
X13351015Y-21536484D01*
X13531968Y-21726960D02*
X13512920Y-21736484D01*
X13512920Y-21736484D02*
X13474825Y-21736484D01*
X13474825Y-21736484D02*
X13455777Y-21726960D01*
X13455777Y-21726960D02*
X13446253Y-21707912D01*
X13446253Y-21707912D02*
X13446253Y-21631722D01*
X13446253Y-21631722D02*
X13455777Y-21612674D01*
X13455777Y-21612674D02*
X13474825Y-21603150D01*
X13474825Y-21603150D02*
X13512920Y-21603150D01*
X13512920Y-21603150D02*
X13531968Y-21612674D01*
X13531968Y-21612674D02*
X13541491Y-21631722D01*
X13541491Y-21631722D02*
X13541491Y-21650770D01*
X13541491Y-21650770D02*
X13446253Y-21669817D01*
X13617682Y-21726960D02*
X13636730Y-21736484D01*
X13636730Y-21736484D02*
X13674825Y-21736484D01*
X13674825Y-21736484D02*
X13693872Y-21726960D01*
X13693872Y-21726960D02*
X13703396Y-21707912D01*
X13703396Y-21707912D02*
X13703396Y-21698389D01*
X13703396Y-21698389D02*
X13693872Y-21679341D01*
X13693872Y-21679341D02*
X13674825Y-21669817D01*
X13674825Y-21669817D02*
X13646253Y-21669817D01*
X13646253Y-21669817D02*
X13627206Y-21660293D01*
X13627206Y-21660293D02*
X13617682Y-21641246D01*
X13617682Y-21641246D02*
X13617682Y-21631722D01*
X13617682Y-21631722D02*
X13627206Y-21612674D01*
X13627206Y-21612674D02*
X13646253Y-21603150D01*
X13646253Y-21603150D02*
X13674825Y-21603150D01*
X13674825Y-21603150D02*
X13693872Y-21612674D01*
X13770063Y-21812674D02*
X13779587Y-21803150D01*
X13779587Y-21803150D02*
X13798634Y-21774579D01*
X13798634Y-21774579D02*
X13808158Y-21755531D01*
X13808158Y-21755531D02*
X13817682Y-21726960D01*
X13817682Y-21726960D02*
X13827206Y-21679341D01*
X13827206Y-21679341D02*
X13827206Y-21641246D01*
X13827206Y-21641246D02*
X13817682Y-21593627D01*
X13817682Y-21593627D02*
X13808158Y-21565055D01*
X13808158Y-21565055D02*
X13798634Y-21546008D01*
X13798634Y-21546008D02*
X13779587Y-21517436D01*
X13779587Y-21517436D02*
X13770063Y-21507912D01*
X14131968Y-21812674D02*
X14122444Y-21803150D01*
X14122444Y-21803150D02*
X14103396Y-21774579D01*
X14103396Y-21774579D02*
X14093872Y-21755531D01*
X14093872Y-21755531D02*
X14084349Y-21726960D01*
X14084349Y-21726960D02*
X14074825Y-21679341D01*
X14074825Y-21679341D02*
X14074825Y-21641246D01*
X14074825Y-21641246D02*
X14084349Y-21593627D01*
X14084349Y-21593627D02*
X14093872Y-21565055D01*
X14093872Y-21565055D02*
X14103396Y-21546008D01*
X14103396Y-21546008D02*
X14122444Y-21517436D01*
X14122444Y-21517436D02*
X14131968Y-21507912D01*
X14208158Y-21603150D02*
X14208158Y-21736484D01*
X14208158Y-21622198D02*
X14217682Y-21612674D01*
X14217682Y-21612674D02*
X14236730Y-21603150D01*
X14236730Y-21603150D02*
X14265301Y-21603150D01*
X14265301Y-21603150D02*
X14284349Y-21612674D01*
X14284349Y-21612674D02*
X14293872Y-21631722D01*
X14293872Y-21631722D02*
X14293872Y-21736484D01*
X14417682Y-21736484D02*
X14398634Y-21726960D01*
X14398634Y-21726960D02*
X14389111Y-21717436D01*
X14389111Y-21717436D02*
X14379587Y-21698389D01*
X14379587Y-21698389D02*
X14379587Y-21641246D01*
X14379587Y-21641246D02*
X14389111Y-21622198D01*
X14389111Y-21622198D02*
X14398634Y-21612674D01*
X14398634Y-21612674D02*
X14417682Y-21603150D01*
X14417682Y-21603150D02*
X14446253Y-21603150D01*
X14446253Y-21603150D02*
X14465301Y-21612674D01*
X14465301Y-21612674D02*
X14474825Y-21622198D01*
X14474825Y-21622198D02*
X14484349Y-21641246D01*
X14484349Y-21641246D02*
X14484349Y-21698389D01*
X14484349Y-21698389D02*
X14474825Y-21717436D01*
X14474825Y-21717436D02*
X14465301Y-21726960D01*
X14465301Y-21726960D02*
X14446253Y-21736484D01*
X14446253Y-21736484D02*
X14417682Y-21736484D01*
X14541492Y-21603150D02*
X14617682Y-21603150D01*
X14570063Y-21536484D02*
X14570063Y-21707912D01*
X14570063Y-21707912D02*
X14579587Y-21726960D01*
X14579587Y-21726960D02*
X14598634Y-21736484D01*
X14598634Y-21736484D02*
X14617682Y-21736484D01*
X14836730Y-21603150D02*
X14836730Y-21803150D01*
X14836730Y-21612674D02*
X14855777Y-21603150D01*
X14855777Y-21603150D02*
X14893873Y-21603150D01*
X14893873Y-21603150D02*
X14912920Y-21612674D01*
X14912920Y-21612674D02*
X14922444Y-21622198D01*
X14922444Y-21622198D02*
X14931968Y-21641246D01*
X14931968Y-21641246D02*
X14931968Y-21698389D01*
X14931968Y-21698389D02*
X14922444Y-21717436D01*
X14922444Y-21717436D02*
X14912920Y-21726960D01*
X14912920Y-21726960D02*
X14893873Y-21736484D01*
X14893873Y-21736484D02*
X14855777Y-21736484D01*
X14855777Y-21736484D02*
X14836730Y-21726960D01*
X15046253Y-21736484D02*
X15027206Y-21726960D01*
X15027206Y-21726960D02*
X15017682Y-21707912D01*
X15017682Y-21707912D02*
X15017682Y-21536484D01*
X15208158Y-21736484D02*
X15208158Y-21631722D01*
X15208158Y-21631722D02*
X15198634Y-21612674D01*
X15198634Y-21612674D02*
X15179587Y-21603150D01*
X15179587Y-21603150D02*
X15141492Y-21603150D01*
X15141492Y-21603150D02*
X15122444Y-21612674D01*
X15208158Y-21726960D02*
X15189111Y-21736484D01*
X15189111Y-21736484D02*
X15141492Y-21736484D01*
X15141492Y-21736484D02*
X15122444Y-21726960D01*
X15122444Y-21726960D02*
X15112920Y-21707912D01*
X15112920Y-21707912D02*
X15112920Y-21688865D01*
X15112920Y-21688865D02*
X15122444Y-21669817D01*
X15122444Y-21669817D02*
X15141492Y-21660293D01*
X15141492Y-21660293D02*
X15189111Y-21660293D01*
X15189111Y-21660293D02*
X15208158Y-21650770D01*
X15274825Y-21603150D02*
X15351015Y-21603150D01*
X15303396Y-21536484D02*
X15303396Y-21707912D01*
X15303396Y-21707912D02*
X15312920Y-21726960D01*
X15312920Y-21726960D02*
X15331968Y-21736484D01*
X15331968Y-21736484D02*
X15351015Y-21736484D01*
X15493873Y-21726960D02*
X15474825Y-21736484D01*
X15474825Y-21736484D02*
X15436730Y-21736484D01*
X15436730Y-21736484D02*
X15417682Y-21726960D01*
X15417682Y-21726960D02*
X15408158Y-21707912D01*
X15408158Y-21707912D02*
X15408158Y-21631722D01*
X15408158Y-21631722D02*
X15417682Y-21612674D01*
X15417682Y-21612674D02*
X15436730Y-21603150D01*
X15436730Y-21603150D02*
X15474825Y-21603150D01*
X15474825Y-21603150D02*
X15493873Y-21612674D01*
X15493873Y-21612674D02*
X15503396Y-21631722D01*
X15503396Y-21631722D02*
X15503396Y-21650770D01*
X15503396Y-21650770D02*
X15408158Y-21669817D01*
X15674825Y-21736484D02*
X15674825Y-21536484D01*
X15674825Y-21726960D02*
X15655777Y-21736484D01*
X15655777Y-21736484D02*
X15617682Y-21736484D01*
X15617682Y-21736484D02*
X15598634Y-21726960D01*
X15598634Y-21726960D02*
X15589111Y-21717436D01*
X15589111Y-21717436D02*
X15579587Y-21698389D01*
X15579587Y-21698389D02*
X15579587Y-21641246D01*
X15579587Y-21641246D02*
X15589111Y-21622198D01*
X15589111Y-21622198D02*
X15598634Y-21612674D01*
X15598634Y-21612674D02*
X15617682Y-21603150D01*
X15617682Y-21603150D02*
X15655777Y-21603150D01*
X15655777Y-21603150D02*
X15674825Y-21612674D01*
X15751015Y-21812674D02*
X15760539Y-21803150D01*
X15760539Y-21803150D02*
X15779587Y-21774579D01*
X15779587Y-21774579D02*
X15789111Y-21755531D01*
X15789111Y-21755531D02*
X15798634Y-21726960D01*
X15798634Y-21726960D02*
X15808158Y-21679341D01*
X15808158Y-21679341D02*
X15808158Y-21641246D01*
X15808158Y-21641246D02*
X15798634Y-21593627D01*
X15798634Y-21593627D02*
X15789111Y-21565055D01*
X15789111Y-21565055D02*
X15779587Y-21546008D01*
X15779587Y-21546008D02*
X15760539Y-21517436D01*
X15760539Y-21517436D02*
X15751015Y-21507912D01*
M02*
