G04 #@! TF.GenerationSoftware,KiCad,Pcbnew,10.0.5*
G04 #@! TF.CreationDate,2026-08-07T20:22:58-07:00*
G04 #@! TF.ProjectId,microphone_array_v2,6d696372-6f70-4686-9f6e-655f61727261,rev?*
G04 #@! TF.SameCoordinates,Original*
G04 #@! TF.FileFunction,Legend,Top*
G04 #@! TF.FilePolarity,Positive*
%FSLAX46Y46*%
G04 Gerber Fmt 4.6, Leading zero omitted, Abs format (unit mm)*
G04 Created by KiCad (PCBNEW 10.0.5) date 2026-08-07 20:22:58*
%MOMM*%
%LPD*%
G01*
G04 APERTURE LIST*
%ADD10C,0.150000*%
%ADD11C,0.160000*%
%ADD12C,0.120000*%
%ADD13C,0.225000*%
%ADD14C,0.224999*%
%ADD15C,1.000000*%
%ADD16C,1.500000*%
%ADD17R,0.400000X0.950000*%
%ADD18R,1.300000X0.350000*%
%ADD19R,0.350000X2.300000*%
%ADD20R,0.950000X0.400000*%
%ADD21R,0.350000X1.300000*%
%ADD22R,2.300000X0.350000*%
%ADD23R,1.300000X1.200000*%
%ADD24R,1.700000X1.700000*%
%ADD25C,1.700000*%
G04 APERTURE END LIST*
D10*
X106824944Y-169764781D02*
X106824944Y-168764781D01*
X106824944Y-168764781D02*
X107205896Y-168764781D01*
X107205896Y-168764781D02*
X107301134Y-168812400D01*
X107301134Y-168812400D02*
X107348753Y-168860019D01*
X107348753Y-168860019D02*
X107396372Y-168955257D01*
X107396372Y-168955257D02*
X107396372Y-169098114D01*
X107396372Y-169098114D02*
X107348753Y-169193352D01*
X107348753Y-169193352D02*
X107301134Y-169240971D01*
X107301134Y-169240971D02*
X107205896Y-169288590D01*
X107205896Y-169288590D02*
X106824944Y-169288590D01*
X107824944Y-169764781D02*
X107824944Y-168764781D01*
X107824944Y-168764781D02*
X108063039Y-168764781D01*
X108063039Y-168764781D02*
X108205896Y-168812400D01*
X108205896Y-168812400D02*
X108301134Y-168907638D01*
X108301134Y-168907638D02*
X108348753Y-169002876D01*
X108348753Y-169002876D02*
X108396372Y-169193352D01*
X108396372Y-169193352D02*
X108396372Y-169336209D01*
X108396372Y-169336209D02*
X108348753Y-169526685D01*
X108348753Y-169526685D02*
X108301134Y-169621923D01*
X108301134Y-169621923D02*
X108205896Y-169717162D01*
X108205896Y-169717162D02*
X108063039Y-169764781D01*
X108063039Y-169764781D02*
X107824944Y-169764781D01*
X108824944Y-169764781D02*
X108824944Y-168764781D01*
X108824944Y-168764781D02*
X109158277Y-169479066D01*
X109158277Y-169479066D02*
X109491610Y-168764781D01*
X109491610Y-168764781D02*
X109491610Y-169764781D01*
X109729706Y-169860019D02*
X110491610Y-169860019D01*
X110729706Y-169764781D02*
X110729706Y-168764781D01*
X110729706Y-168764781D02*
X110967801Y-168764781D01*
X110967801Y-168764781D02*
X111110658Y-168812400D01*
X111110658Y-168812400D02*
X111205896Y-168907638D01*
X111205896Y-168907638D02*
X111253515Y-169002876D01*
X111253515Y-169002876D02*
X111301134Y-169193352D01*
X111301134Y-169193352D02*
X111301134Y-169336209D01*
X111301134Y-169336209D02*
X111253515Y-169526685D01*
X111253515Y-169526685D02*
X111205896Y-169621923D01*
X111205896Y-169621923D02*
X111110658Y-169717162D01*
X111110658Y-169717162D02*
X110967801Y-169764781D01*
X110967801Y-169764781D02*
X110729706Y-169764781D01*
X112158277Y-169098114D02*
X112158277Y-169764781D01*
X111920182Y-168717162D02*
X111682087Y-169431447D01*
X111682087Y-169431447D02*
X112301134Y-169431447D01*
X112451199Y-122227104D02*
X112451199Y-121227104D01*
X112451199Y-121227104D02*
X112832151Y-121227104D01*
X112832151Y-121227104D02*
X112927389Y-121274723D01*
X112927389Y-121274723D02*
X112975008Y-121322342D01*
X112975008Y-121322342D02*
X113022627Y-121417580D01*
X113022627Y-121417580D02*
X113022627Y-121560437D01*
X113022627Y-121560437D02*
X112975008Y-121655675D01*
X112975008Y-121655675D02*
X112927389Y-121703294D01*
X112927389Y-121703294D02*
X112832151Y-121750913D01*
X112832151Y-121750913D02*
X112451199Y-121750913D01*
X113451199Y-122227104D02*
X113451199Y-121227104D01*
X113451199Y-121227104D02*
X113689294Y-121227104D01*
X113689294Y-121227104D02*
X113832151Y-121274723D01*
X113832151Y-121274723D02*
X113927389Y-121369961D01*
X113927389Y-121369961D02*
X113975008Y-121465199D01*
X113975008Y-121465199D02*
X114022627Y-121655675D01*
X114022627Y-121655675D02*
X114022627Y-121798532D01*
X114022627Y-121798532D02*
X113975008Y-121989008D01*
X113975008Y-121989008D02*
X113927389Y-122084246D01*
X113927389Y-122084246D02*
X113832151Y-122179485D01*
X113832151Y-122179485D02*
X113689294Y-122227104D01*
X113689294Y-122227104D02*
X113451199Y-122227104D01*
X114451199Y-122227104D02*
X114451199Y-121227104D01*
X114451199Y-121227104D02*
X114784532Y-121941389D01*
X114784532Y-121941389D02*
X115117865Y-121227104D01*
X115117865Y-121227104D02*
X115117865Y-122227104D01*
X115355961Y-122322342D02*
X116117865Y-122322342D01*
X116355961Y-122227104D02*
X116355961Y-121227104D01*
X116355961Y-121227104D02*
X116594056Y-121227104D01*
X116594056Y-121227104D02*
X116736913Y-121274723D01*
X116736913Y-121274723D02*
X116832151Y-121369961D01*
X116832151Y-121369961D02*
X116879770Y-121465199D01*
X116879770Y-121465199D02*
X116927389Y-121655675D01*
X116927389Y-121655675D02*
X116927389Y-121798532D01*
X116927389Y-121798532D02*
X116879770Y-121989008D01*
X116879770Y-121989008D02*
X116832151Y-122084246D01*
X116832151Y-122084246D02*
X116736913Y-122179485D01*
X116736913Y-122179485D02*
X116594056Y-122227104D01*
X116594056Y-122227104D02*
X116355961Y-122227104D01*
X117260723Y-121227104D02*
X117879770Y-121227104D01*
X117879770Y-121227104D02*
X117546437Y-121608056D01*
X117546437Y-121608056D02*
X117689294Y-121608056D01*
X117689294Y-121608056D02*
X117784532Y-121655675D01*
X117784532Y-121655675D02*
X117832151Y-121703294D01*
X117832151Y-121703294D02*
X117879770Y-121798532D01*
X117879770Y-121798532D02*
X117879770Y-122036627D01*
X117879770Y-122036627D02*
X117832151Y-122131865D01*
X117832151Y-122131865D02*
X117784532Y-122179485D01*
X117784532Y-122179485D02*
X117689294Y-122227104D01*
X117689294Y-122227104D02*
X117403580Y-122227104D01*
X117403580Y-122227104D02*
X117308342Y-122179485D01*
X117308342Y-122179485D02*
X117260723Y-122131865D01*
X119081809Y-185313143D02*
X119081809Y-184313143D01*
X119081809Y-184313143D02*
X119462761Y-184313143D01*
X119462761Y-184313143D02*
X119557999Y-184360762D01*
X119557999Y-184360762D02*
X119605618Y-184408381D01*
X119605618Y-184408381D02*
X119653237Y-184503619D01*
X119653237Y-184503619D02*
X119653237Y-184646476D01*
X119653237Y-184646476D02*
X119605618Y-184741714D01*
X119605618Y-184741714D02*
X119557999Y-184789333D01*
X119557999Y-184789333D02*
X119462761Y-184836952D01*
X119462761Y-184836952D02*
X119081809Y-184836952D01*
X120081809Y-185313143D02*
X120081809Y-184313143D01*
X120081809Y-184313143D02*
X120319904Y-184313143D01*
X120319904Y-184313143D02*
X120462761Y-184360762D01*
X120462761Y-184360762D02*
X120557999Y-184456000D01*
X120557999Y-184456000D02*
X120605618Y-184551238D01*
X120605618Y-184551238D02*
X120653237Y-184741714D01*
X120653237Y-184741714D02*
X120653237Y-184884571D01*
X120653237Y-184884571D02*
X120605618Y-185075047D01*
X120605618Y-185075047D02*
X120557999Y-185170285D01*
X120557999Y-185170285D02*
X120462761Y-185265524D01*
X120462761Y-185265524D02*
X120319904Y-185313143D01*
X120319904Y-185313143D02*
X120081809Y-185313143D01*
X121081809Y-185313143D02*
X121081809Y-184313143D01*
X121081809Y-184313143D02*
X121415142Y-185027428D01*
X121415142Y-185027428D02*
X121748475Y-184313143D01*
X121748475Y-184313143D02*
X121748475Y-185313143D01*
X121986571Y-185408381D02*
X122748475Y-185408381D01*
X122986571Y-185313143D02*
X122986571Y-184313143D01*
X122986571Y-184313143D02*
X123224666Y-184313143D01*
X123224666Y-184313143D02*
X123367523Y-184360762D01*
X123367523Y-184360762D02*
X123462761Y-184456000D01*
X123462761Y-184456000D02*
X123510380Y-184551238D01*
X123510380Y-184551238D02*
X123557999Y-184741714D01*
X123557999Y-184741714D02*
X123557999Y-184884571D01*
X123557999Y-184884571D02*
X123510380Y-185075047D01*
X123510380Y-185075047D02*
X123462761Y-185170285D01*
X123462761Y-185170285D02*
X123367523Y-185265524D01*
X123367523Y-185265524D02*
X123224666Y-185313143D01*
X123224666Y-185313143D02*
X122986571Y-185313143D01*
X124462761Y-184313143D02*
X123986571Y-184313143D01*
X123986571Y-184313143D02*
X123938952Y-184789333D01*
X123938952Y-184789333D02*
X123986571Y-184741714D01*
X123986571Y-184741714D02*
X124081809Y-184694095D01*
X124081809Y-184694095D02*
X124319904Y-184694095D01*
X124319904Y-184694095D02*
X124415142Y-184741714D01*
X124415142Y-184741714D02*
X124462761Y-184789333D01*
X124462761Y-184789333D02*
X124510380Y-184884571D01*
X124510380Y-184884571D02*
X124510380Y-185122666D01*
X124510380Y-185122666D02*
X124462761Y-185217904D01*
X124462761Y-185217904D02*
X124415142Y-185265524D01*
X124415142Y-185265524D02*
X124319904Y-185313143D01*
X124319904Y-185313143D02*
X124081809Y-185313143D01*
X124081809Y-185313143D02*
X123986571Y-185265524D01*
X123986571Y-185265524D02*
X123938952Y-185217904D01*
X142621004Y-105846533D02*
X142621004Y-104846533D01*
X142621004Y-104846533D02*
X143001956Y-104846533D01*
X143001956Y-104846533D02*
X143097194Y-104894152D01*
X143097194Y-104894152D02*
X143144813Y-104941771D01*
X143144813Y-104941771D02*
X143192432Y-105037009D01*
X143192432Y-105037009D02*
X143192432Y-105179866D01*
X143192432Y-105179866D02*
X143144813Y-105275104D01*
X143144813Y-105275104D02*
X143097194Y-105322723D01*
X143097194Y-105322723D02*
X143001956Y-105370342D01*
X143001956Y-105370342D02*
X142621004Y-105370342D01*
X143621004Y-105846533D02*
X143621004Y-104846533D01*
X143621004Y-104846533D02*
X143859099Y-104846533D01*
X143859099Y-104846533D02*
X144001956Y-104894152D01*
X144001956Y-104894152D02*
X144097194Y-104989390D01*
X144097194Y-104989390D02*
X144144813Y-105084628D01*
X144144813Y-105084628D02*
X144192432Y-105275104D01*
X144192432Y-105275104D02*
X144192432Y-105417961D01*
X144192432Y-105417961D02*
X144144813Y-105608437D01*
X144144813Y-105608437D02*
X144097194Y-105703675D01*
X144097194Y-105703675D02*
X144001956Y-105798914D01*
X144001956Y-105798914D02*
X143859099Y-105846533D01*
X143859099Y-105846533D02*
X143621004Y-105846533D01*
X144621004Y-105846533D02*
X144621004Y-104846533D01*
X144621004Y-104846533D02*
X144954337Y-105560818D01*
X144954337Y-105560818D02*
X145287670Y-104846533D01*
X145287670Y-104846533D02*
X145287670Y-105846533D01*
X145525766Y-105941771D02*
X146287670Y-105941771D01*
X146525766Y-105846533D02*
X146525766Y-104846533D01*
X146525766Y-104846533D02*
X146763861Y-104846533D01*
X146763861Y-104846533D02*
X146906718Y-104894152D01*
X146906718Y-104894152D02*
X147001956Y-104989390D01*
X147001956Y-104989390D02*
X147049575Y-105084628D01*
X147049575Y-105084628D02*
X147097194Y-105275104D01*
X147097194Y-105275104D02*
X147097194Y-105417961D01*
X147097194Y-105417961D02*
X147049575Y-105608437D01*
X147049575Y-105608437D02*
X147001956Y-105703675D01*
X147001956Y-105703675D02*
X146906718Y-105798914D01*
X146906718Y-105798914D02*
X146763861Y-105846533D01*
X146763861Y-105846533D02*
X146525766Y-105846533D01*
X147478147Y-104941771D02*
X147525766Y-104894152D01*
X147525766Y-104894152D02*
X147621004Y-104846533D01*
X147621004Y-104846533D02*
X147859099Y-104846533D01*
X147859099Y-104846533D02*
X147954337Y-104894152D01*
X147954337Y-104894152D02*
X148001956Y-104941771D01*
X148001956Y-104941771D02*
X148049575Y-105037009D01*
X148049575Y-105037009D02*
X148049575Y-105132247D01*
X148049575Y-105132247D02*
X148001956Y-105275104D01*
X148001956Y-105275104D02*
X147430528Y-105846533D01*
X147430528Y-105846533D02*
X148049575Y-105846533D01*
X145675928Y-168966908D02*
X146437833Y-168966908D01*
X146056880Y-169347861D02*
X146056880Y-168585956D01*
X147390213Y-168347861D02*
X146914023Y-168347861D01*
X146914023Y-168347861D02*
X146866404Y-168824051D01*
X146866404Y-168824051D02*
X146914023Y-168776432D01*
X146914023Y-168776432D02*
X147009261Y-168728813D01*
X147009261Y-168728813D02*
X147247356Y-168728813D01*
X147247356Y-168728813D02*
X147342594Y-168776432D01*
X147342594Y-168776432D02*
X147390213Y-168824051D01*
X147390213Y-168824051D02*
X147437832Y-168919289D01*
X147437832Y-168919289D02*
X147437832Y-169157384D01*
X147437832Y-169157384D02*
X147390213Y-169252622D01*
X147390213Y-169252622D02*
X147342594Y-169300242D01*
X147342594Y-169300242D02*
X147247356Y-169347861D01*
X147247356Y-169347861D02*
X147009261Y-169347861D01*
X147009261Y-169347861D02*
X146914023Y-169300242D01*
X146914023Y-169300242D02*
X146866404Y-169252622D01*
X147723547Y-168347861D02*
X148056880Y-169347861D01*
X148056880Y-169347861D02*
X148390213Y-168347861D01*
X153649092Y-123036453D02*
X153553854Y-122988834D01*
X153553854Y-122988834D02*
X153410997Y-122988834D01*
X153410997Y-122988834D02*
X153268140Y-123036453D01*
X153268140Y-123036453D02*
X153172902Y-123131691D01*
X153172902Y-123131691D02*
X153125283Y-123226929D01*
X153125283Y-123226929D02*
X153077664Y-123417405D01*
X153077664Y-123417405D02*
X153077664Y-123560262D01*
X153077664Y-123560262D02*
X153125283Y-123750738D01*
X153125283Y-123750738D02*
X153172902Y-123845976D01*
X153172902Y-123845976D02*
X153268140Y-123941215D01*
X153268140Y-123941215D02*
X153410997Y-123988834D01*
X153410997Y-123988834D02*
X153506235Y-123988834D01*
X153506235Y-123988834D02*
X153649092Y-123941215D01*
X153649092Y-123941215D02*
X153696711Y-123893595D01*
X153696711Y-123893595D02*
X153696711Y-123560262D01*
X153696711Y-123560262D02*
X153506235Y-123560262D01*
X154125283Y-123988834D02*
X154125283Y-122988834D01*
X154125283Y-122988834D02*
X154696711Y-123988834D01*
X154696711Y-123988834D02*
X154696711Y-122988834D01*
X155172902Y-123988834D02*
X155172902Y-122988834D01*
X155172902Y-122988834D02*
X155410997Y-122988834D01*
X155410997Y-122988834D02*
X155553854Y-123036453D01*
X155553854Y-123036453D02*
X155649092Y-123131691D01*
X155649092Y-123131691D02*
X155696711Y-123226929D01*
X155696711Y-123226929D02*
X155744330Y-123417405D01*
X155744330Y-123417405D02*
X155744330Y-123560262D01*
X155744330Y-123560262D02*
X155696711Y-123750738D01*
X155696711Y-123750738D02*
X155649092Y-123845976D01*
X155649092Y-123845976D02*
X155553854Y-123941215D01*
X155553854Y-123941215D02*
X155410997Y-123988834D01*
X155410997Y-123988834D02*
X155172902Y-123988834D01*
X152495345Y-174882218D02*
X152495345Y-173882218D01*
X152495345Y-174358408D02*
X153066773Y-174358408D01*
X153066773Y-174882218D02*
X153066773Y-173882218D01*
X153733440Y-173882218D02*
X153923916Y-173882218D01*
X153923916Y-173882218D02*
X154019154Y-173929837D01*
X154019154Y-173929837D02*
X154114392Y-174025075D01*
X154114392Y-174025075D02*
X154162011Y-174215551D01*
X154162011Y-174215551D02*
X154162011Y-174548884D01*
X154162011Y-174548884D02*
X154114392Y-174739360D01*
X154114392Y-174739360D02*
X154019154Y-174834599D01*
X154019154Y-174834599D02*
X153923916Y-174882218D01*
X153923916Y-174882218D02*
X153733440Y-174882218D01*
X153733440Y-174882218D02*
X153638202Y-174834599D01*
X153638202Y-174834599D02*
X153542964Y-174739360D01*
X153542964Y-174739360D02*
X153495345Y-174548884D01*
X153495345Y-174548884D02*
X153495345Y-174215551D01*
X153495345Y-174215551D02*
X153542964Y-174025075D01*
X153542964Y-174025075D02*
X153638202Y-173929837D01*
X153638202Y-173929837D02*
X153733440Y-173882218D01*
X154542964Y-174834599D02*
X154685821Y-174882218D01*
X154685821Y-174882218D02*
X154923916Y-174882218D01*
X154923916Y-174882218D02*
X155019154Y-174834599D01*
X155019154Y-174834599D02*
X155066773Y-174786979D01*
X155066773Y-174786979D02*
X155114392Y-174691741D01*
X155114392Y-174691741D02*
X155114392Y-174596503D01*
X155114392Y-174596503D02*
X155066773Y-174501265D01*
X155066773Y-174501265D02*
X155019154Y-174453646D01*
X155019154Y-174453646D02*
X154923916Y-174406027D01*
X154923916Y-174406027D02*
X154733440Y-174358408D01*
X154733440Y-174358408D02*
X154638202Y-174310789D01*
X154638202Y-174310789D02*
X154590583Y-174263170D01*
X154590583Y-174263170D02*
X154542964Y-174167932D01*
X154542964Y-174167932D02*
X154542964Y-174072694D01*
X154542964Y-174072694D02*
X154590583Y-173977456D01*
X154590583Y-173977456D02*
X154638202Y-173929837D01*
X154638202Y-173929837D02*
X154733440Y-173882218D01*
X154733440Y-173882218D02*
X154971535Y-173882218D01*
X154971535Y-173882218D02*
X155114392Y-173929837D01*
X155400107Y-173882218D02*
X155971535Y-173882218D01*
X155685821Y-174882218D02*
X155685821Y-173882218D01*
X156066774Y-174977456D02*
X156828678Y-174977456D01*
X157019155Y-174834599D02*
X157162012Y-174882218D01*
X157162012Y-174882218D02*
X157400107Y-174882218D01*
X157400107Y-174882218D02*
X157495345Y-174834599D01*
X157495345Y-174834599D02*
X157542964Y-174786979D01*
X157542964Y-174786979D02*
X157590583Y-174691741D01*
X157590583Y-174691741D02*
X157590583Y-174596503D01*
X157590583Y-174596503D02*
X157542964Y-174501265D01*
X157542964Y-174501265D02*
X157495345Y-174453646D01*
X157495345Y-174453646D02*
X157400107Y-174406027D01*
X157400107Y-174406027D02*
X157209631Y-174358408D01*
X157209631Y-174358408D02*
X157114393Y-174310789D01*
X157114393Y-174310789D02*
X157066774Y-174263170D01*
X157066774Y-174263170D02*
X157019155Y-174167932D01*
X157019155Y-174167932D02*
X157019155Y-174072694D01*
X157019155Y-174072694D02*
X157066774Y-173977456D01*
X157066774Y-173977456D02*
X157114393Y-173929837D01*
X157114393Y-173929837D02*
X157209631Y-173882218D01*
X157209631Y-173882218D02*
X157447726Y-173882218D01*
X157447726Y-173882218D02*
X157590583Y-173929837D01*
X157876298Y-173882218D02*
X158447726Y-173882218D01*
X158162012Y-174882218D02*
X158162012Y-173882218D01*
X158733441Y-174596503D02*
X159209631Y-174596503D01*
X158638203Y-174882218D02*
X158971536Y-173882218D01*
X158971536Y-173882218D02*
X159304869Y-174882218D01*
X159495346Y-173882218D02*
X160066774Y-173882218D01*
X159781060Y-174882218D02*
X159781060Y-173882218D01*
X160400108Y-173882218D02*
X160400108Y-174691741D01*
X160400108Y-174691741D02*
X160447727Y-174786979D01*
X160447727Y-174786979D02*
X160495346Y-174834599D01*
X160495346Y-174834599D02*
X160590584Y-174882218D01*
X160590584Y-174882218D02*
X160781060Y-174882218D01*
X160781060Y-174882218D02*
X160876298Y-174834599D01*
X160876298Y-174834599D02*
X160923917Y-174786979D01*
X160923917Y-174786979D02*
X160971536Y-174691741D01*
X160971536Y-174691741D02*
X160971536Y-173882218D01*
X161400108Y-174834599D02*
X161542965Y-174882218D01*
X161542965Y-174882218D02*
X161781060Y-174882218D01*
X161781060Y-174882218D02*
X161876298Y-174834599D01*
X161876298Y-174834599D02*
X161923917Y-174786979D01*
X161923917Y-174786979D02*
X161971536Y-174691741D01*
X161971536Y-174691741D02*
X161971536Y-174596503D01*
X161971536Y-174596503D02*
X161923917Y-174501265D01*
X161923917Y-174501265D02*
X161876298Y-174453646D01*
X161876298Y-174453646D02*
X161781060Y-174406027D01*
X161781060Y-174406027D02*
X161590584Y-174358408D01*
X161590584Y-174358408D02*
X161495346Y-174310789D01*
X161495346Y-174310789D02*
X161447727Y-174263170D01*
X161447727Y-174263170D02*
X161400108Y-174167932D01*
X161400108Y-174167932D02*
X161400108Y-174072694D01*
X161400108Y-174072694D02*
X161447727Y-173977456D01*
X161447727Y-173977456D02*
X161495346Y-173929837D01*
X161495346Y-173929837D02*
X161590584Y-173882218D01*
X161590584Y-173882218D02*
X161828679Y-173882218D01*
X161828679Y-173882218D02*
X161971536Y-173929837D01*
X156996104Y-125120123D02*
X156900866Y-125072504D01*
X156900866Y-125072504D02*
X156758009Y-125072504D01*
X156758009Y-125072504D02*
X156615152Y-125120123D01*
X156615152Y-125120123D02*
X156519914Y-125215361D01*
X156519914Y-125215361D02*
X156472295Y-125310599D01*
X156472295Y-125310599D02*
X156424676Y-125501075D01*
X156424676Y-125501075D02*
X156424676Y-125643932D01*
X156424676Y-125643932D02*
X156472295Y-125834408D01*
X156472295Y-125834408D02*
X156519914Y-125929646D01*
X156519914Y-125929646D02*
X156615152Y-126024885D01*
X156615152Y-126024885D02*
X156758009Y-126072504D01*
X156758009Y-126072504D02*
X156853247Y-126072504D01*
X156853247Y-126072504D02*
X156996104Y-126024885D01*
X156996104Y-126024885D02*
X157043723Y-125977265D01*
X157043723Y-125977265D02*
X157043723Y-125643932D01*
X157043723Y-125643932D02*
X156853247Y-125643932D01*
X157472295Y-126072504D02*
X157472295Y-125072504D01*
X157472295Y-125072504D02*
X158043723Y-126072504D01*
X158043723Y-126072504D02*
X158043723Y-125072504D01*
X158519914Y-126072504D02*
X158519914Y-125072504D01*
X158519914Y-125072504D02*
X158758009Y-125072504D01*
X158758009Y-125072504D02*
X158900866Y-125120123D01*
X158900866Y-125120123D02*
X158996104Y-125215361D01*
X158996104Y-125215361D02*
X159043723Y-125310599D01*
X159043723Y-125310599D02*
X159091342Y-125501075D01*
X159091342Y-125501075D02*
X159091342Y-125643932D01*
X159091342Y-125643932D02*
X159043723Y-125834408D01*
X159043723Y-125834408D02*
X158996104Y-125929646D01*
X158996104Y-125929646D02*
X158900866Y-126024885D01*
X158900866Y-126024885D02*
X158758009Y-126072504D01*
X158758009Y-126072504D02*
X158519914Y-126072504D01*
X162422020Y-169173672D02*
X163183925Y-169173672D01*
X162802972Y-169554625D02*
X162802972Y-168792720D01*
X163564877Y-168554625D02*
X164183924Y-168554625D01*
X164183924Y-168554625D02*
X163850591Y-168935577D01*
X163850591Y-168935577D02*
X163993448Y-168935577D01*
X163993448Y-168935577D02*
X164088686Y-168983196D01*
X164088686Y-168983196D02*
X164136305Y-169030815D01*
X164136305Y-169030815D02*
X164183924Y-169126053D01*
X164183924Y-169126053D02*
X164183924Y-169364148D01*
X164183924Y-169364148D02*
X164136305Y-169459386D01*
X164136305Y-169459386D02*
X164088686Y-169507006D01*
X164088686Y-169507006D02*
X163993448Y-169554625D01*
X163993448Y-169554625D02*
X163707734Y-169554625D01*
X163707734Y-169554625D02*
X163612496Y-169507006D01*
X163612496Y-169507006D02*
X163564877Y-169459386D01*
X164469639Y-168554625D02*
X164802972Y-169554625D01*
X164802972Y-169554625D02*
X165136305Y-168554625D01*
X165374401Y-168554625D02*
X165993448Y-168554625D01*
X165993448Y-168554625D02*
X165660115Y-168935577D01*
X165660115Y-168935577D02*
X165802972Y-168935577D01*
X165802972Y-168935577D02*
X165898210Y-168983196D01*
X165898210Y-168983196D02*
X165945829Y-169030815D01*
X165945829Y-169030815D02*
X165993448Y-169126053D01*
X165993448Y-169126053D02*
X165993448Y-169364148D01*
X165993448Y-169364148D02*
X165945829Y-169459386D01*
X165945829Y-169459386D02*
X165898210Y-169507006D01*
X165898210Y-169507006D02*
X165802972Y-169554625D01*
X165802972Y-169554625D02*
X165517258Y-169554625D01*
X165517258Y-169554625D02*
X165422020Y-169507006D01*
X165422020Y-169507006D02*
X165374401Y-169459386D01*
X166183925Y-169649863D02*
X166945829Y-169649863D01*
X167755353Y-169459386D02*
X167707734Y-169507006D01*
X167707734Y-169507006D02*
X167564877Y-169554625D01*
X167564877Y-169554625D02*
X167469639Y-169554625D01*
X167469639Y-169554625D02*
X167326782Y-169507006D01*
X167326782Y-169507006D02*
X167231544Y-169411767D01*
X167231544Y-169411767D02*
X167183925Y-169316529D01*
X167183925Y-169316529D02*
X167136306Y-169126053D01*
X167136306Y-169126053D02*
X167136306Y-168983196D01*
X167136306Y-168983196D02*
X167183925Y-168792720D01*
X167183925Y-168792720D02*
X167231544Y-168697482D01*
X167231544Y-168697482D02*
X167326782Y-168602244D01*
X167326782Y-168602244D02*
X167469639Y-168554625D01*
X167469639Y-168554625D02*
X167564877Y-168554625D01*
X167564877Y-168554625D02*
X167707734Y-168602244D01*
X167707734Y-168602244D02*
X167755353Y-168649863D01*
X168660115Y-169554625D02*
X168183925Y-169554625D01*
X168183925Y-169554625D02*
X168183925Y-168554625D01*
X168993449Y-169554625D02*
X168993449Y-168554625D01*
X169564877Y-169554625D02*
X169136306Y-168983196D01*
X169564877Y-168554625D02*
X168993449Y-169126053D01*
X168711822Y-189873310D02*
X168711822Y-188873310D01*
X168711822Y-188873310D02*
X169092774Y-188873310D01*
X169092774Y-188873310D02*
X169188012Y-188920929D01*
X169188012Y-188920929D02*
X169235631Y-188968548D01*
X169235631Y-188968548D02*
X169283250Y-189063786D01*
X169283250Y-189063786D02*
X169283250Y-189206643D01*
X169283250Y-189206643D02*
X169235631Y-189301881D01*
X169235631Y-189301881D02*
X169188012Y-189349500D01*
X169188012Y-189349500D02*
X169092774Y-189397119D01*
X169092774Y-189397119D02*
X168711822Y-189397119D01*
X169711822Y-189873310D02*
X169711822Y-188873310D01*
X169711822Y-188873310D02*
X169949917Y-188873310D01*
X169949917Y-188873310D02*
X170092774Y-188920929D01*
X170092774Y-188920929D02*
X170188012Y-189016167D01*
X170188012Y-189016167D02*
X170235631Y-189111405D01*
X170235631Y-189111405D02*
X170283250Y-189301881D01*
X170283250Y-189301881D02*
X170283250Y-189444738D01*
X170283250Y-189444738D02*
X170235631Y-189635214D01*
X170235631Y-189635214D02*
X170188012Y-189730452D01*
X170188012Y-189730452D02*
X170092774Y-189825691D01*
X170092774Y-189825691D02*
X169949917Y-189873310D01*
X169949917Y-189873310D02*
X169711822Y-189873310D01*
X170711822Y-189873310D02*
X170711822Y-188873310D01*
X170711822Y-188873310D02*
X171045155Y-189587595D01*
X171045155Y-189587595D02*
X171378488Y-188873310D01*
X171378488Y-188873310D02*
X171378488Y-189873310D01*
X171616584Y-189968548D02*
X172378488Y-189968548D01*
X172616584Y-189873310D02*
X172616584Y-188873310D01*
X172616584Y-188873310D02*
X172854679Y-188873310D01*
X172854679Y-188873310D02*
X172997536Y-188920929D01*
X172997536Y-188920929D02*
X173092774Y-189016167D01*
X173092774Y-189016167D02*
X173140393Y-189111405D01*
X173140393Y-189111405D02*
X173188012Y-189301881D01*
X173188012Y-189301881D02*
X173188012Y-189444738D01*
X173188012Y-189444738D02*
X173140393Y-189635214D01*
X173140393Y-189635214D02*
X173092774Y-189730452D01*
X173092774Y-189730452D02*
X172997536Y-189825691D01*
X172997536Y-189825691D02*
X172854679Y-189873310D01*
X172854679Y-189873310D02*
X172616584Y-189873310D01*
X174045155Y-188873310D02*
X173854679Y-188873310D01*
X173854679Y-188873310D02*
X173759441Y-188920929D01*
X173759441Y-188920929D02*
X173711822Y-188968548D01*
X173711822Y-188968548D02*
X173616584Y-189111405D01*
X173616584Y-189111405D02*
X173568965Y-189301881D01*
X173568965Y-189301881D02*
X173568965Y-189682833D01*
X173568965Y-189682833D02*
X173616584Y-189778071D01*
X173616584Y-189778071D02*
X173664203Y-189825691D01*
X173664203Y-189825691D02*
X173759441Y-189873310D01*
X173759441Y-189873310D02*
X173949917Y-189873310D01*
X173949917Y-189873310D02*
X174045155Y-189825691D01*
X174045155Y-189825691D02*
X174092774Y-189778071D01*
X174092774Y-189778071D02*
X174140393Y-189682833D01*
X174140393Y-189682833D02*
X174140393Y-189444738D01*
X174140393Y-189444738D02*
X174092774Y-189349500D01*
X174092774Y-189349500D02*
X174045155Y-189301881D01*
X174045155Y-189301881D02*
X173949917Y-189254262D01*
X173949917Y-189254262D02*
X173759441Y-189254262D01*
X173759441Y-189254262D02*
X173664203Y-189301881D01*
X173664203Y-189301881D02*
X173616584Y-189349500D01*
X173616584Y-189349500D02*
X173568965Y-189444738D01*
X172792142Y-128012684D02*
X173554047Y-128012684D01*
X173173094Y-128393637D02*
X173173094Y-127631732D01*
X173934999Y-127393637D02*
X174554046Y-127393637D01*
X174554046Y-127393637D02*
X174220713Y-127774589D01*
X174220713Y-127774589D02*
X174363570Y-127774589D01*
X174363570Y-127774589D02*
X174458808Y-127822208D01*
X174458808Y-127822208D02*
X174506427Y-127869827D01*
X174506427Y-127869827D02*
X174554046Y-127965065D01*
X174554046Y-127965065D02*
X174554046Y-128203160D01*
X174554046Y-128203160D02*
X174506427Y-128298398D01*
X174506427Y-128298398D02*
X174458808Y-128346018D01*
X174458808Y-128346018D02*
X174363570Y-128393637D01*
X174363570Y-128393637D02*
X174077856Y-128393637D01*
X174077856Y-128393637D02*
X173982618Y-128346018D01*
X173982618Y-128346018D02*
X173934999Y-128298398D01*
X174839761Y-127393637D02*
X175173094Y-128393637D01*
X175173094Y-128393637D02*
X175506427Y-127393637D01*
X175744523Y-127393637D02*
X176363570Y-127393637D01*
X176363570Y-127393637D02*
X176030237Y-127774589D01*
X176030237Y-127774589D02*
X176173094Y-127774589D01*
X176173094Y-127774589D02*
X176268332Y-127822208D01*
X176268332Y-127822208D02*
X176315951Y-127869827D01*
X176315951Y-127869827D02*
X176363570Y-127965065D01*
X176363570Y-127965065D02*
X176363570Y-128203160D01*
X176363570Y-128203160D02*
X176315951Y-128298398D01*
X176315951Y-128298398D02*
X176268332Y-128346018D01*
X176268332Y-128346018D02*
X176173094Y-128393637D01*
X176173094Y-128393637D02*
X175887380Y-128393637D01*
X175887380Y-128393637D02*
X175792142Y-128346018D01*
X175792142Y-128346018D02*
X175744523Y-128298398D01*
X176744523Y-128107922D02*
X177220713Y-128107922D01*
X176649285Y-128393637D02*
X176982618Y-127393637D01*
X176982618Y-127393637D02*
X177315951Y-128393637D01*
X175537238Y-115596494D02*
X175537238Y-114596494D01*
X175537238Y-114596494D02*
X175918190Y-114596494D01*
X175918190Y-114596494D02*
X176013428Y-114644113D01*
X176013428Y-114644113D02*
X176061047Y-114691732D01*
X176061047Y-114691732D02*
X176108666Y-114786970D01*
X176108666Y-114786970D02*
X176108666Y-114929827D01*
X176108666Y-114929827D02*
X176061047Y-115025065D01*
X176061047Y-115025065D02*
X176013428Y-115072684D01*
X176013428Y-115072684D02*
X175918190Y-115120303D01*
X175918190Y-115120303D02*
X175537238Y-115120303D01*
X176537238Y-115596494D02*
X176537238Y-114596494D01*
X176537238Y-114596494D02*
X176775333Y-114596494D01*
X176775333Y-114596494D02*
X176918190Y-114644113D01*
X176918190Y-114644113D02*
X177013428Y-114739351D01*
X177013428Y-114739351D02*
X177061047Y-114834589D01*
X177061047Y-114834589D02*
X177108666Y-115025065D01*
X177108666Y-115025065D02*
X177108666Y-115167922D01*
X177108666Y-115167922D02*
X177061047Y-115358398D01*
X177061047Y-115358398D02*
X177013428Y-115453636D01*
X177013428Y-115453636D02*
X176918190Y-115548875D01*
X176918190Y-115548875D02*
X176775333Y-115596494D01*
X176775333Y-115596494D02*
X176537238Y-115596494D01*
X177537238Y-115596494D02*
X177537238Y-114596494D01*
X177537238Y-114596494D02*
X177870571Y-115310779D01*
X177870571Y-115310779D02*
X178203904Y-114596494D01*
X178203904Y-114596494D02*
X178203904Y-115596494D01*
X178442000Y-115691732D02*
X179203904Y-115691732D01*
X179442000Y-115596494D02*
X179442000Y-114596494D01*
X179442000Y-114596494D02*
X179680095Y-114596494D01*
X179680095Y-114596494D02*
X179822952Y-114644113D01*
X179822952Y-114644113D02*
X179918190Y-114739351D01*
X179918190Y-114739351D02*
X179965809Y-114834589D01*
X179965809Y-114834589D02*
X180013428Y-115025065D01*
X180013428Y-115025065D02*
X180013428Y-115167922D01*
X180013428Y-115167922D02*
X179965809Y-115358398D01*
X179965809Y-115358398D02*
X179918190Y-115453636D01*
X179918190Y-115453636D02*
X179822952Y-115548875D01*
X179822952Y-115548875D02*
X179680095Y-115596494D01*
X179680095Y-115596494D02*
X179442000Y-115596494D01*
X180965809Y-115596494D02*
X180394381Y-115596494D01*
X180680095Y-115596494D02*
X180680095Y-114596494D01*
X180680095Y-114596494D02*
X180584857Y-114739351D01*
X180584857Y-114739351D02*
X180489619Y-114834589D01*
X180489619Y-114834589D02*
X180394381Y-114882208D01*
X182167848Y-178682533D02*
X182167848Y-177682533D01*
X182167848Y-177682533D02*
X182548800Y-177682533D01*
X182548800Y-177682533D02*
X182644038Y-177730152D01*
X182644038Y-177730152D02*
X182691657Y-177777771D01*
X182691657Y-177777771D02*
X182739276Y-177873009D01*
X182739276Y-177873009D02*
X182739276Y-178015866D01*
X182739276Y-178015866D02*
X182691657Y-178111104D01*
X182691657Y-178111104D02*
X182644038Y-178158723D01*
X182644038Y-178158723D02*
X182548800Y-178206342D01*
X182548800Y-178206342D02*
X182167848Y-178206342D01*
X183167848Y-178682533D02*
X183167848Y-177682533D01*
X183167848Y-177682533D02*
X183405943Y-177682533D01*
X183405943Y-177682533D02*
X183548800Y-177730152D01*
X183548800Y-177730152D02*
X183644038Y-177825390D01*
X183644038Y-177825390D02*
X183691657Y-177920628D01*
X183691657Y-177920628D02*
X183739276Y-178111104D01*
X183739276Y-178111104D02*
X183739276Y-178253961D01*
X183739276Y-178253961D02*
X183691657Y-178444437D01*
X183691657Y-178444437D02*
X183644038Y-178539675D01*
X183644038Y-178539675D02*
X183548800Y-178634914D01*
X183548800Y-178634914D02*
X183405943Y-178682533D01*
X183405943Y-178682533D02*
X183167848Y-178682533D01*
X184167848Y-178682533D02*
X184167848Y-177682533D01*
X184167848Y-177682533D02*
X184501181Y-178396818D01*
X184501181Y-178396818D02*
X184834514Y-177682533D01*
X184834514Y-177682533D02*
X184834514Y-178682533D01*
X185072610Y-178777771D02*
X185834514Y-178777771D01*
X186072610Y-178682533D02*
X186072610Y-177682533D01*
X186072610Y-177682533D02*
X186310705Y-177682533D01*
X186310705Y-177682533D02*
X186453562Y-177730152D01*
X186453562Y-177730152D02*
X186548800Y-177825390D01*
X186548800Y-177825390D02*
X186596419Y-177920628D01*
X186596419Y-177920628D02*
X186644038Y-178111104D01*
X186644038Y-178111104D02*
X186644038Y-178253961D01*
X186644038Y-178253961D02*
X186596419Y-178444437D01*
X186596419Y-178444437D02*
X186548800Y-178539675D01*
X186548800Y-178539675D02*
X186453562Y-178634914D01*
X186453562Y-178634914D02*
X186310705Y-178682533D01*
X186310705Y-178682533D02*
X186072610Y-178682533D01*
X186977372Y-177682533D02*
X187644038Y-177682533D01*
X187644038Y-177682533D02*
X187215467Y-178682533D01*
X187794103Y-131144856D02*
X187794103Y-130144856D01*
X187794103Y-130144856D02*
X188175055Y-130144856D01*
X188175055Y-130144856D02*
X188270293Y-130192475D01*
X188270293Y-130192475D02*
X188317912Y-130240094D01*
X188317912Y-130240094D02*
X188365531Y-130335332D01*
X188365531Y-130335332D02*
X188365531Y-130478189D01*
X188365531Y-130478189D02*
X188317912Y-130573427D01*
X188317912Y-130573427D02*
X188270293Y-130621046D01*
X188270293Y-130621046D02*
X188175055Y-130668665D01*
X188175055Y-130668665D02*
X187794103Y-130668665D01*
X188794103Y-131144856D02*
X188794103Y-130144856D01*
X188794103Y-130144856D02*
X189032198Y-130144856D01*
X189032198Y-130144856D02*
X189175055Y-130192475D01*
X189175055Y-130192475D02*
X189270293Y-130287713D01*
X189270293Y-130287713D02*
X189317912Y-130382951D01*
X189317912Y-130382951D02*
X189365531Y-130573427D01*
X189365531Y-130573427D02*
X189365531Y-130716284D01*
X189365531Y-130716284D02*
X189317912Y-130906760D01*
X189317912Y-130906760D02*
X189270293Y-131001998D01*
X189270293Y-131001998D02*
X189175055Y-131097237D01*
X189175055Y-131097237D02*
X189032198Y-131144856D01*
X189032198Y-131144856D02*
X188794103Y-131144856D01*
X189794103Y-131144856D02*
X189794103Y-130144856D01*
X189794103Y-130144856D02*
X190127436Y-130859141D01*
X190127436Y-130859141D02*
X190460769Y-130144856D01*
X190460769Y-130144856D02*
X190460769Y-131144856D01*
X190698865Y-131240094D02*
X191460769Y-131240094D01*
X191698865Y-131144856D02*
X191698865Y-130144856D01*
X191698865Y-130144856D02*
X191936960Y-130144856D01*
X191936960Y-130144856D02*
X192079817Y-130192475D01*
X192079817Y-130192475D02*
X192175055Y-130287713D01*
X192175055Y-130287713D02*
X192222674Y-130382951D01*
X192222674Y-130382951D02*
X192270293Y-130573427D01*
X192270293Y-130573427D02*
X192270293Y-130716284D01*
X192270293Y-130716284D02*
X192222674Y-130906760D01*
X192222674Y-130906760D02*
X192175055Y-131001998D01*
X192175055Y-131001998D02*
X192079817Y-131097237D01*
X192079817Y-131097237D02*
X191936960Y-131144856D01*
X191936960Y-131144856D02*
X191698865Y-131144856D01*
X192889341Y-130144856D02*
X192984579Y-130144856D01*
X192984579Y-130144856D02*
X193079817Y-130192475D01*
X193079817Y-130192475D02*
X193127436Y-130240094D01*
X193127436Y-130240094D02*
X193175055Y-130335332D01*
X193175055Y-130335332D02*
X193222674Y-130525808D01*
X193222674Y-130525808D02*
X193222674Y-130763903D01*
X193222674Y-130763903D02*
X193175055Y-130954379D01*
X193175055Y-130954379D02*
X193127436Y-131049617D01*
X193127436Y-131049617D02*
X193079817Y-131097237D01*
X193079817Y-131097237D02*
X192984579Y-131144856D01*
X192984579Y-131144856D02*
X192889341Y-131144856D01*
X192889341Y-131144856D02*
X192794103Y-131097237D01*
X192794103Y-131097237D02*
X192746484Y-131049617D01*
X192746484Y-131049617D02*
X192698865Y-130954379D01*
X192698865Y-130954379D02*
X192651246Y-130763903D01*
X192651246Y-130763903D02*
X192651246Y-130525808D01*
X192651246Y-130525808D02*
X192698865Y-130335332D01*
X192698865Y-130335332D02*
X192746484Y-130240094D01*
X192746484Y-130240094D02*
X192794103Y-130192475D01*
X192794103Y-130192475D02*
X192889341Y-130144856D01*
X91440476Y-150396319D02*
X91388095Y-150448700D01*
X91388095Y-150448700D02*
X91230952Y-150501080D01*
X91230952Y-150501080D02*
X91126190Y-150501080D01*
X91126190Y-150501080D02*
X90969047Y-150448700D01*
X90969047Y-150448700D02*
X90864285Y-150343938D01*
X90864285Y-150343938D02*
X90811904Y-150239176D01*
X90811904Y-150239176D02*
X90759523Y-150029652D01*
X90759523Y-150029652D02*
X90759523Y-149872509D01*
X90759523Y-149872509D02*
X90811904Y-149662985D01*
X90811904Y-149662985D02*
X90864285Y-149558223D01*
X90864285Y-149558223D02*
X90969047Y-149453461D01*
X90969047Y-149453461D02*
X91126190Y-149401080D01*
X91126190Y-149401080D02*
X91230952Y-149401080D01*
X91230952Y-149401080D02*
X91388095Y-149453461D01*
X91388095Y-149453461D02*
X91440476Y-149505842D01*
X91911904Y-150501080D02*
X91911904Y-149401080D01*
X91911904Y-149924890D02*
X92540476Y-149924890D01*
X92540476Y-150501080D02*
X92540476Y-149401080D01*
X93221428Y-149872509D02*
X93116666Y-149820128D01*
X93116666Y-149820128D02*
X93064285Y-149767747D01*
X93064285Y-149767747D02*
X93011904Y-149662985D01*
X93011904Y-149662985D02*
X93011904Y-149610604D01*
X93011904Y-149610604D02*
X93064285Y-149505842D01*
X93064285Y-149505842D02*
X93116666Y-149453461D01*
X93116666Y-149453461D02*
X93221428Y-149401080D01*
X93221428Y-149401080D02*
X93430952Y-149401080D01*
X93430952Y-149401080D02*
X93535714Y-149453461D01*
X93535714Y-149453461D02*
X93588095Y-149505842D01*
X93588095Y-149505842D02*
X93640476Y-149610604D01*
X93640476Y-149610604D02*
X93640476Y-149662985D01*
X93640476Y-149662985D02*
X93588095Y-149767747D01*
X93588095Y-149767747D02*
X93535714Y-149820128D01*
X93535714Y-149820128D02*
X93430952Y-149872509D01*
X93430952Y-149872509D02*
X93221428Y-149872509D01*
X93221428Y-149872509D02*
X93116666Y-149924890D01*
X93116666Y-149924890D02*
X93064285Y-149977271D01*
X93064285Y-149977271D02*
X93011904Y-150082033D01*
X93011904Y-150082033D02*
X93011904Y-150291557D01*
X93011904Y-150291557D02*
X93064285Y-150396319D01*
X93064285Y-150396319D02*
X93116666Y-150448700D01*
X93116666Y-150448700D02*
X93221428Y-150501080D01*
X93221428Y-150501080D02*
X93430952Y-150501080D01*
X93430952Y-150501080D02*
X93535714Y-150448700D01*
X93535714Y-150448700D02*
X93588095Y-150396319D01*
X93588095Y-150396319D02*
X93640476Y-150291557D01*
X93640476Y-150291557D02*
X93640476Y-150082033D01*
X93640476Y-150082033D02*
X93588095Y-149977271D01*
X93588095Y-149977271D02*
X93535714Y-149924890D01*
X93535714Y-149924890D02*
X93430952Y-149872509D01*
X95840239Y-128277216D02*
X95787858Y-128329597D01*
X95787858Y-128329597D02*
X95630715Y-128381977D01*
X95630715Y-128381977D02*
X95525953Y-128381977D01*
X95525953Y-128381977D02*
X95368810Y-128329597D01*
X95368810Y-128329597D02*
X95264048Y-128224835D01*
X95264048Y-128224835D02*
X95211667Y-128120073D01*
X95211667Y-128120073D02*
X95159286Y-127910549D01*
X95159286Y-127910549D02*
X95159286Y-127753406D01*
X95159286Y-127753406D02*
X95211667Y-127543882D01*
X95211667Y-127543882D02*
X95264048Y-127439120D01*
X95264048Y-127439120D02*
X95368810Y-127334358D01*
X95368810Y-127334358D02*
X95525953Y-127281977D01*
X95525953Y-127281977D02*
X95630715Y-127281977D01*
X95630715Y-127281977D02*
X95787858Y-127334358D01*
X95787858Y-127334358D02*
X95840239Y-127386739D01*
X96311667Y-128381977D02*
X96311667Y-127281977D01*
X96311667Y-127805787D02*
X96940239Y-127805787D01*
X96940239Y-128381977D02*
X96940239Y-127281977D01*
X97359286Y-127281977D02*
X98092620Y-127281977D01*
X98092620Y-127281977D02*
X97621191Y-128381977D01*
X95840239Y-172515421D02*
X95787858Y-172567802D01*
X95787858Y-172567802D02*
X95630715Y-172620182D01*
X95630715Y-172620182D02*
X95525953Y-172620182D01*
X95525953Y-172620182D02*
X95368810Y-172567802D01*
X95368810Y-172567802D02*
X95264048Y-172463040D01*
X95264048Y-172463040D02*
X95211667Y-172358278D01*
X95211667Y-172358278D02*
X95159286Y-172148754D01*
X95159286Y-172148754D02*
X95159286Y-171991611D01*
X95159286Y-171991611D02*
X95211667Y-171782087D01*
X95211667Y-171782087D02*
X95264048Y-171677325D01*
X95264048Y-171677325D02*
X95368810Y-171572563D01*
X95368810Y-171572563D02*
X95525953Y-171520182D01*
X95525953Y-171520182D02*
X95630715Y-171520182D01*
X95630715Y-171520182D02*
X95787858Y-171572563D01*
X95787858Y-171572563D02*
X95840239Y-171624944D01*
X96311667Y-172620182D02*
X96311667Y-171520182D01*
X96311667Y-172043992D02*
X96940239Y-172043992D01*
X96940239Y-172620182D02*
X96940239Y-171520182D01*
X97516429Y-172620182D02*
X97725953Y-172620182D01*
X97725953Y-172620182D02*
X97830715Y-172567802D01*
X97830715Y-172567802D02*
X97883096Y-172515421D01*
X97883096Y-172515421D02*
X97987858Y-172358278D01*
X97987858Y-172358278D02*
X98040239Y-172148754D01*
X98040239Y-172148754D02*
X98040239Y-171729706D01*
X98040239Y-171729706D02*
X97987858Y-171624944D01*
X97987858Y-171624944D02*
X97935477Y-171572563D01*
X97935477Y-171572563D02*
X97830715Y-171520182D01*
X97830715Y-171520182D02*
X97621191Y-171520182D01*
X97621191Y-171520182D02*
X97516429Y-171572563D01*
X97516429Y-171572563D02*
X97464048Y-171624944D01*
X97464048Y-171624944D02*
X97411667Y-171729706D01*
X97411667Y-171729706D02*
X97411667Y-171991611D01*
X97411667Y-171991611D02*
X97464048Y-172096373D01*
X97464048Y-172096373D02*
X97516429Y-172148754D01*
X97516429Y-172148754D02*
X97621191Y-172201135D01*
X97621191Y-172201135D02*
X97830715Y-172201135D01*
X97830715Y-172201135D02*
X97935477Y-172148754D01*
X97935477Y-172148754D02*
X97987858Y-172096373D01*
X97987858Y-172096373D02*
X98040239Y-171991611D01*
X108369704Y-109525547D02*
X108317323Y-109577928D01*
X108317323Y-109577928D02*
X108160180Y-109630308D01*
X108160180Y-109630308D02*
X108055418Y-109630308D01*
X108055418Y-109630308D02*
X107898275Y-109577928D01*
X107898275Y-109577928D02*
X107793513Y-109473166D01*
X107793513Y-109473166D02*
X107741132Y-109368404D01*
X107741132Y-109368404D02*
X107688751Y-109158880D01*
X107688751Y-109158880D02*
X107688751Y-109001737D01*
X107688751Y-109001737D02*
X107741132Y-108792213D01*
X107741132Y-108792213D02*
X107793513Y-108687451D01*
X107793513Y-108687451D02*
X107898275Y-108582689D01*
X107898275Y-108582689D02*
X108055418Y-108530308D01*
X108055418Y-108530308D02*
X108160180Y-108530308D01*
X108160180Y-108530308D02*
X108317323Y-108582689D01*
X108317323Y-108582689D02*
X108369704Y-108635070D01*
X108841132Y-109630308D02*
X108841132Y-108530308D01*
X108841132Y-109054118D02*
X109469704Y-109054118D01*
X109469704Y-109630308D02*
X109469704Y-108530308D01*
X110464942Y-108530308D02*
X110255418Y-108530308D01*
X110255418Y-108530308D02*
X110150656Y-108582689D01*
X110150656Y-108582689D02*
X110098275Y-108635070D01*
X110098275Y-108635070D02*
X109993513Y-108792213D01*
X109993513Y-108792213D02*
X109941132Y-109001737D01*
X109941132Y-109001737D02*
X109941132Y-109420785D01*
X109941132Y-109420785D02*
X109993513Y-109525547D01*
X109993513Y-109525547D02*
X110045894Y-109577928D01*
X110045894Y-109577928D02*
X110150656Y-109630308D01*
X110150656Y-109630308D02*
X110360180Y-109630308D01*
X110360180Y-109630308D02*
X110464942Y-109577928D01*
X110464942Y-109577928D02*
X110517323Y-109525547D01*
X110517323Y-109525547D02*
X110569704Y-109420785D01*
X110569704Y-109420785D02*
X110569704Y-109158880D01*
X110569704Y-109158880D02*
X110517323Y-109054118D01*
X110517323Y-109054118D02*
X110464942Y-109001737D01*
X110464942Y-109001737D02*
X110360180Y-108949356D01*
X110360180Y-108949356D02*
X110150656Y-108949356D01*
X110150656Y-108949356D02*
X110045894Y-109001737D01*
X110045894Y-109001737D02*
X109993513Y-109054118D01*
X109993513Y-109054118D02*
X109941132Y-109158880D01*
X107845895Y-191267090D02*
X107793514Y-191319471D01*
X107793514Y-191319471D02*
X107636371Y-191371851D01*
X107636371Y-191371851D02*
X107531609Y-191371851D01*
X107531609Y-191371851D02*
X107374466Y-191319471D01*
X107374466Y-191319471D02*
X107269704Y-191214709D01*
X107269704Y-191214709D02*
X107217323Y-191109947D01*
X107217323Y-191109947D02*
X107164942Y-190900423D01*
X107164942Y-190900423D02*
X107164942Y-190743280D01*
X107164942Y-190743280D02*
X107217323Y-190533756D01*
X107217323Y-190533756D02*
X107269704Y-190428994D01*
X107269704Y-190428994D02*
X107374466Y-190324232D01*
X107374466Y-190324232D02*
X107531609Y-190271851D01*
X107531609Y-190271851D02*
X107636371Y-190271851D01*
X107636371Y-190271851D02*
X107793514Y-190324232D01*
X107793514Y-190324232D02*
X107845895Y-190376613D01*
X108317323Y-191371851D02*
X108317323Y-190271851D01*
X108317323Y-190795661D02*
X108945895Y-190795661D01*
X108945895Y-191371851D02*
X108945895Y-190271851D01*
X110045895Y-191371851D02*
X109417323Y-191371851D01*
X109731609Y-191371851D02*
X109731609Y-190271851D01*
X109731609Y-190271851D02*
X109626847Y-190428994D01*
X109626847Y-190428994D02*
X109522085Y-190533756D01*
X109522085Y-190533756D02*
X109417323Y-190586137D01*
X110726847Y-190271851D02*
X110831609Y-190271851D01*
X110831609Y-190271851D02*
X110936371Y-190324232D01*
X110936371Y-190324232D02*
X110988752Y-190376613D01*
X110988752Y-190376613D02*
X111041133Y-190481375D01*
X111041133Y-190481375D02*
X111093514Y-190690899D01*
X111093514Y-190690899D02*
X111093514Y-190952804D01*
X111093514Y-190952804D02*
X111041133Y-191162328D01*
X111041133Y-191162328D02*
X110988752Y-191267090D01*
X110988752Y-191267090D02*
X110936371Y-191319471D01*
X110936371Y-191319471D02*
X110831609Y-191371851D01*
X110831609Y-191371851D02*
X110726847Y-191371851D01*
X110726847Y-191371851D02*
X110622085Y-191319471D01*
X110622085Y-191319471D02*
X110569704Y-191267090D01*
X110569704Y-191267090D02*
X110517323Y-191162328D01*
X110517323Y-191162328D02*
X110464942Y-190952804D01*
X110464942Y-190952804D02*
X110464942Y-190690899D01*
X110464942Y-190690899D02*
X110517323Y-190481375D01*
X110517323Y-190481375D02*
X110569704Y-190376613D01*
X110569704Y-190376613D02*
X110622085Y-190324232D01*
X110622085Y-190324232D02*
X110726847Y-190271851D01*
X127121373Y-96996082D02*
X127068992Y-97048463D01*
X127068992Y-97048463D02*
X126911849Y-97100843D01*
X126911849Y-97100843D02*
X126807087Y-97100843D01*
X126807087Y-97100843D02*
X126649944Y-97048463D01*
X126649944Y-97048463D02*
X126545182Y-96943701D01*
X126545182Y-96943701D02*
X126492801Y-96838939D01*
X126492801Y-96838939D02*
X126440420Y-96629415D01*
X126440420Y-96629415D02*
X126440420Y-96472272D01*
X126440420Y-96472272D02*
X126492801Y-96262748D01*
X126492801Y-96262748D02*
X126545182Y-96157986D01*
X126545182Y-96157986D02*
X126649944Y-96053224D01*
X126649944Y-96053224D02*
X126807087Y-96000843D01*
X126807087Y-96000843D02*
X126911849Y-96000843D01*
X126911849Y-96000843D02*
X127068992Y-96053224D01*
X127068992Y-96053224D02*
X127121373Y-96105605D01*
X127592801Y-97100843D02*
X127592801Y-96000843D01*
X127592801Y-96524653D02*
X128221373Y-96524653D01*
X128221373Y-97100843D02*
X128221373Y-96000843D01*
X129268992Y-96000843D02*
X128745182Y-96000843D01*
X128745182Y-96000843D02*
X128692801Y-96524653D01*
X128692801Y-96524653D02*
X128745182Y-96472272D01*
X128745182Y-96472272D02*
X128849944Y-96419891D01*
X128849944Y-96419891D02*
X129111849Y-96419891D01*
X129111849Y-96419891D02*
X129216611Y-96472272D01*
X129216611Y-96472272D02*
X129268992Y-96524653D01*
X129268992Y-96524653D02*
X129321373Y-96629415D01*
X129321373Y-96629415D02*
X129321373Y-96891320D01*
X129321373Y-96891320D02*
X129268992Y-96996082D01*
X129268992Y-96996082D02*
X129216611Y-97048463D01*
X129216611Y-97048463D02*
X129111849Y-97100843D01*
X129111849Y-97100843D02*
X128849944Y-97100843D01*
X128849944Y-97100843D02*
X128745182Y-97048463D01*
X128745182Y-97048463D02*
X128692801Y-96996082D01*
X126597564Y-203796555D02*
X126545183Y-203848936D01*
X126545183Y-203848936D02*
X126388040Y-203901316D01*
X126388040Y-203901316D02*
X126283278Y-203901316D01*
X126283278Y-203901316D02*
X126126135Y-203848936D01*
X126126135Y-203848936D02*
X126021373Y-203744174D01*
X126021373Y-203744174D02*
X125968992Y-203639412D01*
X125968992Y-203639412D02*
X125916611Y-203429888D01*
X125916611Y-203429888D02*
X125916611Y-203272745D01*
X125916611Y-203272745D02*
X125968992Y-203063221D01*
X125968992Y-203063221D02*
X126021373Y-202958459D01*
X126021373Y-202958459D02*
X126126135Y-202853697D01*
X126126135Y-202853697D02*
X126283278Y-202801316D01*
X126283278Y-202801316D02*
X126388040Y-202801316D01*
X126388040Y-202801316D02*
X126545183Y-202853697D01*
X126545183Y-202853697D02*
X126597564Y-202906078D01*
X127068992Y-203901316D02*
X127068992Y-202801316D01*
X127068992Y-203325126D02*
X127697564Y-203325126D01*
X127697564Y-203901316D02*
X127697564Y-202801316D01*
X128797564Y-203901316D02*
X128168992Y-203901316D01*
X128483278Y-203901316D02*
X128483278Y-202801316D01*
X128483278Y-202801316D02*
X128378516Y-202958459D01*
X128378516Y-202958459D02*
X128273754Y-203063221D01*
X128273754Y-203063221D02*
X128168992Y-203115602D01*
X129845183Y-203901316D02*
X129216611Y-203901316D01*
X129530897Y-203901316D02*
X129530897Y-202801316D01*
X129530897Y-202801316D02*
X129426135Y-202958459D01*
X129426135Y-202958459D02*
X129321373Y-203063221D01*
X129321373Y-203063221D02*
X129216611Y-203115602D01*
X149240476Y-92596319D02*
X149188095Y-92648700D01*
X149188095Y-92648700D02*
X149030952Y-92701080D01*
X149030952Y-92701080D02*
X148926190Y-92701080D01*
X148926190Y-92701080D02*
X148769047Y-92648700D01*
X148769047Y-92648700D02*
X148664285Y-92543938D01*
X148664285Y-92543938D02*
X148611904Y-92439176D01*
X148611904Y-92439176D02*
X148559523Y-92229652D01*
X148559523Y-92229652D02*
X148559523Y-92072509D01*
X148559523Y-92072509D02*
X148611904Y-91862985D01*
X148611904Y-91862985D02*
X148664285Y-91758223D01*
X148664285Y-91758223D02*
X148769047Y-91653461D01*
X148769047Y-91653461D02*
X148926190Y-91601080D01*
X148926190Y-91601080D02*
X149030952Y-91601080D01*
X149030952Y-91601080D02*
X149188095Y-91653461D01*
X149188095Y-91653461D02*
X149240476Y-91705842D01*
X149711904Y-92701080D02*
X149711904Y-91601080D01*
X149711904Y-92124890D02*
X150340476Y-92124890D01*
X150340476Y-92701080D02*
X150340476Y-91601080D01*
X151335714Y-91967747D02*
X151335714Y-92701080D01*
X151073809Y-91548700D02*
X150811904Y-92334414D01*
X150811904Y-92334414D02*
X151492857Y-92334414D01*
X148716667Y-208196319D02*
X148664286Y-208248700D01*
X148664286Y-208248700D02*
X148507143Y-208301080D01*
X148507143Y-208301080D02*
X148402381Y-208301080D01*
X148402381Y-208301080D02*
X148245238Y-208248700D01*
X148245238Y-208248700D02*
X148140476Y-208143938D01*
X148140476Y-208143938D02*
X148088095Y-208039176D01*
X148088095Y-208039176D02*
X148035714Y-207829652D01*
X148035714Y-207829652D02*
X148035714Y-207672509D01*
X148035714Y-207672509D02*
X148088095Y-207462985D01*
X148088095Y-207462985D02*
X148140476Y-207358223D01*
X148140476Y-207358223D02*
X148245238Y-207253461D01*
X148245238Y-207253461D02*
X148402381Y-207201080D01*
X148402381Y-207201080D02*
X148507143Y-207201080D01*
X148507143Y-207201080D02*
X148664286Y-207253461D01*
X148664286Y-207253461D02*
X148716667Y-207305842D01*
X149188095Y-208301080D02*
X149188095Y-207201080D01*
X149188095Y-207724890D02*
X149816667Y-207724890D01*
X149816667Y-208301080D02*
X149816667Y-207201080D01*
X150916667Y-208301080D02*
X150288095Y-208301080D01*
X150602381Y-208301080D02*
X150602381Y-207201080D01*
X150602381Y-207201080D02*
X150497619Y-207358223D01*
X150497619Y-207358223D02*
X150392857Y-207462985D01*
X150392857Y-207462985D02*
X150288095Y-207515366D01*
X151335714Y-207305842D02*
X151388095Y-207253461D01*
X151388095Y-207253461D02*
X151492857Y-207201080D01*
X151492857Y-207201080D02*
X151754762Y-207201080D01*
X151754762Y-207201080D02*
X151859524Y-207253461D01*
X151859524Y-207253461D02*
X151911905Y-207305842D01*
X151911905Y-207305842D02*
X151964286Y-207410604D01*
X151964286Y-207410604D02*
X151964286Y-207515366D01*
X151964286Y-207515366D02*
X151911905Y-207672509D01*
X151911905Y-207672509D02*
X151283333Y-208301080D01*
X151283333Y-208301080D02*
X151964286Y-208301080D01*
X171359578Y-96996082D02*
X171307197Y-97048463D01*
X171307197Y-97048463D02*
X171150054Y-97100843D01*
X171150054Y-97100843D02*
X171045292Y-97100843D01*
X171045292Y-97100843D02*
X170888149Y-97048463D01*
X170888149Y-97048463D02*
X170783387Y-96943701D01*
X170783387Y-96943701D02*
X170731006Y-96838939D01*
X170731006Y-96838939D02*
X170678625Y-96629415D01*
X170678625Y-96629415D02*
X170678625Y-96472272D01*
X170678625Y-96472272D02*
X170731006Y-96262748D01*
X170731006Y-96262748D02*
X170783387Y-96157986D01*
X170783387Y-96157986D02*
X170888149Y-96053224D01*
X170888149Y-96053224D02*
X171045292Y-96000843D01*
X171045292Y-96000843D02*
X171150054Y-96000843D01*
X171150054Y-96000843D02*
X171307197Y-96053224D01*
X171307197Y-96053224D02*
X171359578Y-96105605D01*
X171831006Y-97100843D02*
X171831006Y-96000843D01*
X171831006Y-96524653D02*
X172459578Y-96524653D01*
X172459578Y-97100843D02*
X172459578Y-96000843D01*
X172878625Y-96000843D02*
X173559578Y-96000843D01*
X173559578Y-96000843D02*
X173192911Y-96419891D01*
X173192911Y-96419891D02*
X173350054Y-96419891D01*
X173350054Y-96419891D02*
X173454816Y-96472272D01*
X173454816Y-96472272D02*
X173507197Y-96524653D01*
X173507197Y-96524653D02*
X173559578Y-96629415D01*
X173559578Y-96629415D02*
X173559578Y-96891320D01*
X173559578Y-96891320D02*
X173507197Y-96996082D01*
X173507197Y-96996082D02*
X173454816Y-97048463D01*
X173454816Y-97048463D02*
X173350054Y-97100843D01*
X173350054Y-97100843D02*
X173035768Y-97100843D01*
X173035768Y-97100843D02*
X172931006Y-97048463D01*
X172931006Y-97048463D02*
X172878625Y-96996082D01*
X170835769Y-203796555D02*
X170783388Y-203848936D01*
X170783388Y-203848936D02*
X170626245Y-203901316D01*
X170626245Y-203901316D02*
X170521483Y-203901316D01*
X170521483Y-203901316D02*
X170364340Y-203848936D01*
X170364340Y-203848936D02*
X170259578Y-203744174D01*
X170259578Y-203744174D02*
X170207197Y-203639412D01*
X170207197Y-203639412D02*
X170154816Y-203429888D01*
X170154816Y-203429888D02*
X170154816Y-203272745D01*
X170154816Y-203272745D02*
X170207197Y-203063221D01*
X170207197Y-203063221D02*
X170259578Y-202958459D01*
X170259578Y-202958459D02*
X170364340Y-202853697D01*
X170364340Y-202853697D02*
X170521483Y-202801316D01*
X170521483Y-202801316D02*
X170626245Y-202801316D01*
X170626245Y-202801316D02*
X170783388Y-202853697D01*
X170783388Y-202853697D02*
X170835769Y-202906078D01*
X171307197Y-203901316D02*
X171307197Y-202801316D01*
X171307197Y-203325126D02*
X171935769Y-203325126D01*
X171935769Y-203901316D02*
X171935769Y-202801316D01*
X173035769Y-203901316D02*
X172407197Y-203901316D01*
X172721483Y-203901316D02*
X172721483Y-202801316D01*
X172721483Y-202801316D02*
X172616721Y-202958459D01*
X172616721Y-202958459D02*
X172511959Y-203063221D01*
X172511959Y-203063221D02*
X172407197Y-203115602D01*
X173402435Y-202801316D02*
X174083388Y-202801316D01*
X174083388Y-202801316D02*
X173716721Y-203220364D01*
X173716721Y-203220364D02*
X173873864Y-203220364D01*
X173873864Y-203220364D02*
X173978626Y-203272745D01*
X173978626Y-203272745D02*
X174031007Y-203325126D01*
X174031007Y-203325126D02*
X174083388Y-203429888D01*
X174083388Y-203429888D02*
X174083388Y-203691793D01*
X174083388Y-203691793D02*
X174031007Y-203796555D01*
X174031007Y-203796555D02*
X173978626Y-203848936D01*
X173978626Y-203848936D02*
X173873864Y-203901316D01*
X173873864Y-203901316D02*
X173559578Y-203901316D01*
X173559578Y-203901316D02*
X173454816Y-203848936D01*
X173454816Y-203848936D02*
X173402435Y-203796555D01*
X190111247Y-109525547D02*
X190058866Y-109577928D01*
X190058866Y-109577928D02*
X189901723Y-109630308D01*
X189901723Y-109630308D02*
X189796961Y-109630308D01*
X189796961Y-109630308D02*
X189639818Y-109577928D01*
X189639818Y-109577928D02*
X189535056Y-109473166D01*
X189535056Y-109473166D02*
X189482675Y-109368404D01*
X189482675Y-109368404D02*
X189430294Y-109158880D01*
X189430294Y-109158880D02*
X189430294Y-109001737D01*
X189430294Y-109001737D02*
X189482675Y-108792213D01*
X189482675Y-108792213D02*
X189535056Y-108687451D01*
X189535056Y-108687451D02*
X189639818Y-108582689D01*
X189639818Y-108582689D02*
X189796961Y-108530308D01*
X189796961Y-108530308D02*
X189901723Y-108530308D01*
X189901723Y-108530308D02*
X190058866Y-108582689D01*
X190058866Y-108582689D02*
X190111247Y-108635070D01*
X190582675Y-109630308D02*
X190582675Y-108530308D01*
X190582675Y-109054118D02*
X191211247Y-109054118D01*
X191211247Y-109630308D02*
X191211247Y-108530308D01*
X191682675Y-108635070D02*
X191735056Y-108582689D01*
X191735056Y-108582689D02*
X191839818Y-108530308D01*
X191839818Y-108530308D02*
X192101723Y-108530308D01*
X192101723Y-108530308D02*
X192206485Y-108582689D01*
X192206485Y-108582689D02*
X192258866Y-108635070D01*
X192258866Y-108635070D02*
X192311247Y-108739832D01*
X192311247Y-108739832D02*
X192311247Y-108844594D01*
X192311247Y-108844594D02*
X192258866Y-109001737D01*
X192258866Y-109001737D02*
X191630294Y-109630308D01*
X191630294Y-109630308D02*
X192311247Y-109630308D01*
X189587438Y-191267090D02*
X189535057Y-191319471D01*
X189535057Y-191319471D02*
X189377914Y-191371851D01*
X189377914Y-191371851D02*
X189273152Y-191371851D01*
X189273152Y-191371851D02*
X189116009Y-191319471D01*
X189116009Y-191319471D02*
X189011247Y-191214709D01*
X189011247Y-191214709D02*
X188958866Y-191109947D01*
X188958866Y-191109947D02*
X188906485Y-190900423D01*
X188906485Y-190900423D02*
X188906485Y-190743280D01*
X188906485Y-190743280D02*
X188958866Y-190533756D01*
X188958866Y-190533756D02*
X189011247Y-190428994D01*
X189011247Y-190428994D02*
X189116009Y-190324232D01*
X189116009Y-190324232D02*
X189273152Y-190271851D01*
X189273152Y-190271851D02*
X189377914Y-190271851D01*
X189377914Y-190271851D02*
X189535057Y-190324232D01*
X189535057Y-190324232D02*
X189587438Y-190376613D01*
X190058866Y-191371851D02*
X190058866Y-190271851D01*
X190058866Y-190795661D02*
X190687438Y-190795661D01*
X190687438Y-191371851D02*
X190687438Y-190271851D01*
X191787438Y-191371851D02*
X191158866Y-191371851D01*
X191473152Y-191371851D02*
X191473152Y-190271851D01*
X191473152Y-190271851D02*
X191368390Y-190428994D01*
X191368390Y-190428994D02*
X191263628Y-190533756D01*
X191263628Y-190533756D02*
X191158866Y-190586137D01*
X192730295Y-190638518D02*
X192730295Y-191371851D01*
X192468390Y-190219471D02*
X192206485Y-191005185D01*
X192206485Y-191005185D02*
X192887438Y-191005185D01*
X202640712Y-128277216D02*
X202588331Y-128329597D01*
X202588331Y-128329597D02*
X202431188Y-128381977D01*
X202431188Y-128381977D02*
X202326426Y-128381977D01*
X202326426Y-128381977D02*
X202169283Y-128329597D01*
X202169283Y-128329597D02*
X202064521Y-128224835D01*
X202064521Y-128224835D02*
X202012140Y-128120073D01*
X202012140Y-128120073D02*
X201959759Y-127910549D01*
X201959759Y-127910549D02*
X201959759Y-127753406D01*
X201959759Y-127753406D02*
X202012140Y-127543882D01*
X202012140Y-127543882D02*
X202064521Y-127439120D01*
X202064521Y-127439120D02*
X202169283Y-127334358D01*
X202169283Y-127334358D02*
X202326426Y-127281977D01*
X202326426Y-127281977D02*
X202431188Y-127281977D01*
X202431188Y-127281977D02*
X202588331Y-127334358D01*
X202588331Y-127334358D02*
X202640712Y-127386739D01*
X203112140Y-128381977D02*
X203112140Y-127281977D01*
X203112140Y-127805787D02*
X203740712Y-127805787D01*
X203740712Y-128381977D02*
X203740712Y-127281977D01*
X204840712Y-128381977D02*
X204212140Y-128381977D01*
X204526426Y-128381977D02*
X204526426Y-127281977D01*
X204526426Y-127281977D02*
X204421664Y-127439120D01*
X204421664Y-127439120D02*
X204316902Y-127543882D01*
X204316902Y-127543882D02*
X204212140Y-127596263D01*
X202116903Y-172515421D02*
X202064522Y-172567802D01*
X202064522Y-172567802D02*
X201907379Y-172620182D01*
X201907379Y-172620182D02*
X201802617Y-172620182D01*
X201802617Y-172620182D02*
X201645474Y-172567802D01*
X201645474Y-172567802D02*
X201540712Y-172463040D01*
X201540712Y-172463040D02*
X201488331Y-172358278D01*
X201488331Y-172358278D02*
X201435950Y-172148754D01*
X201435950Y-172148754D02*
X201435950Y-171991611D01*
X201435950Y-171991611D02*
X201488331Y-171782087D01*
X201488331Y-171782087D02*
X201540712Y-171677325D01*
X201540712Y-171677325D02*
X201645474Y-171572563D01*
X201645474Y-171572563D02*
X201802617Y-171520182D01*
X201802617Y-171520182D02*
X201907379Y-171520182D01*
X201907379Y-171520182D02*
X202064522Y-171572563D01*
X202064522Y-171572563D02*
X202116903Y-171624944D01*
X202588331Y-172620182D02*
X202588331Y-171520182D01*
X202588331Y-172043992D02*
X203216903Y-172043992D01*
X203216903Y-172620182D02*
X203216903Y-171520182D01*
X204316903Y-172620182D02*
X203688331Y-172620182D01*
X204002617Y-172620182D02*
X204002617Y-171520182D01*
X204002617Y-171520182D02*
X203897855Y-171677325D01*
X203897855Y-171677325D02*
X203793093Y-171782087D01*
X203793093Y-171782087D02*
X203688331Y-171834468D01*
X205312141Y-171520182D02*
X204788331Y-171520182D01*
X204788331Y-171520182D02*
X204735950Y-172043992D01*
X204735950Y-172043992D02*
X204788331Y-171991611D01*
X204788331Y-171991611D02*
X204893093Y-171939230D01*
X204893093Y-171939230D02*
X205154998Y-171939230D01*
X205154998Y-171939230D02*
X205259760Y-171991611D01*
X205259760Y-171991611D02*
X205312141Y-172043992D01*
X205312141Y-172043992D02*
X205364522Y-172148754D01*
X205364522Y-172148754D02*
X205364522Y-172410659D01*
X205364522Y-172410659D02*
X205312141Y-172515421D01*
X205312141Y-172515421D02*
X205259760Y-172567802D01*
X205259760Y-172567802D02*
X205154998Y-172620182D01*
X205154998Y-172620182D02*
X204893093Y-172620182D01*
X204893093Y-172620182D02*
X204788331Y-172567802D01*
X204788331Y-172567802D02*
X204735950Y-172515421D01*
X207040476Y-150396319D02*
X206988095Y-150448700D01*
X206988095Y-150448700D02*
X206830952Y-150501080D01*
X206830952Y-150501080D02*
X206726190Y-150501080D01*
X206726190Y-150501080D02*
X206569047Y-150448700D01*
X206569047Y-150448700D02*
X206464285Y-150343938D01*
X206464285Y-150343938D02*
X206411904Y-150239176D01*
X206411904Y-150239176D02*
X206359523Y-150029652D01*
X206359523Y-150029652D02*
X206359523Y-149872509D01*
X206359523Y-149872509D02*
X206411904Y-149662985D01*
X206411904Y-149662985D02*
X206464285Y-149558223D01*
X206464285Y-149558223D02*
X206569047Y-149453461D01*
X206569047Y-149453461D02*
X206726190Y-149401080D01*
X206726190Y-149401080D02*
X206830952Y-149401080D01*
X206830952Y-149401080D02*
X206988095Y-149453461D01*
X206988095Y-149453461D02*
X207040476Y-149505842D01*
X207511904Y-150501080D02*
X207511904Y-149401080D01*
X207511904Y-149924890D02*
X208140476Y-149924890D01*
X208140476Y-150501080D02*
X208140476Y-149401080D01*
X208873809Y-149401080D02*
X208978571Y-149401080D01*
X208978571Y-149401080D02*
X209083333Y-149453461D01*
X209083333Y-149453461D02*
X209135714Y-149505842D01*
X209135714Y-149505842D02*
X209188095Y-149610604D01*
X209188095Y-149610604D02*
X209240476Y-149820128D01*
X209240476Y-149820128D02*
X209240476Y-150082033D01*
X209240476Y-150082033D02*
X209188095Y-150291557D01*
X209188095Y-150291557D02*
X209135714Y-150396319D01*
X209135714Y-150396319D02*
X209083333Y-150448700D01*
X209083333Y-150448700D02*
X208978571Y-150501080D01*
X208978571Y-150501080D02*
X208873809Y-150501080D01*
X208873809Y-150501080D02*
X208769047Y-150448700D01*
X208769047Y-150448700D02*
X208716666Y-150396319D01*
X208716666Y-150396319D02*
X208664285Y-150291557D01*
X208664285Y-150291557D02*
X208611904Y-150082033D01*
X208611904Y-150082033D02*
X208611904Y-149820128D01*
X208611904Y-149820128D02*
X208664285Y-149610604D01*
X208664285Y-149610604D02*
X208716666Y-149505842D01*
X208716666Y-149505842D02*
X208769047Y-149453461D01*
X208769047Y-149453461D02*
X208873809Y-149401080D01*
D11*
X139228570Y-129932537D02*
X139171427Y-129989680D01*
X139171427Y-129989680D02*
X138999999Y-130046822D01*
X138999999Y-130046822D02*
X138885713Y-130046822D01*
X138885713Y-130046822D02*
X138714284Y-129989680D01*
X138714284Y-129989680D02*
X138599999Y-129875394D01*
X138599999Y-129875394D02*
X138542856Y-129761108D01*
X138542856Y-129761108D02*
X138485713Y-129532537D01*
X138485713Y-129532537D02*
X138485713Y-129361108D01*
X138485713Y-129361108D02*
X138542856Y-129132537D01*
X138542856Y-129132537D02*
X138599999Y-129018251D01*
X138599999Y-129018251D02*
X138714284Y-128903965D01*
X138714284Y-128903965D02*
X138885713Y-128846822D01*
X138885713Y-128846822D02*
X138999999Y-128846822D01*
X138999999Y-128846822D02*
X139171427Y-128903965D01*
X139171427Y-128903965D02*
X139228570Y-128961108D01*
X139742856Y-130046822D02*
X139742856Y-128846822D01*
X139742856Y-129418251D02*
X140428570Y-129418251D01*
X140428570Y-130046822D02*
X140428570Y-128846822D01*
X141228570Y-128846822D02*
X141342856Y-128846822D01*
X141342856Y-128846822D02*
X141457142Y-128903965D01*
X141457142Y-128903965D02*
X141514285Y-128961108D01*
X141514285Y-128961108D02*
X141571427Y-129075394D01*
X141571427Y-129075394D02*
X141628570Y-129303965D01*
X141628570Y-129303965D02*
X141628570Y-129589680D01*
X141628570Y-129589680D02*
X141571427Y-129818251D01*
X141571427Y-129818251D02*
X141514285Y-129932537D01*
X141514285Y-129932537D02*
X141457142Y-129989680D01*
X141457142Y-129989680D02*
X141342856Y-130046822D01*
X141342856Y-130046822D02*
X141228570Y-130046822D01*
X141228570Y-130046822D02*
X141114285Y-129989680D01*
X141114285Y-129989680D02*
X141057142Y-129932537D01*
X141057142Y-129932537D02*
X140999999Y-129818251D01*
X140999999Y-129818251D02*
X140942856Y-129589680D01*
X140942856Y-129589680D02*
X140942856Y-129303965D01*
X140942856Y-129303965D02*
X140999999Y-129075394D01*
X140999999Y-129075394D02*
X141057142Y-128961108D01*
X141057142Y-128961108D02*
X141114285Y-128903965D01*
X141114285Y-128903965D02*
X141228570Y-128846822D01*
X142142856Y-129932537D02*
X142199999Y-129989680D01*
X142199999Y-129989680D02*
X142142856Y-130046822D01*
X142142856Y-130046822D02*
X142085713Y-129989680D01*
X142085713Y-129989680D02*
X142142856Y-129932537D01*
X142142856Y-129932537D02*
X142142856Y-130046822D01*
X142714285Y-129932537D02*
X142771428Y-129989680D01*
X142771428Y-129989680D02*
X142714285Y-130046822D01*
X142714285Y-130046822D02*
X142657142Y-129989680D01*
X142657142Y-129989680D02*
X142714285Y-129932537D01*
X142714285Y-129932537D02*
X142714285Y-130046822D01*
X143971428Y-129932537D02*
X143914285Y-129989680D01*
X143914285Y-129989680D02*
X143742857Y-130046822D01*
X143742857Y-130046822D02*
X143628571Y-130046822D01*
X143628571Y-130046822D02*
X143457142Y-129989680D01*
X143457142Y-129989680D02*
X143342857Y-129875394D01*
X143342857Y-129875394D02*
X143285714Y-129761108D01*
X143285714Y-129761108D02*
X143228571Y-129532537D01*
X143228571Y-129532537D02*
X143228571Y-129361108D01*
X143228571Y-129361108D02*
X143285714Y-129132537D01*
X143285714Y-129132537D02*
X143342857Y-129018251D01*
X143342857Y-129018251D02*
X143457142Y-128903965D01*
X143457142Y-128903965D02*
X143628571Y-128846822D01*
X143628571Y-128846822D02*
X143742857Y-128846822D01*
X143742857Y-128846822D02*
X143914285Y-128903965D01*
X143914285Y-128903965D02*
X143971428Y-128961108D01*
X144485714Y-130046822D02*
X144485714Y-128846822D01*
X144485714Y-129418251D02*
X145171428Y-129418251D01*
X145171428Y-130046822D02*
X145171428Y-128846822D01*
X146371428Y-130046822D02*
X145685714Y-130046822D01*
X146028571Y-130046822D02*
X146028571Y-128846822D01*
X146028571Y-128846822D02*
X145914285Y-129018251D01*
X145914285Y-129018251D02*
X145800000Y-129132537D01*
X145800000Y-129132537D02*
X145685714Y-129189680D01*
X147457142Y-128846822D02*
X146885714Y-128846822D01*
X146885714Y-128846822D02*
X146828571Y-129418251D01*
X146828571Y-129418251D02*
X146885714Y-129361108D01*
X146885714Y-129361108D02*
X147000000Y-129303965D01*
X147000000Y-129303965D02*
X147285714Y-129303965D01*
X147285714Y-129303965D02*
X147400000Y-129361108D01*
X147400000Y-129361108D02*
X147457142Y-129418251D01*
X147457142Y-129418251D02*
X147514285Y-129532537D01*
X147514285Y-129532537D02*
X147514285Y-129818251D01*
X147514285Y-129818251D02*
X147457142Y-129932537D01*
X147457142Y-129932537D02*
X147400000Y-129989680D01*
X147400000Y-129989680D02*
X147285714Y-130046822D01*
X147285714Y-130046822D02*
X147000000Y-130046822D01*
X147000000Y-130046822D02*
X146885714Y-129989680D01*
X146885714Y-129989680D02*
X146828571Y-129932537D01*
X149628571Y-129932537D02*
X149571428Y-129989680D01*
X149571428Y-129989680D02*
X149400000Y-130046822D01*
X149400000Y-130046822D02*
X149285714Y-130046822D01*
X149285714Y-130046822D02*
X149114285Y-129989680D01*
X149114285Y-129989680D02*
X149000000Y-129875394D01*
X149000000Y-129875394D02*
X148942857Y-129761108D01*
X148942857Y-129761108D02*
X148885714Y-129532537D01*
X148885714Y-129532537D02*
X148885714Y-129361108D01*
X148885714Y-129361108D02*
X148942857Y-129132537D01*
X148942857Y-129132537D02*
X149000000Y-129018251D01*
X149000000Y-129018251D02*
X149114285Y-128903965D01*
X149114285Y-128903965D02*
X149285714Y-128846822D01*
X149285714Y-128846822D02*
X149400000Y-128846822D01*
X149400000Y-128846822D02*
X149571428Y-128903965D01*
X149571428Y-128903965D02*
X149628571Y-128961108D01*
X150828571Y-129932537D02*
X150771428Y-129989680D01*
X150771428Y-129989680D02*
X150600000Y-130046822D01*
X150600000Y-130046822D02*
X150485714Y-130046822D01*
X150485714Y-130046822D02*
X150314285Y-129989680D01*
X150314285Y-129989680D02*
X150200000Y-129875394D01*
X150200000Y-129875394D02*
X150142857Y-129761108D01*
X150142857Y-129761108D02*
X150085714Y-129532537D01*
X150085714Y-129532537D02*
X150085714Y-129361108D01*
X150085714Y-129361108D02*
X150142857Y-129132537D01*
X150142857Y-129132537D02*
X150200000Y-129018251D01*
X150200000Y-129018251D02*
X150314285Y-128903965D01*
X150314285Y-128903965D02*
X150485714Y-128846822D01*
X150485714Y-128846822D02*
X150600000Y-128846822D01*
X150600000Y-128846822D02*
X150771428Y-128903965D01*
X150771428Y-128903965D02*
X150828571Y-128961108D01*
X151228571Y-128846822D02*
X151514285Y-130046822D01*
X151514285Y-130046822D02*
X151742857Y-129189680D01*
X151742857Y-129189680D02*
X151971428Y-130046822D01*
X151971428Y-130046822D02*
X152257143Y-128846822D01*
X154028572Y-129418251D02*
X153628572Y-129418251D01*
X153628572Y-130046822D02*
X153628572Y-128846822D01*
X153628572Y-128846822D02*
X154200000Y-128846822D01*
X155342857Y-130046822D02*
X154942857Y-129475394D01*
X154657143Y-130046822D02*
X154657143Y-128846822D01*
X154657143Y-128846822D02*
X155114286Y-128846822D01*
X155114286Y-128846822D02*
X155228571Y-128903965D01*
X155228571Y-128903965D02*
X155285714Y-128961108D01*
X155285714Y-128961108D02*
X155342857Y-129075394D01*
X155342857Y-129075394D02*
X155342857Y-129246822D01*
X155342857Y-129246822D02*
X155285714Y-129361108D01*
X155285714Y-129361108D02*
X155228571Y-129418251D01*
X155228571Y-129418251D02*
X155114286Y-129475394D01*
X155114286Y-129475394D02*
X154657143Y-129475394D01*
X156085714Y-128846822D02*
X156314286Y-128846822D01*
X156314286Y-128846822D02*
X156428571Y-128903965D01*
X156428571Y-128903965D02*
X156542857Y-129018251D01*
X156542857Y-129018251D02*
X156600000Y-129246822D01*
X156600000Y-129246822D02*
X156600000Y-129646822D01*
X156600000Y-129646822D02*
X156542857Y-129875394D01*
X156542857Y-129875394D02*
X156428571Y-129989680D01*
X156428571Y-129989680D02*
X156314286Y-130046822D01*
X156314286Y-130046822D02*
X156085714Y-130046822D01*
X156085714Y-130046822D02*
X155971429Y-129989680D01*
X155971429Y-129989680D02*
X155857143Y-129875394D01*
X155857143Y-129875394D02*
X155800000Y-129646822D01*
X155800000Y-129646822D02*
X155800000Y-129246822D01*
X155800000Y-129246822D02*
X155857143Y-129018251D01*
X155857143Y-129018251D02*
X155971429Y-128903965D01*
X155971429Y-128903965D02*
X156085714Y-128846822D01*
X157114286Y-130046822D02*
X157114286Y-128846822D01*
X157114286Y-128846822D02*
X157514286Y-129703965D01*
X157514286Y-129703965D02*
X157914286Y-128846822D01*
X157914286Y-128846822D02*
X157914286Y-130046822D01*
X159400001Y-129589680D02*
X160314287Y-129589680D01*
X159857144Y-130046822D02*
X159857144Y-129132537D01*
X160771429Y-128846822D02*
X161571429Y-130046822D01*
X161571429Y-128846822D02*
X160771429Y-130046822D01*
X135199999Y-135046822D02*
X135199999Y-133846822D01*
X135199999Y-133846822D02*
X135657142Y-133846822D01*
X135657142Y-133846822D02*
X135771427Y-133903965D01*
X135771427Y-133903965D02*
X135828570Y-133961108D01*
X135828570Y-133961108D02*
X135885713Y-134075394D01*
X135885713Y-134075394D02*
X135885713Y-134246822D01*
X135885713Y-134246822D02*
X135828570Y-134361108D01*
X135828570Y-134361108D02*
X135771427Y-134418251D01*
X135771427Y-134418251D02*
X135657142Y-134475394D01*
X135657142Y-134475394D02*
X135199999Y-134475394D01*
X136628570Y-133846822D02*
X136857142Y-133846822D01*
X136857142Y-133846822D02*
X136971427Y-133903965D01*
X136971427Y-133903965D02*
X137085713Y-134018251D01*
X137085713Y-134018251D02*
X137142856Y-134246822D01*
X137142856Y-134246822D02*
X137142856Y-134646822D01*
X137142856Y-134646822D02*
X137085713Y-134875394D01*
X137085713Y-134875394D02*
X136971427Y-134989680D01*
X136971427Y-134989680D02*
X136857142Y-135046822D01*
X136857142Y-135046822D02*
X136628570Y-135046822D01*
X136628570Y-135046822D02*
X136514285Y-134989680D01*
X136514285Y-134989680D02*
X136399999Y-134875394D01*
X136399999Y-134875394D02*
X136342856Y-134646822D01*
X136342856Y-134646822D02*
X136342856Y-134246822D01*
X136342856Y-134246822D02*
X136399999Y-134018251D01*
X136399999Y-134018251D02*
X136514285Y-133903965D01*
X136514285Y-133903965D02*
X136628570Y-133846822D01*
X138342856Y-135046822D02*
X137942856Y-134475394D01*
X137657142Y-135046822D02*
X137657142Y-133846822D01*
X137657142Y-133846822D02*
X138114285Y-133846822D01*
X138114285Y-133846822D02*
X138228570Y-133903965D01*
X138228570Y-133903965D02*
X138285713Y-133961108D01*
X138285713Y-133961108D02*
X138342856Y-134075394D01*
X138342856Y-134075394D02*
X138342856Y-134246822D01*
X138342856Y-134246822D02*
X138285713Y-134361108D01*
X138285713Y-134361108D02*
X138228570Y-134418251D01*
X138228570Y-134418251D02*
X138114285Y-134475394D01*
X138114285Y-134475394D02*
X137657142Y-134475394D01*
X138685713Y-133846822D02*
X139371428Y-133846822D01*
X139028570Y-135046822D02*
X139028570Y-133846822D01*
X139714285Y-134989680D02*
X139885714Y-135046822D01*
X139885714Y-135046822D02*
X140171428Y-135046822D01*
X140171428Y-135046822D02*
X140285714Y-134989680D01*
X140285714Y-134989680D02*
X140342856Y-134932537D01*
X140342856Y-134932537D02*
X140399999Y-134818251D01*
X140399999Y-134818251D02*
X140399999Y-134703965D01*
X140399999Y-134703965D02*
X140342856Y-134589680D01*
X140342856Y-134589680D02*
X140285714Y-134532537D01*
X140285714Y-134532537D02*
X140171428Y-134475394D01*
X140171428Y-134475394D02*
X139942856Y-134418251D01*
X139942856Y-134418251D02*
X139828571Y-134361108D01*
X139828571Y-134361108D02*
X139771428Y-134303965D01*
X139771428Y-134303965D02*
X139714285Y-134189680D01*
X139714285Y-134189680D02*
X139714285Y-134075394D01*
X139714285Y-134075394D02*
X139771428Y-133961108D01*
X139771428Y-133961108D02*
X139828571Y-133903965D01*
X139828571Y-133903965D02*
X139942856Y-133846822D01*
X139942856Y-133846822D02*
X140228571Y-133846822D01*
X140228571Y-133846822D02*
X140399999Y-133903965D01*
X142228571Y-134418251D02*
X141828571Y-134418251D01*
X141828571Y-135046822D02*
X141828571Y-133846822D01*
X141828571Y-133846822D02*
X142399999Y-133846822D01*
X142799999Y-134703965D02*
X143371428Y-134703965D01*
X142685713Y-135046822D02*
X143085713Y-133846822D01*
X143085713Y-133846822D02*
X143485713Y-135046822D01*
X144571427Y-134932537D02*
X144514284Y-134989680D01*
X144514284Y-134989680D02*
X144342856Y-135046822D01*
X144342856Y-135046822D02*
X144228570Y-135046822D01*
X144228570Y-135046822D02*
X144057141Y-134989680D01*
X144057141Y-134989680D02*
X143942856Y-134875394D01*
X143942856Y-134875394D02*
X143885713Y-134761108D01*
X143885713Y-134761108D02*
X143828570Y-134532537D01*
X143828570Y-134532537D02*
X143828570Y-134361108D01*
X143828570Y-134361108D02*
X143885713Y-134132537D01*
X143885713Y-134132537D02*
X143942856Y-134018251D01*
X143942856Y-134018251D02*
X144057141Y-133903965D01*
X144057141Y-133903965D02*
X144228570Y-133846822D01*
X144228570Y-133846822D02*
X144342856Y-133846822D01*
X144342856Y-133846822D02*
X144514284Y-133903965D01*
X144514284Y-133903965D02*
X144571427Y-133961108D01*
X145085713Y-134418251D02*
X145485713Y-134418251D01*
X145657141Y-135046822D02*
X145085713Y-135046822D01*
X145085713Y-135046822D02*
X145085713Y-133846822D01*
X145085713Y-133846822D02*
X145657141Y-133846822D01*
X147085713Y-133846822D02*
X147085713Y-134818251D01*
X147085713Y-134818251D02*
X147142856Y-134932537D01*
X147142856Y-134932537D02*
X147199999Y-134989680D01*
X147199999Y-134989680D02*
X147314284Y-135046822D01*
X147314284Y-135046822D02*
X147542856Y-135046822D01*
X147542856Y-135046822D02*
X147657141Y-134989680D01*
X147657141Y-134989680D02*
X147714284Y-134932537D01*
X147714284Y-134932537D02*
X147771427Y-134818251D01*
X147771427Y-134818251D02*
X147771427Y-133846822D01*
X148342856Y-135046822D02*
X148342856Y-133846822D01*
X148342856Y-133846822D02*
X148799999Y-133846822D01*
X148799999Y-133846822D02*
X148914284Y-133903965D01*
X148914284Y-133903965D02*
X148971427Y-133961108D01*
X148971427Y-133961108D02*
X149028570Y-134075394D01*
X149028570Y-134075394D02*
X149028570Y-134246822D01*
X149028570Y-134246822D02*
X148971427Y-134361108D01*
X148971427Y-134361108D02*
X148914284Y-134418251D01*
X148914284Y-134418251D02*
X148799999Y-134475394D01*
X148799999Y-134475394D02*
X148342856Y-134475394D01*
X150457142Y-134589680D02*
X151371428Y-134589680D01*
X152857142Y-135046822D02*
X152857142Y-133846822D01*
X152857142Y-133846822D02*
X153142856Y-133846822D01*
X153142856Y-133846822D02*
X153314285Y-133903965D01*
X153314285Y-133903965D02*
X153428570Y-134018251D01*
X153428570Y-134018251D02*
X153485713Y-134132537D01*
X153485713Y-134132537D02*
X153542856Y-134361108D01*
X153542856Y-134361108D02*
X153542856Y-134532537D01*
X153542856Y-134532537D02*
X153485713Y-134761108D01*
X153485713Y-134761108D02*
X153428570Y-134875394D01*
X153428570Y-134875394D02*
X153314285Y-134989680D01*
X153314285Y-134989680D02*
X153142856Y-135046822D01*
X153142856Y-135046822D02*
X152857142Y-135046822D01*
X154285713Y-133846822D02*
X154514285Y-133846822D01*
X154514285Y-133846822D02*
X154628570Y-133903965D01*
X154628570Y-133903965D02*
X154742856Y-134018251D01*
X154742856Y-134018251D02*
X154799999Y-134246822D01*
X154799999Y-134246822D02*
X154799999Y-134646822D01*
X154799999Y-134646822D02*
X154742856Y-134875394D01*
X154742856Y-134875394D02*
X154628570Y-134989680D01*
X154628570Y-134989680D02*
X154514285Y-135046822D01*
X154514285Y-135046822D02*
X154285713Y-135046822D01*
X154285713Y-135046822D02*
X154171428Y-134989680D01*
X154171428Y-134989680D02*
X154057142Y-134875394D01*
X154057142Y-134875394D02*
X153999999Y-134646822D01*
X153999999Y-134646822D02*
X153999999Y-134246822D01*
X153999999Y-134246822D02*
X154057142Y-134018251D01*
X154057142Y-134018251D02*
X154171428Y-133903965D01*
X154171428Y-133903965D02*
X154285713Y-133846822D01*
X156228571Y-135046822D02*
X156228571Y-133846822D01*
X156228571Y-133846822D02*
X156914285Y-135046822D01*
X156914285Y-135046822D02*
X156914285Y-133846822D01*
X157714285Y-133846822D02*
X157942857Y-133846822D01*
X157942857Y-133846822D02*
X158057142Y-133903965D01*
X158057142Y-133903965D02*
X158171428Y-134018251D01*
X158171428Y-134018251D02*
X158228571Y-134246822D01*
X158228571Y-134246822D02*
X158228571Y-134646822D01*
X158228571Y-134646822D02*
X158171428Y-134875394D01*
X158171428Y-134875394D02*
X158057142Y-134989680D01*
X158057142Y-134989680D02*
X157942857Y-135046822D01*
X157942857Y-135046822D02*
X157714285Y-135046822D01*
X157714285Y-135046822D02*
X157600000Y-134989680D01*
X157600000Y-134989680D02*
X157485714Y-134875394D01*
X157485714Y-134875394D02*
X157428571Y-134646822D01*
X157428571Y-134646822D02*
X157428571Y-134246822D01*
X157428571Y-134246822D02*
X157485714Y-134018251D01*
X157485714Y-134018251D02*
X157600000Y-133903965D01*
X157600000Y-133903965D02*
X157714285Y-133846822D01*
X158571428Y-133846822D02*
X159257143Y-133846822D01*
X158914285Y-135046822D02*
X158914285Y-133846822D01*
X160457143Y-133846822D02*
X160742857Y-135046822D01*
X160742857Y-135046822D02*
X160971429Y-134189680D01*
X160971429Y-134189680D02*
X161200000Y-135046822D01*
X161200000Y-135046822D02*
X161485715Y-133846822D01*
X161885715Y-134703965D02*
X162457144Y-134703965D01*
X161771429Y-135046822D02*
X162171429Y-133846822D01*
X162171429Y-133846822D02*
X162571429Y-135046822D01*
X162914286Y-134989680D02*
X163085715Y-135046822D01*
X163085715Y-135046822D02*
X163371429Y-135046822D01*
X163371429Y-135046822D02*
X163485715Y-134989680D01*
X163485715Y-134989680D02*
X163542857Y-134932537D01*
X163542857Y-134932537D02*
X163600000Y-134818251D01*
X163600000Y-134818251D02*
X163600000Y-134703965D01*
X163600000Y-134703965D02*
X163542857Y-134589680D01*
X163542857Y-134589680D02*
X163485715Y-134532537D01*
X163485715Y-134532537D02*
X163371429Y-134475394D01*
X163371429Y-134475394D02*
X163142857Y-134418251D01*
X163142857Y-134418251D02*
X163028572Y-134361108D01*
X163028572Y-134361108D02*
X162971429Y-134303965D01*
X162971429Y-134303965D02*
X162914286Y-134189680D01*
X162914286Y-134189680D02*
X162914286Y-134075394D01*
X162914286Y-134075394D02*
X162971429Y-133961108D01*
X162971429Y-133961108D02*
X163028572Y-133903965D01*
X163028572Y-133903965D02*
X163142857Y-133846822D01*
X163142857Y-133846822D02*
X163428572Y-133846822D01*
X163428572Y-133846822D02*
X163600000Y-133903965D01*
X164114286Y-135046822D02*
X164114286Y-133846822D01*
X164114286Y-134418251D02*
X164800000Y-134418251D01*
X164800000Y-135046822D02*
X164800000Y-133846822D01*
X132800000Y-150106013D02*
X133866667Y-150106013D01*
X134400000Y-149239346D02*
X135333333Y-150639346D01*
X135333333Y-149239346D02*
X134400000Y-150639346D01*
X134833332Y-132639346D02*
X134033332Y-132639346D01*
X134433332Y-132639346D02*
X134433332Y-131239346D01*
X134433332Y-131239346D02*
X134299999Y-131439346D01*
X134299999Y-131439346D02*
X134166666Y-131572680D01*
X134166666Y-131572680D02*
X134033332Y-131639346D01*
X136033332Y-131239346D02*
X135766665Y-131239346D01*
X135766665Y-131239346D02*
X135633332Y-131306013D01*
X135633332Y-131306013D02*
X135566665Y-131372680D01*
X135566665Y-131372680D02*
X135433332Y-131572680D01*
X135433332Y-131572680D02*
X135366665Y-131839346D01*
X135366665Y-131839346D02*
X135366665Y-132372680D01*
X135366665Y-132372680D02*
X135433332Y-132506013D01*
X135433332Y-132506013D02*
X135499999Y-132572680D01*
X135499999Y-132572680D02*
X135633332Y-132639346D01*
X135633332Y-132639346D02*
X135899999Y-132639346D01*
X135899999Y-132639346D02*
X136033332Y-132572680D01*
X136033332Y-132572680D02*
X136099999Y-132506013D01*
X136099999Y-132506013D02*
X136166665Y-132372680D01*
X136166665Y-132372680D02*
X136166665Y-132039346D01*
X136166665Y-132039346D02*
X136099999Y-131906013D01*
X136099999Y-131906013D02*
X136033332Y-131839346D01*
X136033332Y-131839346D02*
X135899999Y-131772680D01*
X135899999Y-131772680D02*
X135633332Y-131772680D01*
X135633332Y-131772680D02*
X135499999Y-131839346D01*
X135499999Y-131839346D02*
X135433332Y-131906013D01*
X135433332Y-131906013D02*
X135366665Y-132039346D01*
X136766665Y-132106013D02*
X137833332Y-132106013D01*
X139299998Y-132506013D02*
X139233331Y-132572680D01*
X139233331Y-132572680D02*
X139033331Y-132639346D01*
X139033331Y-132639346D02*
X138899998Y-132639346D01*
X138899998Y-132639346D02*
X138699998Y-132572680D01*
X138699998Y-132572680D02*
X138566665Y-132439346D01*
X138566665Y-132439346D02*
X138499998Y-132306013D01*
X138499998Y-132306013D02*
X138433331Y-132039346D01*
X138433331Y-132039346D02*
X138433331Y-131839346D01*
X138433331Y-131839346D02*
X138499998Y-131572680D01*
X138499998Y-131572680D02*
X138566665Y-131439346D01*
X138566665Y-131439346D02*
X138699998Y-131306013D01*
X138699998Y-131306013D02*
X138899998Y-131239346D01*
X138899998Y-131239346D02*
X139033331Y-131239346D01*
X139033331Y-131239346D02*
X139233331Y-131306013D01*
X139233331Y-131306013D02*
X139299998Y-131372680D01*
X139899998Y-132639346D02*
X139899998Y-131239346D01*
X139899998Y-131906013D02*
X140699998Y-131906013D01*
X140699998Y-132639346D02*
X140699998Y-131239346D01*
X142433332Y-132639346D02*
X142433332Y-131239346D01*
X142433332Y-131239346D02*
X142966665Y-131239346D01*
X142966665Y-131239346D02*
X143099999Y-131306013D01*
X143099999Y-131306013D02*
X143166665Y-131372680D01*
X143166665Y-131372680D02*
X143233332Y-131506013D01*
X143233332Y-131506013D02*
X143233332Y-131706013D01*
X143233332Y-131706013D02*
X143166665Y-131839346D01*
X143166665Y-131839346D02*
X143099999Y-131906013D01*
X143099999Y-131906013D02*
X142966665Y-131972680D01*
X142966665Y-131972680D02*
X142433332Y-131972680D01*
X143833332Y-132639346D02*
X143833332Y-131239346D01*
X143833332Y-131239346D02*
X144166665Y-131239346D01*
X144166665Y-131239346D02*
X144366665Y-131306013D01*
X144366665Y-131306013D02*
X144499999Y-131439346D01*
X144499999Y-131439346D02*
X144566665Y-131572680D01*
X144566665Y-131572680D02*
X144633332Y-131839346D01*
X144633332Y-131839346D02*
X144633332Y-132039346D01*
X144633332Y-132039346D02*
X144566665Y-132306013D01*
X144566665Y-132306013D02*
X144499999Y-132439346D01*
X144499999Y-132439346D02*
X144366665Y-132572680D01*
X144366665Y-132572680D02*
X144166665Y-132639346D01*
X144166665Y-132639346D02*
X143833332Y-132639346D01*
X145233332Y-132639346D02*
X145233332Y-131239346D01*
X145233332Y-131239346D02*
X145699999Y-132239346D01*
X145699999Y-132239346D02*
X146166665Y-131239346D01*
X146166665Y-131239346D02*
X146166665Y-132639346D01*
X147899999Y-132639346D02*
X147899999Y-131239346D01*
X147899999Y-131239346D02*
X148366666Y-132239346D01*
X148366666Y-132239346D02*
X148833332Y-131239346D01*
X148833332Y-131239346D02*
X148833332Y-132639346D01*
X149499999Y-132639346D02*
X149499999Y-131239346D01*
X150966666Y-132506013D02*
X150899999Y-132572680D01*
X150899999Y-132572680D02*
X150699999Y-132639346D01*
X150699999Y-132639346D02*
X150566666Y-132639346D01*
X150566666Y-132639346D02*
X150366666Y-132572680D01*
X150366666Y-132572680D02*
X150233333Y-132439346D01*
X150233333Y-132439346D02*
X150166666Y-132306013D01*
X150166666Y-132306013D02*
X150099999Y-132039346D01*
X150099999Y-132039346D02*
X150099999Y-131839346D01*
X150099999Y-131839346D02*
X150166666Y-131572680D01*
X150166666Y-131572680D02*
X150233333Y-131439346D01*
X150233333Y-131439346D02*
X150366666Y-131306013D01*
X150366666Y-131306013D02*
X150566666Y-131239346D01*
X150566666Y-131239346D02*
X150699999Y-131239346D01*
X150699999Y-131239346D02*
X150899999Y-131306013D01*
X150899999Y-131306013D02*
X150966666Y-131372680D01*
X152566666Y-132239346D02*
X153233333Y-132239346D01*
X152433333Y-132639346D02*
X152900000Y-131239346D01*
X152900000Y-131239346D02*
X153366666Y-132639346D01*
X154633333Y-132639346D02*
X154166666Y-131972680D01*
X153833333Y-132639346D02*
X153833333Y-131239346D01*
X153833333Y-131239346D02*
X154366666Y-131239346D01*
X154366666Y-131239346D02*
X154500000Y-131306013D01*
X154500000Y-131306013D02*
X154566666Y-131372680D01*
X154566666Y-131372680D02*
X154633333Y-131506013D01*
X154633333Y-131506013D02*
X154633333Y-131706013D01*
X154633333Y-131706013D02*
X154566666Y-131839346D01*
X154566666Y-131839346D02*
X154500000Y-131906013D01*
X154500000Y-131906013D02*
X154366666Y-131972680D01*
X154366666Y-131972680D02*
X153833333Y-131972680D01*
X156033333Y-132639346D02*
X155566666Y-131972680D01*
X155233333Y-132639346D02*
X155233333Y-131239346D01*
X155233333Y-131239346D02*
X155766666Y-131239346D01*
X155766666Y-131239346D02*
X155900000Y-131306013D01*
X155900000Y-131306013D02*
X155966666Y-131372680D01*
X155966666Y-131372680D02*
X156033333Y-131506013D01*
X156033333Y-131506013D02*
X156033333Y-131706013D01*
X156033333Y-131706013D02*
X155966666Y-131839346D01*
X155966666Y-131839346D02*
X155900000Y-131906013D01*
X155900000Y-131906013D02*
X155766666Y-131972680D01*
X155766666Y-131972680D02*
X155233333Y-131972680D01*
X156566666Y-132239346D02*
X157233333Y-132239346D01*
X156433333Y-132639346D02*
X156900000Y-131239346D01*
X156900000Y-131239346D02*
X157366666Y-132639346D01*
X158100000Y-131972680D02*
X158100000Y-132639346D01*
X157633333Y-131239346D02*
X158100000Y-131972680D01*
X158100000Y-131972680D02*
X158566666Y-131239346D01*
X161166667Y-132639346D02*
X161166667Y-131706013D01*
X161166667Y-131972680D02*
X161233334Y-131839346D01*
X161233334Y-131839346D02*
X161300000Y-131772680D01*
X161300000Y-131772680D02*
X161433334Y-131706013D01*
X161433334Y-131706013D02*
X161566667Y-131706013D01*
X162566667Y-132572680D02*
X162433334Y-132639346D01*
X162433334Y-132639346D02*
X162166667Y-132639346D01*
X162166667Y-132639346D02*
X162033334Y-132572680D01*
X162033334Y-132572680D02*
X161966667Y-132439346D01*
X161966667Y-132439346D02*
X161966667Y-131906013D01*
X161966667Y-131906013D02*
X162033334Y-131772680D01*
X162033334Y-131772680D02*
X162166667Y-131706013D01*
X162166667Y-131706013D02*
X162433334Y-131706013D01*
X162433334Y-131706013D02*
X162566667Y-131772680D01*
X162566667Y-131772680D02*
X162633334Y-131906013D01*
X162633334Y-131906013D02*
X162633334Y-132039346D01*
X162633334Y-132039346D02*
X161966667Y-132172680D01*
X163100001Y-131706013D02*
X163433334Y-132639346D01*
X163433334Y-132639346D02*
X163766667Y-131706013D01*
X165300001Y-132239346D02*
X165966668Y-132239346D01*
X165166668Y-132639346D02*
X165633335Y-131239346D01*
X165633335Y-131239346D02*
X166100001Y-132639346D01*
X178800000Y-150106013D02*
X179866667Y-150106013D01*
X179333333Y-150639346D02*
X179333333Y-149572680D01*
X180400000Y-149239346D02*
X181333333Y-150639346D01*
X181333333Y-149239346D02*
X180400000Y-150639346D01*
D12*
X198857599Y-151853713D02*
X198641927Y-151853713D01*
X198857599Y-152573713D02*
X198641927Y-152573713D01*
D13*
X187461879Y-115125493D02*
G75*
G02*
X187236879Y-115125493I-112500J0D01*
G01*
X187236879Y-115125493D02*
G75*
G02*
X187461879Y-115125493I112500J0D01*
G01*
D14*
X132185645Y-102147776D02*
G75*
G02*
X131960647Y-102147776I-112499J0D01*
G01*
X131960647Y-102147776D02*
G75*
G02*
X132185645Y-102147776I112499J0D01*
G01*
D12*
X152090000Y-165440000D02*
X153910000Y-165440000D01*
X152090000Y-165490000D02*
X152090000Y-165440000D01*
X152090000Y-168560000D02*
X152090000Y-168510000D01*
X153910000Y-165440000D02*
X153910000Y-165490000D01*
X153910000Y-166610000D02*
X153910000Y-167390000D01*
X153910000Y-168510000D02*
X153910000Y-168560000D01*
X153910000Y-168560000D02*
X152090000Y-168560000D01*
X151550000Y-165490000D02*
X151310000Y-165160000D01*
X151790000Y-165160000D01*
X151550000Y-165490000D01*
G36*
X151550000Y-165490000D02*
G01*
X151310000Y-165160000D01*
X151790000Y-165160000D01*
X151550000Y-165490000D01*
G37*
X157846359Y-153120000D02*
X158153641Y-153120000D01*
X157846359Y-153880000D02*
X158153641Y-153880000D01*
D13*
X184987006Y-187349379D02*
G75*
G02*
X184762006Y-187349379I-112500J0D01*
G01*
X184762006Y-187349379D02*
G75*
G02*
X184987006Y-187349379I112500J0D01*
G01*
D12*
X170409600Y-105570848D02*
X170327067Y-105770103D01*
X171074795Y-105846381D02*
X170992262Y-106045636D01*
X182727649Y-186367430D02*
X182575146Y-186214927D01*
X183236766Y-185858313D02*
X183084263Y-185705810D01*
X141320000Y-172453641D02*
X141320000Y-172146359D01*
X142080000Y-172453641D02*
X142080000Y-172146359D01*
X124255568Y-112793699D02*
X123965280Y-112359253D01*
X125477828Y-111977011D02*
X125187540Y-111542565D01*
X154890368Y-101639073D02*
X154890368Y-101331791D01*
X155650368Y-101639073D02*
X155650368Y-101331791D01*
X181659745Y-182197146D02*
X181442464Y-181979865D01*
X182197146Y-181659745D02*
X181979865Y-181442464D01*
X198360926Y-154890368D02*
X198668208Y-154890368D01*
X198360926Y-155650368D02*
X198668208Y-155650368D01*
D13*
X196625331Y-171160432D02*
G75*
G02*
X196400331Y-171160432I-112500J0D01*
G01*
X196400331Y-171160432D02*
G75*
G02*
X196625331Y-171160432I112500J0D01*
G01*
D12*
X113632569Y-182727649D02*
X113785072Y-182575146D01*
X114141686Y-183236766D02*
X114294189Y-183084263D01*
D13*
X128952067Y-196512831D02*
G75*
G02*
X128727067Y-196512831I-112500J0D01*
G01*
X128727067Y-196512831D02*
G75*
G02*
X128952067Y-196512831I112500J0D01*
G01*
D12*
X138346359Y-153120000D02*
X138653641Y-153120000D01*
X138346359Y-153880000D02*
X138653641Y-153880000D01*
X147690000Y-149615000D02*
X152310000Y-149615000D01*
X152310000Y-156385000D02*
X147690000Y-156385000D01*
X146140000Y-150070000D02*
X145810000Y-150310000D01*
X145810000Y-149830000D01*
X146140000Y-150070000D01*
G36*
X146140000Y-150070000D02*
G01*
X145810000Y-150310000D01*
X145810000Y-149830000D01*
X146140000Y-150070000D01*
G37*
X174522171Y-188022988D02*
X174812459Y-188457434D01*
X175744431Y-187206300D02*
X176034719Y-187640746D01*
X151720000Y-172453641D02*
X151720000Y-172146359D01*
X152480000Y-172453641D02*
X152480000Y-172146359D01*
X163286665Y-196841972D02*
X163404258Y-197125863D01*
X163988812Y-196551133D02*
X164106405Y-196835024D01*
X157846359Y-148120000D02*
X158153641Y-148120000D01*
X157846359Y-148880000D02*
X158153641Y-148880000D01*
X132369375Y-191571104D02*
X132486968Y-191287213D01*
X133071522Y-191861943D02*
X133189115Y-191578052D01*
X127613748Y-165290000D02*
X130386252Y-165290000D01*
X127613748Y-168710000D02*
X130386252Y-168710000D01*
X136011187Y-103448866D02*
X135893594Y-103164975D01*
X136713334Y-103158027D02*
X136595741Y-102874136D01*
X191571104Y-167630624D02*
X191287213Y-167513031D01*
X191861943Y-166928477D02*
X191578052Y-166810884D01*
X192517367Y-173727183D02*
X192801258Y-173844776D01*
X192808206Y-173025036D02*
X193092097Y-173142629D01*
X191571104Y-132369375D02*
X191287213Y-132486968D01*
X191861943Y-133071522D02*
X191578052Y-133189115D01*
X111977011Y-174522171D02*
X111542565Y-174812459D01*
X112793699Y-175744431D02*
X112359253Y-176034719D01*
X140010000Y-165350000D02*
X134500000Y-165350000D01*
X140010000Y-168650000D02*
X134500000Y-168650000D01*
X140010000Y-168650000D02*
X140010000Y-165350000D01*
X149620000Y-195153641D02*
X149620000Y-194846359D01*
X150380000Y-195153641D02*
X150380000Y-194846359D01*
X133015613Y-104152078D02*
X133098146Y-104351333D01*
X133680808Y-103876545D02*
X133763341Y-104075800D01*
X142892164Y-146440000D02*
X143107836Y-146440000D01*
X142892164Y-147160000D02*
X143107836Y-147160000D01*
X157846359Y-150620000D02*
X158153641Y-150620000D01*
X157846359Y-151380000D02*
X158153641Y-151380000D01*
D13*
X151862500Y-98930000D02*
G75*
G02*
X151637500Y-98930000I-112500J0D01*
G01*
X151637500Y-98930000D02*
G75*
G02*
X151862500Y-98930000I112500J0D01*
G01*
D12*
X166359420Y-166490000D02*
X166640580Y-166490000D01*
X166359420Y-167510000D02*
X166640580Y-167510000D01*
X138720000Y-172453641D02*
X138720000Y-172146359D01*
X139480000Y-172453641D02*
X139480000Y-172146359D01*
X148359420Y-166490000D02*
X148640580Y-166490000D01*
X148359420Y-167510000D02*
X148640580Y-167510000D01*
X149892164Y-158840000D02*
X150107836Y-158840000D01*
X149892164Y-159560000D02*
X150107836Y-159560000D01*
X149620000Y-104846359D02*
X149620000Y-105153641D01*
X150380000Y-104846359D02*
X150380000Y-105153641D01*
X142346359Y-150620000D02*
X142653641Y-150620000D01*
X142346359Y-151380000D02*
X142653641Y-151380000D01*
D13*
X201182500Y-151750000D02*
G75*
G02*
X200957500Y-151750000I-112500J0D01*
G01*
X200957500Y-151750000D02*
G75*
G02*
X201182500Y-151750000I112500J0D01*
G01*
D12*
X103158027Y-163286665D02*
X102874136Y-163404258D01*
X103448866Y-163988812D02*
X103164975Y-164106405D01*
D14*
X102260275Y-167926853D02*
G75*
G02*
X102035277Y-167926853I-112499J0D01*
G01*
X102035277Y-167926853D02*
G75*
G02*
X102260275Y-167926853I112499J0D01*
G01*
D12*
X138346359Y-145620000D02*
X138653641Y-145620000D01*
X138346359Y-146380000D02*
X138653641Y-146380000D01*
X166928477Y-108138056D02*
X166810884Y-108421947D01*
X167630624Y-108428895D02*
X167513031Y-108712786D01*
D13*
X171272932Y-103487168D02*
G75*
G02*
X171047932Y-103487168I-112500J0D01*
G01*
X171047932Y-103487168D02*
G75*
G02*
X171272932Y-103487168I112500J0D01*
G01*
D12*
X128925204Y-194153618D02*
X129007737Y-193954363D01*
X129590399Y-194429151D02*
X129672932Y-194229896D01*
X157359420Y-166490000D02*
X157640580Y-166490000D01*
X157359420Y-167510000D02*
X157640580Y-167510000D01*
X147846359Y-142620000D02*
X148153641Y-142620000D01*
X147846359Y-143380000D02*
X148153641Y-143380000D01*
X187654351Y-119261674D02*
X187871632Y-119044393D01*
X188191752Y-119799075D02*
X188409033Y-119581794D01*
X180200924Y-188191752D02*
X180418205Y-188409033D01*
X180738325Y-187654351D02*
X180955606Y-187871632D01*
X138346359Y-148120000D02*
X138653641Y-148120000D01*
X138346359Y-148880000D02*
X138653641Y-148880000D01*
D13*
X148362500Y-201070000D02*
G75*
G02*
X148137500Y-201070000I-112500J0D01*
G01*
X148137500Y-201070000D02*
G75*
G02*
X148362500Y-201070000I112500J0D01*
G01*
D12*
X108138056Y-133071522D02*
X108421947Y-133189115D01*
X108428895Y-132369375D02*
X108712786Y-132486968D01*
X154059420Y-158690000D02*
X154340580Y-158690000D01*
X154059420Y-159710000D02*
X154340580Y-159710000D01*
X162100378Y-166440000D02*
X162899622Y-166440000D01*
X162100378Y-167560000D02*
X162899622Y-167560000D01*
X126272816Y-192517367D02*
X126155223Y-192801258D01*
X126974963Y-192808206D02*
X126857370Y-193092097D01*
X143920000Y-172453641D02*
X143920000Y-172146359D01*
X144680000Y-172453641D02*
X144680000Y-172146359D01*
D14*
X168039352Y-197852223D02*
G75*
G02*
X167814354Y-197852223I-112499J0D01*
G01*
X167814354Y-197852223D02*
G75*
G02*
X168039352Y-197852223I112499J0D01*
G01*
D12*
X104846359Y-149620000D02*
X105153641Y-149620000D01*
X104846359Y-150380000D02*
X105153641Y-150380000D01*
X196551133Y-136011187D02*
X196835024Y-135893594D01*
X196841972Y-136713334D02*
X197125863Y-136595741D01*
D13*
X99042500Y-148250000D02*
G75*
G02*
X98817500Y-148250000I-112500J0D01*
G01*
X98817500Y-148250000D02*
G75*
G02*
X99042500Y-148250000I112500J0D01*
G01*
D12*
X195847921Y-133015613D02*
X195648666Y-133098146D01*
X196123454Y-133680808D02*
X195924199Y-133763341D01*
X105570848Y-129590399D02*
X105770103Y-129672932D01*
X105846381Y-128925204D02*
X106045636Y-129007737D01*
D14*
X197964722Y-132073146D02*
G75*
G02*
X197739724Y-132073146I-112499J0D01*
G01*
X197739724Y-132073146D02*
G75*
G02*
X197964722Y-132073146I112499J0D01*
G01*
D12*
X119261674Y-112345648D02*
X119044393Y-112128367D01*
X119799075Y-111808247D02*
X119581794Y-111590966D01*
X144349631Y-198360926D02*
X144349631Y-198668208D01*
X145109631Y-198360926D02*
X145109631Y-198668208D01*
X143238748Y-166265000D02*
X143761252Y-166265000D01*
X143238748Y-167735000D02*
X143761252Y-167735000D01*
X147426286Y-198857599D02*
X147426286Y-198641927D01*
X148146286Y-198857599D02*
X148146286Y-198641927D01*
X132369375Y-108428895D02*
X132486968Y-108712786D01*
X133071522Y-108138056D02*
X133189115Y-108421947D01*
X101142400Y-147426286D02*
X101358072Y-147426286D01*
X101142400Y-148146286D02*
X101358072Y-148146286D01*
X108138056Y-166928477D02*
X108421947Y-166810884D01*
X108428895Y-167630624D02*
X108712786Y-167513031D01*
D13*
X103599668Y-128839567D02*
G75*
G02*
X103374668Y-128839567I-112500J0D01*
G01*
X103374668Y-128839567D02*
G75*
G02*
X103599668Y-128839567I112500J0D01*
G01*
D12*
X111808247Y-180200924D02*
X111590966Y-180418205D01*
X112345648Y-180738325D02*
X112128367Y-180955606D01*
X151853713Y-101142400D02*
X151853713Y-101358072D01*
X152573713Y-101142400D02*
X152573713Y-101358072D01*
X195153641Y-149620000D02*
X194846359Y-149620000D01*
X195153641Y-150380000D02*
X194846359Y-150380000D01*
X117802853Y-118340254D02*
X118020134Y-118557535D01*
X118340254Y-117802853D02*
X118557535Y-118020134D01*
X136120000Y-172453641D02*
X136120000Y-172146359D01*
X136880000Y-172453641D02*
X136880000Y-172146359D01*
X116763233Y-114141686D02*
X116915736Y-114294189D01*
X117272350Y-113632569D02*
X117424853Y-113785072D01*
X157238748Y-169065000D02*
X157761252Y-169065000D01*
X157238748Y-170535000D02*
X157761252Y-170535000D01*
X194153618Y-171074795D02*
X193954363Y-170992262D01*
X194429151Y-170409600D02*
X194229896Y-170327067D01*
X148090000Y-174240000D02*
X149910000Y-174240000D01*
X148090000Y-174290000D02*
X148090000Y-174240000D01*
X148090000Y-177360000D02*
X148090000Y-177310000D01*
X149910000Y-174240000D02*
X149910000Y-174290000D01*
X149910000Y-177310000D02*
X149910000Y-177360000D01*
X149910000Y-177360000D02*
X148090000Y-177360000D01*
X147550000Y-174290000D02*
X147310000Y-173960000D01*
X147790000Y-173960000D01*
X147550000Y-174290000D01*
G36*
X147550000Y-174290000D02*
G01*
X147310000Y-173960000D01*
X147790000Y-173960000D01*
X147550000Y-174290000D01*
G37*
X149120000Y-172453641D02*
X149120000Y-172146359D01*
X149880000Y-172453641D02*
X149880000Y-172146359D01*
X185858313Y-116763233D02*
X185705810Y-116915736D01*
X186367430Y-117272350D02*
X186214927Y-117424853D01*
X173025036Y-107191793D02*
X173142629Y-106907902D01*
X173727183Y-107482632D02*
X173844776Y-107198741D01*
X117802853Y-181659745D02*
X118020134Y-181442464D01*
X118340254Y-182197146D02*
X118557535Y-181979865D01*
X166319191Y-196123454D02*
X166236658Y-195924199D01*
X166984386Y-195847921D02*
X166901853Y-195648666D01*
X154320000Y-172453641D02*
X154320000Y-172146359D01*
X155080000Y-172453641D02*
X155080000Y-172146359D01*
D13*
X115237993Y-112650620D02*
G75*
G02*
X115012993Y-112650620I-112500J0D01*
G01*
X115012993Y-112650620D02*
G75*
G02*
X115237993Y-112650620I112500J0D01*
G01*
X112763120Y-184874506D02*
G75*
G02*
X112538120Y-184874506I-112500J0D01*
G01*
X112538120Y-184874506D02*
G75*
G02*
X112763120Y-184874506I112500J0D01*
G01*
D10*
X141250000Y-141350000D02*
X144750000Y-141350000D01*
X141250000Y-144650000D02*
X144750000Y-144650000D01*
D13*
X141162500Y-144650000D02*
G75*
G02*
X140937500Y-144650000I-112500J0D01*
G01*
X140937500Y-144650000D02*
G75*
G02*
X141162500Y-144650000I112500J0D01*
G01*
D12*
X103876545Y-166319191D02*
X104075800Y-166236658D01*
X104152078Y-166984386D02*
X104351333Y-166901853D01*
X157846359Y-145620000D02*
X158153641Y-145620000D01*
X157846359Y-146380000D02*
X158153641Y-146380000D01*
X146520000Y-172453641D02*
X146520000Y-172146359D01*
X147280000Y-172453641D02*
X147280000Y-172146359D01*
X139590000Y-174240000D02*
X141410000Y-174240000D01*
X139590000Y-174290000D02*
X139590000Y-174240000D01*
X139590000Y-177360000D02*
X139590000Y-177310000D01*
X141410000Y-174240000D02*
X141410000Y-174290000D01*
X141410000Y-177310000D02*
X141410000Y-177360000D01*
X141410000Y-177360000D02*
X139590000Y-177360000D01*
X139050000Y-174290000D02*
X138810000Y-173960000D01*
X139290000Y-173960000D01*
X139050000Y-174290000D01*
G36*
X139050000Y-174290000D02*
G01*
X138810000Y-173960000D01*
X139290000Y-173960000D01*
X139050000Y-174290000D01*
G37*
X107191793Y-126974963D02*
X106907902Y-126857370D01*
X107482632Y-126272816D02*
X107198741Y-126155223D01*
X143392164Y-169440000D02*
X143607836Y-169440000D01*
X143392164Y-170160000D02*
X143607836Y-170160000D01*
X181659745Y-117802853D02*
X181442464Y-118020134D01*
X182197146Y-118340254D02*
X181979865Y-118557535D01*
X187206300Y-124255568D02*
X187640746Y-123965280D01*
X188022988Y-125477828D02*
X188457434Y-125187540D01*
X166928477Y-191861943D02*
X166810884Y-191578052D01*
X167630624Y-191571104D02*
X167513031Y-191287213D01*
X138346359Y-150620000D02*
X138653641Y-150620000D01*
X138346359Y-151380000D02*
X138653641Y-151380000D01*
X101639073Y-144349631D02*
X101331791Y-144349631D01*
X101639073Y-145109631D02*
X101331791Y-145109631D01*
%LPC*%
G36*
G01*
X199509763Y-152043713D02*
X199509763Y-152383713D01*
G75*
G02*
X199369763Y-152523713I-140000J0D01*
G01*
X199089763Y-152523713D01*
G75*
G02*
X198949763Y-152383713I0J140000D01*
G01*
X198949763Y-152043713D01*
G75*
G02*
X199089763Y-151903713I140000J0D01*
G01*
X199369763Y-151903713D01*
G75*
G02*
X199509763Y-152043713I0J-140000D01*
G01*
G37*
G36*
G01*
X198549763Y-152043713D02*
X198549763Y-152383713D01*
G75*
G02*
X198409763Y-152523713I-140000J0D01*
G01*
X198129763Y-152523713D01*
G75*
G02*
X197989763Y-152383713I0J140000D01*
G01*
X197989763Y-152043713D01*
G75*
G02*
X198129763Y-151903713I140000J0D01*
G01*
X198409763Y-151903713D01*
G75*
G02*
X198549763Y-152043713I0J-140000D01*
G01*
G37*
G36*
X186995826Y-113357726D02*
G01*
X187667577Y-112685975D01*
X187950420Y-112968818D01*
X187278669Y-113640569D01*
X186995826Y-113357726D01*
G37*
G36*
X187950420Y-112403132D02*
G01*
X188622171Y-111731381D01*
X188905014Y-112014224D01*
X188233263Y-112685975D01*
X187950420Y-112403132D01*
G37*
G36*
X187314024Y-111766736D02*
G01*
X187985775Y-111094985D01*
X188268618Y-111377828D01*
X187596867Y-112049579D01*
X187314024Y-111766736D01*
G37*
G36*
X186359430Y-112721330D02*
G01*
X187031181Y-112049579D01*
X187314024Y-112332422D01*
X186642273Y-113004173D01*
X186359430Y-112721330D01*
G37*
G36*
X185829100Y-113251660D02*
G01*
X186076587Y-113004173D01*
X186995826Y-113923412D01*
X186748339Y-114170899D01*
X185829100Y-113251660D01*
G37*
G36*
X187561512Y-113923412D02*
G01*
X189187857Y-112297067D01*
X189435344Y-112544554D01*
X187808999Y-114170899D01*
X187561512Y-113923412D01*
G37*
G36*
X188268618Y-110812142D02*
G01*
X188516105Y-110564655D01*
X189435344Y-111483894D01*
X189187857Y-111731381D01*
X188268618Y-110812142D01*
G37*
G36*
X185829100Y-112191000D02*
G01*
X187455445Y-110564655D01*
X187702932Y-110812142D01*
X186076587Y-112438487D01*
X185829100Y-112191000D01*
G37*
G36*
X130304643Y-101797921D02*
G01*
X129941093Y-100920236D01*
X130310645Y-100767163D01*
X130674195Y-101644848D01*
X130304643Y-101797921D01*
G37*
G36*
X129788020Y-100550684D02*
G01*
X129424470Y-99672999D01*
X129794022Y-99519926D01*
X130157572Y-100397611D01*
X129788020Y-100550684D01*
G37*
G36*
X128956529Y-100895099D02*
G01*
X128592979Y-100017414D01*
X128962531Y-99864341D01*
X129326081Y-100742026D01*
X128956529Y-100895099D01*
G37*
G36*
X129473152Y-102142336D02*
G01*
X129109602Y-101264651D01*
X129479154Y-101111578D01*
X129842704Y-101989263D01*
X129473152Y-102142336D01*
G37*
G36*
X129760164Y-102835246D02*
G01*
X129626225Y-102511888D01*
X130827268Y-102014400D01*
X130961207Y-102337758D01*
X129760164Y-102835246D01*
G37*
G36*
X131043746Y-101491775D02*
G01*
X130163574Y-99366852D01*
X130486932Y-99232913D01*
X131367104Y-101357836D01*
X131043746Y-101491775D01*
G37*
G36*
X128439906Y-99647862D02*
G01*
X128305967Y-99324504D01*
X129507010Y-98827016D01*
X129640949Y-99150374D01*
X128439906Y-99647862D01*
G37*
G36*
X128780242Y-102429349D02*
G01*
X127900070Y-100304426D01*
X128223428Y-100170487D01*
X129103600Y-102295410D01*
X128780242Y-102429349D01*
G37*
D15*
X152600000Y-169900000D03*
G36*
G01*
X151200000Y-166200000D02*
X151200000Y-165900000D01*
G75*
G02*
X151350000Y-165750000I150000J0D01*
G01*
X152375000Y-165750000D01*
G75*
G02*
X152525000Y-165900000I0J-150000D01*
G01*
X152525000Y-166200000D01*
G75*
G02*
X152375000Y-166350000I-150000J0D01*
G01*
X151350000Y-166350000D01*
G75*
G02*
X151200000Y-166200000I0J150000D01*
G01*
G37*
G36*
G01*
X151200000Y-167150000D02*
X151200000Y-166850000D01*
G75*
G02*
X151350000Y-166700000I150000J0D01*
G01*
X152375000Y-166700000D01*
G75*
G02*
X152525000Y-166850000I0J-150000D01*
G01*
X152525000Y-167150000D01*
G75*
G02*
X152375000Y-167300000I-150000J0D01*
G01*
X151350000Y-167300000D01*
G75*
G02*
X151200000Y-167150000I0J150000D01*
G01*
G37*
G36*
G01*
X151200000Y-168100000D02*
X151200000Y-167800000D01*
G75*
G02*
X151350000Y-167650000I150000J0D01*
G01*
X152375000Y-167650000D01*
G75*
G02*
X152525000Y-167800000I0J-150000D01*
G01*
X152525000Y-168100000D01*
G75*
G02*
X152375000Y-168250000I-150000J0D01*
G01*
X151350000Y-168250000D01*
G75*
G02*
X151200000Y-168100000I0J150000D01*
G01*
G37*
G36*
G01*
X153475000Y-168100000D02*
X153475000Y-167800000D01*
G75*
G02*
X153625000Y-167650000I150000J0D01*
G01*
X154650000Y-167650000D01*
G75*
G02*
X154800000Y-167800000I0J-150000D01*
G01*
X154800000Y-168100000D01*
G75*
G02*
X154650000Y-168250000I-150000J0D01*
G01*
X153625000Y-168250000D01*
G75*
G02*
X153475000Y-168100000I0J150000D01*
G01*
G37*
G36*
G01*
X153475000Y-166200000D02*
X153475000Y-165900000D01*
G75*
G02*
X153625000Y-165750000I150000J0D01*
G01*
X154650000Y-165750000D01*
G75*
G02*
X154800000Y-165900000I0J-150000D01*
G01*
X154800000Y-166200000D01*
G75*
G02*
X154650000Y-166350000I-150000J0D01*
G01*
X153625000Y-166350000D01*
G75*
G02*
X153475000Y-166200000I0J150000D01*
G01*
G37*
D16*
X189130000Y-133792000D03*
G36*
G01*
X157220000Y-153685000D02*
X157220000Y-153315000D01*
G75*
G02*
X157355000Y-153180000I135000J0D01*
G01*
X157625000Y-153180000D01*
G75*
G02*
X157760000Y-153315000I0J-135000D01*
G01*
X157760000Y-153685000D01*
G75*
G02*
X157625000Y-153820000I-135000J0D01*
G01*
X157355000Y-153820000D01*
G75*
G02*
X157220000Y-153685000I0J135000D01*
G01*
G37*
G36*
G01*
X158240000Y-153685000D02*
X158240000Y-153315000D01*
G75*
G02*
X158375000Y-153180000I135000J0D01*
G01*
X158645000Y-153180000D01*
G75*
G02*
X158780000Y-153315000I0J-135000D01*
G01*
X158780000Y-153685000D01*
G75*
G02*
X158645000Y-153820000I-135000J0D01*
G01*
X158375000Y-153820000D01*
G75*
G02*
X158240000Y-153685000I0J135000D01*
G01*
G37*
G36*
X186642273Y-186995826D02*
G01*
X187314024Y-187667577D01*
X187031181Y-187950420D01*
X186359430Y-187278669D01*
X186642273Y-186995826D01*
G37*
G36*
X187596867Y-187950420D02*
G01*
X188268618Y-188622171D01*
X187985775Y-188905014D01*
X187314024Y-188233263D01*
X187596867Y-187950420D01*
G37*
G36*
X188233263Y-187314024D02*
G01*
X188905014Y-187985775D01*
X188622171Y-188268618D01*
X187950420Y-187596867D01*
X188233263Y-187314024D01*
G37*
G36*
X187278669Y-186359430D02*
G01*
X187950420Y-187031181D01*
X187667577Y-187314024D01*
X186995826Y-186642273D01*
X187278669Y-186359430D01*
G37*
G36*
X186748339Y-185829100D02*
G01*
X186995826Y-186076587D01*
X186076587Y-186995826D01*
X185829100Y-186748339D01*
X186748339Y-185829100D01*
G37*
G36*
X186076587Y-187561512D02*
G01*
X187702932Y-189187857D01*
X187455445Y-189435344D01*
X185829100Y-187808999D01*
X186076587Y-187561512D01*
G37*
G36*
X189187857Y-188268618D02*
G01*
X189435344Y-188516105D01*
X188516105Y-189435344D01*
X188268618Y-189187857D01*
X189187857Y-188268618D01*
G37*
G36*
X187808999Y-185829100D02*
G01*
X189435344Y-187455445D01*
X189187857Y-187702932D01*
X187561512Y-186076587D01*
X187808999Y-185829100D01*
G37*
G36*
G01*
X170834711Y-105041038D02*
X171148830Y-105171150D01*
G75*
G02*
X171224597Y-105354069I-53576J-129343D01*
G01*
X171117446Y-105612755D01*
G75*
G02*
X170934527Y-105688522I-129343J53576D01*
G01*
X170620408Y-105558410D01*
G75*
G02*
X170544641Y-105375491I53576J129343D01*
G01*
X170651792Y-105116805D01*
G75*
G02*
X170834711Y-105041038I129343J-53576D01*
G01*
G37*
G36*
G01*
X170467335Y-105927962D02*
X170781454Y-106058074D01*
G75*
G02*
X170857221Y-106240993I-53576J-129343D01*
G01*
X170750070Y-106499679D01*
G75*
G02*
X170567151Y-106575446I-129343J53576D01*
G01*
X170253032Y-106445334D01*
G75*
G02*
X170177265Y-106262415I53576J129343D01*
G01*
X170284416Y-106003729D01*
G75*
G02*
X170467335Y-105927962I129343J-53576D01*
G01*
G37*
G36*
G01*
X183563565Y-186453813D02*
X183323149Y-186694229D01*
G75*
G02*
X183125159Y-186694229I-98995J98995D01*
G01*
X182927169Y-186496239D01*
G75*
G02*
X182927169Y-186298249I98995J98995D01*
G01*
X183167585Y-186057833D01*
G75*
G02*
X183365575Y-186057833I98995J-98995D01*
G01*
X183563565Y-186255823D01*
G75*
G02*
X183563565Y-186453813I-98995J-98995D01*
G01*
G37*
G36*
G01*
X182884743Y-185774991D02*
X182644327Y-186015407D01*
G75*
G02*
X182446337Y-186015407I-98995J98995D01*
G01*
X182248347Y-185817417D01*
G75*
G02*
X182248347Y-185619427I98995J98995D01*
G01*
X182488763Y-185379011D01*
G75*
G02*
X182686753Y-185379011I98995J-98995D01*
G01*
X182884743Y-185577001D01*
G75*
G02*
X182884743Y-185774991I-98995J-98995D01*
G01*
G37*
G36*
G01*
X141885000Y-173080000D02*
X141515000Y-173080000D01*
G75*
G02*
X141380000Y-172945000I0J135000D01*
G01*
X141380000Y-172675000D01*
G75*
G02*
X141515000Y-172540000I135000J0D01*
G01*
X141885000Y-172540000D01*
G75*
G02*
X142020000Y-172675000I0J-135000D01*
G01*
X142020000Y-172945000D01*
G75*
G02*
X141885000Y-173080000I-135000J0D01*
G01*
G37*
G36*
G01*
X141885000Y-172060000D02*
X141515000Y-172060000D01*
G75*
G02*
X141380000Y-171925000I0J135000D01*
G01*
X141380000Y-171655000D01*
G75*
G02*
X141515000Y-171520000I135000J0D01*
G01*
X141885000Y-171520000D01*
G75*
G02*
X142020000Y-171655000I0J-135000D01*
G01*
X142020000Y-171925000D01*
G75*
G02*
X141885000Y-172060000I-135000J0D01*
G01*
G37*
G36*
G01*
X125922080Y-113109867D02*
X125132183Y-113637658D01*
G75*
G02*
X124785423Y-113568684I-138893J207867D01*
G01*
X124507638Y-113152949D01*
G75*
G02*
X124576612Y-112806189I207867J138893D01*
G01*
X125366509Y-112278398D01*
G75*
G02*
X125713269Y-112347372I138893J-207867D01*
G01*
X125991054Y-112763107D01*
G75*
G02*
X125922080Y-113109867I-207867J-138893D01*
G01*
G37*
G36*
G01*
X124866496Y-111530075D02*
X124076599Y-112057866D01*
G75*
G02*
X123729839Y-111988892I-138893J207867D01*
G01*
X123452054Y-111573157D01*
G75*
G02*
X123521028Y-111226397I207867J138893D01*
G01*
X124310925Y-110698606D01*
G75*
G02*
X124657685Y-110767580I138893J-207867D01*
G01*
X124935470Y-111183315D01*
G75*
G02*
X124866496Y-111530075I-207867J-138893D01*
G01*
G37*
G36*
G01*
X155455368Y-102265432D02*
X155085368Y-102265432D01*
G75*
G02*
X154950368Y-102130432I0J135000D01*
G01*
X154950368Y-101860432D01*
G75*
G02*
X155085368Y-101725432I135000J0D01*
G01*
X155455368Y-101725432D01*
G75*
G02*
X155590368Y-101860432I0J-135000D01*
G01*
X155590368Y-102130432D01*
G75*
G02*
X155455368Y-102265432I-135000J0D01*
G01*
G37*
G36*
G01*
X155455368Y-101245432D02*
X155085368Y-101245432D01*
G75*
G02*
X154950368Y-101110432I0J135000D01*
G01*
X154950368Y-100840432D01*
G75*
G02*
X155085368Y-100705432I135000J0D01*
G01*
X155455368Y-100705432D01*
G75*
G02*
X155590368Y-100840432I0J-135000D01*
G01*
X155590368Y-101110432D01*
G75*
G02*
X155455368Y-101245432I-135000J0D01*
G01*
G37*
G36*
G01*
X182502162Y-182240533D02*
X182240533Y-182502162D01*
G75*
G02*
X182049615Y-182502162I-95459J95459D01*
G01*
X181858696Y-182311243D01*
G75*
G02*
X181858696Y-182120325I95459J95459D01*
G01*
X182120325Y-181858696D01*
G75*
G02*
X182311243Y-181858696I95459J-95459D01*
G01*
X182502162Y-182049615D01*
G75*
G02*
X182502162Y-182240533I-95459J-95459D01*
G01*
G37*
G36*
G01*
X181780914Y-181519285D02*
X181519285Y-181780914D01*
G75*
G02*
X181328367Y-181780914I-95459J95459D01*
G01*
X181137448Y-181589995D01*
G75*
G02*
X181137448Y-181399077I95459J95459D01*
G01*
X181399077Y-181137448D01*
G75*
G02*
X181589995Y-181137448I95459J-95459D01*
G01*
X181780914Y-181328367D01*
G75*
G02*
X181780914Y-181519285I-95459J-95459D01*
G01*
G37*
G36*
G01*
X197734567Y-155455368D02*
X197734567Y-155085368D01*
G75*
G02*
X197869567Y-154950368I135000J0D01*
G01*
X198139567Y-154950368D01*
G75*
G02*
X198274567Y-155085368I0J-135000D01*
G01*
X198274567Y-155455368D01*
G75*
G02*
X198139567Y-155590368I-135000J0D01*
G01*
X197869567Y-155590368D01*
G75*
G02*
X197734567Y-155455368I0J135000D01*
G01*
G37*
G36*
G01*
X198754567Y-155455368D02*
X198754567Y-155085368D01*
G75*
G02*
X198889567Y-154950368I135000J0D01*
G01*
X199159567Y-154950368D01*
G75*
G02*
X199294567Y-155085368I0J-135000D01*
G01*
X199294567Y-155455368D01*
G75*
G02*
X199159567Y-155590368I-135000J0D01*
G01*
X198889567Y-155590368D01*
G75*
G02*
X198754567Y-155455368I0J135000D01*
G01*
G37*
X120051000Y-120051000D03*
G36*
X198010736Y-170157295D02*
G01*
X198888421Y-170520845D01*
X198735348Y-170890397D01*
X197857663Y-170526847D01*
X198010736Y-170157295D01*
G37*
G36*
X199257973Y-170673918D02*
G01*
X200135658Y-171037468D01*
X199982585Y-171407020D01*
X199104900Y-171043470D01*
X199257973Y-170673918D01*
G37*
G36*
X199602388Y-169842427D02*
G01*
X200480073Y-170205977D01*
X200327000Y-170575529D01*
X199449315Y-170211979D01*
X199602388Y-169842427D01*
G37*
G36*
X198355151Y-169325804D02*
G01*
X199232836Y-169689354D01*
X199079763Y-170058906D01*
X198202078Y-169695356D01*
X198355151Y-169325804D01*
G37*
G36*
X197662241Y-169038792D02*
G01*
X197985599Y-169172731D01*
X197488111Y-170373774D01*
X197164753Y-170239835D01*
X197662241Y-169038792D01*
G37*
G36*
X197704589Y-170896399D02*
G01*
X199829512Y-171776571D01*
X199695573Y-172099929D01*
X197570650Y-171219757D01*
X197704589Y-170896399D01*
G37*
G36*
X200849625Y-170359050D02*
G01*
X201172983Y-170492989D01*
X200675495Y-171694032D01*
X200352137Y-171560093D01*
X200849625Y-170359050D01*
G37*
G36*
X198642163Y-168632895D02*
G01*
X200767086Y-169513067D01*
X200633147Y-169836425D01*
X198508224Y-168956253D01*
X198642163Y-168632895D01*
G37*
G36*
G01*
X113546186Y-183563565D02*
X113305770Y-183323149D01*
G75*
G02*
X113305770Y-183125159I98995J98995D01*
G01*
X113503760Y-182927169D01*
G75*
G02*
X113701750Y-182927169I98995J-98995D01*
G01*
X113942166Y-183167585D01*
G75*
G02*
X113942166Y-183365575I-98995J-98995D01*
G01*
X113744176Y-183563565D01*
G75*
G02*
X113546186Y-183563565I-98995J98995D01*
G01*
G37*
G36*
G01*
X114225008Y-182884743D02*
X113984592Y-182644327D01*
G75*
G02*
X113984592Y-182446337I98995J98995D01*
G01*
X114182582Y-182248347D01*
G75*
G02*
X114380572Y-182248347I98995J-98995D01*
G01*
X114620988Y-182488763D01*
G75*
G02*
X114620988Y-182686753I-98995J-98995D01*
G01*
X114422998Y-182884743D01*
G75*
G02*
X114225008Y-182884743I-98995J98995D01*
G01*
G37*
G36*
X129842704Y-198010736D02*
G01*
X129479154Y-198888421D01*
X129109602Y-198735348D01*
X129473152Y-197857663D01*
X129842704Y-198010736D01*
G37*
G36*
X129326081Y-199257973D02*
G01*
X128962531Y-200135658D01*
X128592979Y-199982585D01*
X128956529Y-199104900D01*
X129326081Y-199257973D01*
G37*
G36*
X130157572Y-199602388D02*
G01*
X129794022Y-200480073D01*
X129424470Y-200327000D01*
X129788020Y-199449315D01*
X130157572Y-199602388D01*
G37*
G36*
X130674195Y-198355151D02*
G01*
X130310645Y-199232836D01*
X129941093Y-199079763D01*
X130304643Y-198202078D01*
X130674195Y-198355151D01*
G37*
G36*
X130961207Y-197662241D02*
G01*
X130827268Y-197985599D01*
X129626225Y-197488111D01*
X129760164Y-197164753D01*
X130961207Y-197662241D01*
G37*
G36*
X129103600Y-197704589D02*
G01*
X128223428Y-199829512D01*
X127900070Y-199695573D01*
X128780242Y-197570650D01*
X129103600Y-197704589D01*
G37*
G36*
X129640949Y-200849625D02*
G01*
X129507010Y-201172983D01*
X128305967Y-200675495D01*
X128439906Y-200352137D01*
X129640949Y-200849625D01*
G37*
G36*
X131367104Y-198642163D02*
G01*
X130486932Y-200767086D01*
X130163574Y-200633147D01*
X131043746Y-198508224D01*
X131367104Y-198642163D01*
G37*
G36*
G01*
X137720000Y-153685000D02*
X137720000Y-153315000D01*
G75*
G02*
X137855000Y-153180000I135000J0D01*
G01*
X138125000Y-153180000D01*
G75*
G02*
X138260000Y-153315000I0J-135000D01*
G01*
X138260000Y-153685000D01*
G75*
G02*
X138125000Y-153820000I-135000J0D01*
G01*
X137855000Y-153820000D01*
G75*
G02*
X137720000Y-153685000I0J135000D01*
G01*
G37*
G36*
G01*
X138740000Y-153685000D02*
X138740000Y-153315000D01*
G75*
G02*
X138875000Y-153180000I135000J0D01*
G01*
X139145000Y-153180000D01*
G75*
G02*
X139280000Y-153315000I0J-135000D01*
G01*
X139280000Y-153685000D01*
G75*
G02*
X139145000Y-153820000I-135000J0D01*
G01*
X138875000Y-153820000D01*
G75*
G02*
X138740000Y-153685000I0J135000D01*
G01*
G37*
G36*
G01*
X146400000Y-150175000D02*
X146400000Y-149975000D01*
G75*
G02*
X146500000Y-149875000I100000J0D01*
G01*
X147775000Y-149875000D01*
G75*
G02*
X147875000Y-149975000I0J-100000D01*
G01*
X147875000Y-150175000D01*
G75*
G02*
X147775000Y-150275000I-100000J0D01*
G01*
X146500000Y-150275000D01*
G75*
G02*
X146400000Y-150175000I0J100000D01*
G01*
G37*
G36*
G01*
X146400000Y-150825000D02*
X146400000Y-150625000D01*
G75*
G02*
X146500000Y-150525000I100000J0D01*
G01*
X147775000Y-150525000D01*
G75*
G02*
X147875000Y-150625000I0J-100000D01*
G01*
X147875000Y-150825000D01*
G75*
G02*
X147775000Y-150925000I-100000J0D01*
G01*
X146500000Y-150925000D01*
G75*
G02*
X146400000Y-150825000I0J100000D01*
G01*
G37*
G36*
G01*
X146400000Y-151475000D02*
X146400000Y-151275000D01*
G75*
G02*
X146500000Y-151175000I100000J0D01*
G01*
X147775000Y-151175000D01*
G75*
G02*
X147875000Y-151275000I0J-100000D01*
G01*
X147875000Y-151475000D01*
G75*
G02*
X147775000Y-151575000I-100000J0D01*
G01*
X146500000Y-151575000D01*
G75*
G02*
X146400000Y-151475000I0J100000D01*
G01*
G37*
G36*
G01*
X146400000Y-152125000D02*
X146400000Y-151925000D01*
G75*
G02*
X146500000Y-151825000I100000J0D01*
G01*
X147775000Y-151825000D01*
G75*
G02*
X147875000Y-151925000I0J-100000D01*
G01*
X147875000Y-152125000D01*
G75*
G02*
X147775000Y-152225000I-100000J0D01*
G01*
X146500000Y-152225000D01*
G75*
G02*
X146400000Y-152125000I0J100000D01*
G01*
G37*
G36*
G01*
X146400000Y-152775000D02*
X146400000Y-152575000D01*
G75*
G02*
X146500000Y-152475000I100000J0D01*
G01*
X147775000Y-152475000D01*
G75*
G02*
X147875000Y-152575000I0J-100000D01*
G01*
X147875000Y-152775000D01*
G75*
G02*
X147775000Y-152875000I-100000J0D01*
G01*
X146500000Y-152875000D01*
G75*
G02*
X146400000Y-152775000I0J100000D01*
G01*
G37*
G36*
G01*
X146400000Y-153425000D02*
X146400000Y-153225000D01*
G75*
G02*
X146500000Y-153125000I100000J0D01*
G01*
X147775000Y-153125000D01*
G75*
G02*
X147875000Y-153225000I0J-100000D01*
G01*
X147875000Y-153425000D01*
G75*
G02*
X147775000Y-153525000I-100000J0D01*
G01*
X146500000Y-153525000D01*
G75*
G02*
X146400000Y-153425000I0J100000D01*
G01*
G37*
G36*
G01*
X146400000Y-154075000D02*
X146400000Y-153875000D01*
G75*
G02*
X146500000Y-153775000I100000J0D01*
G01*
X147775000Y-153775000D01*
G75*
G02*
X147875000Y-153875000I0J-100000D01*
G01*
X147875000Y-154075000D01*
G75*
G02*
X147775000Y-154175000I-100000J0D01*
G01*
X146500000Y-154175000D01*
G75*
G02*
X146400000Y-154075000I0J100000D01*
G01*
G37*
G36*
G01*
X146400000Y-154725000D02*
X146400000Y-154525000D01*
G75*
G02*
X146500000Y-154425000I100000J0D01*
G01*
X147775000Y-154425000D01*
G75*
G02*
X147875000Y-154525000I0J-100000D01*
G01*
X147875000Y-154725000D01*
G75*
G02*
X147775000Y-154825000I-100000J0D01*
G01*
X146500000Y-154825000D01*
G75*
G02*
X146400000Y-154725000I0J100000D01*
G01*
G37*
G36*
G01*
X146400000Y-155375000D02*
X146400000Y-155175000D01*
G75*
G02*
X146500000Y-155075000I100000J0D01*
G01*
X147775000Y-155075000D01*
G75*
G02*
X147875000Y-155175000I0J-100000D01*
G01*
X147875000Y-155375000D01*
G75*
G02*
X147775000Y-155475000I-100000J0D01*
G01*
X146500000Y-155475000D01*
G75*
G02*
X146400000Y-155375000I0J100000D01*
G01*
G37*
G36*
G01*
X146400000Y-156025000D02*
X146400000Y-155825000D01*
G75*
G02*
X146500000Y-155725000I100000J0D01*
G01*
X147775000Y-155725000D01*
G75*
G02*
X147875000Y-155825000I0J-100000D01*
G01*
X147875000Y-156025000D01*
G75*
G02*
X147775000Y-156125000I-100000J0D01*
G01*
X146500000Y-156125000D01*
G75*
G02*
X146400000Y-156025000I0J100000D01*
G01*
G37*
G36*
G01*
X152125000Y-156025000D02*
X152125000Y-155825000D01*
G75*
G02*
X152225000Y-155725000I100000J0D01*
G01*
X153500000Y-155725000D01*
G75*
G02*
X153600000Y-155825000I0J-100000D01*
G01*
X153600000Y-156025000D01*
G75*
G02*
X153500000Y-156125000I-100000J0D01*
G01*
X152225000Y-156125000D01*
G75*
G02*
X152125000Y-156025000I0J100000D01*
G01*
G37*
G36*
G01*
X152125000Y-155375000D02*
X152125000Y-155175000D01*
G75*
G02*
X152225000Y-155075000I100000J0D01*
G01*
X153500000Y-155075000D01*
G75*
G02*
X153600000Y-155175000I0J-100000D01*
G01*
X153600000Y-155375000D01*
G75*
G02*
X153500000Y-155475000I-100000J0D01*
G01*
X152225000Y-155475000D01*
G75*
G02*
X152125000Y-155375000I0J100000D01*
G01*
G37*
G36*
G01*
X152125000Y-154725000D02*
X152125000Y-154525000D01*
G75*
G02*
X152225000Y-154425000I100000J0D01*
G01*
X153500000Y-154425000D01*
G75*
G02*
X153600000Y-154525000I0J-100000D01*
G01*
X153600000Y-154725000D01*
G75*
G02*
X153500000Y-154825000I-100000J0D01*
G01*
X152225000Y-154825000D01*
G75*
G02*
X152125000Y-154725000I0J100000D01*
G01*
G37*
G36*
G01*
X152125000Y-154075000D02*
X152125000Y-153875000D01*
G75*
G02*
X152225000Y-153775000I100000J0D01*
G01*
X153500000Y-153775000D01*
G75*
G02*
X153600000Y-153875000I0J-100000D01*
G01*
X153600000Y-154075000D01*
G75*
G02*
X153500000Y-154175000I-100000J0D01*
G01*
X152225000Y-154175000D01*
G75*
G02*
X152125000Y-154075000I0J100000D01*
G01*
G37*
G36*
G01*
X152125000Y-153425000D02*
X152125000Y-153225000D01*
G75*
G02*
X152225000Y-153125000I100000J0D01*
G01*
X153500000Y-153125000D01*
G75*
G02*
X153600000Y-153225000I0J-100000D01*
G01*
X153600000Y-153425000D01*
G75*
G02*
X153500000Y-153525000I-100000J0D01*
G01*
X152225000Y-153525000D01*
G75*
G02*
X152125000Y-153425000I0J100000D01*
G01*
G37*
G36*
G01*
X152125000Y-152775000D02*
X152125000Y-152575000D01*
G75*
G02*
X152225000Y-152475000I100000J0D01*
G01*
X153500000Y-152475000D01*
G75*
G02*
X153600000Y-152575000I0J-100000D01*
G01*
X153600000Y-152775000D01*
G75*
G02*
X153500000Y-152875000I-100000J0D01*
G01*
X152225000Y-152875000D01*
G75*
G02*
X152125000Y-152775000I0J100000D01*
G01*
G37*
G36*
G01*
X152125000Y-152125000D02*
X152125000Y-151925000D01*
G75*
G02*
X152225000Y-151825000I100000J0D01*
G01*
X153500000Y-151825000D01*
G75*
G02*
X153600000Y-151925000I0J-100000D01*
G01*
X153600000Y-152125000D01*
G75*
G02*
X153500000Y-152225000I-100000J0D01*
G01*
X152225000Y-152225000D01*
G75*
G02*
X152125000Y-152125000I0J100000D01*
G01*
G37*
G36*
G01*
X152125000Y-151475000D02*
X152125000Y-151275000D01*
G75*
G02*
X152225000Y-151175000I100000J0D01*
G01*
X153500000Y-151175000D01*
G75*
G02*
X153600000Y-151275000I0J-100000D01*
G01*
X153600000Y-151475000D01*
G75*
G02*
X153500000Y-151575000I-100000J0D01*
G01*
X152225000Y-151575000D01*
G75*
G02*
X152125000Y-151475000I0J100000D01*
G01*
G37*
G36*
G01*
X152125000Y-150825000D02*
X152125000Y-150625000D01*
G75*
G02*
X152225000Y-150525000I100000J0D01*
G01*
X153500000Y-150525000D01*
G75*
G02*
X153600000Y-150625000I0J-100000D01*
G01*
X153600000Y-150825000D01*
G75*
G02*
X153500000Y-150925000I-100000J0D01*
G01*
X152225000Y-150925000D01*
G75*
G02*
X152125000Y-150825000I0J100000D01*
G01*
G37*
G36*
G01*
X152125000Y-150175000D02*
X152125000Y-149975000D01*
G75*
G02*
X152225000Y-149875000I100000J0D01*
G01*
X153500000Y-149875000D01*
G75*
G02*
X153600000Y-149975000I0J-100000D01*
G01*
X153600000Y-150175000D01*
G75*
G02*
X153500000Y-150275000I-100000J0D01*
G01*
X152225000Y-150275000D01*
G75*
G02*
X152125000Y-150175000I0J100000D01*
G01*
G37*
G36*
G01*
X174077919Y-186890132D02*
X174867816Y-186362341D01*
G75*
G02*
X175214576Y-186431315I138893J-207867D01*
G01*
X175492361Y-186847050D01*
G75*
G02*
X175423387Y-187193810I-207867J-138893D01*
G01*
X174633490Y-187721601D01*
G75*
G02*
X174286730Y-187652627I-138893J207867D01*
G01*
X174008945Y-187236892D01*
G75*
G02*
X174077919Y-186890132I207867J138893D01*
G01*
G37*
G36*
G01*
X175133503Y-188469924D02*
X175923400Y-187942133D01*
G75*
G02*
X176270160Y-188011107I138893J-207867D01*
G01*
X176547945Y-188426842D01*
G75*
G02*
X176478971Y-188773602I-207867J-138893D01*
G01*
X175689074Y-189301393D01*
G75*
G02*
X175342314Y-189232419I-138893J207867D01*
G01*
X175064529Y-188816684D01*
G75*
G02*
X175133503Y-188469924I207867J138893D01*
G01*
G37*
G36*
G01*
X152285000Y-173080000D02*
X151915000Y-173080000D01*
G75*
G02*
X151780000Y-172945000I0J135000D01*
G01*
X151780000Y-172675000D01*
G75*
G02*
X151915000Y-172540000I135000J0D01*
G01*
X152285000Y-172540000D01*
G75*
G02*
X152420000Y-172675000I0J-135000D01*
G01*
X152420000Y-172945000D01*
G75*
G02*
X152285000Y-173080000I-135000J0D01*
G01*
G37*
G36*
G01*
X152285000Y-172060000D02*
X151915000Y-172060000D01*
G75*
G02*
X151780000Y-171925000I0J135000D01*
G01*
X151780000Y-171655000D01*
G75*
G02*
X151915000Y-171520000I135000J0D01*
G01*
X152285000Y-171520000D01*
G75*
G02*
X152420000Y-171655000I0J-135000D01*
G01*
X152420000Y-171925000D01*
G75*
G02*
X152285000Y-172060000I-135000J0D01*
G01*
G37*
G36*
G01*
X163227124Y-196188668D02*
X163568959Y-196047075D01*
G75*
G02*
X163745345Y-196120137I51662J-124724D01*
G01*
X163848670Y-196369584D01*
G75*
G02*
X163775608Y-196545970I-124724J-51662D01*
G01*
X163433773Y-196687563D01*
G75*
G02*
X163257387Y-196614501I-51662J124724D01*
G01*
X163154062Y-196365054D01*
G75*
G02*
X163227124Y-196188668I124724J51662D01*
G01*
G37*
G36*
G01*
X163617462Y-197131026D02*
X163959297Y-196989433D01*
G75*
G02*
X164135683Y-197062495I51662J-124724D01*
G01*
X164239008Y-197311942D01*
G75*
G02*
X164165946Y-197488328I-124724J-51662D01*
G01*
X163824111Y-197629921D01*
G75*
G02*
X163647725Y-197556859I-51662J124724D01*
G01*
X163544400Y-197307412D01*
G75*
G02*
X163617462Y-197131026I124724J51662D01*
G01*
G37*
G36*
G01*
X157220000Y-148685000D02*
X157220000Y-148315000D01*
G75*
G02*
X157355000Y-148180000I135000J0D01*
G01*
X157625000Y-148180000D01*
G75*
G02*
X157760000Y-148315000I0J-135000D01*
G01*
X157760000Y-148685000D01*
G75*
G02*
X157625000Y-148820000I-135000J0D01*
G01*
X157355000Y-148820000D01*
G75*
G02*
X157220000Y-148685000I0J135000D01*
G01*
G37*
G36*
G01*
X158240000Y-148685000D02*
X158240000Y-148315000D01*
G75*
G02*
X158375000Y-148180000I135000J0D01*
G01*
X158645000Y-148180000D01*
G75*
G02*
X158780000Y-148315000I0J-135000D01*
G01*
X158780000Y-148685000D01*
G75*
G02*
X158645000Y-148820000I-135000J0D01*
G01*
X158375000Y-148820000D01*
G75*
G02*
X158240000Y-148685000I0J135000D01*
G01*
G37*
X150000000Y-107646000D03*
G36*
G01*
X132651669Y-192366001D02*
X132309834Y-192224408D01*
G75*
G02*
X132236772Y-192048022I51662J124724D01*
G01*
X132340097Y-191798575D01*
G75*
G02*
X132516483Y-191725513I124724J-51662D01*
G01*
X132858318Y-191867106D01*
G75*
G02*
X132931380Y-192043492I-51662J-124724D01*
G01*
X132828055Y-192292939D01*
G75*
G02*
X132651669Y-192366001I-124724J51662D01*
G01*
G37*
G36*
G01*
X133042007Y-191423643D02*
X132700172Y-191282050D01*
G75*
G02*
X132627110Y-191105664I51662J124724D01*
G01*
X132730435Y-190856217D01*
G75*
G02*
X132906821Y-190783155I124724J-51662D01*
G01*
X133248656Y-190924748D01*
G75*
G02*
X133321718Y-191101134I-51662J-124724D01*
G01*
X133218393Y-191350581D01*
G75*
G02*
X133042007Y-191423643I-124724J51662D01*
G01*
G37*
G36*
G01*
X126300000Y-168450000D02*
X126300000Y-165550000D01*
G75*
G02*
X126550000Y-165300000I250000J0D01*
G01*
X127175000Y-165300000D01*
G75*
G02*
X127425000Y-165550000I0J-250000D01*
G01*
X127425000Y-168450000D01*
G75*
G02*
X127175000Y-168700000I-250000J0D01*
G01*
X126550000Y-168700000D01*
G75*
G02*
X126300000Y-168450000I0J250000D01*
G01*
G37*
G36*
G01*
X130575000Y-168450000D02*
X130575000Y-165550000D01*
G75*
G02*
X130825000Y-165300000I250000J0D01*
G01*
X131450000Y-165300000D01*
G75*
G02*
X131700000Y-165550000I0J-250000D01*
G01*
X131700000Y-168450000D01*
G75*
G02*
X131450000Y-168700000I-250000J0D01*
G01*
X130825000Y-168700000D01*
G75*
G02*
X130575000Y-168450000I0J250000D01*
G01*
G37*
G36*
G01*
X136772875Y-103811331D02*
X136431040Y-103952924D01*
G75*
G02*
X136254654Y-103879862I-51662J124724D01*
G01*
X136151329Y-103630415D01*
G75*
G02*
X136224391Y-103454029I124724J51662D01*
G01*
X136566226Y-103312436D01*
G75*
G02*
X136742612Y-103385498I51662J-124724D01*
G01*
X136845937Y-103634945D01*
G75*
G02*
X136772875Y-103811331I-124724J-51662D01*
G01*
G37*
G36*
G01*
X136382537Y-102868973D02*
X136040702Y-103010566D01*
G75*
G02*
X135864316Y-102937504I-51662J124724D01*
G01*
X135760991Y-102688057D01*
G75*
G02*
X135834053Y-102511671I124724J51662D01*
G01*
X136175888Y-102370078D01*
G75*
G02*
X136352274Y-102443140I51662J-124724D01*
G01*
X136455599Y-102692587D01*
G75*
G02*
X136382537Y-102868973I-124724J-51662D01*
G01*
G37*
G36*
G01*
X192366001Y-167348330D02*
X192224408Y-167690165D01*
G75*
G02*
X192048022Y-167763227I-124724J51662D01*
G01*
X191798575Y-167659902D01*
G75*
G02*
X191725513Y-167483516I51662J124724D01*
G01*
X191867106Y-167141681D01*
G75*
G02*
X192043492Y-167068619I124724J-51662D01*
G01*
X192292939Y-167171944D01*
G75*
G02*
X192366001Y-167348330I-51662J-124724D01*
G01*
G37*
G36*
G01*
X191423643Y-166957992D02*
X191282050Y-167299827D01*
G75*
G02*
X191105664Y-167372889I-124724J51662D01*
G01*
X190856217Y-167269564D01*
G75*
G02*
X190783155Y-167093178I51662J124724D01*
G01*
X190924748Y-166751343D01*
G75*
G02*
X191101134Y-166678281I124724J-51662D01*
G01*
X191350581Y-166781606D01*
G75*
G02*
X191423643Y-166957992I-51662J-124724D01*
G01*
G37*
G36*
G01*
X192013309Y-173307330D02*
X192154902Y-172965495D01*
G75*
G02*
X192331288Y-172892433I124724J-51662D01*
G01*
X192580735Y-172995758D01*
G75*
G02*
X192653797Y-173172144I-51662J-124724D01*
G01*
X192512204Y-173513979D01*
G75*
G02*
X192335818Y-173587041I-124724J51662D01*
G01*
X192086371Y-173483716D01*
G75*
G02*
X192013309Y-173307330I51662J124724D01*
G01*
G37*
G36*
G01*
X192955667Y-173697668D02*
X193097260Y-173355833D01*
G75*
G02*
X193273646Y-173282771I124724J-51662D01*
G01*
X193523093Y-173386096D01*
G75*
G02*
X193596155Y-173562482I-51662J-124724D01*
G01*
X193454562Y-173904317D01*
G75*
G02*
X193278176Y-173977379I-124724J51662D01*
G01*
X193028729Y-173874054D01*
G75*
G02*
X192955667Y-173697668I51662J124724D01*
G01*
G37*
G36*
G01*
X192224408Y-132309834D02*
X192366001Y-132651669D01*
G75*
G02*
X192292939Y-132828055I-124724J-51662D01*
G01*
X192043492Y-132931380D01*
G75*
G02*
X191867106Y-132858318I-51662J124724D01*
G01*
X191725513Y-132516483D01*
G75*
G02*
X191798575Y-132340097I124724J51662D01*
G01*
X192048022Y-132236772D01*
G75*
G02*
X192224408Y-132309834I51662J-124724D01*
G01*
G37*
G36*
G01*
X191282050Y-132700172D02*
X191423643Y-133042007D01*
G75*
G02*
X191350581Y-133218393I-124724J-51662D01*
G01*
X191101134Y-133321718D01*
G75*
G02*
X190924748Y-133248656I-51662J124724D01*
G01*
X190783155Y-132906821D01*
G75*
G02*
X190856217Y-132730435I124724J51662D01*
G01*
X191105664Y-132627110D01*
G75*
G02*
X191282050Y-132700172I51662J-124724D01*
G01*
G37*
G36*
G01*
X113109867Y-174077919D02*
X113637658Y-174867816D01*
G75*
G02*
X113568684Y-175214576I-207867J-138893D01*
G01*
X113152949Y-175492361D01*
G75*
G02*
X112806189Y-175423387I-138893J207867D01*
G01*
X112278398Y-174633490D01*
G75*
G02*
X112347372Y-174286730I207867J138893D01*
G01*
X112763107Y-174008945D01*
G75*
G02*
X113109867Y-174077919I138893J-207867D01*
G01*
G37*
G36*
G01*
X111530075Y-175133503D02*
X112057866Y-175923400D01*
G75*
G02*
X111988892Y-176270160I-207867J-138893D01*
G01*
X111573157Y-176547945D01*
G75*
G02*
X111226397Y-176478971I-138893J207867D01*
G01*
X110698606Y-175689074D01*
G75*
G02*
X110767580Y-175342314I207867J138893D01*
G01*
X111183315Y-175064529D01*
G75*
G02*
X111530075Y-175133503I138893J-207867D01*
G01*
G37*
G36*
G01*
X139750000Y-166350000D02*
X139750000Y-167650000D01*
G75*
G02*
X139500000Y-167900000I-250000J0D01*
G01*
X137500000Y-167900000D01*
G75*
G02*
X137250000Y-167650000I0J250000D01*
G01*
X137250000Y-166350000D01*
G75*
G02*
X137500000Y-166100000I250000J0D01*
G01*
X139500000Y-166100000D01*
G75*
G02*
X139750000Y-166350000I0J-250000D01*
G01*
G37*
G36*
G01*
X135750000Y-166350000D02*
X135750000Y-167650000D01*
G75*
G02*
X135500000Y-167900000I-250000J0D01*
G01*
X133500000Y-167900000D01*
G75*
G02*
X133250000Y-167650000I0J250000D01*
G01*
X133250000Y-166350000D01*
G75*
G02*
X133500000Y-166100000I250000J0D01*
G01*
X135500000Y-166100000D01*
G75*
G02*
X135750000Y-166350000I0J-250000D01*
G01*
G37*
G36*
G01*
X150185000Y-195780000D02*
X149815000Y-195780000D01*
G75*
G02*
X149680000Y-195645000I0J135000D01*
G01*
X149680000Y-195375000D01*
G75*
G02*
X149815000Y-195240000I135000J0D01*
G01*
X150185000Y-195240000D01*
G75*
G02*
X150320000Y-195375000I0J-135000D01*
G01*
X150320000Y-195645000D01*
G75*
G02*
X150185000Y-195780000I-135000J0D01*
G01*
G37*
G36*
G01*
X150185000Y-194760000D02*
X149815000Y-194760000D01*
G75*
G02*
X149680000Y-194625000I0J135000D01*
G01*
X149680000Y-194355000D01*
G75*
G02*
X149815000Y-194220000I135000J0D01*
G01*
X150185000Y-194220000D01*
G75*
G02*
X150320000Y-194355000I0J-135000D01*
G01*
X150320000Y-194625000D01*
G75*
G02*
X150185000Y-194760000I-135000J0D01*
G01*
G37*
G36*
G01*
X132941578Y-103476847D02*
X133255697Y-103346735D01*
G75*
G02*
X133438616Y-103422502I53576J-129343D01*
G01*
X133545767Y-103681188D01*
G75*
G02*
X133470000Y-103864107I-129343J-53576D01*
G01*
X133155881Y-103994219D01*
G75*
G02*
X132972962Y-103918452I-53576J129343D01*
G01*
X132865811Y-103659766D01*
G75*
G02*
X132941578Y-103476847I129343J53576D01*
G01*
G37*
G36*
G01*
X133308954Y-104363771D02*
X133623073Y-104233659D01*
G75*
G02*
X133805992Y-104309426I53576J-129343D01*
G01*
X133913143Y-104568112D01*
G75*
G02*
X133837376Y-104751031I-129343J-53576D01*
G01*
X133523257Y-104881143D01*
G75*
G02*
X133340338Y-104805376I-53576J129343D01*
G01*
X133233187Y-104546690D01*
G75*
G02*
X133308954Y-104363771I129343J53576D01*
G01*
G37*
G36*
G01*
X142240000Y-146970000D02*
X142240000Y-146630000D01*
G75*
G02*
X142380000Y-146490000I140000J0D01*
G01*
X142660000Y-146490000D01*
G75*
G02*
X142800000Y-146630000I0J-140000D01*
G01*
X142800000Y-146970000D01*
G75*
G02*
X142660000Y-147110000I-140000J0D01*
G01*
X142380000Y-147110000D01*
G75*
G02*
X142240000Y-146970000I0J140000D01*
G01*
G37*
G36*
G01*
X143200000Y-146970000D02*
X143200000Y-146630000D01*
G75*
G02*
X143340000Y-146490000I140000J0D01*
G01*
X143620000Y-146490000D01*
G75*
G02*
X143760000Y-146630000I0J-140000D01*
G01*
X143760000Y-146970000D01*
G75*
G02*
X143620000Y-147110000I-140000J0D01*
G01*
X143340000Y-147110000D01*
G75*
G02*
X143200000Y-146970000I0J140000D01*
G01*
G37*
G36*
G01*
X157220000Y-151185000D02*
X157220000Y-150815000D01*
G75*
G02*
X157355000Y-150680000I135000J0D01*
G01*
X157625000Y-150680000D01*
G75*
G02*
X157760000Y-150815000I0J-135000D01*
G01*
X157760000Y-151185000D01*
G75*
G02*
X157625000Y-151320000I-135000J0D01*
G01*
X157355000Y-151320000D01*
G75*
G02*
X157220000Y-151185000I0J135000D01*
G01*
G37*
G36*
G01*
X158240000Y-151185000D02*
X158240000Y-150815000D01*
G75*
G02*
X158375000Y-150680000I135000J0D01*
G01*
X158645000Y-150680000D01*
G75*
G02*
X158780000Y-150815000I0J-135000D01*
G01*
X158780000Y-151185000D01*
G75*
G02*
X158645000Y-151320000I-135000J0D01*
G01*
X158375000Y-151320000D01*
G75*
G02*
X158240000Y-151185000I0J135000D01*
G01*
G37*
D17*
X150450000Y-97455000D03*
X150450000Y-96105000D03*
X149550000Y-96105000D03*
X149550000Y-97455000D03*
D18*
X150000000Y-98505000D03*
D19*
X151225000Y-96780000D03*
D18*
X150000000Y-95055000D03*
D19*
X148775000Y-96780000D03*
G36*
G01*
X165275000Y-167250000D02*
X165275000Y-166750000D01*
G75*
G02*
X165500000Y-166525000I225000J0D01*
G01*
X165950000Y-166525000D01*
G75*
G02*
X166175000Y-166750000I0J-225000D01*
G01*
X166175000Y-167250000D01*
G75*
G02*
X165950000Y-167475000I-225000J0D01*
G01*
X165500000Y-167475000D01*
G75*
G02*
X165275000Y-167250000I0J225000D01*
G01*
G37*
G36*
G01*
X166825000Y-167250000D02*
X166825000Y-166750000D01*
G75*
G02*
X167050000Y-166525000I225000J0D01*
G01*
X167500000Y-166525000D01*
G75*
G02*
X167725000Y-166750000I0J-225000D01*
G01*
X167725000Y-167250000D01*
G75*
G02*
X167500000Y-167475000I-225000J0D01*
G01*
X167050000Y-167475000D01*
G75*
G02*
X166825000Y-167250000I0J225000D01*
G01*
G37*
G36*
G01*
X139285000Y-173080000D02*
X138915000Y-173080000D01*
G75*
G02*
X138780000Y-172945000I0J135000D01*
G01*
X138780000Y-172675000D01*
G75*
G02*
X138915000Y-172540000I135000J0D01*
G01*
X139285000Y-172540000D01*
G75*
G02*
X139420000Y-172675000I0J-135000D01*
G01*
X139420000Y-172945000D01*
G75*
G02*
X139285000Y-173080000I-135000J0D01*
G01*
G37*
G36*
G01*
X139285000Y-172060000D02*
X138915000Y-172060000D01*
G75*
G02*
X138780000Y-171925000I0J135000D01*
G01*
X138780000Y-171655000D01*
G75*
G02*
X138915000Y-171520000I135000J0D01*
G01*
X139285000Y-171520000D01*
G75*
G02*
X139420000Y-171655000I0J-135000D01*
G01*
X139420000Y-171925000D01*
G75*
G02*
X139285000Y-172060000I-135000J0D01*
G01*
G37*
G36*
G01*
X147275000Y-167250000D02*
X147275000Y-166750000D01*
G75*
G02*
X147500000Y-166525000I225000J0D01*
G01*
X147950000Y-166525000D01*
G75*
G02*
X148175000Y-166750000I0J-225000D01*
G01*
X148175000Y-167250000D01*
G75*
G02*
X147950000Y-167475000I-225000J0D01*
G01*
X147500000Y-167475000D01*
G75*
G02*
X147275000Y-167250000I0J225000D01*
G01*
G37*
G36*
G01*
X148825000Y-167250000D02*
X148825000Y-166750000D01*
G75*
G02*
X149050000Y-166525000I225000J0D01*
G01*
X149500000Y-166525000D01*
G75*
G02*
X149725000Y-166750000I0J-225000D01*
G01*
X149725000Y-167250000D01*
G75*
G02*
X149500000Y-167475000I-225000J0D01*
G01*
X149050000Y-167475000D01*
G75*
G02*
X148825000Y-167250000I0J225000D01*
G01*
G37*
G36*
G01*
X149240000Y-159370000D02*
X149240000Y-159030000D01*
G75*
G02*
X149380000Y-158890000I140000J0D01*
G01*
X149660000Y-158890000D01*
G75*
G02*
X149800000Y-159030000I0J-140000D01*
G01*
X149800000Y-159370000D01*
G75*
G02*
X149660000Y-159510000I-140000J0D01*
G01*
X149380000Y-159510000D01*
G75*
G02*
X149240000Y-159370000I0J140000D01*
G01*
G37*
G36*
G01*
X150200000Y-159370000D02*
X150200000Y-159030000D01*
G75*
G02*
X150340000Y-158890000I140000J0D01*
G01*
X150620000Y-158890000D01*
G75*
G02*
X150760000Y-159030000I0J-140000D01*
G01*
X150760000Y-159370000D01*
G75*
G02*
X150620000Y-159510000I-140000J0D01*
G01*
X150340000Y-159510000D01*
G75*
G02*
X150200000Y-159370000I0J140000D01*
G01*
G37*
G36*
G01*
X149815000Y-104220000D02*
X150185000Y-104220000D01*
G75*
G02*
X150320000Y-104355000I0J-135000D01*
G01*
X150320000Y-104625000D01*
G75*
G02*
X150185000Y-104760000I-135000J0D01*
G01*
X149815000Y-104760000D01*
G75*
G02*
X149680000Y-104625000I0J135000D01*
G01*
X149680000Y-104355000D01*
G75*
G02*
X149815000Y-104220000I135000J0D01*
G01*
G37*
G36*
G01*
X149815000Y-105240000D02*
X150185000Y-105240000D01*
G75*
G02*
X150320000Y-105375000I0J-135000D01*
G01*
X150320000Y-105645000D01*
G75*
G02*
X150185000Y-105780000I-135000J0D01*
G01*
X149815000Y-105780000D01*
G75*
G02*
X149680000Y-105645000I0J135000D01*
G01*
X149680000Y-105375000D01*
G75*
G02*
X149815000Y-105240000I135000J0D01*
G01*
G37*
G36*
G01*
X141720000Y-151185000D02*
X141720000Y-150815000D01*
G75*
G02*
X141855000Y-150680000I135000J0D01*
G01*
X142125000Y-150680000D01*
G75*
G02*
X142260000Y-150815000I0J-135000D01*
G01*
X142260000Y-151185000D01*
G75*
G02*
X142125000Y-151320000I-135000J0D01*
G01*
X141855000Y-151320000D01*
G75*
G02*
X141720000Y-151185000I0J135000D01*
G01*
G37*
G36*
G01*
X142740000Y-151185000D02*
X142740000Y-150815000D01*
G75*
G02*
X142875000Y-150680000I135000J0D01*
G01*
X143145000Y-150680000D01*
G75*
G02*
X143280000Y-150815000I0J-135000D01*
G01*
X143280000Y-151185000D01*
G75*
G02*
X143145000Y-151320000I-135000J0D01*
G01*
X142875000Y-151320000D01*
G75*
G02*
X142740000Y-151185000I0J135000D01*
G01*
G37*
D20*
X202545000Y-150450000D03*
X203895000Y-150450000D03*
X203895000Y-149550000D03*
X202545000Y-149550000D03*
D21*
X201495000Y-150000000D03*
D22*
X203220000Y-151225000D03*
D21*
X204945000Y-150000000D03*
D22*
X203220000Y-148775000D03*
G36*
G01*
X103811331Y-163227124D02*
X103952924Y-163568959D01*
G75*
G02*
X103879862Y-163745345I-124724J-51662D01*
G01*
X103630415Y-163848670D01*
G75*
G02*
X103454029Y-163775608I-51662J124724D01*
G01*
X103312436Y-163433773D01*
G75*
G02*
X103385498Y-163257387I124724J51662D01*
G01*
X103634945Y-163154062D01*
G75*
G02*
X103811331Y-163227124I51662J-124724D01*
G01*
G37*
G36*
G01*
X102868973Y-163617462D02*
X103010566Y-163959297D01*
G75*
G02*
X102937504Y-164135683I-124724J-51662D01*
G01*
X102688057Y-164239008D01*
G75*
G02*
X102511671Y-164165946I-51662J124724D01*
G01*
X102370078Y-163824111D01*
G75*
G02*
X102443140Y-163647725I124724J51662D01*
G01*
X102692587Y-163544400D01*
G75*
G02*
X102868973Y-163617462I51662J-124724D01*
G01*
G37*
G36*
X101797921Y-169695356D02*
G01*
X100920236Y-170058906D01*
X100767163Y-169689354D01*
X101644848Y-169325804D01*
X101797921Y-169695356D01*
G37*
G36*
X100550684Y-170211979D02*
G01*
X99672999Y-170575529D01*
X99519926Y-170205977D01*
X100397611Y-169842427D01*
X100550684Y-170211979D01*
G37*
G36*
X100895099Y-171043470D02*
G01*
X100017414Y-171407020D01*
X99864341Y-171037468D01*
X100742026Y-170673918D01*
X100895099Y-171043470D01*
G37*
G36*
X102142336Y-170526847D02*
G01*
X101264651Y-170890397D01*
X101111578Y-170520845D01*
X101989263Y-170157295D01*
X102142336Y-170526847D01*
G37*
G36*
X102835246Y-170239835D02*
G01*
X102511888Y-170373774D01*
X102014400Y-169172731D01*
X102337758Y-169038792D01*
X102835246Y-170239835D01*
G37*
G36*
X101491775Y-168956253D02*
G01*
X99366852Y-169836425D01*
X99232913Y-169513067D01*
X101357836Y-168632895D01*
X101491775Y-168956253D01*
G37*
G36*
X99647862Y-171560093D02*
G01*
X99324504Y-171694032D01*
X98827016Y-170492989D01*
X99150374Y-170359050D01*
X99647862Y-171560093D01*
G37*
G36*
X102429349Y-171219757D02*
G01*
X100304426Y-172099929D01*
X100170487Y-171776571D01*
X102295410Y-170896399D01*
X102429349Y-171219757D01*
G37*
G36*
G01*
X137720000Y-146185000D02*
X137720000Y-145815000D01*
G75*
G02*
X137855000Y-145680000I135000J0D01*
G01*
X138125000Y-145680000D01*
G75*
G02*
X138260000Y-145815000I0J-135000D01*
G01*
X138260000Y-146185000D01*
G75*
G02*
X138125000Y-146320000I-135000J0D01*
G01*
X137855000Y-146320000D01*
G75*
G02*
X137720000Y-146185000I0J135000D01*
G01*
G37*
G36*
G01*
X138740000Y-146185000D02*
X138740000Y-145815000D01*
G75*
G02*
X138875000Y-145680000I135000J0D01*
G01*
X139145000Y-145680000D01*
G75*
G02*
X139280000Y-145815000I0J-135000D01*
G01*
X139280000Y-146185000D01*
G75*
G02*
X139145000Y-146320000I-135000J0D01*
G01*
X138875000Y-146320000D01*
G75*
G02*
X138740000Y-146185000I0J135000D01*
G01*
G37*
G36*
G01*
X167348330Y-107633998D02*
X167690165Y-107775591D01*
G75*
G02*
X167763227Y-107951977I-51662J-124724D01*
G01*
X167659902Y-108201424D01*
G75*
G02*
X167483516Y-108274486I-124724J51662D01*
G01*
X167141681Y-108132893D01*
G75*
G02*
X167068619Y-107956507I51662J124724D01*
G01*
X167171944Y-107707060D01*
G75*
G02*
X167348330Y-107633998I124724J-51662D01*
G01*
G37*
G36*
G01*
X166957992Y-108576356D02*
X167299827Y-108717949D01*
G75*
G02*
X167372889Y-108894335I-51662J-124724D01*
G01*
X167269564Y-109143782D01*
G75*
G02*
X167093178Y-109216844I-124724J51662D01*
G01*
X166751343Y-109075251D01*
G75*
G02*
X166678281Y-108898865I51662J124724D01*
G01*
X166781606Y-108649418D01*
G75*
G02*
X166957992Y-108576356I124724J-51662D01*
G01*
G37*
G36*
X170157295Y-101989263D02*
G01*
X170520845Y-101111578D01*
X170890397Y-101264651D01*
X170526847Y-102142336D01*
X170157295Y-101989263D01*
G37*
G36*
X170673918Y-100742026D02*
G01*
X171037468Y-99864341D01*
X171407020Y-100017414D01*
X171043470Y-100895099D01*
X170673918Y-100742026D01*
G37*
G36*
X169842427Y-100397611D02*
G01*
X170205977Y-99519926D01*
X170575529Y-99672999D01*
X170211979Y-100550684D01*
X169842427Y-100397611D01*
G37*
G36*
X169325804Y-101644848D02*
G01*
X169689354Y-100767163D01*
X170058906Y-100920236D01*
X169695356Y-101797921D01*
X169325804Y-101644848D01*
G37*
G36*
X169038792Y-102337758D02*
G01*
X169172731Y-102014400D01*
X170373774Y-102511888D01*
X170239835Y-102835246D01*
X169038792Y-102337758D01*
G37*
G36*
X170896399Y-102295410D02*
G01*
X171776571Y-100170487D01*
X172099929Y-100304426D01*
X171219757Y-102429349D01*
X170896399Y-102295410D01*
G37*
G36*
X170359050Y-99150374D02*
G01*
X170492989Y-98827016D01*
X171694032Y-99324504D01*
X171560093Y-99647862D01*
X170359050Y-99150374D01*
G37*
G36*
X168632895Y-101357836D02*
G01*
X169513067Y-99232913D01*
X169836425Y-99366852D01*
X168956253Y-101491775D01*
X168632895Y-101357836D01*
G37*
G36*
G01*
X129165288Y-194958961D02*
X128851169Y-194828849D01*
G75*
G02*
X128775402Y-194645930I53576J129343D01*
G01*
X128882553Y-194387244D01*
G75*
G02*
X129065472Y-194311477I129343J-53576D01*
G01*
X129379591Y-194441589D01*
G75*
G02*
X129455358Y-194624508I-53576J-129343D01*
G01*
X129348207Y-194883194D01*
G75*
G02*
X129165288Y-194958961I-129343J53576D01*
G01*
G37*
G36*
G01*
X129532664Y-194072037D02*
X129218545Y-193941925D01*
G75*
G02*
X129142778Y-193759006I53576J129343D01*
G01*
X129249929Y-193500320D01*
G75*
G02*
X129432848Y-193424553I129343J-53576D01*
G01*
X129746967Y-193554665D01*
G75*
G02*
X129822734Y-193737584I-53576J-129343D01*
G01*
X129715583Y-193996270D01*
G75*
G02*
X129532664Y-194072037I-129343J53576D01*
G01*
G37*
D16*
X154000000Y-126000000D03*
G36*
G01*
X156275000Y-167250000D02*
X156275000Y-166750000D01*
G75*
G02*
X156500000Y-166525000I225000J0D01*
G01*
X156950000Y-166525000D01*
G75*
G02*
X157175000Y-166750000I0J-225000D01*
G01*
X157175000Y-167250000D01*
G75*
G02*
X156950000Y-167475000I-225000J0D01*
G01*
X156500000Y-167475000D01*
G75*
G02*
X156275000Y-167250000I0J225000D01*
G01*
G37*
G36*
G01*
X157825000Y-167250000D02*
X157825000Y-166750000D01*
G75*
G02*
X158050000Y-166525000I225000J0D01*
G01*
X158500000Y-166525000D01*
G75*
G02*
X158725000Y-166750000I0J-225000D01*
G01*
X158725000Y-167250000D01*
G75*
G02*
X158500000Y-167475000I-225000J0D01*
G01*
X158050000Y-167475000D01*
G75*
G02*
X157825000Y-167250000I0J225000D01*
G01*
G37*
X120051000Y-179949000D03*
G36*
G01*
X147220000Y-143185000D02*
X147220000Y-142815000D01*
G75*
G02*
X147355000Y-142680000I135000J0D01*
G01*
X147625000Y-142680000D01*
G75*
G02*
X147760000Y-142815000I0J-135000D01*
G01*
X147760000Y-143185000D01*
G75*
G02*
X147625000Y-143320000I-135000J0D01*
G01*
X147355000Y-143320000D01*
G75*
G02*
X147220000Y-143185000I0J135000D01*
G01*
G37*
G36*
G01*
X148240000Y-143185000D02*
X148240000Y-142815000D01*
G75*
G02*
X148375000Y-142680000I135000J0D01*
G01*
X148645000Y-142680000D01*
G75*
G02*
X148780000Y-142815000I0J-135000D01*
G01*
X148780000Y-143185000D01*
G75*
G02*
X148645000Y-143320000I-135000J0D01*
G01*
X148375000Y-143320000D01*
G75*
G02*
X148240000Y-143185000I0J135000D01*
G01*
G37*
G36*
G01*
X187610964Y-120104091D02*
X187349335Y-119842462D01*
G75*
G02*
X187349335Y-119651544I95459J95459D01*
G01*
X187540254Y-119460625D01*
G75*
G02*
X187731172Y-119460625I95459J-95459D01*
G01*
X187992801Y-119722254D01*
G75*
G02*
X187992801Y-119913172I-95459J-95459D01*
G01*
X187801882Y-120104091D01*
G75*
G02*
X187610964Y-120104091I-95459J95459D01*
G01*
G37*
G36*
G01*
X188332212Y-119382843D02*
X188070583Y-119121214D01*
G75*
G02*
X188070583Y-118930296I95459J95459D01*
G01*
X188261502Y-118739377D01*
G75*
G02*
X188452420Y-118739377I95459J-95459D01*
G01*
X188714049Y-119001006D01*
G75*
G02*
X188714049Y-119191924I-95459J-95459D01*
G01*
X188523130Y-119382843D01*
G75*
G02*
X188332212Y-119382843I-95459J95459D01*
G01*
G37*
X157000000Y-128000000D03*
X166208000Y-189130000D03*
G36*
G01*
X179895908Y-187610964D02*
X180157537Y-187349335D01*
G75*
G02*
X180348455Y-187349335I95459J-95459D01*
G01*
X180539374Y-187540254D01*
G75*
G02*
X180539374Y-187731172I-95459J-95459D01*
G01*
X180277745Y-187992801D01*
G75*
G02*
X180086827Y-187992801I-95459J95459D01*
G01*
X179895908Y-187801882D01*
G75*
G02*
X179895908Y-187610964I95459J95459D01*
G01*
G37*
G36*
G01*
X180617156Y-188332212D02*
X180878785Y-188070583D01*
G75*
G02*
X181069703Y-188070583I95459J-95459D01*
G01*
X181260622Y-188261502D01*
G75*
G02*
X181260622Y-188452420I-95459J-95459D01*
G01*
X180998993Y-188714049D01*
G75*
G02*
X180808075Y-188714049I-95459J95459D01*
G01*
X180617156Y-188523130D01*
G75*
G02*
X180617156Y-188332212I95459J95459D01*
G01*
G37*
G36*
G01*
X137720000Y-148685000D02*
X137720000Y-148315000D01*
G75*
G02*
X137855000Y-148180000I135000J0D01*
G01*
X138125000Y-148180000D01*
G75*
G02*
X138260000Y-148315000I0J-135000D01*
G01*
X138260000Y-148685000D01*
G75*
G02*
X138125000Y-148820000I-135000J0D01*
G01*
X137855000Y-148820000D01*
G75*
G02*
X137720000Y-148685000I0J135000D01*
G01*
G37*
G36*
G01*
X138740000Y-148685000D02*
X138740000Y-148315000D01*
G75*
G02*
X138875000Y-148180000I135000J0D01*
G01*
X139145000Y-148180000D01*
G75*
G02*
X139280000Y-148315000I0J-135000D01*
G01*
X139280000Y-148685000D01*
G75*
G02*
X139145000Y-148820000I-135000J0D01*
G01*
X138875000Y-148820000D01*
G75*
G02*
X138740000Y-148685000I0J135000D01*
G01*
G37*
D17*
X149550000Y-202545000D03*
X149550000Y-203895000D03*
X150450000Y-203895000D03*
X150450000Y-202545000D03*
D18*
X150000000Y-201495000D03*
D19*
X148775000Y-203220000D03*
D18*
X150000000Y-204945000D03*
D19*
X151225000Y-203220000D03*
G36*
G01*
X107633998Y-132651669D02*
X107775591Y-132309834D01*
G75*
G02*
X107951977Y-132236772I124724J-51662D01*
G01*
X108201424Y-132340097D01*
G75*
G02*
X108274486Y-132516483I-51662J-124724D01*
G01*
X108132893Y-132858318D01*
G75*
G02*
X107956507Y-132931380I-124724J51662D01*
G01*
X107707060Y-132828055D01*
G75*
G02*
X107633998Y-132651669I51662J124724D01*
G01*
G37*
G36*
G01*
X108576356Y-133042007D02*
X108717949Y-132700172D01*
G75*
G02*
X108894335Y-132627110I124724J-51662D01*
G01*
X109143782Y-132730435D01*
G75*
G02*
X109216844Y-132906821I-51662J-124724D01*
G01*
X109075251Y-133248656D01*
G75*
G02*
X108898865Y-133321718I-124724J51662D01*
G01*
X108649418Y-133218393D01*
G75*
G02*
X108576356Y-133042007I51662J124724D01*
G01*
G37*
G36*
G01*
X152975000Y-159450000D02*
X152975000Y-158950000D01*
G75*
G02*
X153200000Y-158725000I225000J0D01*
G01*
X153650000Y-158725000D01*
G75*
G02*
X153875000Y-158950000I0J-225000D01*
G01*
X153875000Y-159450000D01*
G75*
G02*
X153650000Y-159675000I-225000J0D01*
G01*
X153200000Y-159675000D01*
G75*
G02*
X152975000Y-159450000I0J225000D01*
G01*
G37*
G36*
G01*
X154525000Y-159450000D02*
X154525000Y-158950000D01*
G75*
G02*
X154750000Y-158725000I225000J0D01*
G01*
X155200000Y-158725000D01*
G75*
G02*
X155425000Y-158950000I0J-225000D01*
G01*
X155425000Y-159450000D01*
G75*
G02*
X155200000Y-159675000I-225000J0D01*
G01*
X154750000Y-159675000D01*
G75*
G02*
X154525000Y-159450000I0J225000D01*
G01*
G37*
D16*
X179949000Y-179949000D03*
G36*
G01*
X161000000Y-167381250D02*
X161000000Y-166618750D01*
G75*
G02*
X161218750Y-166400000I218750J0D01*
G01*
X161656250Y-166400000D01*
G75*
G02*
X161875000Y-166618750I0J-218750D01*
G01*
X161875000Y-167381250D01*
G75*
G02*
X161656250Y-167600000I-218750J0D01*
G01*
X161218750Y-167600000D01*
G75*
G02*
X161000000Y-167381250I0J218750D01*
G01*
G37*
G36*
G01*
X163125000Y-167381250D02*
X163125000Y-166618750D01*
G75*
G02*
X163343750Y-166400000I218750J0D01*
G01*
X163781250Y-166400000D01*
G75*
G02*
X164000000Y-166618750I0J-218750D01*
G01*
X164000000Y-167381250D01*
G75*
G02*
X163781250Y-167600000I-218750J0D01*
G01*
X163343750Y-167600000D01*
G75*
G02*
X163125000Y-167381250I0J218750D01*
G01*
G37*
G36*
G01*
X126692669Y-192013309D02*
X127034504Y-192154902D01*
G75*
G02*
X127107566Y-192331288I-51662J-124724D01*
G01*
X127004241Y-192580735D01*
G75*
G02*
X126827855Y-192653797I-124724J51662D01*
G01*
X126486020Y-192512204D01*
G75*
G02*
X126412958Y-192335818I51662J124724D01*
G01*
X126516283Y-192086371D01*
G75*
G02*
X126692669Y-192013309I124724J-51662D01*
G01*
G37*
G36*
G01*
X126302331Y-192955667D02*
X126644166Y-193097260D01*
G75*
G02*
X126717228Y-193273646I-51662J-124724D01*
G01*
X126613903Y-193523093D01*
G75*
G02*
X126437517Y-193596155I-124724J51662D01*
G01*
X126095682Y-193454562D01*
G75*
G02*
X126022620Y-193278176I51662J124724D01*
G01*
X126125945Y-193028729D01*
G75*
G02*
X126302331Y-192955667I124724J-51662D01*
G01*
G37*
G36*
G01*
X144485000Y-173080000D02*
X144115000Y-173080000D01*
G75*
G02*
X143980000Y-172945000I0J135000D01*
G01*
X143980000Y-172675000D01*
G75*
G02*
X144115000Y-172540000I135000J0D01*
G01*
X144485000Y-172540000D01*
G75*
G02*
X144620000Y-172675000I0J-135000D01*
G01*
X144620000Y-172945000D01*
G75*
G02*
X144485000Y-173080000I-135000J0D01*
G01*
G37*
G36*
G01*
X144485000Y-172060000D02*
X144115000Y-172060000D01*
G75*
G02*
X143980000Y-171925000I0J135000D01*
G01*
X143980000Y-171655000D01*
G75*
G02*
X144115000Y-171520000I135000J0D01*
G01*
X144485000Y-171520000D01*
G75*
G02*
X144620000Y-171655000I0J-135000D01*
G01*
X144620000Y-171925000D01*
G75*
G02*
X144485000Y-172060000I-135000J0D01*
G01*
G37*
X166877000Y-164723000D03*
G36*
X169695356Y-198202078D02*
G01*
X170058906Y-199079763D01*
X169689354Y-199232836D01*
X169325804Y-198355151D01*
X169695356Y-198202078D01*
G37*
G36*
X170211979Y-199449315D02*
G01*
X170575529Y-200327000D01*
X170205977Y-200480073D01*
X169842427Y-199602388D01*
X170211979Y-199449315D01*
G37*
G36*
X171043470Y-199104900D02*
G01*
X171407020Y-199982585D01*
X171037468Y-200135658D01*
X170673918Y-199257973D01*
X171043470Y-199104900D01*
G37*
G36*
X170526847Y-197857663D02*
G01*
X170890397Y-198735348D01*
X170520845Y-198888421D01*
X170157295Y-198010736D01*
X170526847Y-197857663D01*
G37*
G36*
X170239835Y-197164753D02*
G01*
X170373774Y-197488111D01*
X169172731Y-197985599D01*
X169038792Y-197662241D01*
X170239835Y-197164753D01*
G37*
G36*
X168956253Y-198508224D02*
G01*
X169836425Y-200633147D01*
X169513067Y-200767086D01*
X168632895Y-198642163D01*
X168956253Y-198508224D01*
G37*
G36*
X171560093Y-200352137D02*
G01*
X171694032Y-200675495D01*
X170492989Y-201172983D01*
X170359050Y-200849625D01*
X171560093Y-200352137D01*
G37*
G36*
X171219757Y-197570650D02*
G01*
X172099929Y-199695573D01*
X171776571Y-199829512D01*
X170896399Y-197704589D01*
X171219757Y-197570650D01*
G37*
X110870000Y-166208000D03*
G36*
G01*
X104220000Y-150185000D02*
X104220000Y-149815000D01*
G75*
G02*
X104355000Y-149680000I135000J0D01*
G01*
X104625000Y-149680000D01*
G75*
G02*
X104760000Y-149815000I0J-135000D01*
G01*
X104760000Y-150185000D01*
G75*
G02*
X104625000Y-150320000I-135000J0D01*
G01*
X104355000Y-150320000D01*
G75*
G02*
X104220000Y-150185000I0J135000D01*
G01*
G37*
G36*
G01*
X105240000Y-150185000D02*
X105240000Y-149815000D01*
G75*
G02*
X105375000Y-149680000I135000J0D01*
G01*
X105645000Y-149680000D01*
G75*
G02*
X105780000Y-149815000I0J-135000D01*
G01*
X105780000Y-150185000D01*
G75*
G02*
X105645000Y-150320000I-135000J0D01*
G01*
X105375000Y-150320000D01*
G75*
G02*
X105240000Y-150185000I0J135000D01*
G01*
G37*
G36*
G01*
X196188668Y-136772875D02*
X196047075Y-136431040D01*
G75*
G02*
X196120137Y-136254654I124724J51662D01*
G01*
X196369584Y-136151329D01*
G75*
G02*
X196545970Y-136224391I51662J-124724D01*
G01*
X196687563Y-136566226D01*
G75*
G02*
X196614501Y-136742612I-124724J-51662D01*
G01*
X196365054Y-136845937D01*
G75*
G02*
X196188668Y-136772875I-51662J124724D01*
G01*
G37*
G36*
G01*
X197131026Y-136382537D02*
X196989433Y-136040702D01*
G75*
G02*
X197062495Y-135864316I124724J51662D01*
G01*
X197311942Y-135760991D01*
G75*
G02*
X197488328Y-135834053I51662J-124724D01*
G01*
X197629921Y-136175888D01*
G75*
G02*
X197556859Y-136352274I-124724J-51662D01*
G01*
X197307412Y-136455599D01*
G75*
G02*
X197131026Y-136382537I-51662J124724D01*
G01*
G37*
D20*
X97455000Y-149550000D03*
X96105000Y-149550000D03*
X96105000Y-150450000D03*
X97455000Y-150450000D03*
D21*
X98505000Y-150000000D03*
D22*
X96780000Y-148775000D03*
D21*
X95055000Y-150000000D03*
D22*
X96780000Y-151225000D03*
G36*
G01*
X196523152Y-132941578D02*
X196653264Y-133255697D01*
G75*
G02*
X196577497Y-133438616I-129343J-53576D01*
G01*
X196318811Y-133545767D01*
G75*
G02*
X196135892Y-133470000I-53576J129343D01*
G01*
X196005780Y-133155881D01*
G75*
G02*
X196081547Y-132972962I129343J53576D01*
G01*
X196340233Y-132865811D01*
G75*
G02*
X196523152Y-132941578I53576J-129343D01*
G01*
G37*
G36*
G01*
X195636228Y-133308954D02*
X195766340Y-133623073D01*
G75*
G02*
X195690573Y-133805992I-129343J-53576D01*
G01*
X195431887Y-133913143D01*
G75*
G02*
X195248968Y-133837376I-53576J129343D01*
G01*
X195118856Y-133523257D01*
G75*
G02*
X195194623Y-133340338I129343J53576D01*
G01*
X195453309Y-133233187D01*
G75*
G02*
X195636228Y-133308954I53576J-129343D01*
G01*
G37*
G36*
G01*
X105041038Y-129165288D02*
X105171150Y-128851169D01*
G75*
G02*
X105354069Y-128775402I129343J-53576D01*
G01*
X105612755Y-128882553D01*
G75*
G02*
X105688522Y-129065472I-53576J-129343D01*
G01*
X105558410Y-129379591D01*
G75*
G02*
X105375491Y-129455358I-129343J53576D01*
G01*
X105116805Y-129348207D01*
G75*
G02*
X105041038Y-129165288I53576J129343D01*
G01*
G37*
G36*
G01*
X105927962Y-129532664D02*
X106058074Y-129218545D01*
G75*
G02*
X106240993Y-129142778I129343J-53576D01*
G01*
X106499679Y-129249929D01*
G75*
G02*
X106575446Y-129432848I-53576J-129343D01*
G01*
X106445334Y-129746967D01*
G75*
G02*
X106262415Y-129822734I-129343J53576D01*
G01*
X106003729Y-129715583D01*
G75*
G02*
X105927962Y-129532664I53576J129343D01*
G01*
G37*
G36*
X198202078Y-130304643D02*
G01*
X199079763Y-129941093D01*
X199232836Y-130310645D01*
X198355151Y-130674195D01*
X198202078Y-130304643D01*
G37*
G36*
X199449315Y-129788020D02*
G01*
X200327000Y-129424470D01*
X200480073Y-129794022D01*
X199602388Y-130157572D01*
X199449315Y-129788020D01*
G37*
G36*
X199104900Y-128956529D02*
G01*
X199982585Y-128592979D01*
X200135658Y-128962531D01*
X199257973Y-129326081D01*
X199104900Y-128956529D01*
G37*
G36*
X197857663Y-129473152D02*
G01*
X198735348Y-129109602D01*
X198888421Y-129479154D01*
X198010736Y-129842704D01*
X197857663Y-129473152D01*
G37*
G36*
X197164753Y-129760164D02*
G01*
X197488111Y-129626225D01*
X197985599Y-130827268D01*
X197662241Y-130961207D01*
X197164753Y-129760164D01*
G37*
G36*
X198508224Y-131043746D02*
G01*
X200633147Y-130163574D01*
X200767086Y-130486932D01*
X198642163Y-131367104D01*
X198508224Y-131043746D01*
G37*
G36*
X200352137Y-128439906D02*
G01*
X200675495Y-128305967D01*
X201172983Y-129507010D01*
X200849625Y-129640949D01*
X200352137Y-128439906D01*
G37*
G36*
X197570650Y-128780242D02*
G01*
X199695573Y-127900070D01*
X199829512Y-128223428D01*
X197704589Y-129103600D01*
X197570650Y-128780242D01*
G37*
G36*
G01*
X120104091Y-112389035D02*
X119842462Y-112650664D01*
G75*
G02*
X119651544Y-112650664I-95459J95459D01*
G01*
X119460625Y-112459745D01*
G75*
G02*
X119460625Y-112268827I95459J95459D01*
G01*
X119722254Y-112007198D01*
G75*
G02*
X119913172Y-112007198I95459J-95459D01*
G01*
X120104091Y-112198117D01*
G75*
G02*
X120104091Y-112389035I-95459J-95459D01*
G01*
G37*
G36*
G01*
X119382843Y-111667787D02*
X119121214Y-111929416D01*
G75*
G02*
X118930296Y-111929416I-95459J95459D01*
G01*
X118739377Y-111738497D01*
G75*
G02*
X118739377Y-111547579I95459J95459D01*
G01*
X119001006Y-111285950D01*
G75*
G02*
X119191924Y-111285950I95459J-95459D01*
G01*
X119382843Y-111476869D01*
G75*
G02*
X119382843Y-111667787I-95459J-95459D01*
G01*
G37*
G36*
G01*
X144544631Y-197734567D02*
X144914631Y-197734567D01*
G75*
G02*
X145049631Y-197869567I0J-135000D01*
G01*
X145049631Y-198139567D01*
G75*
G02*
X144914631Y-198274567I-135000J0D01*
G01*
X144544631Y-198274567D01*
G75*
G02*
X144409631Y-198139567I0J135000D01*
G01*
X144409631Y-197869567D01*
G75*
G02*
X144544631Y-197734567I135000J0D01*
G01*
G37*
G36*
G01*
X144544631Y-198754567D02*
X144914631Y-198754567D01*
G75*
G02*
X145049631Y-198889567I0J-135000D01*
G01*
X145049631Y-199159567D01*
G75*
G02*
X144914631Y-199294567I-135000J0D01*
G01*
X144544631Y-199294567D01*
G75*
G02*
X144409631Y-199159567I0J135000D01*
G01*
X144409631Y-198889567D01*
G75*
G02*
X144544631Y-198754567I135000J0D01*
G01*
G37*
G36*
G01*
X142050000Y-167475000D02*
X142050000Y-166525000D01*
G75*
G02*
X142300000Y-166275000I250000J0D01*
G01*
X142800000Y-166275000D01*
G75*
G02*
X143050000Y-166525000I0J-250000D01*
G01*
X143050000Y-167475000D01*
G75*
G02*
X142800000Y-167725000I-250000J0D01*
G01*
X142300000Y-167725000D01*
G75*
G02*
X142050000Y-167475000I0J250000D01*
G01*
G37*
G36*
G01*
X143950000Y-167475000D02*
X143950000Y-166525000D01*
G75*
G02*
X144200000Y-166275000I250000J0D01*
G01*
X144700000Y-166275000D01*
G75*
G02*
X144950000Y-166525000I0J-250000D01*
G01*
X144950000Y-167475000D01*
G75*
G02*
X144700000Y-167725000I-250000J0D01*
G01*
X144200000Y-167725000D01*
G75*
G02*
X143950000Y-167475000I0J250000D01*
G01*
G37*
G36*
G01*
X147956286Y-199509763D02*
X147616286Y-199509763D01*
G75*
G02*
X147476286Y-199369763I0J140000D01*
G01*
X147476286Y-199089763D01*
G75*
G02*
X147616286Y-198949763I140000J0D01*
G01*
X147956286Y-198949763D01*
G75*
G02*
X148096286Y-199089763I0J-140000D01*
G01*
X148096286Y-199369763D01*
G75*
G02*
X147956286Y-199509763I-140000J0D01*
G01*
G37*
G36*
G01*
X147956286Y-198549763D02*
X147616286Y-198549763D01*
G75*
G02*
X147476286Y-198409763I0J140000D01*
G01*
X147476286Y-198129763D01*
G75*
G02*
X147616286Y-197989763I140000J0D01*
G01*
X147956286Y-197989763D01*
G75*
G02*
X148096286Y-198129763I0J-140000D01*
G01*
X148096286Y-198409763D01*
G75*
G02*
X147956286Y-198549763I-140000J0D01*
G01*
G37*
D16*
X179949000Y-120051000D03*
G36*
G01*
X132309834Y-107775591D02*
X132651669Y-107633998D01*
G75*
G02*
X132828055Y-107707060I51662J-124724D01*
G01*
X132931380Y-107956507D01*
G75*
G02*
X132858318Y-108132893I-124724J-51662D01*
G01*
X132516483Y-108274486D01*
G75*
G02*
X132340097Y-108201424I-51662J124724D01*
G01*
X132236772Y-107951977D01*
G75*
G02*
X132309834Y-107775591I124724J51662D01*
G01*
G37*
G36*
G01*
X132700172Y-108717949D02*
X133042007Y-108576356D01*
G75*
G02*
X133218393Y-108649418I51662J-124724D01*
G01*
X133321718Y-108898865D01*
G75*
G02*
X133248656Y-109075251I-124724J-51662D01*
G01*
X132906821Y-109216844D01*
G75*
G02*
X132730435Y-109143782I-51662J124724D01*
G01*
X132627110Y-108894335D01*
G75*
G02*
X132700172Y-108717949I124724J51662D01*
G01*
G37*
G36*
G01*
X100490236Y-147956286D02*
X100490236Y-147616286D01*
G75*
G02*
X100630236Y-147476286I140000J0D01*
G01*
X100910236Y-147476286D01*
G75*
G02*
X101050236Y-147616286I0J-140000D01*
G01*
X101050236Y-147956286D01*
G75*
G02*
X100910236Y-148096286I-140000J0D01*
G01*
X100630236Y-148096286D01*
G75*
G02*
X100490236Y-147956286I0J140000D01*
G01*
G37*
G36*
G01*
X101450236Y-147956286D02*
X101450236Y-147616286D01*
G75*
G02*
X101590236Y-147476286I140000J0D01*
G01*
X101870236Y-147476286D01*
G75*
G02*
X102010236Y-147616286I0J-140000D01*
G01*
X102010236Y-147956286D01*
G75*
G02*
X101870236Y-148096286I-140000J0D01*
G01*
X101590236Y-148096286D01*
G75*
G02*
X101450236Y-147956286I0J140000D01*
G01*
G37*
G36*
G01*
X107775591Y-167690165D02*
X107633998Y-167348330D01*
G75*
G02*
X107707060Y-167171944I124724J51662D01*
G01*
X107956507Y-167068619D01*
G75*
G02*
X108132893Y-167141681I51662J-124724D01*
G01*
X108274486Y-167483516D01*
G75*
G02*
X108201424Y-167659902I-124724J-51662D01*
G01*
X107951977Y-167763227D01*
G75*
G02*
X107775591Y-167690165I-51662J124724D01*
G01*
G37*
G36*
G01*
X108717949Y-167299827D02*
X108576356Y-166957992D01*
G75*
G02*
X108649418Y-166781606I124724J51662D01*
G01*
X108898865Y-166678281D01*
G75*
G02*
X109075251Y-166751343I51662J-124724D01*
G01*
X109216844Y-167093178D01*
G75*
G02*
X109143782Y-167269564I-124724J-51662D01*
G01*
X108894335Y-167372889D01*
G75*
G02*
X108717949Y-167299827I-51662J124724D01*
G01*
G37*
G36*
X101989263Y-129842704D02*
G01*
X101111578Y-129479154D01*
X101264651Y-129109602D01*
X102142336Y-129473152D01*
X101989263Y-129842704D01*
G37*
G36*
X100742026Y-129326081D02*
G01*
X99864341Y-128962531D01*
X100017414Y-128592979D01*
X100895099Y-128956529D01*
X100742026Y-129326081D01*
G37*
G36*
X100397611Y-130157572D02*
G01*
X99519926Y-129794022D01*
X99672999Y-129424470D01*
X100550684Y-129788020D01*
X100397611Y-130157572D01*
G37*
G36*
X101644848Y-130674195D02*
G01*
X100767163Y-130310645D01*
X100920236Y-129941093D01*
X101797921Y-130304643D01*
X101644848Y-130674195D01*
G37*
G36*
X102337758Y-130961207D02*
G01*
X102014400Y-130827268D01*
X102511888Y-129626225D01*
X102835246Y-129760164D01*
X102337758Y-130961207D01*
G37*
G36*
X102295410Y-129103600D02*
G01*
X100170487Y-128223428D01*
X100304426Y-127900070D01*
X102429349Y-128780242D01*
X102295410Y-129103600D01*
G37*
G36*
X99150374Y-129640949D02*
G01*
X98827016Y-129507010D01*
X99324504Y-128305967D01*
X99647862Y-128439906D01*
X99150374Y-129640949D01*
G37*
G36*
X101357836Y-131367104D02*
G01*
X99232913Y-130486932D01*
X99366852Y-130163574D01*
X101491775Y-131043746D01*
X101357836Y-131367104D01*
G37*
G36*
G01*
X112389035Y-179895908D02*
X112650664Y-180157537D01*
G75*
G02*
X112650664Y-180348455I-95459J-95459D01*
G01*
X112459745Y-180539374D01*
G75*
G02*
X112268827Y-180539374I-95459J95459D01*
G01*
X112007198Y-180277745D01*
G75*
G02*
X112007198Y-180086827I95459J95459D01*
G01*
X112198117Y-179895908D01*
G75*
G02*
X112389035Y-179895908I95459J-95459D01*
G01*
G37*
G36*
G01*
X111667787Y-180617156D02*
X111929416Y-180878785D01*
G75*
G02*
X111929416Y-181069703I-95459J-95459D01*
G01*
X111738497Y-181260622D01*
G75*
G02*
X111547579Y-181260622I-95459J95459D01*
G01*
X111285950Y-180998993D01*
G75*
G02*
X111285950Y-180808075I95459J95459D01*
G01*
X111476869Y-180617156D01*
G75*
G02*
X111667787Y-180617156I95459J-95459D01*
G01*
G37*
G36*
G01*
X152043713Y-100490236D02*
X152383713Y-100490236D01*
G75*
G02*
X152523713Y-100630236I0J-140000D01*
G01*
X152523713Y-100910236D01*
G75*
G02*
X152383713Y-101050236I-140000J0D01*
G01*
X152043713Y-101050236D01*
G75*
G02*
X151903713Y-100910236I0J140000D01*
G01*
X151903713Y-100630236D01*
G75*
G02*
X152043713Y-100490236I140000J0D01*
G01*
G37*
G36*
G01*
X152043713Y-101450236D02*
X152383713Y-101450236D01*
G75*
G02*
X152523713Y-101590236I0J-140000D01*
G01*
X152523713Y-101870236D01*
G75*
G02*
X152383713Y-102010236I-140000J0D01*
G01*
X152043713Y-102010236D01*
G75*
G02*
X151903713Y-101870236I0J140000D01*
G01*
X151903713Y-101590236D01*
G75*
G02*
X152043713Y-101450236I140000J0D01*
G01*
G37*
G36*
G01*
X195780000Y-149815000D02*
X195780000Y-150185000D01*
G75*
G02*
X195645000Y-150320000I-135000J0D01*
G01*
X195375000Y-150320000D01*
G75*
G02*
X195240000Y-150185000I0J135000D01*
G01*
X195240000Y-149815000D01*
G75*
G02*
X195375000Y-149680000I135000J0D01*
G01*
X195645000Y-149680000D01*
G75*
G02*
X195780000Y-149815000I0J-135000D01*
G01*
G37*
G36*
G01*
X194760000Y-149815000D02*
X194760000Y-150185000D01*
G75*
G02*
X194625000Y-150320000I-135000J0D01*
G01*
X194355000Y-150320000D01*
G75*
G02*
X194220000Y-150185000I0J135000D01*
G01*
X194220000Y-149815000D01*
G75*
G02*
X194355000Y-149680000I135000J0D01*
G01*
X194625000Y-149680000D01*
G75*
G02*
X194760000Y-149815000I0J-135000D01*
G01*
G37*
G36*
G01*
X117497837Y-117759466D02*
X117759466Y-117497837D01*
G75*
G02*
X117950384Y-117497837I95459J-95459D01*
G01*
X118141303Y-117688756D01*
G75*
G02*
X118141303Y-117879674I-95459J-95459D01*
G01*
X117879674Y-118141303D01*
G75*
G02*
X117688756Y-118141303I-95459J95459D01*
G01*
X117497837Y-117950384D01*
G75*
G02*
X117497837Y-117759466I95459J95459D01*
G01*
G37*
G36*
G01*
X118219085Y-118480714D02*
X118480714Y-118219085D01*
G75*
G02*
X118671632Y-118219085I95459J-95459D01*
G01*
X118862551Y-118410004D01*
G75*
G02*
X118862551Y-118600922I-95459J-95459D01*
G01*
X118600922Y-118862551D01*
G75*
G02*
X118410004Y-118862551I-95459J95459D01*
G01*
X118219085Y-118671632D01*
G75*
G02*
X118219085Y-118480714I95459J95459D01*
G01*
G37*
G36*
G01*
X136685000Y-173080000D02*
X136315000Y-173080000D01*
G75*
G02*
X136180000Y-172945000I0J135000D01*
G01*
X136180000Y-172675000D01*
G75*
G02*
X136315000Y-172540000I135000J0D01*
G01*
X136685000Y-172540000D01*
G75*
G02*
X136820000Y-172675000I0J-135000D01*
G01*
X136820000Y-172945000D01*
G75*
G02*
X136685000Y-173080000I-135000J0D01*
G01*
G37*
G36*
G01*
X136685000Y-172060000D02*
X136315000Y-172060000D01*
G75*
G02*
X136180000Y-171925000I0J135000D01*
G01*
X136180000Y-171655000D01*
G75*
G02*
X136315000Y-171520000I135000J0D01*
G01*
X136685000Y-171520000D01*
G75*
G02*
X136820000Y-171655000I0J-135000D01*
G01*
X136820000Y-171925000D01*
G75*
G02*
X136685000Y-172060000I-135000J0D01*
G01*
G37*
G36*
G01*
X116436434Y-113546186D02*
X116676850Y-113305770D01*
G75*
G02*
X116874840Y-113305770I98995J-98995D01*
G01*
X117072830Y-113503760D01*
G75*
G02*
X117072830Y-113701750I-98995J-98995D01*
G01*
X116832414Y-113942166D01*
G75*
G02*
X116634424Y-113942166I-98995J98995D01*
G01*
X116436434Y-113744176D01*
G75*
G02*
X116436434Y-113546186I98995J98995D01*
G01*
G37*
G36*
G01*
X117115256Y-114225008D02*
X117355672Y-113984592D01*
G75*
G02*
X117553662Y-113984592I98995J-98995D01*
G01*
X117751652Y-114182582D01*
G75*
G02*
X117751652Y-114380572I-98995J-98995D01*
G01*
X117511236Y-114620988D01*
G75*
G02*
X117313246Y-114620988I-98995J98995D01*
G01*
X117115256Y-114422998D01*
G75*
G02*
X117115256Y-114225008I98995J98995D01*
G01*
G37*
G36*
G01*
X156050000Y-170275000D02*
X156050000Y-169325000D01*
G75*
G02*
X156300000Y-169075000I250000J0D01*
G01*
X156800000Y-169075000D01*
G75*
G02*
X157050000Y-169325000I0J-250000D01*
G01*
X157050000Y-170275000D01*
G75*
G02*
X156800000Y-170525000I-250000J0D01*
G01*
X156300000Y-170525000D01*
G75*
G02*
X156050000Y-170275000I0J250000D01*
G01*
G37*
G36*
G01*
X157950000Y-170275000D02*
X157950000Y-169325000D01*
G75*
G02*
X158200000Y-169075000I250000J0D01*
G01*
X158700000Y-169075000D01*
G75*
G02*
X158950000Y-169325000I0J-250000D01*
G01*
X158950000Y-170275000D01*
G75*
G02*
X158700000Y-170525000I-250000J0D01*
G01*
X158200000Y-170525000D01*
G75*
G02*
X157950000Y-170275000I0J250000D01*
G01*
G37*
G36*
G01*
X194958961Y-170834711D02*
X194828849Y-171148830D01*
G75*
G02*
X194645930Y-171224597I-129343J53576D01*
G01*
X194387244Y-171117446D01*
G75*
G02*
X194311477Y-170934527I53576J129343D01*
G01*
X194441589Y-170620408D01*
G75*
G02*
X194624508Y-170544641I129343J-53576D01*
G01*
X194883194Y-170651792D01*
G75*
G02*
X194958961Y-170834711I-53576J-129343D01*
G01*
G37*
G36*
G01*
X194072037Y-170467335D02*
X193941925Y-170781454D01*
G75*
G02*
X193759006Y-170857221I-129343J53576D01*
G01*
X193500320Y-170750070D01*
G75*
G02*
X193424553Y-170567151I53576J129343D01*
G01*
X193554665Y-170253032D01*
G75*
G02*
X193737584Y-170177265I129343J-53576D01*
G01*
X193996270Y-170284416D01*
G75*
G02*
X194072037Y-170467335I-53576J-129343D01*
G01*
G37*
G36*
G01*
X147200000Y-175000000D02*
X147200000Y-174700000D01*
G75*
G02*
X147350000Y-174550000I150000J0D01*
G01*
X148375000Y-174550000D01*
G75*
G02*
X148525000Y-174700000I0J-150000D01*
G01*
X148525000Y-175000000D01*
G75*
G02*
X148375000Y-175150000I-150000J0D01*
G01*
X147350000Y-175150000D01*
G75*
G02*
X147200000Y-175000000I0J150000D01*
G01*
G37*
G36*
G01*
X147200000Y-175950000D02*
X147200000Y-175650000D01*
G75*
G02*
X147350000Y-175500000I150000J0D01*
G01*
X148375000Y-175500000D01*
G75*
G02*
X148525000Y-175650000I0J-150000D01*
G01*
X148525000Y-175950000D01*
G75*
G02*
X148375000Y-176100000I-150000J0D01*
G01*
X147350000Y-176100000D01*
G75*
G02*
X147200000Y-175950000I0J150000D01*
G01*
G37*
G36*
G01*
X147200000Y-176900000D02*
X147200000Y-176600000D01*
G75*
G02*
X147350000Y-176450000I150000J0D01*
G01*
X148375000Y-176450000D01*
G75*
G02*
X148525000Y-176600000I0J-150000D01*
G01*
X148525000Y-176900000D01*
G75*
G02*
X148375000Y-177050000I-150000J0D01*
G01*
X147350000Y-177050000D01*
G75*
G02*
X147200000Y-176900000I0J150000D01*
G01*
G37*
G36*
G01*
X149475000Y-176900000D02*
X149475000Y-176600000D01*
G75*
G02*
X149625000Y-176450000I150000J0D01*
G01*
X150650000Y-176450000D01*
G75*
G02*
X150800000Y-176600000I0J-150000D01*
G01*
X150800000Y-176900000D01*
G75*
G02*
X150650000Y-177050000I-150000J0D01*
G01*
X149625000Y-177050000D01*
G75*
G02*
X149475000Y-176900000I0J150000D01*
G01*
G37*
G36*
G01*
X149475000Y-175950000D02*
X149475000Y-175650000D01*
G75*
G02*
X149625000Y-175500000I150000J0D01*
G01*
X150650000Y-175500000D01*
G75*
G02*
X150800000Y-175650000I0J-150000D01*
G01*
X150800000Y-175950000D01*
G75*
G02*
X150650000Y-176100000I-150000J0D01*
G01*
X149625000Y-176100000D01*
G75*
G02*
X149475000Y-175950000I0J150000D01*
G01*
G37*
G36*
G01*
X149475000Y-175000000D02*
X149475000Y-174700000D01*
G75*
G02*
X149625000Y-174550000I150000J0D01*
G01*
X150650000Y-174550000D01*
G75*
G02*
X150800000Y-174700000I0J-150000D01*
G01*
X150800000Y-175000000D01*
G75*
G02*
X150650000Y-175150000I-150000J0D01*
G01*
X149625000Y-175150000D01*
G75*
G02*
X149475000Y-175000000I0J150000D01*
G01*
G37*
G36*
G01*
X149685000Y-173080000D02*
X149315000Y-173080000D01*
G75*
G02*
X149180000Y-172945000I0J135000D01*
G01*
X149180000Y-172675000D01*
G75*
G02*
X149315000Y-172540000I135000J0D01*
G01*
X149685000Y-172540000D01*
G75*
G02*
X149820000Y-172675000I0J-135000D01*
G01*
X149820000Y-172945000D01*
G75*
G02*
X149685000Y-173080000I-135000J0D01*
G01*
G37*
G36*
G01*
X149685000Y-172060000D02*
X149315000Y-172060000D01*
G75*
G02*
X149180000Y-171925000I0J135000D01*
G01*
X149180000Y-171655000D01*
G75*
G02*
X149315000Y-171520000I135000J0D01*
G01*
X149685000Y-171520000D01*
G75*
G02*
X149820000Y-171655000I0J-135000D01*
G01*
X149820000Y-171925000D01*
G75*
G02*
X149685000Y-172060000I-135000J0D01*
G01*
G37*
G36*
G01*
X186453813Y-116436434D02*
X186694229Y-116676850D01*
G75*
G02*
X186694229Y-116874840I-98995J-98995D01*
G01*
X186496239Y-117072830D01*
G75*
G02*
X186298249Y-117072830I-98995J98995D01*
G01*
X186057833Y-116832414D01*
G75*
G02*
X186057833Y-116634424I98995J98995D01*
G01*
X186255823Y-116436434D01*
G75*
G02*
X186453813Y-116436434I98995J-98995D01*
G01*
G37*
G36*
G01*
X185774991Y-117115256D02*
X186015407Y-117355672D01*
G75*
G02*
X186015407Y-117553662I-98995J-98995D01*
G01*
X185817417Y-117751652D01*
G75*
G02*
X185619427Y-117751652I-98995J98995D01*
G01*
X185379011Y-117511236D01*
G75*
G02*
X185379011Y-117313246I98995J98995D01*
G01*
X185577001Y-117115256D01*
G75*
G02*
X185774991Y-117115256I98995J-98995D01*
G01*
G37*
G36*
G01*
X173307330Y-107986690D02*
X172965495Y-107845097D01*
G75*
G02*
X172892433Y-107668711I51662J124724D01*
G01*
X172995758Y-107419264D01*
G75*
G02*
X173172144Y-107346202I124724J-51662D01*
G01*
X173513979Y-107487795D01*
G75*
G02*
X173587041Y-107664181I-51662J-124724D01*
G01*
X173483716Y-107913628D01*
G75*
G02*
X173307330Y-107986690I-124724J51662D01*
G01*
G37*
G36*
G01*
X173697668Y-107044332D02*
X173355833Y-106902739D01*
G75*
G02*
X173282771Y-106726353I51662J124724D01*
G01*
X173386096Y-106476906D01*
G75*
G02*
X173562482Y-106403844I124724J-51662D01*
G01*
X173904317Y-106545437D01*
G75*
G02*
X173977379Y-106721823I-51662J-124724D01*
G01*
X173874054Y-106971270D01*
G75*
G02*
X173697668Y-107044332I-124724J51662D01*
G01*
G37*
G36*
G01*
X117759466Y-182502162D02*
X117497837Y-182240533D01*
G75*
G02*
X117497837Y-182049615I95459J95459D01*
G01*
X117688756Y-181858696D01*
G75*
G02*
X117879674Y-181858696I95459J-95459D01*
G01*
X118141303Y-182120325D01*
G75*
G02*
X118141303Y-182311243I-95459J-95459D01*
G01*
X117950384Y-182502162D01*
G75*
G02*
X117759466Y-182502162I-95459J95459D01*
G01*
G37*
G36*
G01*
X118480714Y-181780914D02*
X118219085Y-181519285D01*
G75*
G02*
X118219085Y-181328367I95459J95459D01*
G01*
X118410004Y-181137448D01*
G75*
G02*
X118600922Y-181137448I95459J-95459D01*
G01*
X118862551Y-181399077D01*
G75*
G02*
X118862551Y-181589995I-95459J-95459D01*
G01*
X118671632Y-181780914D01*
G75*
G02*
X118480714Y-181780914I-95459J95459D01*
G01*
G37*
G36*
G01*
X167058421Y-196523152D02*
X166744302Y-196653264D01*
G75*
G02*
X166561383Y-196577497I-53576J129343D01*
G01*
X166454232Y-196318811D01*
G75*
G02*
X166529999Y-196135892I129343J53576D01*
G01*
X166844118Y-196005780D01*
G75*
G02*
X167027037Y-196081547I53576J-129343D01*
G01*
X167134188Y-196340233D01*
G75*
G02*
X167058421Y-196523152I-129343J-53576D01*
G01*
G37*
G36*
G01*
X166691045Y-195636228D02*
X166376926Y-195766340D01*
G75*
G02*
X166194007Y-195690573I-53576J129343D01*
G01*
X166086856Y-195431887D01*
G75*
G02*
X166162623Y-195248968I129343J53576D01*
G01*
X166476742Y-195118856D01*
G75*
G02*
X166659661Y-195194623I53576J-129343D01*
G01*
X166766812Y-195453309D01*
G75*
G02*
X166691045Y-195636228I-129343J-53576D01*
G01*
G37*
G36*
G01*
X154885000Y-173080000D02*
X154515000Y-173080000D01*
G75*
G02*
X154380000Y-172945000I0J135000D01*
G01*
X154380000Y-172675000D01*
G75*
G02*
X154515000Y-172540000I135000J0D01*
G01*
X154885000Y-172540000D01*
G75*
G02*
X155020000Y-172675000I0J-135000D01*
G01*
X155020000Y-172945000D01*
G75*
G02*
X154885000Y-173080000I-135000J0D01*
G01*
G37*
G36*
G01*
X154885000Y-172060000D02*
X154515000Y-172060000D01*
G75*
G02*
X154380000Y-171925000I0J135000D01*
G01*
X154380000Y-171655000D01*
G75*
G02*
X154515000Y-171520000I135000J0D01*
G01*
X154885000Y-171520000D01*
G75*
G02*
X155020000Y-171655000I0J-135000D01*
G01*
X155020000Y-171925000D01*
G75*
G02*
X154885000Y-172060000I-135000J0D01*
G01*
G37*
G36*
X113357726Y-113004173D02*
G01*
X112685975Y-112332422D01*
X112968818Y-112049579D01*
X113640569Y-112721330D01*
X113357726Y-113004173D01*
G37*
G36*
X112403132Y-112049579D02*
G01*
X111731381Y-111377828D01*
X112014224Y-111094985D01*
X112685975Y-111766736D01*
X112403132Y-112049579D01*
G37*
G36*
X111766736Y-112685975D02*
G01*
X111094985Y-112014224D01*
X111377828Y-111731381D01*
X112049579Y-112403132D01*
X111766736Y-112685975D01*
G37*
G36*
X112721330Y-113640569D02*
G01*
X112049579Y-112968818D01*
X112332422Y-112685975D01*
X113004173Y-113357726D01*
X112721330Y-113640569D01*
G37*
G36*
X113251660Y-114170899D02*
G01*
X113004173Y-113923412D01*
X113923412Y-113004173D01*
X114170899Y-113251660D01*
X113251660Y-114170899D01*
G37*
G36*
X113923412Y-112438487D02*
G01*
X112297067Y-110812142D01*
X112544554Y-110564655D01*
X114170899Y-112191000D01*
X113923412Y-112438487D01*
G37*
G36*
X110812142Y-111731381D02*
G01*
X110564655Y-111483894D01*
X111483894Y-110564655D01*
X111731381Y-110812142D01*
X110812142Y-111731381D01*
G37*
G36*
X112191000Y-114170899D02*
G01*
X110564655Y-112544554D01*
X110812142Y-112297067D01*
X112438487Y-113923412D01*
X112191000Y-114170899D01*
G37*
G36*
X113004173Y-186642273D02*
G01*
X112332422Y-187314024D01*
X112049579Y-187031181D01*
X112721330Y-186359430D01*
X113004173Y-186642273D01*
G37*
G36*
X112049579Y-187596867D02*
G01*
X111377828Y-188268618D01*
X111094985Y-187985775D01*
X111766736Y-187314024D01*
X112049579Y-187596867D01*
G37*
G36*
X112685975Y-188233263D02*
G01*
X112014224Y-188905014D01*
X111731381Y-188622171D01*
X112403132Y-187950420D01*
X112685975Y-188233263D01*
G37*
G36*
X113640569Y-187278669D02*
G01*
X112968818Y-187950420D01*
X112685975Y-187667577D01*
X113357726Y-186995826D01*
X113640569Y-187278669D01*
G37*
G36*
X114170899Y-186748339D02*
G01*
X113923412Y-186995826D01*
X113004173Y-186076587D01*
X113251660Y-185829100D01*
X114170899Y-186748339D01*
G37*
G36*
X112438487Y-186076587D02*
G01*
X110812142Y-187702932D01*
X110564655Y-187455445D01*
X112191000Y-185829100D01*
X112438487Y-186076587D01*
G37*
G36*
X111731381Y-189187857D02*
G01*
X111483894Y-189435344D01*
X110564655Y-188516105D01*
X110812142Y-188268618D01*
X111731381Y-189187857D01*
G37*
G36*
X114170899Y-187808999D02*
G01*
X112544554Y-189435344D01*
X112297067Y-189187857D01*
X113923412Y-187561512D01*
X114170899Y-187808999D01*
G37*
D23*
X141950000Y-143950000D03*
X144050000Y-143950000D03*
X144050000Y-142050000D03*
X141950000Y-142050000D03*
G36*
G01*
X103476847Y-167058421D02*
X103346735Y-166744302D01*
G75*
G02*
X103422502Y-166561383I129343J53576D01*
G01*
X103681188Y-166454232D01*
G75*
G02*
X103864107Y-166529999I53576J-129343D01*
G01*
X103994219Y-166844118D01*
G75*
G02*
X103918452Y-167027037I-129343J-53576D01*
G01*
X103659766Y-167134188D01*
G75*
G02*
X103476847Y-167058421I-53576J129343D01*
G01*
G37*
G36*
G01*
X104363771Y-166691045D02*
X104233659Y-166376926D01*
G75*
G02*
X104309426Y-166194007I129343J53576D01*
G01*
X104568112Y-166086856D01*
G75*
G02*
X104751031Y-166162623I53576J-129343D01*
G01*
X104881143Y-166476742D01*
G75*
G02*
X104805376Y-166659661I-129343J-53576D01*
G01*
X104546690Y-166766812D01*
G75*
G02*
X104363771Y-166691045I-53576J129343D01*
G01*
G37*
G36*
G01*
X157220000Y-146185000D02*
X157220000Y-145815000D01*
G75*
G02*
X157355000Y-145680000I135000J0D01*
G01*
X157625000Y-145680000D01*
G75*
G02*
X157760000Y-145815000I0J-135000D01*
G01*
X157760000Y-146185000D01*
G75*
G02*
X157625000Y-146320000I-135000J0D01*
G01*
X157355000Y-146320000D01*
G75*
G02*
X157220000Y-146185000I0J135000D01*
G01*
G37*
G36*
G01*
X158240000Y-146185000D02*
X158240000Y-145815000D01*
G75*
G02*
X158375000Y-145680000I135000J0D01*
G01*
X158645000Y-145680000D01*
G75*
G02*
X158780000Y-145815000I0J-135000D01*
G01*
X158780000Y-146185000D01*
G75*
G02*
X158645000Y-146320000I-135000J0D01*
G01*
X158375000Y-146320000D01*
G75*
G02*
X158240000Y-146185000I0J135000D01*
G01*
G37*
G36*
G01*
X147085000Y-173080000D02*
X146715000Y-173080000D01*
G75*
G02*
X146580000Y-172945000I0J135000D01*
G01*
X146580000Y-172675000D01*
G75*
G02*
X146715000Y-172540000I135000J0D01*
G01*
X147085000Y-172540000D01*
G75*
G02*
X147220000Y-172675000I0J-135000D01*
G01*
X147220000Y-172945000D01*
G75*
G02*
X147085000Y-173080000I-135000J0D01*
G01*
G37*
G36*
G01*
X147085000Y-172060000D02*
X146715000Y-172060000D01*
G75*
G02*
X146580000Y-171925000I0J135000D01*
G01*
X146580000Y-171655000D01*
G75*
G02*
X146715000Y-171520000I135000J0D01*
G01*
X147085000Y-171520000D01*
G75*
G02*
X147220000Y-171655000I0J-135000D01*
G01*
X147220000Y-171925000D01*
G75*
G02*
X147085000Y-172060000I-135000J0D01*
G01*
G37*
G36*
G01*
X138700000Y-175000000D02*
X138700000Y-174700000D01*
G75*
G02*
X138850000Y-174550000I150000J0D01*
G01*
X139875000Y-174550000D01*
G75*
G02*
X140025000Y-174700000I0J-150000D01*
G01*
X140025000Y-175000000D01*
G75*
G02*
X139875000Y-175150000I-150000J0D01*
G01*
X138850000Y-175150000D01*
G75*
G02*
X138700000Y-175000000I0J150000D01*
G01*
G37*
G36*
G01*
X138700000Y-175950000D02*
X138700000Y-175650000D01*
G75*
G02*
X138850000Y-175500000I150000J0D01*
G01*
X139875000Y-175500000D01*
G75*
G02*
X140025000Y-175650000I0J-150000D01*
G01*
X140025000Y-175950000D01*
G75*
G02*
X139875000Y-176100000I-150000J0D01*
G01*
X138850000Y-176100000D01*
G75*
G02*
X138700000Y-175950000I0J150000D01*
G01*
G37*
G36*
G01*
X138700000Y-176900000D02*
X138700000Y-176600000D01*
G75*
G02*
X138850000Y-176450000I150000J0D01*
G01*
X139875000Y-176450000D01*
G75*
G02*
X140025000Y-176600000I0J-150000D01*
G01*
X140025000Y-176900000D01*
G75*
G02*
X139875000Y-177050000I-150000J0D01*
G01*
X138850000Y-177050000D01*
G75*
G02*
X138700000Y-176900000I0J150000D01*
G01*
G37*
G36*
G01*
X140975000Y-176900000D02*
X140975000Y-176600000D01*
G75*
G02*
X141125000Y-176450000I150000J0D01*
G01*
X142150000Y-176450000D01*
G75*
G02*
X142300000Y-176600000I0J-150000D01*
G01*
X142300000Y-176900000D01*
G75*
G02*
X142150000Y-177050000I-150000J0D01*
G01*
X141125000Y-177050000D01*
G75*
G02*
X140975000Y-176900000I0J150000D01*
G01*
G37*
G36*
G01*
X140975000Y-175950000D02*
X140975000Y-175650000D01*
G75*
G02*
X141125000Y-175500000I150000J0D01*
G01*
X142150000Y-175500000D01*
G75*
G02*
X142300000Y-175650000I0J-150000D01*
G01*
X142300000Y-175950000D01*
G75*
G02*
X142150000Y-176100000I-150000J0D01*
G01*
X141125000Y-176100000D01*
G75*
G02*
X140975000Y-175950000I0J150000D01*
G01*
G37*
G36*
G01*
X140975000Y-175000000D02*
X140975000Y-174700000D01*
G75*
G02*
X141125000Y-174550000I150000J0D01*
G01*
X142150000Y-174550000D01*
G75*
G02*
X142300000Y-174700000I0J-150000D01*
G01*
X142300000Y-175000000D01*
G75*
G02*
X142150000Y-175150000I-150000J0D01*
G01*
X141125000Y-175150000D01*
G75*
G02*
X140975000Y-175000000I0J150000D01*
G01*
G37*
D15*
X146860000Y-164602000D03*
G36*
G01*
X107986690Y-126692669D02*
X107845097Y-127034504D01*
G75*
G02*
X107668711Y-127107566I-124724J51662D01*
G01*
X107419264Y-127004241D01*
G75*
G02*
X107346202Y-126827855I51662J124724D01*
G01*
X107487795Y-126486020D01*
G75*
G02*
X107664181Y-126412958I124724J-51662D01*
G01*
X107913628Y-126516283D01*
G75*
G02*
X107986690Y-126692669I-51662J-124724D01*
G01*
G37*
G36*
G01*
X107044332Y-126302331D02*
X106902739Y-126644166D01*
G75*
G02*
X106726353Y-126717228I-124724J51662D01*
G01*
X106476906Y-126613903D01*
G75*
G02*
X106403844Y-126437517I51662J124724D01*
G01*
X106545437Y-126095682D01*
G75*
G02*
X106721823Y-126022620I124724J-51662D01*
G01*
X106971270Y-126125945D01*
G75*
G02*
X107044332Y-126302331I-51662J-124724D01*
G01*
G37*
G36*
G01*
X142740000Y-169970000D02*
X142740000Y-169630000D01*
G75*
G02*
X142880000Y-169490000I140000J0D01*
G01*
X143160000Y-169490000D01*
G75*
G02*
X143300000Y-169630000I0J-140000D01*
G01*
X143300000Y-169970000D01*
G75*
G02*
X143160000Y-170110000I-140000J0D01*
G01*
X142880000Y-170110000D01*
G75*
G02*
X142740000Y-169970000I0J140000D01*
G01*
G37*
G36*
G01*
X143700000Y-169970000D02*
X143700000Y-169630000D01*
G75*
G02*
X143840000Y-169490000I140000J0D01*
G01*
X144120000Y-169490000D01*
G75*
G02*
X144260000Y-169630000I0J-140000D01*
G01*
X144260000Y-169970000D01*
G75*
G02*
X144120000Y-170110000I-140000J0D01*
G01*
X143840000Y-170110000D01*
G75*
G02*
X143700000Y-169970000I0J140000D01*
G01*
G37*
G36*
G01*
X182240533Y-117497837D02*
X182502162Y-117759466D01*
G75*
G02*
X182502162Y-117950384I-95459J-95459D01*
G01*
X182311243Y-118141303D01*
G75*
G02*
X182120325Y-118141303I-95459J95459D01*
G01*
X181858696Y-117879674D01*
G75*
G02*
X181858696Y-117688756I95459J95459D01*
G01*
X182049615Y-117497837D01*
G75*
G02*
X182240533Y-117497837I95459J-95459D01*
G01*
G37*
G36*
G01*
X181519285Y-118219085D02*
X181780914Y-118480714D01*
G75*
G02*
X181780914Y-118671632I-95459J-95459D01*
G01*
X181589995Y-118862551D01*
G75*
G02*
X181399077Y-118862551I-95459J95459D01*
G01*
X181137448Y-118600922D01*
G75*
G02*
X181137448Y-118410004I95459J95459D01*
G01*
X181328367Y-118219085D01*
G75*
G02*
X181519285Y-118219085I95459J-95459D01*
G01*
G37*
G36*
G01*
X186890132Y-125922080D02*
X186362341Y-125132183D01*
G75*
G02*
X186431315Y-124785423I207867J138893D01*
G01*
X186847050Y-124507638D01*
G75*
G02*
X187193810Y-124576612I138893J-207867D01*
G01*
X187721601Y-125366509D01*
G75*
G02*
X187652627Y-125713269I-207867J-138893D01*
G01*
X187236892Y-125991054D01*
G75*
G02*
X186890132Y-125922080I-138893J207867D01*
G01*
G37*
G36*
G01*
X188469924Y-124866496D02*
X187942133Y-124076599D01*
G75*
G02*
X188011107Y-123729839I207867J138893D01*
G01*
X188426842Y-123452054D01*
G75*
G02*
X188773602Y-123521028I138893J-207867D01*
G01*
X189301393Y-124310925D01*
G75*
G02*
X189232419Y-124657685I-207867J-138893D01*
G01*
X188816684Y-124935470D01*
G75*
G02*
X188469924Y-124866496I-138893J207867D01*
G01*
G37*
G36*
G01*
X167690165Y-192224408D02*
X167348330Y-192366001D01*
G75*
G02*
X167171944Y-192292939I-51662J124724D01*
G01*
X167068619Y-192043492D01*
G75*
G02*
X167141681Y-191867106I124724J51662D01*
G01*
X167483516Y-191725513D01*
G75*
G02*
X167659902Y-191798575I51662J-124724D01*
G01*
X167763227Y-192048022D01*
G75*
G02*
X167690165Y-192224408I-124724J-51662D01*
G01*
G37*
G36*
G01*
X167299827Y-191282050D02*
X166957992Y-191423643D01*
G75*
G02*
X166781606Y-191350581I-51662J124724D01*
G01*
X166678281Y-191101134D01*
G75*
G02*
X166751343Y-190924748I124724J51662D01*
G01*
X167093178Y-190783155D01*
G75*
G02*
X167269564Y-190856217I51662J-124724D01*
G01*
X167372889Y-191105664D01*
G75*
G02*
X167299827Y-191282050I-124724J-51662D01*
G01*
G37*
D16*
X174145000Y-130830999D03*
G36*
G01*
X137720000Y-151185000D02*
X137720000Y-150815000D01*
G75*
G02*
X137855000Y-150680000I135000J0D01*
G01*
X138125000Y-150680000D01*
G75*
G02*
X138260000Y-150815000I0J-135000D01*
G01*
X138260000Y-151185000D01*
G75*
G02*
X138125000Y-151320000I-135000J0D01*
G01*
X137855000Y-151320000D01*
G75*
G02*
X137720000Y-151185000I0J135000D01*
G01*
G37*
G36*
G01*
X138740000Y-151185000D02*
X138740000Y-150815000D01*
G75*
G02*
X138875000Y-150680000I135000J0D01*
G01*
X139145000Y-150680000D01*
G75*
G02*
X139280000Y-150815000I0J-135000D01*
G01*
X139280000Y-151185000D01*
G75*
G02*
X139145000Y-151320000I-135000J0D01*
G01*
X138875000Y-151320000D01*
G75*
G02*
X138740000Y-151185000I0J135000D01*
G01*
G37*
G36*
G01*
X102265432Y-144544631D02*
X102265432Y-144914631D01*
G75*
G02*
X102130432Y-145049631I-135000J0D01*
G01*
X101860432Y-145049631D01*
G75*
G02*
X101725432Y-144914631I0J135000D01*
G01*
X101725432Y-144544631D01*
G75*
G02*
X101860432Y-144409631I135000J0D01*
G01*
X102130432Y-144409631D01*
G75*
G02*
X102265432Y-144544631I0J-135000D01*
G01*
G37*
G36*
G01*
X101245432Y-144544631D02*
X101245432Y-144914631D01*
G75*
G02*
X101110432Y-145049631I-135000J0D01*
G01*
X100840432Y-145049631D01*
G75*
G02*
X100705432Y-144914631I0J135000D01*
G01*
X100705432Y-144544631D01*
G75*
G02*
X100840432Y-144409631I135000J0D01*
G01*
X101110432Y-144409631D01*
G75*
G02*
X101245432Y-144544631I0J-135000D01*
G01*
G37*
D24*
X165240000Y-179190000D03*
D25*
X165240000Y-181730000D03*
X162700000Y-179190000D03*
X162700000Y-181730000D03*
X160160000Y-179190000D03*
X160160000Y-181730000D03*
X157620000Y-179190000D03*
X157620000Y-181730000D03*
X155080000Y-179190000D03*
X155080000Y-181730000D03*
X152540000Y-179190000D03*
X152540000Y-181730000D03*
X150000000Y-179190000D03*
X150000000Y-181730000D03*
X147460000Y-179190000D03*
X147460000Y-181730000D03*
X144920000Y-179190000D03*
X144920000Y-181730000D03*
X142380000Y-179190000D03*
X142380000Y-181730000D03*
X139840000Y-179190000D03*
X139840000Y-181730000D03*
X137300000Y-179190000D03*
X137300000Y-181730000D03*
X134760000Y-179190000D03*
X134760000Y-181730000D03*
D24*
X189210000Y-138570000D03*
D25*
X186670000Y-138570000D03*
X184130000Y-138570000D03*
X181590000Y-138570000D03*
X179050000Y-138570000D03*
X176510000Y-138570000D03*
X173970000Y-138570000D03*
X171430000Y-138570000D03*
X168890000Y-138570000D03*
X166350000Y-138570000D03*
X163810000Y-138570000D03*
X161270000Y-138570000D03*
X158730000Y-138570000D03*
X156190000Y-138570000D03*
X153650000Y-138570000D03*
X151110000Y-138570000D03*
X148570000Y-138570000D03*
X146030000Y-138570000D03*
X143490000Y-138570000D03*
X140950000Y-138570000D03*
X138410000Y-138570000D03*
X135870000Y-138570000D03*
X133330000Y-138570000D03*
X130790000Y-138570000D03*
D24*
X189210000Y-161430000D03*
D25*
X186670000Y-161430000D03*
X184130000Y-161430000D03*
X181590000Y-161430000D03*
X179050000Y-161430000D03*
X176510000Y-161430000D03*
X173970000Y-161430000D03*
X171430000Y-161430000D03*
X168890000Y-161430000D03*
X166350000Y-161430000D03*
X163810000Y-161430000D03*
X161270000Y-161430000D03*
X158730000Y-161430000D03*
X156190000Y-161430000D03*
X153650000Y-161430000D03*
X151110000Y-161430000D03*
X148570000Y-161430000D03*
X146030000Y-161430000D03*
X143490000Y-161430000D03*
X140950000Y-161430000D03*
X138410000Y-161430000D03*
X135870000Y-161430000D03*
X133330000Y-161430000D03*
X130790000Y-161430000D03*
%LPD*%
M02*
