G04 #@! TF.GenerationSoftware,KiCad,Pcbnew,10.0.5*
G04 #@! TF.CreationDate,2026-08-07T20:22:58-07:00*
G04 #@! TF.ProjectId,microphone_array_v2,6d696372-6f70-4686-9f6e-655f61727261,rev?*
G04 #@! TF.SameCoordinates,Original*
G04 #@! TF.FileFunction,Soldermask,Top*
G04 #@! TF.FilePolarity,Negative*
%FSLAX46Y46*%
G04 Gerber Fmt 4.6, Leading zero omitted, Abs format (unit mm)*
G04 Created by KiCad (PCBNEW 10.0.5) date 2026-08-07 20:22:58*
%MOMM*%
%LPD*%
G01*
G04 APERTURE LIST*
%ADD10C,1.000000*%
%ADD11C,1.500000*%
%ADD12R,0.400000X0.950000*%
%ADD13R,1.300000X0.350000*%
%ADD14R,0.350000X2.300000*%
%ADD15R,0.950000X0.400000*%
%ADD16R,0.350000X1.300000*%
%ADD17R,2.300000X0.350000*%
%ADD18R,1.300000X1.200000*%
%ADD19R,1.700000X1.700000*%
%ADD20C,1.700000*%
G04 APERTURE END LIST*
G36*
G01*
X199509763Y-152043713D02*
X199509763Y-152383713D01*
G75*
G02*
X199369763Y-152523713I-140000J0D01*
G01*
X199089763Y-152523713D01*
G75*
G02*
X198949763Y-152383713I0J140000D01*
G01*
X198949763Y-152043713D01*
G75*
G02*
X199089763Y-151903713I140000J0D01*
G01*
X199369763Y-151903713D01*
G75*
G02*
X199509763Y-152043713I0J-140000D01*
G01*
G37*
G36*
G01*
X198549763Y-152043713D02*
X198549763Y-152383713D01*
G75*
G02*
X198409763Y-152523713I-140000J0D01*
G01*
X198129763Y-152523713D01*
G75*
G02*
X197989763Y-152383713I0J140000D01*
G01*
X197989763Y-152043713D01*
G75*
G02*
X198129763Y-151903713I140000J0D01*
G01*
X198409763Y-151903713D01*
G75*
G02*
X198549763Y-152043713I0J-140000D01*
G01*
G37*
G36*
X186995826Y-113357726D02*
G01*
X187667577Y-112685975D01*
X187950420Y-112968818D01*
X187278669Y-113640569D01*
X186995826Y-113357726D01*
G37*
G36*
X187950420Y-112403132D02*
G01*
X188622171Y-111731381D01*
X188905014Y-112014224D01*
X188233263Y-112685975D01*
X187950420Y-112403132D01*
G37*
G36*
X187314024Y-111766736D02*
G01*
X187985775Y-111094985D01*
X188268618Y-111377828D01*
X187596867Y-112049579D01*
X187314024Y-111766736D01*
G37*
G36*
X186359430Y-112721330D02*
G01*
X187031181Y-112049579D01*
X187314024Y-112332422D01*
X186642273Y-113004173D01*
X186359430Y-112721330D01*
G37*
G36*
X185829100Y-113251660D02*
G01*
X186076587Y-113004173D01*
X186995826Y-113923412D01*
X186748339Y-114170899D01*
X185829100Y-113251660D01*
G37*
G36*
X187561512Y-113923412D02*
G01*
X189187857Y-112297067D01*
X189435344Y-112544554D01*
X187808999Y-114170899D01*
X187561512Y-113923412D01*
G37*
G36*
X188268618Y-110812142D02*
G01*
X188516105Y-110564655D01*
X189435344Y-111483894D01*
X189187857Y-111731381D01*
X188268618Y-110812142D01*
G37*
G36*
X185829100Y-112191000D02*
G01*
X187455445Y-110564655D01*
X187702932Y-110812142D01*
X186076587Y-112438487D01*
X185829100Y-112191000D01*
G37*
G36*
X130304643Y-101797921D02*
G01*
X129941093Y-100920236D01*
X130310645Y-100767163D01*
X130674195Y-101644848D01*
X130304643Y-101797921D01*
G37*
G36*
X129788020Y-100550684D02*
G01*
X129424470Y-99672999D01*
X129794022Y-99519926D01*
X130157572Y-100397611D01*
X129788020Y-100550684D01*
G37*
G36*
X128956529Y-100895099D02*
G01*
X128592979Y-100017414D01*
X128962531Y-99864341D01*
X129326081Y-100742026D01*
X128956529Y-100895099D01*
G37*
G36*
X129473152Y-102142336D02*
G01*
X129109602Y-101264651D01*
X129479154Y-101111578D01*
X129842704Y-101989263D01*
X129473152Y-102142336D01*
G37*
G36*
X129760164Y-102835246D02*
G01*
X129626225Y-102511888D01*
X130827268Y-102014400D01*
X130961207Y-102337758D01*
X129760164Y-102835246D01*
G37*
G36*
X131043746Y-101491775D02*
G01*
X130163574Y-99366852D01*
X130486932Y-99232913D01*
X131367104Y-101357836D01*
X131043746Y-101491775D01*
G37*
G36*
X128439906Y-99647862D02*
G01*
X128305967Y-99324504D01*
X129507010Y-98827016D01*
X129640949Y-99150374D01*
X128439906Y-99647862D01*
G37*
G36*
X128780242Y-102429349D02*
G01*
X127900070Y-100304426D01*
X128223428Y-100170487D01*
X129103600Y-102295410D01*
X128780242Y-102429349D01*
G37*
D10*
X152600000Y-169900000D03*
G36*
G01*
X151200000Y-166200000D02*
X151200000Y-165900000D01*
G75*
G02*
X151350000Y-165750000I150000J0D01*
G01*
X152375000Y-165750000D01*
G75*
G02*
X152525000Y-165900000I0J-150000D01*
G01*
X152525000Y-166200000D01*
G75*
G02*
X152375000Y-166350000I-150000J0D01*
G01*
X151350000Y-166350000D01*
G75*
G02*
X151200000Y-166200000I0J150000D01*
G01*
G37*
G36*
G01*
X151200000Y-167150000D02*
X151200000Y-166850000D01*
G75*
G02*
X151350000Y-166700000I150000J0D01*
G01*
X152375000Y-166700000D01*
G75*
G02*
X152525000Y-166850000I0J-150000D01*
G01*
X152525000Y-167150000D01*
G75*
G02*
X152375000Y-167300000I-150000J0D01*
G01*
X151350000Y-167300000D01*
G75*
G02*
X151200000Y-167150000I0J150000D01*
G01*
G37*
G36*
G01*
X151200000Y-168100000D02*
X151200000Y-167800000D01*
G75*
G02*
X151350000Y-167650000I150000J0D01*
G01*
X152375000Y-167650000D01*
G75*
G02*
X152525000Y-167800000I0J-150000D01*
G01*
X152525000Y-168100000D01*
G75*
G02*
X152375000Y-168250000I-150000J0D01*
G01*
X151350000Y-168250000D01*
G75*
G02*
X151200000Y-168100000I0J150000D01*
G01*
G37*
G36*
G01*
X153475000Y-168100000D02*
X153475000Y-167800000D01*
G75*
G02*
X153625000Y-167650000I150000J0D01*
G01*
X154650000Y-167650000D01*
G75*
G02*
X154800000Y-167800000I0J-150000D01*
G01*
X154800000Y-168100000D01*
G75*
G02*
X154650000Y-168250000I-150000J0D01*
G01*
X153625000Y-168250000D01*
G75*
G02*
X153475000Y-168100000I0J150000D01*
G01*
G37*
G36*
G01*
X153475000Y-166200000D02*
X153475000Y-165900000D01*
G75*
G02*
X153625000Y-165750000I150000J0D01*
G01*
X154650000Y-165750000D01*
G75*
G02*
X154800000Y-165900000I0J-150000D01*
G01*
X154800000Y-166200000D01*
G75*
G02*
X154650000Y-166350000I-150000J0D01*
G01*
X153625000Y-166350000D01*
G75*
G02*
X153475000Y-166200000I0J150000D01*
G01*
G37*
D11*
X189130000Y-133792000D03*
G36*
G01*
X157220000Y-153685000D02*
X157220000Y-153315000D01*
G75*
G02*
X157355000Y-153180000I135000J0D01*
G01*
X157625000Y-153180000D01*
G75*
G02*
X157760000Y-153315000I0J-135000D01*
G01*
X157760000Y-153685000D01*
G75*
G02*
X157625000Y-153820000I-135000J0D01*
G01*
X157355000Y-153820000D01*
G75*
G02*
X157220000Y-153685000I0J135000D01*
G01*
G37*
G36*
G01*
X158240000Y-153685000D02*
X158240000Y-153315000D01*
G75*
G02*
X158375000Y-153180000I135000J0D01*
G01*
X158645000Y-153180000D01*
G75*
G02*
X158780000Y-153315000I0J-135000D01*
G01*
X158780000Y-153685000D01*
G75*
G02*
X158645000Y-153820000I-135000J0D01*
G01*
X158375000Y-153820000D01*
G75*
G02*
X158240000Y-153685000I0J135000D01*
G01*
G37*
G36*
X186642273Y-186995826D02*
G01*
X187314024Y-187667577D01*
X187031181Y-187950420D01*
X186359430Y-187278669D01*
X186642273Y-186995826D01*
G37*
G36*
X187596867Y-187950420D02*
G01*
X188268618Y-188622171D01*
X187985775Y-188905014D01*
X187314024Y-188233263D01*
X187596867Y-187950420D01*
G37*
G36*
X188233263Y-187314024D02*
G01*
X188905014Y-187985775D01*
X188622171Y-188268618D01*
X187950420Y-187596867D01*
X188233263Y-187314024D01*
G37*
G36*
X187278669Y-186359430D02*
G01*
X187950420Y-187031181D01*
X187667577Y-187314024D01*
X186995826Y-186642273D01*
X187278669Y-186359430D01*
G37*
G36*
X186748339Y-185829100D02*
G01*
X186995826Y-186076587D01*
X186076587Y-186995826D01*
X185829100Y-186748339D01*
X186748339Y-185829100D01*
G37*
G36*
X186076587Y-187561512D02*
G01*
X187702932Y-189187857D01*
X187455445Y-189435344D01*
X185829100Y-187808999D01*
X186076587Y-187561512D01*
G37*
G36*
X189187857Y-188268618D02*
G01*
X189435344Y-188516105D01*
X188516105Y-189435344D01*
X188268618Y-189187857D01*
X189187857Y-188268618D01*
G37*
G36*
X187808999Y-185829100D02*
G01*
X189435344Y-187455445D01*
X189187857Y-187702932D01*
X187561512Y-186076587D01*
X187808999Y-185829100D01*
G37*
G36*
G01*
X170834711Y-105041038D02*
X171148830Y-105171150D01*
G75*
G02*
X171224597Y-105354069I-53576J-129343D01*
G01*
X171117446Y-105612755D01*
G75*
G02*
X170934527Y-105688522I-129343J53576D01*
G01*
X170620408Y-105558410D01*
G75*
G02*
X170544641Y-105375491I53576J129343D01*
G01*
X170651792Y-105116805D01*
G75*
G02*
X170834711Y-105041038I129343J-53576D01*
G01*
G37*
G36*
G01*
X170467335Y-105927962D02*
X170781454Y-106058074D01*
G75*
G02*
X170857221Y-106240993I-53576J-129343D01*
G01*
X170750070Y-106499679D01*
G75*
G02*
X170567151Y-106575446I-129343J53576D01*
G01*
X170253032Y-106445334D01*
G75*
G02*
X170177265Y-106262415I53576J129343D01*
G01*
X170284416Y-106003729D01*
G75*
G02*
X170467335Y-105927962I129343J-53576D01*
G01*
G37*
G36*
G01*
X183563565Y-186453813D02*
X183323149Y-186694229D01*
G75*
G02*
X183125159Y-186694229I-98995J98995D01*
G01*
X182927169Y-186496239D01*
G75*
G02*
X182927169Y-186298249I98995J98995D01*
G01*
X183167585Y-186057833D01*
G75*
G02*
X183365575Y-186057833I98995J-98995D01*
G01*
X183563565Y-186255823D01*
G75*
G02*
X183563565Y-186453813I-98995J-98995D01*
G01*
G37*
G36*
G01*
X182884743Y-185774991D02*
X182644327Y-186015407D01*
G75*
G02*
X182446337Y-186015407I-98995J98995D01*
G01*
X182248347Y-185817417D01*
G75*
G02*
X182248347Y-185619427I98995J98995D01*
G01*
X182488763Y-185379011D01*
G75*
G02*
X182686753Y-185379011I98995J-98995D01*
G01*
X182884743Y-185577001D01*
G75*
G02*
X182884743Y-185774991I-98995J-98995D01*
G01*
G37*
G36*
G01*
X141885000Y-173080000D02*
X141515000Y-173080000D01*
G75*
G02*
X141380000Y-172945000I0J135000D01*
G01*
X141380000Y-172675000D01*
G75*
G02*
X141515000Y-172540000I135000J0D01*
G01*
X141885000Y-172540000D01*
G75*
G02*
X142020000Y-172675000I0J-135000D01*
G01*
X142020000Y-172945000D01*
G75*
G02*
X141885000Y-173080000I-135000J0D01*
G01*
G37*
G36*
G01*
X141885000Y-172060000D02*
X141515000Y-172060000D01*
G75*
G02*
X141380000Y-171925000I0J135000D01*
G01*
X141380000Y-171655000D01*
G75*
G02*
X141515000Y-171520000I135000J0D01*
G01*
X141885000Y-171520000D01*
G75*
G02*
X142020000Y-171655000I0J-135000D01*
G01*
X142020000Y-171925000D01*
G75*
G02*
X141885000Y-172060000I-135000J0D01*
G01*
G37*
G36*
G01*
X125922080Y-113109867D02*
X125132183Y-113637658D01*
G75*
G02*
X124785423Y-113568684I-138893J207867D01*
G01*
X124507638Y-113152949D01*
G75*
G02*
X124576612Y-112806189I207867J138893D01*
G01*
X125366509Y-112278398D01*
G75*
G02*
X125713269Y-112347372I138893J-207867D01*
G01*
X125991054Y-112763107D01*
G75*
G02*
X125922080Y-113109867I-207867J-138893D01*
G01*
G37*
G36*
G01*
X124866496Y-111530075D02*
X124076599Y-112057866D01*
G75*
G02*
X123729839Y-111988892I-138893J207867D01*
G01*
X123452054Y-111573157D01*
G75*
G02*
X123521028Y-111226397I207867J138893D01*
G01*
X124310925Y-110698606D01*
G75*
G02*
X124657685Y-110767580I138893J-207867D01*
G01*
X124935470Y-111183315D01*
G75*
G02*
X124866496Y-111530075I-207867J-138893D01*
G01*
G37*
G36*
G01*
X155455368Y-102265432D02*
X155085368Y-102265432D01*
G75*
G02*
X154950368Y-102130432I0J135000D01*
G01*
X154950368Y-101860432D01*
G75*
G02*
X155085368Y-101725432I135000J0D01*
G01*
X155455368Y-101725432D01*
G75*
G02*
X155590368Y-101860432I0J-135000D01*
G01*
X155590368Y-102130432D01*
G75*
G02*
X155455368Y-102265432I-135000J0D01*
G01*
G37*
G36*
G01*
X155455368Y-101245432D02*
X155085368Y-101245432D01*
G75*
G02*
X154950368Y-101110432I0J135000D01*
G01*
X154950368Y-100840432D01*
G75*
G02*
X155085368Y-100705432I135000J0D01*
G01*
X155455368Y-100705432D01*
G75*
G02*
X155590368Y-100840432I0J-135000D01*
G01*
X155590368Y-101110432D01*
G75*
G02*
X155455368Y-101245432I-135000J0D01*
G01*
G37*
G36*
G01*
X182502162Y-182240533D02*
X182240533Y-182502162D01*
G75*
G02*
X182049615Y-182502162I-95459J95459D01*
G01*
X181858696Y-182311243D01*
G75*
G02*
X181858696Y-182120325I95459J95459D01*
G01*
X182120325Y-181858696D01*
G75*
G02*
X182311243Y-181858696I95459J-95459D01*
G01*
X182502162Y-182049615D01*
G75*
G02*
X182502162Y-182240533I-95459J-95459D01*
G01*
G37*
G36*
G01*
X181780914Y-181519285D02*
X181519285Y-181780914D01*
G75*
G02*
X181328367Y-181780914I-95459J95459D01*
G01*
X181137448Y-181589995D01*
G75*
G02*
X181137448Y-181399077I95459J95459D01*
G01*
X181399077Y-181137448D01*
G75*
G02*
X181589995Y-181137448I95459J-95459D01*
G01*
X181780914Y-181328367D01*
G75*
G02*
X181780914Y-181519285I-95459J-95459D01*
G01*
G37*
G36*
G01*
X197734567Y-155455368D02*
X197734567Y-155085368D01*
G75*
G02*
X197869567Y-154950368I135000J0D01*
G01*
X198139567Y-154950368D01*
G75*
G02*
X198274567Y-155085368I0J-135000D01*
G01*
X198274567Y-155455368D01*
G75*
G02*
X198139567Y-155590368I-135000J0D01*
G01*
X197869567Y-155590368D01*
G75*
G02*
X197734567Y-155455368I0J135000D01*
G01*
G37*
G36*
G01*
X198754567Y-155455368D02*
X198754567Y-155085368D01*
G75*
G02*
X198889567Y-154950368I135000J0D01*
G01*
X199159567Y-154950368D01*
G75*
G02*
X199294567Y-155085368I0J-135000D01*
G01*
X199294567Y-155455368D01*
G75*
G02*
X199159567Y-155590368I-135000J0D01*
G01*
X198889567Y-155590368D01*
G75*
G02*
X198754567Y-155455368I0J135000D01*
G01*
G37*
X120051000Y-120051000D03*
G36*
X198010736Y-170157295D02*
G01*
X198888421Y-170520845D01*
X198735348Y-170890397D01*
X197857663Y-170526847D01*
X198010736Y-170157295D01*
G37*
G36*
X199257973Y-170673918D02*
G01*
X200135658Y-171037468D01*
X199982585Y-171407020D01*
X199104900Y-171043470D01*
X199257973Y-170673918D01*
G37*
G36*
X199602388Y-169842427D02*
G01*
X200480073Y-170205977D01*
X200327000Y-170575529D01*
X199449315Y-170211979D01*
X199602388Y-169842427D01*
G37*
G36*
X198355151Y-169325804D02*
G01*
X199232836Y-169689354D01*
X199079763Y-170058906D01*
X198202078Y-169695356D01*
X198355151Y-169325804D01*
G37*
G36*
X197662241Y-169038792D02*
G01*
X197985599Y-169172731D01*
X197488111Y-170373774D01*
X197164753Y-170239835D01*
X197662241Y-169038792D01*
G37*
G36*
X197704589Y-170896399D02*
G01*
X199829512Y-171776571D01*
X199695573Y-172099929D01*
X197570650Y-171219757D01*
X197704589Y-170896399D01*
G37*
G36*
X200849625Y-170359050D02*
G01*
X201172983Y-170492989D01*
X200675495Y-171694032D01*
X200352137Y-171560093D01*
X200849625Y-170359050D01*
G37*
G36*
X198642163Y-168632895D02*
G01*
X200767086Y-169513067D01*
X200633147Y-169836425D01*
X198508224Y-168956253D01*
X198642163Y-168632895D01*
G37*
G36*
G01*
X113546186Y-183563565D02*
X113305770Y-183323149D01*
G75*
G02*
X113305770Y-183125159I98995J98995D01*
G01*
X113503760Y-182927169D01*
G75*
G02*
X113701750Y-182927169I98995J-98995D01*
G01*
X113942166Y-183167585D01*
G75*
G02*
X113942166Y-183365575I-98995J-98995D01*
G01*
X113744176Y-183563565D01*
G75*
G02*
X113546186Y-183563565I-98995J98995D01*
G01*
G37*
G36*
G01*
X114225008Y-182884743D02*
X113984592Y-182644327D01*
G75*
G02*
X113984592Y-182446337I98995J98995D01*
G01*
X114182582Y-182248347D01*
G75*
G02*
X114380572Y-182248347I98995J-98995D01*
G01*
X114620988Y-182488763D01*
G75*
G02*
X114620988Y-182686753I-98995J-98995D01*
G01*
X114422998Y-182884743D01*
G75*
G02*
X114225008Y-182884743I-98995J98995D01*
G01*
G37*
G36*
X129842704Y-198010736D02*
G01*
X129479154Y-198888421D01*
X129109602Y-198735348D01*
X129473152Y-197857663D01*
X129842704Y-198010736D01*
G37*
G36*
X129326081Y-199257973D02*
G01*
X128962531Y-200135658D01*
X128592979Y-199982585D01*
X128956529Y-199104900D01*
X129326081Y-199257973D01*
G37*
G36*
X130157572Y-199602388D02*
G01*
X129794022Y-200480073D01*
X129424470Y-200327000D01*
X129788020Y-199449315D01*
X130157572Y-199602388D01*
G37*
G36*
X130674195Y-198355151D02*
G01*
X130310645Y-199232836D01*
X129941093Y-199079763D01*
X130304643Y-198202078D01*
X130674195Y-198355151D01*
G37*
G36*
X130961207Y-197662241D02*
G01*
X130827268Y-197985599D01*
X129626225Y-197488111D01*
X129760164Y-197164753D01*
X130961207Y-197662241D01*
G37*
G36*
X129103600Y-197704589D02*
G01*
X128223428Y-199829512D01*
X127900070Y-199695573D01*
X128780242Y-197570650D01*
X129103600Y-197704589D01*
G37*
G36*
X129640949Y-200849625D02*
G01*
X129507010Y-201172983D01*
X128305967Y-200675495D01*
X128439906Y-200352137D01*
X129640949Y-200849625D01*
G37*
G36*
X131367104Y-198642163D02*
G01*
X130486932Y-200767086D01*
X130163574Y-200633147D01*
X131043746Y-198508224D01*
X131367104Y-198642163D01*
G37*
G36*
G01*
X137720000Y-153685000D02*
X137720000Y-153315000D01*
G75*
G02*
X137855000Y-153180000I135000J0D01*
G01*
X138125000Y-153180000D01*
G75*
G02*
X138260000Y-153315000I0J-135000D01*
G01*
X138260000Y-153685000D01*
G75*
G02*
X138125000Y-153820000I-135000J0D01*
G01*
X137855000Y-153820000D01*
G75*
G02*
X137720000Y-153685000I0J135000D01*
G01*
G37*
G36*
G01*
X138740000Y-153685000D02*
X138740000Y-153315000D01*
G75*
G02*
X138875000Y-153180000I135000J0D01*
G01*
X139145000Y-153180000D01*
G75*
G02*
X139280000Y-153315000I0J-135000D01*
G01*
X139280000Y-153685000D01*
G75*
G02*
X139145000Y-153820000I-135000J0D01*
G01*
X138875000Y-153820000D01*
G75*
G02*
X138740000Y-153685000I0J135000D01*
G01*
G37*
G36*
G01*
X146400000Y-150175000D02*
X146400000Y-149975000D01*
G75*
G02*
X146500000Y-149875000I100000J0D01*
G01*
X147775000Y-149875000D01*
G75*
G02*
X147875000Y-149975000I0J-100000D01*
G01*
X147875000Y-150175000D01*
G75*
G02*
X147775000Y-150275000I-100000J0D01*
G01*
X146500000Y-150275000D01*
G75*
G02*
X146400000Y-150175000I0J100000D01*
G01*
G37*
G36*
G01*
X146400000Y-150825000D02*
X146400000Y-150625000D01*
G75*
G02*
X146500000Y-150525000I100000J0D01*
G01*
X147775000Y-150525000D01*
G75*
G02*
X147875000Y-150625000I0J-100000D01*
G01*
X147875000Y-150825000D01*
G75*
G02*
X147775000Y-150925000I-100000J0D01*
G01*
X146500000Y-150925000D01*
G75*
G02*
X146400000Y-150825000I0J100000D01*
G01*
G37*
G36*
G01*
X146400000Y-151475000D02*
X146400000Y-151275000D01*
G75*
G02*
X146500000Y-151175000I100000J0D01*
G01*
X147775000Y-151175000D01*
G75*
G02*
X147875000Y-151275000I0J-100000D01*
G01*
X147875000Y-151475000D01*
G75*
G02*
X147775000Y-151575000I-100000J0D01*
G01*
X146500000Y-151575000D01*
G75*
G02*
X146400000Y-151475000I0J100000D01*
G01*
G37*
G36*
G01*
X146400000Y-152125000D02*
X146400000Y-151925000D01*
G75*
G02*
X146500000Y-151825000I100000J0D01*
G01*
X147775000Y-151825000D01*
G75*
G02*
X147875000Y-151925000I0J-100000D01*
G01*
X147875000Y-152125000D01*
G75*
G02*
X147775000Y-152225000I-100000J0D01*
G01*
X146500000Y-152225000D01*
G75*
G02*
X146400000Y-152125000I0J100000D01*
G01*
G37*
G36*
G01*
X146400000Y-152775000D02*
X146400000Y-152575000D01*
G75*
G02*
X146500000Y-152475000I100000J0D01*
G01*
X147775000Y-152475000D01*
G75*
G02*
X147875000Y-152575000I0J-100000D01*
G01*
X147875000Y-152775000D01*
G75*
G02*
X147775000Y-152875000I-100000J0D01*
G01*
X146500000Y-152875000D01*
G75*
G02*
X146400000Y-152775000I0J100000D01*
G01*
G37*
G36*
G01*
X146400000Y-153425000D02*
X146400000Y-153225000D01*
G75*
G02*
X146500000Y-153125000I100000J0D01*
G01*
X147775000Y-153125000D01*
G75*
G02*
X147875000Y-153225000I0J-100000D01*
G01*
X147875000Y-153425000D01*
G75*
G02*
X147775000Y-153525000I-100000J0D01*
G01*
X146500000Y-153525000D01*
G75*
G02*
X146400000Y-153425000I0J100000D01*
G01*
G37*
G36*
G01*
X146400000Y-154075000D02*
X146400000Y-153875000D01*
G75*
G02*
X146500000Y-153775000I100000J0D01*
G01*
X147775000Y-153775000D01*
G75*
G02*
X147875000Y-153875000I0J-100000D01*
G01*
X147875000Y-154075000D01*
G75*
G02*
X147775000Y-154175000I-100000J0D01*
G01*
X146500000Y-154175000D01*
G75*
G02*
X146400000Y-154075000I0J100000D01*
G01*
G37*
G36*
G01*
X146400000Y-154725000D02*
X146400000Y-154525000D01*
G75*
G02*
X146500000Y-154425000I100000J0D01*
G01*
X147775000Y-154425000D01*
G75*
G02*
X147875000Y-154525000I0J-100000D01*
G01*
X147875000Y-154725000D01*
G75*
G02*
X147775000Y-154825000I-100000J0D01*
G01*
X146500000Y-154825000D01*
G75*
G02*
X146400000Y-154725000I0J100000D01*
G01*
G37*
G36*
G01*
X146400000Y-155375000D02*
X146400000Y-155175000D01*
G75*
G02*
X146500000Y-155075000I100000J0D01*
G01*
X147775000Y-155075000D01*
G75*
G02*
X147875000Y-155175000I0J-100000D01*
G01*
X147875000Y-155375000D01*
G75*
G02*
X147775000Y-155475000I-100000J0D01*
G01*
X146500000Y-155475000D01*
G75*
G02*
X146400000Y-155375000I0J100000D01*
G01*
G37*
G36*
G01*
X146400000Y-156025000D02*
X146400000Y-155825000D01*
G75*
G02*
X146500000Y-155725000I100000J0D01*
G01*
X147775000Y-155725000D01*
G75*
G02*
X147875000Y-155825000I0J-100000D01*
G01*
X147875000Y-156025000D01*
G75*
G02*
X147775000Y-156125000I-100000J0D01*
G01*
X146500000Y-156125000D01*
G75*
G02*
X146400000Y-156025000I0J100000D01*
G01*
G37*
G36*
G01*
X152125000Y-156025000D02*
X152125000Y-155825000D01*
G75*
G02*
X152225000Y-155725000I100000J0D01*
G01*
X153500000Y-155725000D01*
G75*
G02*
X153600000Y-155825000I0J-100000D01*
G01*
X153600000Y-156025000D01*
G75*
G02*
X153500000Y-156125000I-100000J0D01*
G01*
X152225000Y-156125000D01*
G75*
G02*
X152125000Y-156025000I0J100000D01*
G01*
G37*
G36*
G01*
X152125000Y-155375000D02*
X152125000Y-155175000D01*
G75*
G02*
X152225000Y-155075000I100000J0D01*
G01*
X153500000Y-155075000D01*
G75*
G02*
X153600000Y-155175000I0J-100000D01*
G01*
X153600000Y-155375000D01*
G75*
G02*
X153500000Y-155475000I-100000J0D01*
G01*
X152225000Y-155475000D01*
G75*
G02*
X152125000Y-155375000I0J100000D01*
G01*
G37*
G36*
G01*
X152125000Y-154725000D02*
X152125000Y-154525000D01*
G75*
G02*
X152225000Y-154425000I100000J0D01*
G01*
X153500000Y-154425000D01*
G75*
G02*
X153600000Y-154525000I0J-100000D01*
G01*
X153600000Y-154725000D01*
G75*
G02*
X153500000Y-154825000I-100000J0D01*
G01*
X152225000Y-154825000D01*
G75*
G02*
X152125000Y-154725000I0J100000D01*
G01*
G37*
G36*
G01*
X152125000Y-154075000D02*
X152125000Y-153875000D01*
G75*
G02*
X152225000Y-153775000I100000J0D01*
G01*
X153500000Y-153775000D01*
G75*
G02*
X153600000Y-153875000I0J-100000D01*
G01*
X153600000Y-154075000D01*
G75*
G02*
X153500000Y-154175000I-100000J0D01*
G01*
X152225000Y-154175000D01*
G75*
G02*
X152125000Y-154075000I0J100000D01*
G01*
G37*
G36*
G01*
X152125000Y-153425000D02*
X152125000Y-153225000D01*
G75*
G02*
X152225000Y-153125000I100000J0D01*
G01*
X153500000Y-153125000D01*
G75*
G02*
X153600000Y-153225000I0J-100000D01*
G01*
X153600000Y-153425000D01*
G75*
G02*
X153500000Y-153525000I-100000J0D01*
G01*
X152225000Y-153525000D01*
G75*
G02*
X152125000Y-153425000I0J100000D01*
G01*
G37*
G36*
G01*
X152125000Y-152775000D02*
X152125000Y-152575000D01*
G75*
G02*
X152225000Y-152475000I100000J0D01*
G01*
X153500000Y-152475000D01*
G75*
G02*
X153600000Y-152575000I0J-100000D01*
G01*
X153600000Y-152775000D01*
G75*
G02*
X153500000Y-152875000I-100000J0D01*
G01*
X152225000Y-152875000D01*
G75*
G02*
X152125000Y-152775000I0J100000D01*
G01*
G37*
G36*
G01*
X152125000Y-152125000D02*
X152125000Y-151925000D01*
G75*
G02*
X152225000Y-151825000I100000J0D01*
G01*
X153500000Y-151825000D01*
G75*
G02*
X153600000Y-151925000I0J-100000D01*
G01*
X153600000Y-152125000D01*
G75*
G02*
X153500000Y-152225000I-100000J0D01*
G01*
X152225000Y-152225000D01*
G75*
G02*
X152125000Y-152125000I0J100000D01*
G01*
G37*
G36*
G01*
X152125000Y-151475000D02*
X152125000Y-151275000D01*
G75*
G02*
X152225000Y-151175000I100000J0D01*
G01*
X153500000Y-151175000D01*
G75*
G02*
X153600000Y-151275000I0J-100000D01*
G01*
X153600000Y-151475000D01*
G75*
G02*
X153500000Y-151575000I-100000J0D01*
G01*
X152225000Y-151575000D01*
G75*
G02*
X152125000Y-151475000I0J100000D01*
G01*
G37*
G36*
G01*
X152125000Y-150825000D02*
X152125000Y-150625000D01*
G75*
G02*
X152225000Y-150525000I100000J0D01*
G01*
X153500000Y-150525000D01*
G75*
G02*
X153600000Y-150625000I0J-100000D01*
G01*
X153600000Y-150825000D01*
G75*
G02*
X153500000Y-150925000I-100000J0D01*
G01*
X152225000Y-150925000D01*
G75*
G02*
X152125000Y-150825000I0J100000D01*
G01*
G37*
G36*
G01*
X152125000Y-150175000D02*
X152125000Y-149975000D01*
G75*
G02*
X152225000Y-149875000I100000J0D01*
G01*
X153500000Y-149875000D01*
G75*
G02*
X153600000Y-149975000I0J-100000D01*
G01*
X153600000Y-150175000D01*
G75*
G02*
X153500000Y-150275000I-100000J0D01*
G01*
X152225000Y-150275000D01*
G75*
G02*
X152125000Y-150175000I0J100000D01*
G01*
G37*
G36*
G01*
X174077919Y-186890132D02*
X174867816Y-186362341D01*
G75*
G02*
X175214576Y-186431315I138893J-207867D01*
G01*
X175492361Y-186847050D01*
G75*
G02*
X175423387Y-187193810I-207867J-138893D01*
G01*
X174633490Y-187721601D01*
G75*
G02*
X174286730Y-187652627I-138893J207867D01*
G01*
X174008945Y-187236892D01*
G75*
G02*
X174077919Y-186890132I207867J138893D01*
G01*
G37*
G36*
G01*
X175133503Y-188469924D02*
X175923400Y-187942133D01*
G75*
G02*
X176270160Y-188011107I138893J-207867D01*
G01*
X176547945Y-188426842D01*
G75*
G02*
X176478971Y-188773602I-207867J-138893D01*
G01*
X175689074Y-189301393D01*
G75*
G02*
X175342314Y-189232419I-138893J207867D01*
G01*
X175064529Y-188816684D01*
G75*
G02*
X175133503Y-188469924I207867J138893D01*
G01*
G37*
G36*
G01*
X152285000Y-173080000D02*
X151915000Y-173080000D01*
G75*
G02*
X151780000Y-172945000I0J135000D01*
G01*
X151780000Y-172675000D01*
G75*
G02*
X151915000Y-172540000I135000J0D01*
G01*
X152285000Y-172540000D01*
G75*
G02*
X152420000Y-172675000I0J-135000D01*
G01*
X152420000Y-172945000D01*
G75*
G02*
X152285000Y-173080000I-135000J0D01*
G01*
G37*
G36*
G01*
X152285000Y-172060000D02*
X151915000Y-172060000D01*
G75*
G02*
X151780000Y-171925000I0J135000D01*
G01*
X151780000Y-171655000D01*
G75*
G02*
X151915000Y-171520000I135000J0D01*
G01*
X152285000Y-171520000D01*
G75*
G02*
X152420000Y-171655000I0J-135000D01*
G01*
X152420000Y-171925000D01*
G75*
G02*
X152285000Y-172060000I-135000J0D01*
G01*
G37*
G36*
G01*
X163227124Y-196188668D02*
X163568959Y-196047075D01*
G75*
G02*
X163745345Y-196120137I51662J-124724D01*
G01*
X163848670Y-196369584D01*
G75*
G02*
X163775608Y-196545970I-124724J-51662D01*
G01*
X163433773Y-196687563D01*
G75*
G02*
X163257387Y-196614501I-51662J124724D01*
G01*
X163154062Y-196365054D01*
G75*
G02*
X163227124Y-196188668I124724J51662D01*
G01*
G37*
G36*
G01*
X163617462Y-197131026D02*
X163959297Y-196989433D01*
G75*
G02*
X164135683Y-197062495I51662J-124724D01*
G01*
X164239008Y-197311942D01*
G75*
G02*
X164165946Y-197488328I-124724J-51662D01*
G01*
X163824111Y-197629921D01*
G75*
G02*
X163647725Y-197556859I-51662J124724D01*
G01*
X163544400Y-197307412D01*
G75*
G02*
X163617462Y-197131026I124724J51662D01*
G01*
G37*
G36*
G01*
X157220000Y-148685000D02*
X157220000Y-148315000D01*
G75*
G02*
X157355000Y-148180000I135000J0D01*
G01*
X157625000Y-148180000D01*
G75*
G02*
X157760000Y-148315000I0J-135000D01*
G01*
X157760000Y-148685000D01*
G75*
G02*
X157625000Y-148820000I-135000J0D01*
G01*
X157355000Y-148820000D01*
G75*
G02*
X157220000Y-148685000I0J135000D01*
G01*
G37*
G36*
G01*
X158240000Y-148685000D02*
X158240000Y-148315000D01*
G75*
G02*
X158375000Y-148180000I135000J0D01*
G01*
X158645000Y-148180000D01*
G75*
G02*
X158780000Y-148315000I0J-135000D01*
G01*
X158780000Y-148685000D01*
G75*
G02*
X158645000Y-148820000I-135000J0D01*
G01*
X158375000Y-148820000D01*
G75*
G02*
X158240000Y-148685000I0J135000D01*
G01*
G37*
X150000000Y-107646000D03*
G36*
G01*
X132651669Y-192366001D02*
X132309834Y-192224408D01*
G75*
G02*
X132236772Y-192048022I51662J124724D01*
G01*
X132340097Y-191798575D01*
G75*
G02*
X132516483Y-191725513I124724J-51662D01*
G01*
X132858318Y-191867106D01*
G75*
G02*
X132931380Y-192043492I-51662J-124724D01*
G01*
X132828055Y-192292939D01*
G75*
G02*
X132651669Y-192366001I-124724J51662D01*
G01*
G37*
G36*
G01*
X133042007Y-191423643D02*
X132700172Y-191282050D01*
G75*
G02*
X132627110Y-191105664I51662J124724D01*
G01*
X132730435Y-190856217D01*
G75*
G02*
X132906821Y-190783155I124724J-51662D01*
G01*
X133248656Y-190924748D01*
G75*
G02*
X133321718Y-191101134I-51662J-124724D01*
G01*
X133218393Y-191350581D01*
G75*
G02*
X133042007Y-191423643I-124724J51662D01*
G01*
G37*
G36*
G01*
X126300000Y-168450000D02*
X126300000Y-165550000D01*
G75*
G02*
X126550000Y-165300000I250000J0D01*
G01*
X127175000Y-165300000D01*
G75*
G02*
X127425000Y-165550000I0J-250000D01*
G01*
X127425000Y-168450000D01*
G75*
G02*
X127175000Y-168700000I-250000J0D01*
G01*
X126550000Y-168700000D01*
G75*
G02*
X126300000Y-168450000I0J250000D01*
G01*
G37*
G36*
G01*
X130575000Y-168450000D02*
X130575000Y-165550000D01*
G75*
G02*
X130825000Y-165300000I250000J0D01*
G01*
X131450000Y-165300000D01*
G75*
G02*
X131700000Y-165550000I0J-250000D01*
G01*
X131700000Y-168450000D01*
G75*
G02*
X131450000Y-168700000I-250000J0D01*
G01*
X130825000Y-168700000D01*
G75*
G02*
X130575000Y-168450000I0J250000D01*
G01*
G37*
G36*
G01*
X136772875Y-103811331D02*
X136431040Y-103952924D01*
G75*
G02*
X136254654Y-103879862I-51662J124724D01*
G01*
X136151329Y-103630415D01*
G75*
G02*
X136224391Y-103454029I124724J51662D01*
G01*
X136566226Y-103312436D01*
G75*
G02*
X136742612Y-103385498I51662J-124724D01*
G01*
X136845937Y-103634945D01*
G75*
G02*
X136772875Y-103811331I-124724J-51662D01*
G01*
G37*
G36*
G01*
X136382537Y-102868973D02*
X136040702Y-103010566D01*
G75*
G02*
X135864316Y-102937504I-51662J124724D01*
G01*
X135760991Y-102688057D01*
G75*
G02*
X135834053Y-102511671I124724J51662D01*
G01*
X136175888Y-102370078D01*
G75*
G02*
X136352274Y-102443140I51662J-124724D01*
G01*
X136455599Y-102692587D01*
G75*
G02*
X136382537Y-102868973I-124724J-51662D01*
G01*
G37*
G36*
G01*
X192366001Y-167348330D02*
X192224408Y-167690165D01*
G75*
G02*
X192048022Y-167763227I-124724J51662D01*
G01*
X191798575Y-167659902D01*
G75*
G02*
X191725513Y-167483516I51662J124724D01*
G01*
X191867106Y-167141681D01*
G75*
G02*
X192043492Y-167068619I124724J-51662D01*
G01*
X192292939Y-167171944D01*
G75*
G02*
X192366001Y-167348330I-51662J-124724D01*
G01*
G37*
G36*
G01*
X191423643Y-166957992D02*
X191282050Y-167299827D01*
G75*
G02*
X191105664Y-167372889I-124724J51662D01*
G01*
X190856217Y-167269564D01*
G75*
G02*
X190783155Y-167093178I51662J124724D01*
G01*
X190924748Y-166751343D01*
G75*
G02*
X191101134Y-166678281I124724J-51662D01*
G01*
X191350581Y-166781606D01*
G75*
G02*
X191423643Y-166957992I-51662J-124724D01*
G01*
G37*
G36*
G01*
X192013309Y-173307330D02*
X192154902Y-172965495D01*
G75*
G02*
X192331288Y-172892433I124724J-51662D01*
G01*
X192580735Y-172995758D01*
G75*
G02*
X192653797Y-173172144I-51662J-124724D01*
G01*
X192512204Y-173513979D01*
G75*
G02*
X192335818Y-173587041I-124724J51662D01*
G01*
X192086371Y-173483716D01*
G75*
G02*
X192013309Y-173307330I51662J124724D01*
G01*
G37*
G36*
G01*
X192955667Y-173697668D02*
X193097260Y-173355833D01*
G75*
G02*
X193273646Y-173282771I124724J-51662D01*
G01*
X193523093Y-173386096D01*
G75*
G02*
X193596155Y-173562482I-51662J-124724D01*
G01*
X193454562Y-173904317D01*
G75*
G02*
X193278176Y-173977379I-124724J51662D01*
G01*
X193028729Y-173874054D01*
G75*
G02*
X192955667Y-173697668I51662J124724D01*
G01*
G37*
G36*
G01*
X192224408Y-132309834D02*
X192366001Y-132651669D01*
G75*
G02*
X192292939Y-132828055I-124724J-51662D01*
G01*
X192043492Y-132931380D01*
G75*
G02*
X191867106Y-132858318I-51662J124724D01*
G01*
X191725513Y-132516483D01*
G75*
G02*
X191798575Y-132340097I124724J51662D01*
G01*
X192048022Y-132236772D01*
G75*
G02*
X192224408Y-132309834I51662J-124724D01*
G01*
G37*
G36*
G01*
X191282050Y-132700172D02*
X191423643Y-133042007D01*
G75*
G02*
X191350581Y-133218393I-124724J-51662D01*
G01*
X191101134Y-133321718D01*
G75*
G02*
X190924748Y-133248656I-51662J124724D01*
G01*
X190783155Y-132906821D01*
G75*
G02*
X190856217Y-132730435I124724J51662D01*
G01*
X191105664Y-132627110D01*
G75*
G02*
X191282050Y-132700172I51662J-124724D01*
G01*
G37*
G36*
G01*
X113109867Y-174077919D02*
X113637658Y-174867816D01*
G75*
G02*
X113568684Y-175214576I-207867J-138893D01*
G01*
X113152949Y-175492361D01*
G75*
G02*
X112806189Y-175423387I-138893J207867D01*
G01*
X112278398Y-174633490D01*
G75*
G02*
X112347372Y-174286730I207867J138893D01*
G01*
X112763107Y-174008945D01*
G75*
G02*
X113109867Y-174077919I138893J-207867D01*
G01*
G37*
G36*
G01*
X111530075Y-175133503D02*
X112057866Y-175923400D01*
G75*
G02*
X111988892Y-176270160I-207867J-138893D01*
G01*
X111573157Y-176547945D01*
G75*
G02*
X111226397Y-176478971I-138893J207867D01*
G01*
X110698606Y-175689074D01*
G75*
G02*
X110767580Y-175342314I207867J138893D01*
G01*
X111183315Y-175064529D01*
G75*
G02*
X111530075Y-175133503I138893J-207867D01*
G01*
G37*
G36*
G01*
X139750000Y-166350000D02*
X139750000Y-167650000D01*
G75*
G02*
X139500000Y-167900000I-250000J0D01*
G01*
X137500000Y-167900000D01*
G75*
G02*
X137250000Y-167650000I0J250000D01*
G01*
X137250000Y-166350000D01*
G75*
G02*
X137500000Y-166100000I250000J0D01*
G01*
X139500000Y-166100000D01*
G75*
G02*
X139750000Y-166350000I0J-250000D01*
G01*
G37*
G36*
G01*
X135750000Y-166350000D02*
X135750000Y-167650000D01*
G75*
G02*
X135500000Y-167900000I-250000J0D01*
G01*
X133500000Y-167900000D01*
G75*
G02*
X133250000Y-167650000I0J250000D01*
G01*
X133250000Y-166350000D01*
G75*
G02*
X133500000Y-166100000I250000J0D01*
G01*
X135500000Y-166100000D01*
G75*
G02*
X135750000Y-166350000I0J-250000D01*
G01*
G37*
G36*
G01*
X150185000Y-195780000D02*
X149815000Y-195780000D01*
G75*
G02*
X149680000Y-195645000I0J135000D01*
G01*
X149680000Y-195375000D01*
G75*
G02*
X149815000Y-195240000I135000J0D01*
G01*
X150185000Y-195240000D01*
G75*
G02*
X150320000Y-195375000I0J-135000D01*
G01*
X150320000Y-195645000D01*
G75*
G02*
X150185000Y-195780000I-135000J0D01*
G01*
G37*
G36*
G01*
X150185000Y-194760000D02*
X149815000Y-194760000D01*
G75*
G02*
X149680000Y-194625000I0J135000D01*
G01*
X149680000Y-194355000D01*
G75*
G02*
X149815000Y-194220000I135000J0D01*
G01*
X150185000Y-194220000D01*
G75*
G02*
X150320000Y-194355000I0J-135000D01*
G01*
X150320000Y-194625000D01*
G75*
G02*
X150185000Y-194760000I-135000J0D01*
G01*
G37*
G36*
G01*
X132941578Y-103476847D02*
X133255697Y-103346735D01*
G75*
G02*
X133438616Y-103422502I53576J-129343D01*
G01*
X133545767Y-103681188D01*
G75*
G02*
X133470000Y-103864107I-129343J-53576D01*
G01*
X133155881Y-103994219D01*
G75*
G02*
X132972962Y-103918452I-53576J129343D01*
G01*
X132865811Y-103659766D01*
G75*
G02*
X132941578Y-103476847I129343J53576D01*
G01*
G37*
G36*
G01*
X133308954Y-104363771D02*
X133623073Y-104233659D01*
G75*
G02*
X133805992Y-104309426I53576J-129343D01*
G01*
X133913143Y-104568112D01*
G75*
G02*
X133837376Y-104751031I-129343J-53576D01*
G01*
X133523257Y-104881143D01*
G75*
G02*
X133340338Y-104805376I-53576J129343D01*
G01*
X133233187Y-104546690D01*
G75*
G02*
X133308954Y-104363771I129343J53576D01*
G01*
G37*
G36*
G01*
X142240000Y-146970000D02*
X142240000Y-146630000D01*
G75*
G02*
X142380000Y-146490000I140000J0D01*
G01*
X142660000Y-146490000D01*
G75*
G02*
X142800000Y-146630000I0J-140000D01*
G01*
X142800000Y-146970000D01*
G75*
G02*
X142660000Y-147110000I-140000J0D01*
G01*
X142380000Y-147110000D01*
G75*
G02*
X142240000Y-146970000I0J140000D01*
G01*
G37*
G36*
G01*
X143200000Y-146970000D02*
X143200000Y-146630000D01*
G75*
G02*
X143340000Y-146490000I140000J0D01*
G01*
X143620000Y-146490000D01*
G75*
G02*
X143760000Y-146630000I0J-140000D01*
G01*
X143760000Y-146970000D01*
G75*
G02*
X143620000Y-147110000I-140000J0D01*
G01*
X143340000Y-147110000D01*
G75*
G02*
X143200000Y-146970000I0J140000D01*
G01*
G37*
G36*
G01*
X157220000Y-151185000D02*
X157220000Y-150815000D01*
G75*
G02*
X157355000Y-150680000I135000J0D01*
G01*
X157625000Y-150680000D01*
G75*
G02*
X157760000Y-150815000I0J-135000D01*
G01*
X157760000Y-151185000D01*
G75*
G02*
X157625000Y-151320000I-135000J0D01*
G01*
X157355000Y-151320000D01*
G75*
G02*
X157220000Y-151185000I0J135000D01*
G01*
G37*
G36*
G01*
X158240000Y-151185000D02*
X158240000Y-150815000D01*
G75*
G02*
X158375000Y-150680000I135000J0D01*
G01*
X158645000Y-150680000D01*
G75*
G02*
X158780000Y-150815000I0J-135000D01*
G01*
X158780000Y-151185000D01*
G75*
G02*
X158645000Y-151320000I-135000J0D01*
G01*
X158375000Y-151320000D01*
G75*
G02*
X158240000Y-151185000I0J135000D01*
G01*
G37*
D12*
X150450000Y-97455000D03*
X150450000Y-96105000D03*
X149550000Y-96105000D03*
X149550000Y-97455000D03*
D13*
X150000000Y-98505000D03*
D14*
X151225000Y-96780000D03*
D13*
X150000000Y-95055000D03*
D14*
X148775000Y-96780000D03*
G36*
G01*
X165275000Y-167250000D02*
X165275000Y-166750000D01*
G75*
G02*
X165500000Y-166525000I225000J0D01*
G01*
X165950000Y-166525000D01*
G75*
G02*
X166175000Y-166750000I0J-225000D01*
G01*
X166175000Y-167250000D01*
G75*
G02*
X165950000Y-167475000I-225000J0D01*
G01*
X165500000Y-167475000D01*
G75*
G02*
X165275000Y-167250000I0J225000D01*
G01*
G37*
G36*
G01*
X166825000Y-167250000D02*
X166825000Y-166750000D01*
G75*
G02*
X167050000Y-166525000I225000J0D01*
G01*
X167500000Y-166525000D01*
G75*
G02*
X167725000Y-166750000I0J-225000D01*
G01*
X167725000Y-167250000D01*
G75*
G02*
X167500000Y-167475000I-225000J0D01*
G01*
X167050000Y-167475000D01*
G75*
G02*
X166825000Y-167250000I0J225000D01*
G01*
G37*
G36*
G01*
X139285000Y-173080000D02*
X138915000Y-173080000D01*
G75*
G02*
X138780000Y-172945000I0J135000D01*
G01*
X138780000Y-172675000D01*
G75*
G02*
X138915000Y-172540000I135000J0D01*
G01*
X139285000Y-172540000D01*
G75*
G02*
X139420000Y-172675000I0J-135000D01*
G01*
X139420000Y-172945000D01*
G75*
G02*
X139285000Y-173080000I-135000J0D01*
G01*
G37*
G36*
G01*
X139285000Y-172060000D02*
X138915000Y-172060000D01*
G75*
G02*
X138780000Y-171925000I0J135000D01*
G01*
X138780000Y-171655000D01*
G75*
G02*
X138915000Y-171520000I135000J0D01*
G01*
X139285000Y-171520000D01*
G75*
G02*
X139420000Y-171655000I0J-135000D01*
G01*
X139420000Y-171925000D01*
G75*
G02*
X139285000Y-172060000I-135000J0D01*
G01*
G37*
G36*
G01*
X147275000Y-167250000D02*
X147275000Y-166750000D01*
G75*
G02*
X147500000Y-166525000I225000J0D01*
G01*
X147950000Y-166525000D01*
G75*
G02*
X148175000Y-166750000I0J-225000D01*
G01*
X148175000Y-167250000D01*
G75*
G02*
X147950000Y-167475000I-225000J0D01*
G01*
X147500000Y-167475000D01*
G75*
G02*
X147275000Y-167250000I0J225000D01*
G01*
G37*
G36*
G01*
X148825000Y-167250000D02*
X148825000Y-166750000D01*
G75*
G02*
X149050000Y-166525000I225000J0D01*
G01*
X149500000Y-166525000D01*
G75*
G02*
X149725000Y-166750000I0J-225000D01*
G01*
X149725000Y-167250000D01*
G75*
G02*
X149500000Y-167475000I-225000J0D01*
G01*
X149050000Y-167475000D01*
G75*
G02*
X148825000Y-167250000I0J225000D01*
G01*
G37*
G36*
G01*
X149240000Y-159370000D02*
X149240000Y-159030000D01*
G75*
G02*
X149380000Y-158890000I140000J0D01*
G01*
X149660000Y-158890000D01*
G75*
G02*
X149800000Y-159030000I0J-140000D01*
G01*
X149800000Y-159370000D01*
G75*
G02*
X149660000Y-159510000I-140000J0D01*
G01*
X149380000Y-159510000D01*
G75*
G02*
X149240000Y-159370000I0J140000D01*
G01*
G37*
G36*
G01*
X150200000Y-159370000D02*
X150200000Y-159030000D01*
G75*
G02*
X150340000Y-158890000I140000J0D01*
G01*
X150620000Y-158890000D01*
G75*
G02*
X150760000Y-159030000I0J-140000D01*
G01*
X150760000Y-159370000D01*
G75*
G02*
X150620000Y-159510000I-140000J0D01*
G01*
X150340000Y-159510000D01*
G75*
G02*
X150200000Y-159370000I0J140000D01*
G01*
G37*
G36*
G01*
X149815000Y-104220000D02*
X150185000Y-104220000D01*
G75*
G02*
X150320000Y-104355000I0J-135000D01*
G01*
X150320000Y-104625000D01*
G75*
G02*
X150185000Y-104760000I-135000J0D01*
G01*
X149815000Y-104760000D01*
G75*
G02*
X149680000Y-104625000I0J135000D01*
G01*
X149680000Y-104355000D01*
G75*
G02*
X149815000Y-104220000I135000J0D01*
G01*
G37*
G36*
G01*
X149815000Y-105240000D02*
X150185000Y-105240000D01*
G75*
G02*
X150320000Y-105375000I0J-135000D01*
G01*
X150320000Y-105645000D01*
G75*
G02*
X150185000Y-105780000I-135000J0D01*
G01*
X149815000Y-105780000D01*
G75*
G02*
X149680000Y-105645000I0J135000D01*
G01*
X149680000Y-105375000D01*
G75*
G02*
X149815000Y-105240000I135000J0D01*
G01*
G37*
G36*
G01*
X141720000Y-151185000D02*
X141720000Y-150815000D01*
G75*
G02*
X141855000Y-150680000I135000J0D01*
G01*
X142125000Y-150680000D01*
G75*
G02*
X142260000Y-150815000I0J-135000D01*
G01*
X142260000Y-151185000D01*
G75*
G02*
X142125000Y-151320000I-135000J0D01*
G01*
X141855000Y-151320000D01*
G75*
G02*
X141720000Y-151185000I0J135000D01*
G01*
G37*
G36*
G01*
X142740000Y-151185000D02*
X142740000Y-150815000D01*
G75*
G02*
X142875000Y-150680000I135000J0D01*
G01*
X143145000Y-150680000D01*
G75*
G02*
X143280000Y-150815000I0J-135000D01*
G01*
X143280000Y-151185000D01*
G75*
G02*
X143145000Y-151320000I-135000J0D01*
G01*
X142875000Y-151320000D01*
G75*
G02*
X142740000Y-151185000I0J135000D01*
G01*
G37*
D15*
X202545000Y-150450000D03*
X203895000Y-150450000D03*
X203895000Y-149550000D03*
X202545000Y-149550000D03*
D16*
X201495000Y-150000000D03*
D17*
X203220000Y-151225000D03*
D16*
X204945000Y-150000000D03*
D17*
X203220000Y-148775000D03*
G36*
G01*
X103811331Y-163227124D02*
X103952924Y-163568959D01*
G75*
G02*
X103879862Y-163745345I-124724J-51662D01*
G01*
X103630415Y-163848670D01*
G75*
G02*
X103454029Y-163775608I-51662J124724D01*
G01*
X103312436Y-163433773D01*
G75*
G02*
X103385498Y-163257387I124724J51662D01*
G01*
X103634945Y-163154062D01*
G75*
G02*
X103811331Y-163227124I51662J-124724D01*
G01*
G37*
G36*
G01*
X102868973Y-163617462D02*
X103010566Y-163959297D01*
G75*
G02*
X102937504Y-164135683I-124724J-51662D01*
G01*
X102688057Y-164239008D01*
G75*
G02*
X102511671Y-164165946I-51662J124724D01*
G01*
X102370078Y-163824111D01*
G75*
G02*
X102443140Y-163647725I124724J51662D01*
G01*
X102692587Y-163544400D01*
G75*
G02*
X102868973Y-163617462I51662J-124724D01*
G01*
G37*
G36*
X101797921Y-169695356D02*
G01*
X100920236Y-170058906D01*
X100767163Y-169689354D01*
X101644848Y-169325804D01*
X101797921Y-169695356D01*
G37*
G36*
X100550684Y-170211979D02*
G01*
X99672999Y-170575529D01*
X99519926Y-170205977D01*
X100397611Y-169842427D01*
X100550684Y-170211979D01*
G37*
G36*
X100895099Y-171043470D02*
G01*
X100017414Y-171407020D01*
X99864341Y-171037468D01*
X100742026Y-170673918D01*
X100895099Y-171043470D01*
G37*
G36*
X102142336Y-170526847D02*
G01*
X101264651Y-170890397D01*
X101111578Y-170520845D01*
X101989263Y-170157295D01*
X102142336Y-170526847D01*
G37*
G36*
X102835246Y-170239835D02*
G01*
X102511888Y-170373774D01*
X102014400Y-169172731D01*
X102337758Y-169038792D01*
X102835246Y-170239835D01*
G37*
G36*
X101491775Y-168956253D02*
G01*
X99366852Y-169836425D01*
X99232913Y-169513067D01*
X101357836Y-168632895D01*
X101491775Y-168956253D01*
G37*
G36*
X99647862Y-171560093D02*
G01*
X99324504Y-171694032D01*
X98827016Y-170492989D01*
X99150374Y-170359050D01*
X99647862Y-171560093D01*
G37*
G36*
X102429349Y-171219757D02*
G01*
X100304426Y-172099929D01*
X100170487Y-171776571D01*
X102295410Y-170896399D01*
X102429349Y-171219757D01*
G37*
G36*
G01*
X137720000Y-146185000D02*
X137720000Y-145815000D01*
G75*
G02*
X137855000Y-145680000I135000J0D01*
G01*
X138125000Y-145680000D01*
G75*
G02*
X138260000Y-145815000I0J-135000D01*
G01*
X138260000Y-146185000D01*
G75*
G02*
X138125000Y-146320000I-135000J0D01*
G01*
X137855000Y-146320000D01*
G75*
G02*
X137720000Y-146185000I0J135000D01*
G01*
G37*
G36*
G01*
X138740000Y-146185000D02*
X138740000Y-145815000D01*
G75*
G02*
X138875000Y-145680000I135000J0D01*
G01*
X139145000Y-145680000D01*
G75*
G02*
X139280000Y-145815000I0J-135000D01*
G01*
X139280000Y-146185000D01*
G75*
G02*
X139145000Y-146320000I-135000J0D01*
G01*
X138875000Y-146320000D01*
G75*
G02*
X138740000Y-146185000I0J135000D01*
G01*
G37*
G36*
G01*
X167348330Y-107633998D02*
X167690165Y-107775591D01*
G75*
G02*
X167763227Y-107951977I-51662J-124724D01*
G01*
X167659902Y-108201424D01*
G75*
G02*
X167483516Y-108274486I-124724J51662D01*
G01*
X167141681Y-108132893D01*
G75*
G02*
X167068619Y-107956507I51662J124724D01*
G01*
X167171944Y-107707060D01*
G75*
G02*
X167348330Y-107633998I124724J-51662D01*
G01*
G37*
G36*
G01*
X166957992Y-108576356D02*
X167299827Y-108717949D01*
G75*
G02*
X167372889Y-108894335I-51662J-124724D01*
G01*
X167269564Y-109143782D01*
G75*
G02*
X167093178Y-109216844I-124724J51662D01*
G01*
X166751343Y-109075251D01*
G75*
G02*
X166678281Y-108898865I51662J124724D01*
G01*
X166781606Y-108649418D01*
G75*
G02*
X166957992Y-108576356I124724J-51662D01*
G01*
G37*
G36*
X170157295Y-101989263D02*
G01*
X170520845Y-101111578D01*
X170890397Y-101264651D01*
X170526847Y-102142336D01*
X170157295Y-101989263D01*
G37*
G36*
X170673918Y-100742026D02*
G01*
X171037468Y-99864341D01*
X171407020Y-100017414D01*
X171043470Y-100895099D01*
X170673918Y-100742026D01*
G37*
G36*
X169842427Y-100397611D02*
G01*
X170205977Y-99519926D01*
X170575529Y-99672999D01*
X170211979Y-100550684D01*
X169842427Y-100397611D01*
G37*
G36*
X169325804Y-101644848D02*
G01*
X169689354Y-100767163D01*
X170058906Y-100920236D01*
X169695356Y-101797921D01*
X169325804Y-101644848D01*
G37*
G36*
X169038792Y-102337758D02*
G01*
X169172731Y-102014400D01*
X170373774Y-102511888D01*
X170239835Y-102835246D01*
X169038792Y-102337758D01*
G37*
G36*
X170896399Y-102295410D02*
G01*
X171776571Y-100170487D01*
X172099929Y-100304426D01*
X171219757Y-102429349D01*
X170896399Y-102295410D01*
G37*
G36*
X170359050Y-99150374D02*
G01*
X170492989Y-98827016D01*
X171694032Y-99324504D01*
X171560093Y-99647862D01*
X170359050Y-99150374D01*
G37*
G36*
X168632895Y-101357836D02*
G01*
X169513067Y-99232913D01*
X169836425Y-99366852D01*
X168956253Y-101491775D01*
X168632895Y-101357836D01*
G37*
G36*
G01*
X129165288Y-194958961D02*
X128851169Y-194828849D01*
G75*
G02*
X128775402Y-194645930I53576J129343D01*
G01*
X128882553Y-194387244D01*
G75*
G02*
X129065472Y-194311477I129343J-53576D01*
G01*
X129379591Y-194441589D01*
G75*
G02*
X129455358Y-194624508I-53576J-129343D01*
G01*
X129348207Y-194883194D01*
G75*
G02*
X129165288Y-194958961I-129343J53576D01*
G01*
G37*
G36*
G01*
X129532664Y-194072037D02*
X129218545Y-193941925D01*
G75*
G02*
X129142778Y-193759006I53576J129343D01*
G01*
X129249929Y-193500320D01*
G75*
G02*
X129432848Y-193424553I129343J-53576D01*
G01*
X129746967Y-193554665D01*
G75*
G02*
X129822734Y-193737584I-53576J-129343D01*
G01*
X129715583Y-193996270D01*
G75*
G02*
X129532664Y-194072037I-129343J53576D01*
G01*
G37*
D11*
X154000000Y-126000000D03*
G36*
G01*
X156275000Y-167250000D02*
X156275000Y-166750000D01*
G75*
G02*
X156500000Y-166525000I225000J0D01*
G01*
X156950000Y-166525000D01*
G75*
G02*
X157175000Y-166750000I0J-225000D01*
G01*
X157175000Y-167250000D01*
G75*
G02*
X156950000Y-167475000I-225000J0D01*
G01*
X156500000Y-167475000D01*
G75*
G02*
X156275000Y-167250000I0J225000D01*
G01*
G37*
G36*
G01*
X157825000Y-167250000D02*
X157825000Y-166750000D01*
G75*
G02*
X158050000Y-166525000I225000J0D01*
G01*
X158500000Y-166525000D01*
G75*
G02*
X158725000Y-166750000I0J-225000D01*
G01*
X158725000Y-167250000D01*
G75*
G02*
X158500000Y-167475000I-225000J0D01*
G01*
X158050000Y-167475000D01*
G75*
G02*
X157825000Y-167250000I0J225000D01*
G01*
G37*
X120051000Y-179949000D03*
G36*
G01*
X147220000Y-143185000D02*
X147220000Y-142815000D01*
G75*
G02*
X147355000Y-142680000I135000J0D01*
G01*
X147625000Y-142680000D01*
G75*
G02*
X147760000Y-142815000I0J-135000D01*
G01*
X147760000Y-143185000D01*
G75*
G02*
X147625000Y-143320000I-135000J0D01*
G01*
X147355000Y-143320000D01*
G75*
G02*
X147220000Y-143185000I0J135000D01*
G01*
G37*
G36*
G01*
X148240000Y-143185000D02*
X148240000Y-142815000D01*
G75*
G02*
X148375000Y-142680000I135000J0D01*
G01*
X148645000Y-142680000D01*
G75*
G02*
X148780000Y-142815000I0J-135000D01*
G01*
X148780000Y-143185000D01*
G75*
G02*
X148645000Y-143320000I-135000J0D01*
G01*
X148375000Y-143320000D01*
G75*
G02*
X148240000Y-143185000I0J135000D01*
G01*
G37*
G36*
G01*
X187610964Y-120104091D02*
X187349335Y-119842462D01*
G75*
G02*
X187349335Y-119651544I95459J95459D01*
G01*
X187540254Y-119460625D01*
G75*
G02*
X187731172Y-119460625I95459J-95459D01*
G01*
X187992801Y-119722254D01*
G75*
G02*
X187992801Y-119913172I-95459J-95459D01*
G01*
X187801882Y-120104091D01*
G75*
G02*
X187610964Y-120104091I-95459J95459D01*
G01*
G37*
G36*
G01*
X188332212Y-119382843D02*
X188070583Y-119121214D01*
G75*
G02*
X188070583Y-118930296I95459J95459D01*
G01*
X188261502Y-118739377D01*
G75*
G02*
X188452420Y-118739377I95459J-95459D01*
G01*
X188714049Y-119001006D01*
G75*
G02*
X188714049Y-119191924I-95459J-95459D01*
G01*
X188523130Y-119382843D01*
G75*
G02*
X188332212Y-119382843I-95459J95459D01*
G01*
G37*
X157000000Y-128000000D03*
X166208000Y-189130000D03*
G36*
G01*
X179895908Y-187610964D02*
X180157537Y-187349335D01*
G75*
G02*
X180348455Y-187349335I95459J-95459D01*
G01*
X180539374Y-187540254D01*
G75*
G02*
X180539374Y-187731172I-95459J-95459D01*
G01*
X180277745Y-187992801D01*
G75*
G02*
X180086827Y-187992801I-95459J95459D01*
G01*
X179895908Y-187801882D01*
G75*
G02*
X179895908Y-187610964I95459J95459D01*
G01*
G37*
G36*
G01*
X180617156Y-188332212D02*
X180878785Y-188070583D01*
G75*
G02*
X181069703Y-188070583I95459J-95459D01*
G01*
X181260622Y-188261502D01*
G75*
G02*
X181260622Y-188452420I-95459J-95459D01*
G01*
X180998993Y-188714049D01*
G75*
G02*
X180808075Y-188714049I-95459J95459D01*
G01*
X180617156Y-188523130D01*
G75*
G02*
X180617156Y-188332212I95459J95459D01*
G01*
G37*
G36*
G01*
X137720000Y-148685000D02*
X137720000Y-148315000D01*
G75*
G02*
X137855000Y-148180000I135000J0D01*
G01*
X138125000Y-148180000D01*
G75*
G02*
X138260000Y-148315000I0J-135000D01*
G01*
X138260000Y-148685000D01*
G75*
G02*
X138125000Y-148820000I-135000J0D01*
G01*
X137855000Y-148820000D01*
G75*
G02*
X137720000Y-148685000I0J135000D01*
G01*
G37*
G36*
G01*
X138740000Y-148685000D02*
X138740000Y-148315000D01*
G75*
G02*
X138875000Y-148180000I135000J0D01*
G01*
X139145000Y-148180000D01*
G75*
G02*
X139280000Y-148315000I0J-135000D01*
G01*
X139280000Y-148685000D01*
G75*
G02*
X139145000Y-148820000I-135000J0D01*
G01*
X138875000Y-148820000D01*
G75*
G02*
X138740000Y-148685000I0J135000D01*
G01*
G37*
D12*
X149550000Y-202545000D03*
X149550000Y-203895000D03*
X150450000Y-203895000D03*
X150450000Y-202545000D03*
D13*
X150000000Y-201495000D03*
D14*
X148775000Y-203220000D03*
D13*
X150000000Y-204945000D03*
D14*
X151225000Y-203220000D03*
G36*
G01*
X107633998Y-132651669D02*
X107775591Y-132309834D01*
G75*
G02*
X107951977Y-132236772I124724J-51662D01*
G01*
X108201424Y-132340097D01*
G75*
G02*
X108274486Y-132516483I-51662J-124724D01*
G01*
X108132893Y-132858318D01*
G75*
G02*
X107956507Y-132931380I-124724J51662D01*
G01*
X107707060Y-132828055D01*
G75*
G02*
X107633998Y-132651669I51662J124724D01*
G01*
G37*
G36*
G01*
X108576356Y-133042007D02*
X108717949Y-132700172D01*
G75*
G02*
X108894335Y-132627110I124724J-51662D01*
G01*
X109143782Y-132730435D01*
G75*
G02*
X109216844Y-132906821I-51662J-124724D01*
G01*
X109075251Y-133248656D01*
G75*
G02*
X108898865Y-133321718I-124724J51662D01*
G01*
X108649418Y-133218393D01*
G75*
G02*
X108576356Y-133042007I51662J124724D01*
G01*
G37*
G36*
G01*
X152975000Y-159450000D02*
X152975000Y-158950000D01*
G75*
G02*
X153200000Y-158725000I225000J0D01*
G01*
X153650000Y-158725000D01*
G75*
G02*
X153875000Y-158950000I0J-225000D01*
G01*
X153875000Y-159450000D01*
G75*
G02*
X153650000Y-159675000I-225000J0D01*
G01*
X153200000Y-159675000D01*
G75*
G02*
X152975000Y-159450000I0J225000D01*
G01*
G37*
G36*
G01*
X154525000Y-159450000D02*
X154525000Y-158950000D01*
G75*
G02*
X154750000Y-158725000I225000J0D01*
G01*
X155200000Y-158725000D01*
G75*
G02*
X155425000Y-158950000I0J-225000D01*
G01*
X155425000Y-159450000D01*
G75*
G02*
X155200000Y-159675000I-225000J0D01*
G01*
X154750000Y-159675000D01*
G75*
G02*
X154525000Y-159450000I0J225000D01*
G01*
G37*
D11*
X179949000Y-179949000D03*
G36*
G01*
X161000000Y-167381250D02*
X161000000Y-166618750D01*
G75*
G02*
X161218750Y-166400000I218750J0D01*
G01*
X161656250Y-166400000D01*
G75*
G02*
X161875000Y-166618750I0J-218750D01*
G01*
X161875000Y-167381250D01*
G75*
G02*
X161656250Y-167600000I-218750J0D01*
G01*
X161218750Y-167600000D01*
G75*
G02*
X161000000Y-167381250I0J218750D01*
G01*
G37*
G36*
G01*
X163125000Y-167381250D02*
X163125000Y-166618750D01*
G75*
G02*
X163343750Y-166400000I218750J0D01*
G01*
X163781250Y-166400000D01*
G75*
G02*
X164000000Y-166618750I0J-218750D01*
G01*
X164000000Y-167381250D01*
G75*
G02*
X163781250Y-167600000I-218750J0D01*
G01*
X163343750Y-167600000D01*
G75*
G02*
X163125000Y-167381250I0J218750D01*
G01*
G37*
G36*
G01*
X126692669Y-192013309D02*
X127034504Y-192154902D01*
G75*
G02*
X127107566Y-192331288I-51662J-124724D01*
G01*
X127004241Y-192580735D01*
G75*
G02*
X126827855Y-192653797I-124724J51662D01*
G01*
X126486020Y-192512204D01*
G75*
G02*
X126412958Y-192335818I51662J124724D01*
G01*
X126516283Y-192086371D01*
G75*
G02*
X126692669Y-192013309I124724J-51662D01*
G01*
G37*
G36*
G01*
X126302331Y-192955667D02*
X126644166Y-193097260D01*
G75*
G02*
X126717228Y-193273646I-51662J-124724D01*
G01*
X126613903Y-193523093D01*
G75*
G02*
X126437517Y-193596155I-124724J51662D01*
G01*
X126095682Y-193454562D01*
G75*
G02*
X126022620Y-193278176I51662J124724D01*
G01*
X126125945Y-193028729D01*
G75*
G02*
X126302331Y-192955667I124724J-51662D01*
G01*
G37*
G36*
G01*
X144485000Y-173080000D02*
X144115000Y-173080000D01*
G75*
G02*
X143980000Y-172945000I0J135000D01*
G01*
X143980000Y-172675000D01*
G75*
G02*
X144115000Y-172540000I135000J0D01*
G01*
X144485000Y-172540000D01*
G75*
G02*
X144620000Y-172675000I0J-135000D01*
G01*
X144620000Y-172945000D01*
G75*
G02*
X144485000Y-173080000I-135000J0D01*
G01*
G37*
G36*
G01*
X144485000Y-172060000D02*
X144115000Y-172060000D01*
G75*
G02*
X143980000Y-171925000I0J135000D01*
G01*
X143980000Y-171655000D01*
G75*
G02*
X144115000Y-171520000I135000J0D01*
G01*
X144485000Y-171520000D01*
G75*
G02*
X144620000Y-171655000I0J-135000D01*
G01*
X144620000Y-171925000D01*
G75*
G02*
X144485000Y-172060000I-135000J0D01*
G01*
G37*
X166877000Y-164723000D03*
G36*
X169695356Y-198202078D02*
G01*
X170058906Y-199079763D01*
X169689354Y-199232836D01*
X169325804Y-198355151D01*
X169695356Y-198202078D01*
G37*
G36*
X170211979Y-199449315D02*
G01*
X170575529Y-200327000D01*
X170205977Y-200480073D01*
X169842427Y-199602388D01*
X170211979Y-199449315D01*
G37*
G36*
X171043470Y-199104900D02*
G01*
X171407020Y-199982585D01*
X171037468Y-200135658D01*
X170673918Y-199257973D01*
X171043470Y-199104900D01*
G37*
G36*
X170526847Y-197857663D02*
G01*
X170890397Y-198735348D01*
X170520845Y-198888421D01*
X170157295Y-198010736D01*
X170526847Y-197857663D01*
G37*
G36*
X170239835Y-197164753D02*
G01*
X170373774Y-197488111D01*
X169172731Y-197985599D01*
X169038792Y-197662241D01*
X170239835Y-197164753D01*
G37*
G36*
X168956253Y-198508224D02*
G01*
X169836425Y-200633147D01*
X169513067Y-200767086D01*
X168632895Y-198642163D01*
X168956253Y-198508224D01*
G37*
G36*
X171560093Y-200352137D02*
G01*
X171694032Y-200675495D01*
X170492989Y-201172983D01*
X170359050Y-200849625D01*
X171560093Y-200352137D01*
G37*
G36*
X171219757Y-197570650D02*
G01*
X172099929Y-199695573D01*
X171776571Y-199829512D01*
X170896399Y-197704589D01*
X171219757Y-197570650D01*
G37*
X110870000Y-166208000D03*
G36*
G01*
X104220000Y-150185000D02*
X104220000Y-149815000D01*
G75*
G02*
X104355000Y-149680000I135000J0D01*
G01*
X104625000Y-149680000D01*
G75*
G02*
X104760000Y-149815000I0J-135000D01*
G01*
X104760000Y-150185000D01*
G75*
G02*
X104625000Y-150320000I-135000J0D01*
G01*
X104355000Y-150320000D01*
G75*
G02*
X104220000Y-150185000I0J135000D01*
G01*
G37*
G36*
G01*
X105240000Y-150185000D02*
X105240000Y-149815000D01*
G75*
G02*
X105375000Y-149680000I135000J0D01*
G01*
X105645000Y-149680000D01*
G75*
G02*
X105780000Y-149815000I0J-135000D01*
G01*
X105780000Y-150185000D01*
G75*
G02*
X105645000Y-150320000I-135000J0D01*
G01*
X105375000Y-150320000D01*
G75*
G02*
X105240000Y-150185000I0J135000D01*
G01*
G37*
G36*
G01*
X196188668Y-136772875D02*
X196047075Y-136431040D01*
G75*
G02*
X196120137Y-136254654I124724J51662D01*
G01*
X196369584Y-136151329D01*
G75*
G02*
X196545970Y-136224391I51662J-124724D01*
G01*
X196687563Y-136566226D01*
G75*
G02*
X196614501Y-136742612I-124724J-51662D01*
G01*
X196365054Y-136845937D01*
G75*
G02*
X196188668Y-136772875I-51662J124724D01*
G01*
G37*
G36*
G01*
X197131026Y-136382537D02*
X196989433Y-136040702D01*
G75*
G02*
X197062495Y-135864316I124724J51662D01*
G01*
X197311942Y-135760991D01*
G75*
G02*
X197488328Y-135834053I51662J-124724D01*
G01*
X197629921Y-136175888D01*
G75*
G02*
X197556859Y-136352274I-124724J-51662D01*
G01*
X197307412Y-136455599D01*
G75*
G02*
X197131026Y-136382537I-51662J124724D01*
G01*
G37*
D15*
X97455000Y-149550000D03*
X96105000Y-149550000D03*
X96105000Y-150450000D03*
X97455000Y-150450000D03*
D16*
X98505000Y-150000000D03*
D17*
X96780000Y-148775000D03*
D16*
X95055000Y-150000000D03*
D17*
X96780000Y-151225000D03*
G36*
G01*
X196523152Y-132941578D02*
X196653264Y-133255697D01*
G75*
G02*
X196577497Y-133438616I-129343J-53576D01*
G01*
X196318811Y-133545767D01*
G75*
G02*
X196135892Y-133470000I-53576J129343D01*
G01*
X196005780Y-133155881D01*
G75*
G02*
X196081547Y-132972962I129343J53576D01*
G01*
X196340233Y-132865811D01*
G75*
G02*
X196523152Y-132941578I53576J-129343D01*
G01*
G37*
G36*
G01*
X195636228Y-133308954D02*
X195766340Y-133623073D01*
G75*
G02*
X195690573Y-133805992I-129343J-53576D01*
G01*
X195431887Y-133913143D01*
G75*
G02*
X195248968Y-133837376I-53576J129343D01*
G01*
X195118856Y-133523257D01*
G75*
G02*
X195194623Y-133340338I129343J53576D01*
G01*
X195453309Y-133233187D01*
G75*
G02*
X195636228Y-133308954I53576J-129343D01*
G01*
G37*
G36*
G01*
X105041038Y-129165288D02*
X105171150Y-128851169D01*
G75*
G02*
X105354069Y-128775402I129343J-53576D01*
G01*
X105612755Y-128882553D01*
G75*
G02*
X105688522Y-129065472I-53576J-129343D01*
G01*
X105558410Y-129379591D01*
G75*
G02*
X105375491Y-129455358I-129343J53576D01*
G01*
X105116805Y-129348207D01*
G75*
G02*
X105041038Y-129165288I53576J129343D01*
G01*
G37*
G36*
G01*
X105927962Y-129532664D02*
X106058074Y-129218545D01*
G75*
G02*
X106240993Y-129142778I129343J-53576D01*
G01*
X106499679Y-129249929D01*
G75*
G02*
X106575446Y-129432848I-53576J-129343D01*
G01*
X106445334Y-129746967D01*
G75*
G02*
X106262415Y-129822734I-129343J53576D01*
G01*
X106003729Y-129715583D01*
G75*
G02*
X105927962Y-129532664I53576J129343D01*
G01*
G37*
G36*
X198202078Y-130304643D02*
G01*
X199079763Y-129941093D01*
X199232836Y-130310645D01*
X198355151Y-130674195D01*
X198202078Y-130304643D01*
G37*
G36*
X199449315Y-129788020D02*
G01*
X200327000Y-129424470D01*
X200480073Y-129794022D01*
X199602388Y-130157572D01*
X199449315Y-129788020D01*
G37*
G36*
X199104900Y-128956529D02*
G01*
X199982585Y-128592979D01*
X200135658Y-128962531D01*
X199257973Y-129326081D01*
X199104900Y-128956529D01*
G37*
G36*
X197857663Y-129473152D02*
G01*
X198735348Y-129109602D01*
X198888421Y-129479154D01*
X198010736Y-129842704D01*
X197857663Y-129473152D01*
G37*
G36*
X197164753Y-129760164D02*
G01*
X197488111Y-129626225D01*
X197985599Y-130827268D01*
X197662241Y-130961207D01*
X197164753Y-129760164D01*
G37*
G36*
X198508224Y-131043746D02*
G01*
X200633147Y-130163574D01*
X200767086Y-130486932D01*
X198642163Y-131367104D01*
X198508224Y-131043746D01*
G37*
G36*
X200352137Y-128439906D02*
G01*
X200675495Y-128305967D01*
X201172983Y-129507010D01*
X200849625Y-129640949D01*
X200352137Y-128439906D01*
G37*
G36*
X197570650Y-128780242D02*
G01*
X199695573Y-127900070D01*
X199829512Y-128223428D01*
X197704589Y-129103600D01*
X197570650Y-128780242D01*
G37*
G36*
G01*
X120104091Y-112389035D02*
X119842462Y-112650664D01*
G75*
G02*
X119651544Y-112650664I-95459J95459D01*
G01*
X119460625Y-112459745D01*
G75*
G02*
X119460625Y-112268827I95459J95459D01*
G01*
X119722254Y-112007198D01*
G75*
G02*
X119913172Y-112007198I95459J-95459D01*
G01*
X120104091Y-112198117D01*
G75*
G02*
X120104091Y-112389035I-95459J-95459D01*
G01*
G37*
G36*
G01*
X119382843Y-111667787D02*
X119121214Y-111929416D01*
G75*
G02*
X118930296Y-111929416I-95459J95459D01*
G01*
X118739377Y-111738497D01*
G75*
G02*
X118739377Y-111547579I95459J95459D01*
G01*
X119001006Y-111285950D01*
G75*
G02*
X119191924Y-111285950I95459J-95459D01*
G01*
X119382843Y-111476869D01*
G75*
G02*
X119382843Y-111667787I-95459J-95459D01*
G01*
G37*
G36*
G01*
X144544631Y-197734567D02*
X144914631Y-197734567D01*
G75*
G02*
X145049631Y-197869567I0J-135000D01*
G01*
X145049631Y-198139567D01*
G75*
G02*
X144914631Y-198274567I-135000J0D01*
G01*
X144544631Y-198274567D01*
G75*
G02*
X144409631Y-198139567I0J135000D01*
G01*
X144409631Y-197869567D01*
G75*
G02*
X144544631Y-197734567I135000J0D01*
G01*
G37*
G36*
G01*
X144544631Y-198754567D02*
X144914631Y-198754567D01*
G75*
G02*
X145049631Y-198889567I0J-135000D01*
G01*
X145049631Y-199159567D01*
G75*
G02*
X144914631Y-199294567I-135000J0D01*
G01*
X144544631Y-199294567D01*
G75*
G02*
X144409631Y-199159567I0J135000D01*
G01*
X144409631Y-198889567D01*
G75*
G02*
X144544631Y-198754567I135000J0D01*
G01*
G37*
G36*
G01*
X142050000Y-167475000D02*
X142050000Y-166525000D01*
G75*
G02*
X142300000Y-166275000I250000J0D01*
G01*
X142800000Y-166275000D01*
G75*
G02*
X143050000Y-166525000I0J-250000D01*
G01*
X143050000Y-167475000D01*
G75*
G02*
X142800000Y-167725000I-250000J0D01*
G01*
X142300000Y-167725000D01*
G75*
G02*
X142050000Y-167475000I0J250000D01*
G01*
G37*
G36*
G01*
X143950000Y-167475000D02*
X143950000Y-166525000D01*
G75*
G02*
X144200000Y-166275000I250000J0D01*
G01*
X144700000Y-166275000D01*
G75*
G02*
X144950000Y-166525000I0J-250000D01*
G01*
X144950000Y-167475000D01*
G75*
G02*
X144700000Y-167725000I-250000J0D01*
G01*
X144200000Y-167725000D01*
G75*
G02*
X143950000Y-167475000I0J250000D01*
G01*
G37*
G36*
G01*
X147956286Y-199509763D02*
X147616286Y-199509763D01*
G75*
G02*
X147476286Y-199369763I0J140000D01*
G01*
X147476286Y-199089763D01*
G75*
G02*
X147616286Y-198949763I140000J0D01*
G01*
X147956286Y-198949763D01*
G75*
G02*
X148096286Y-199089763I0J-140000D01*
G01*
X148096286Y-199369763D01*
G75*
G02*
X147956286Y-199509763I-140000J0D01*
G01*
G37*
G36*
G01*
X147956286Y-198549763D02*
X147616286Y-198549763D01*
G75*
G02*
X147476286Y-198409763I0J140000D01*
G01*
X147476286Y-198129763D01*
G75*
G02*
X147616286Y-197989763I140000J0D01*
G01*
X147956286Y-197989763D01*
G75*
G02*
X148096286Y-198129763I0J-140000D01*
G01*
X148096286Y-198409763D01*
G75*
G02*
X147956286Y-198549763I-140000J0D01*
G01*
G37*
D11*
X179949000Y-120051000D03*
G36*
G01*
X132309834Y-107775591D02*
X132651669Y-107633998D01*
G75*
G02*
X132828055Y-107707060I51662J-124724D01*
G01*
X132931380Y-107956507D01*
G75*
G02*
X132858318Y-108132893I-124724J-51662D01*
G01*
X132516483Y-108274486D01*
G75*
G02*
X132340097Y-108201424I-51662J124724D01*
G01*
X132236772Y-107951977D01*
G75*
G02*
X132309834Y-107775591I124724J51662D01*
G01*
G37*
G36*
G01*
X132700172Y-108717949D02*
X133042007Y-108576356D01*
G75*
G02*
X133218393Y-108649418I51662J-124724D01*
G01*
X133321718Y-108898865D01*
G75*
G02*
X133248656Y-109075251I-124724J-51662D01*
G01*
X132906821Y-109216844D01*
G75*
G02*
X132730435Y-109143782I-51662J124724D01*
G01*
X132627110Y-108894335D01*
G75*
G02*
X132700172Y-108717949I124724J51662D01*
G01*
G37*
G36*
G01*
X100490236Y-147956286D02*
X100490236Y-147616286D01*
G75*
G02*
X100630236Y-147476286I140000J0D01*
G01*
X100910236Y-147476286D01*
G75*
G02*
X101050236Y-147616286I0J-140000D01*
G01*
X101050236Y-147956286D01*
G75*
G02*
X100910236Y-148096286I-140000J0D01*
G01*
X100630236Y-148096286D01*
G75*
G02*
X100490236Y-147956286I0J140000D01*
G01*
G37*
G36*
G01*
X101450236Y-147956286D02*
X101450236Y-147616286D01*
G75*
G02*
X101590236Y-147476286I140000J0D01*
G01*
X101870236Y-147476286D01*
G75*
G02*
X102010236Y-147616286I0J-140000D01*
G01*
X102010236Y-147956286D01*
G75*
G02*
X101870236Y-148096286I-140000J0D01*
G01*
X101590236Y-148096286D01*
G75*
G02*
X101450236Y-147956286I0J140000D01*
G01*
G37*
G36*
G01*
X107775591Y-167690165D02*
X107633998Y-167348330D01*
G75*
G02*
X107707060Y-167171944I124724J51662D01*
G01*
X107956507Y-167068619D01*
G75*
G02*
X108132893Y-167141681I51662J-124724D01*
G01*
X108274486Y-167483516D01*
G75*
G02*
X108201424Y-167659902I-124724J-51662D01*
G01*
X107951977Y-167763227D01*
G75*
G02*
X107775591Y-167690165I-51662J124724D01*
G01*
G37*
G36*
G01*
X108717949Y-167299827D02*
X108576356Y-166957992D01*
G75*
G02*
X108649418Y-166781606I124724J51662D01*
G01*
X108898865Y-166678281D01*
G75*
G02*
X109075251Y-166751343I51662J-124724D01*
G01*
X109216844Y-167093178D01*
G75*
G02*
X109143782Y-167269564I-124724J-51662D01*
G01*
X108894335Y-167372889D01*
G75*
G02*
X108717949Y-167299827I-51662J124724D01*
G01*
G37*
G36*
X101989263Y-129842704D02*
G01*
X101111578Y-129479154D01*
X101264651Y-129109602D01*
X102142336Y-129473152D01*
X101989263Y-129842704D01*
G37*
G36*
X100742026Y-129326081D02*
G01*
X99864341Y-128962531D01*
X100017414Y-128592979D01*
X100895099Y-128956529D01*
X100742026Y-129326081D01*
G37*
G36*
X100397611Y-130157572D02*
G01*
X99519926Y-129794022D01*
X99672999Y-129424470D01*
X100550684Y-129788020D01*
X100397611Y-130157572D01*
G37*
G36*
X101644848Y-130674195D02*
G01*
X100767163Y-130310645D01*
X100920236Y-129941093D01*
X101797921Y-130304643D01*
X101644848Y-130674195D01*
G37*
G36*
X102337758Y-130961207D02*
G01*
X102014400Y-130827268D01*
X102511888Y-129626225D01*
X102835246Y-129760164D01*
X102337758Y-130961207D01*
G37*
G36*
X102295410Y-129103600D02*
G01*
X100170487Y-128223428D01*
X100304426Y-127900070D01*
X102429349Y-128780242D01*
X102295410Y-129103600D01*
G37*
G36*
X99150374Y-129640949D02*
G01*
X98827016Y-129507010D01*
X99324504Y-128305967D01*
X99647862Y-128439906D01*
X99150374Y-129640949D01*
G37*
G36*
X101357836Y-131367104D02*
G01*
X99232913Y-130486932D01*
X99366852Y-130163574D01*
X101491775Y-131043746D01*
X101357836Y-131367104D01*
G37*
G36*
G01*
X112389035Y-179895908D02*
X112650664Y-180157537D01*
G75*
G02*
X112650664Y-180348455I-95459J-95459D01*
G01*
X112459745Y-180539374D01*
G75*
G02*
X112268827Y-180539374I-95459J95459D01*
G01*
X112007198Y-180277745D01*
G75*
G02*
X112007198Y-180086827I95459J95459D01*
G01*
X112198117Y-179895908D01*
G75*
G02*
X112389035Y-179895908I95459J-95459D01*
G01*
G37*
G36*
G01*
X111667787Y-180617156D02*
X111929416Y-180878785D01*
G75*
G02*
X111929416Y-181069703I-95459J-95459D01*
G01*
X111738497Y-181260622D01*
G75*
G02*
X111547579Y-181260622I-95459J95459D01*
G01*
X111285950Y-180998993D01*
G75*
G02*
X111285950Y-180808075I95459J95459D01*
G01*
X111476869Y-180617156D01*
G75*
G02*
X111667787Y-180617156I95459J-95459D01*
G01*
G37*
G36*
G01*
X152043713Y-100490236D02*
X152383713Y-100490236D01*
G75*
G02*
X152523713Y-100630236I0J-140000D01*
G01*
X152523713Y-100910236D01*
G75*
G02*
X152383713Y-101050236I-140000J0D01*
G01*
X152043713Y-101050236D01*
G75*
G02*
X151903713Y-100910236I0J140000D01*
G01*
X151903713Y-100630236D01*
G75*
G02*
X152043713Y-100490236I140000J0D01*
G01*
G37*
G36*
G01*
X152043713Y-101450236D02*
X152383713Y-101450236D01*
G75*
G02*
X152523713Y-101590236I0J-140000D01*
G01*
X152523713Y-101870236D01*
G75*
G02*
X152383713Y-102010236I-140000J0D01*
G01*
X152043713Y-102010236D01*
G75*
G02*
X151903713Y-101870236I0J140000D01*
G01*
X151903713Y-101590236D01*
G75*
G02*
X152043713Y-101450236I140000J0D01*
G01*
G37*
G36*
G01*
X195780000Y-149815000D02*
X195780000Y-150185000D01*
G75*
G02*
X195645000Y-150320000I-135000J0D01*
G01*
X195375000Y-150320000D01*
G75*
G02*
X195240000Y-150185000I0J135000D01*
G01*
X195240000Y-149815000D01*
G75*
G02*
X195375000Y-149680000I135000J0D01*
G01*
X195645000Y-149680000D01*
G75*
G02*
X195780000Y-149815000I0J-135000D01*
G01*
G37*
G36*
G01*
X194760000Y-149815000D02*
X194760000Y-150185000D01*
G75*
G02*
X194625000Y-150320000I-135000J0D01*
G01*
X194355000Y-150320000D01*
G75*
G02*
X194220000Y-150185000I0J135000D01*
G01*
X194220000Y-149815000D01*
G75*
G02*
X194355000Y-149680000I135000J0D01*
G01*
X194625000Y-149680000D01*
G75*
G02*
X194760000Y-149815000I0J-135000D01*
G01*
G37*
G36*
G01*
X117497837Y-117759466D02*
X117759466Y-117497837D01*
G75*
G02*
X117950384Y-117497837I95459J-95459D01*
G01*
X118141303Y-117688756D01*
G75*
G02*
X118141303Y-117879674I-95459J-95459D01*
G01*
X117879674Y-118141303D01*
G75*
G02*
X117688756Y-118141303I-95459J95459D01*
G01*
X117497837Y-117950384D01*
G75*
G02*
X117497837Y-117759466I95459J95459D01*
G01*
G37*
G36*
G01*
X118219085Y-118480714D02*
X118480714Y-118219085D01*
G75*
G02*
X118671632Y-118219085I95459J-95459D01*
G01*
X118862551Y-118410004D01*
G75*
G02*
X118862551Y-118600922I-95459J-95459D01*
G01*
X118600922Y-118862551D01*
G75*
G02*
X118410004Y-118862551I-95459J95459D01*
G01*
X118219085Y-118671632D01*
G75*
G02*
X118219085Y-118480714I95459J95459D01*
G01*
G37*
G36*
G01*
X136685000Y-173080000D02*
X136315000Y-173080000D01*
G75*
G02*
X136180000Y-172945000I0J135000D01*
G01*
X136180000Y-172675000D01*
G75*
G02*
X136315000Y-172540000I135000J0D01*
G01*
X136685000Y-172540000D01*
G75*
G02*
X136820000Y-172675000I0J-135000D01*
G01*
X136820000Y-172945000D01*
G75*
G02*
X136685000Y-173080000I-135000J0D01*
G01*
G37*
G36*
G01*
X136685000Y-172060000D02*
X136315000Y-172060000D01*
G75*
G02*
X136180000Y-171925000I0J135000D01*
G01*
X136180000Y-171655000D01*
G75*
G02*
X136315000Y-171520000I135000J0D01*
G01*
X136685000Y-171520000D01*
G75*
G02*
X136820000Y-171655000I0J-135000D01*
G01*
X136820000Y-171925000D01*
G75*
G02*
X136685000Y-172060000I-135000J0D01*
G01*
G37*
G36*
G01*
X116436434Y-113546186D02*
X116676850Y-113305770D01*
G75*
G02*
X116874840Y-113305770I98995J-98995D01*
G01*
X117072830Y-113503760D01*
G75*
G02*
X117072830Y-113701750I-98995J-98995D01*
G01*
X116832414Y-113942166D01*
G75*
G02*
X116634424Y-113942166I-98995J98995D01*
G01*
X116436434Y-113744176D01*
G75*
G02*
X116436434Y-113546186I98995J98995D01*
G01*
G37*
G36*
G01*
X117115256Y-114225008D02*
X117355672Y-113984592D01*
G75*
G02*
X117553662Y-113984592I98995J-98995D01*
G01*
X117751652Y-114182582D01*
G75*
G02*
X117751652Y-114380572I-98995J-98995D01*
G01*
X117511236Y-114620988D01*
G75*
G02*
X117313246Y-114620988I-98995J98995D01*
G01*
X117115256Y-114422998D01*
G75*
G02*
X117115256Y-114225008I98995J98995D01*
G01*
G37*
G36*
G01*
X156050000Y-170275000D02*
X156050000Y-169325000D01*
G75*
G02*
X156300000Y-169075000I250000J0D01*
G01*
X156800000Y-169075000D01*
G75*
G02*
X157050000Y-169325000I0J-250000D01*
G01*
X157050000Y-170275000D01*
G75*
G02*
X156800000Y-170525000I-250000J0D01*
G01*
X156300000Y-170525000D01*
G75*
G02*
X156050000Y-170275000I0J250000D01*
G01*
G37*
G36*
G01*
X157950000Y-170275000D02*
X157950000Y-169325000D01*
G75*
G02*
X158200000Y-169075000I250000J0D01*
G01*
X158700000Y-169075000D01*
G75*
G02*
X158950000Y-169325000I0J-250000D01*
G01*
X158950000Y-170275000D01*
G75*
G02*
X158700000Y-170525000I-250000J0D01*
G01*
X158200000Y-170525000D01*
G75*
G02*
X157950000Y-170275000I0J250000D01*
G01*
G37*
G36*
G01*
X194958961Y-170834711D02*
X194828849Y-171148830D01*
G75*
G02*
X194645930Y-171224597I-129343J53576D01*
G01*
X194387244Y-171117446D01*
G75*
G02*
X194311477Y-170934527I53576J129343D01*
G01*
X194441589Y-170620408D01*
G75*
G02*
X194624508Y-170544641I129343J-53576D01*
G01*
X194883194Y-170651792D01*
G75*
G02*
X194958961Y-170834711I-53576J-129343D01*
G01*
G37*
G36*
G01*
X194072037Y-170467335D02*
X193941925Y-170781454D01*
G75*
G02*
X193759006Y-170857221I-129343J53576D01*
G01*
X193500320Y-170750070D01*
G75*
G02*
X193424553Y-170567151I53576J129343D01*
G01*
X193554665Y-170253032D01*
G75*
G02*
X193737584Y-170177265I129343J-53576D01*
G01*
X193996270Y-170284416D01*
G75*
G02*
X194072037Y-170467335I-53576J-129343D01*
G01*
G37*
G36*
G01*
X147200000Y-175000000D02*
X147200000Y-174700000D01*
G75*
G02*
X147350000Y-174550000I150000J0D01*
G01*
X148375000Y-174550000D01*
G75*
G02*
X148525000Y-174700000I0J-150000D01*
G01*
X148525000Y-175000000D01*
G75*
G02*
X148375000Y-175150000I-150000J0D01*
G01*
X147350000Y-175150000D01*
G75*
G02*
X147200000Y-175000000I0J150000D01*
G01*
G37*
G36*
G01*
X147200000Y-175950000D02*
X147200000Y-175650000D01*
G75*
G02*
X147350000Y-175500000I150000J0D01*
G01*
X148375000Y-175500000D01*
G75*
G02*
X148525000Y-175650000I0J-150000D01*
G01*
X148525000Y-175950000D01*
G75*
G02*
X148375000Y-176100000I-150000J0D01*
G01*
X147350000Y-176100000D01*
G75*
G02*
X147200000Y-175950000I0J150000D01*
G01*
G37*
G36*
G01*
X147200000Y-176900000D02*
X147200000Y-176600000D01*
G75*
G02*
X147350000Y-176450000I150000J0D01*
G01*
X148375000Y-176450000D01*
G75*
G02*
X148525000Y-176600000I0J-150000D01*
G01*
X148525000Y-176900000D01*
G75*
G02*
X148375000Y-177050000I-150000J0D01*
G01*
X147350000Y-177050000D01*
G75*
G02*
X147200000Y-176900000I0J150000D01*
G01*
G37*
G36*
G01*
X149475000Y-176900000D02*
X149475000Y-176600000D01*
G75*
G02*
X149625000Y-176450000I150000J0D01*
G01*
X150650000Y-176450000D01*
G75*
G02*
X150800000Y-176600000I0J-150000D01*
G01*
X150800000Y-176900000D01*
G75*
G02*
X150650000Y-177050000I-150000J0D01*
G01*
X149625000Y-177050000D01*
G75*
G02*
X149475000Y-176900000I0J150000D01*
G01*
G37*
G36*
G01*
X149475000Y-175950000D02*
X149475000Y-175650000D01*
G75*
G02*
X149625000Y-175500000I150000J0D01*
G01*
X150650000Y-175500000D01*
G75*
G02*
X150800000Y-175650000I0J-150000D01*
G01*
X150800000Y-175950000D01*
G75*
G02*
X150650000Y-176100000I-150000J0D01*
G01*
X149625000Y-176100000D01*
G75*
G02*
X149475000Y-175950000I0J150000D01*
G01*
G37*
G36*
G01*
X149475000Y-175000000D02*
X149475000Y-174700000D01*
G75*
G02*
X149625000Y-174550000I150000J0D01*
G01*
X150650000Y-174550000D01*
G75*
G02*
X150800000Y-174700000I0J-150000D01*
G01*
X150800000Y-175000000D01*
G75*
G02*
X150650000Y-175150000I-150000J0D01*
G01*
X149625000Y-175150000D01*
G75*
G02*
X149475000Y-175000000I0J150000D01*
G01*
G37*
G36*
G01*
X149685000Y-173080000D02*
X149315000Y-173080000D01*
G75*
G02*
X149180000Y-172945000I0J135000D01*
G01*
X149180000Y-172675000D01*
G75*
G02*
X149315000Y-172540000I135000J0D01*
G01*
X149685000Y-172540000D01*
G75*
G02*
X149820000Y-172675000I0J-135000D01*
G01*
X149820000Y-172945000D01*
G75*
G02*
X149685000Y-173080000I-135000J0D01*
G01*
G37*
G36*
G01*
X149685000Y-172060000D02*
X149315000Y-172060000D01*
G75*
G02*
X149180000Y-171925000I0J135000D01*
G01*
X149180000Y-171655000D01*
G75*
G02*
X149315000Y-171520000I135000J0D01*
G01*
X149685000Y-171520000D01*
G75*
G02*
X149820000Y-171655000I0J-135000D01*
G01*
X149820000Y-171925000D01*
G75*
G02*
X149685000Y-172060000I-135000J0D01*
G01*
G37*
G36*
G01*
X186453813Y-116436434D02*
X186694229Y-116676850D01*
G75*
G02*
X186694229Y-116874840I-98995J-98995D01*
G01*
X186496239Y-117072830D01*
G75*
G02*
X186298249Y-117072830I-98995J98995D01*
G01*
X186057833Y-116832414D01*
G75*
G02*
X186057833Y-116634424I98995J98995D01*
G01*
X186255823Y-116436434D01*
G75*
G02*
X186453813Y-116436434I98995J-98995D01*
G01*
G37*
G36*
G01*
X185774991Y-117115256D02*
X186015407Y-117355672D01*
G75*
G02*
X186015407Y-117553662I-98995J-98995D01*
G01*
X185817417Y-117751652D01*
G75*
G02*
X185619427Y-117751652I-98995J98995D01*
G01*
X185379011Y-117511236D01*
G75*
G02*
X185379011Y-117313246I98995J98995D01*
G01*
X185577001Y-117115256D01*
G75*
G02*
X185774991Y-117115256I98995J-98995D01*
G01*
G37*
G36*
G01*
X173307330Y-107986690D02*
X172965495Y-107845097D01*
G75*
G02*
X172892433Y-107668711I51662J124724D01*
G01*
X172995758Y-107419264D01*
G75*
G02*
X173172144Y-107346202I124724J-51662D01*
G01*
X173513979Y-107487795D01*
G75*
G02*
X173587041Y-107664181I-51662J-124724D01*
G01*
X173483716Y-107913628D01*
G75*
G02*
X173307330Y-107986690I-124724J51662D01*
G01*
G37*
G36*
G01*
X173697668Y-107044332D02*
X173355833Y-106902739D01*
G75*
G02*
X173282771Y-106726353I51662J124724D01*
G01*
X173386096Y-106476906D01*
G75*
G02*
X173562482Y-106403844I124724J-51662D01*
G01*
X173904317Y-106545437D01*
G75*
G02*
X173977379Y-106721823I-51662J-124724D01*
G01*
X173874054Y-106971270D01*
G75*
G02*
X173697668Y-107044332I-124724J51662D01*
G01*
G37*
G36*
G01*
X117759466Y-182502162D02*
X117497837Y-182240533D01*
G75*
G02*
X117497837Y-182049615I95459J95459D01*
G01*
X117688756Y-181858696D01*
G75*
G02*
X117879674Y-181858696I95459J-95459D01*
G01*
X118141303Y-182120325D01*
G75*
G02*
X118141303Y-182311243I-95459J-95459D01*
G01*
X117950384Y-182502162D01*
G75*
G02*
X117759466Y-182502162I-95459J95459D01*
G01*
G37*
G36*
G01*
X118480714Y-181780914D02*
X118219085Y-181519285D01*
G75*
G02*
X118219085Y-181328367I95459J95459D01*
G01*
X118410004Y-181137448D01*
G75*
G02*
X118600922Y-181137448I95459J-95459D01*
G01*
X118862551Y-181399077D01*
G75*
G02*
X118862551Y-181589995I-95459J-95459D01*
G01*
X118671632Y-181780914D01*
G75*
G02*
X118480714Y-181780914I-95459J95459D01*
G01*
G37*
G36*
G01*
X167058421Y-196523152D02*
X166744302Y-196653264D01*
G75*
G02*
X166561383Y-196577497I-53576J129343D01*
G01*
X166454232Y-196318811D01*
G75*
G02*
X166529999Y-196135892I129343J53576D01*
G01*
X166844118Y-196005780D01*
G75*
G02*
X167027037Y-196081547I53576J-129343D01*
G01*
X167134188Y-196340233D01*
G75*
G02*
X167058421Y-196523152I-129343J-53576D01*
G01*
G37*
G36*
G01*
X166691045Y-195636228D02*
X166376926Y-195766340D01*
G75*
G02*
X166194007Y-195690573I-53576J129343D01*
G01*
X166086856Y-195431887D01*
G75*
G02*
X166162623Y-195248968I129343J53576D01*
G01*
X166476742Y-195118856D01*
G75*
G02*
X166659661Y-195194623I53576J-129343D01*
G01*
X166766812Y-195453309D01*
G75*
G02*
X166691045Y-195636228I-129343J-53576D01*
G01*
G37*
G36*
G01*
X154885000Y-173080000D02*
X154515000Y-173080000D01*
G75*
G02*
X154380000Y-172945000I0J135000D01*
G01*
X154380000Y-172675000D01*
G75*
G02*
X154515000Y-172540000I135000J0D01*
G01*
X154885000Y-172540000D01*
G75*
G02*
X155020000Y-172675000I0J-135000D01*
G01*
X155020000Y-172945000D01*
G75*
G02*
X154885000Y-173080000I-135000J0D01*
G01*
G37*
G36*
G01*
X154885000Y-172060000D02*
X154515000Y-172060000D01*
G75*
G02*
X154380000Y-171925000I0J135000D01*
G01*
X154380000Y-171655000D01*
G75*
G02*
X154515000Y-171520000I135000J0D01*
G01*
X154885000Y-171520000D01*
G75*
G02*
X155020000Y-171655000I0J-135000D01*
G01*
X155020000Y-171925000D01*
G75*
G02*
X154885000Y-172060000I-135000J0D01*
G01*
G37*
G36*
X113357726Y-113004173D02*
G01*
X112685975Y-112332422D01*
X112968818Y-112049579D01*
X113640569Y-112721330D01*
X113357726Y-113004173D01*
G37*
G36*
X112403132Y-112049579D02*
G01*
X111731381Y-111377828D01*
X112014224Y-111094985D01*
X112685975Y-111766736D01*
X112403132Y-112049579D01*
G37*
G36*
X111766736Y-112685975D02*
G01*
X111094985Y-112014224D01*
X111377828Y-111731381D01*
X112049579Y-112403132D01*
X111766736Y-112685975D01*
G37*
G36*
X112721330Y-113640569D02*
G01*
X112049579Y-112968818D01*
X112332422Y-112685975D01*
X113004173Y-113357726D01*
X112721330Y-113640569D01*
G37*
G36*
X113251660Y-114170899D02*
G01*
X113004173Y-113923412D01*
X113923412Y-113004173D01*
X114170899Y-113251660D01*
X113251660Y-114170899D01*
G37*
G36*
X113923412Y-112438487D02*
G01*
X112297067Y-110812142D01*
X112544554Y-110564655D01*
X114170899Y-112191000D01*
X113923412Y-112438487D01*
G37*
G36*
X110812142Y-111731381D02*
G01*
X110564655Y-111483894D01*
X111483894Y-110564655D01*
X111731381Y-110812142D01*
X110812142Y-111731381D01*
G37*
G36*
X112191000Y-114170899D02*
G01*
X110564655Y-112544554D01*
X110812142Y-112297067D01*
X112438487Y-113923412D01*
X112191000Y-114170899D01*
G37*
G36*
X113004173Y-186642273D02*
G01*
X112332422Y-187314024D01*
X112049579Y-187031181D01*
X112721330Y-186359430D01*
X113004173Y-186642273D01*
G37*
G36*
X112049579Y-187596867D02*
G01*
X111377828Y-188268618D01*
X111094985Y-187985775D01*
X111766736Y-187314024D01*
X112049579Y-187596867D01*
G37*
G36*
X112685975Y-188233263D02*
G01*
X112014224Y-188905014D01*
X111731381Y-188622171D01*
X112403132Y-187950420D01*
X112685975Y-188233263D01*
G37*
G36*
X113640569Y-187278669D02*
G01*
X112968818Y-187950420D01*
X112685975Y-187667577D01*
X113357726Y-186995826D01*
X113640569Y-187278669D01*
G37*
G36*
X114170899Y-186748339D02*
G01*
X113923412Y-186995826D01*
X113004173Y-186076587D01*
X113251660Y-185829100D01*
X114170899Y-186748339D01*
G37*
G36*
X112438487Y-186076587D02*
G01*
X110812142Y-187702932D01*
X110564655Y-187455445D01*
X112191000Y-185829100D01*
X112438487Y-186076587D01*
G37*
G36*
X111731381Y-189187857D02*
G01*
X111483894Y-189435344D01*
X110564655Y-188516105D01*
X110812142Y-188268618D01*
X111731381Y-189187857D01*
G37*
G36*
X114170899Y-187808999D02*
G01*
X112544554Y-189435344D01*
X112297067Y-189187857D01*
X113923412Y-187561512D01*
X114170899Y-187808999D01*
G37*
D18*
X141950000Y-143950000D03*
X144050000Y-143950000D03*
X144050000Y-142050000D03*
X141950000Y-142050000D03*
G36*
G01*
X103476847Y-167058421D02*
X103346735Y-166744302D01*
G75*
G02*
X103422502Y-166561383I129343J53576D01*
G01*
X103681188Y-166454232D01*
G75*
G02*
X103864107Y-166529999I53576J-129343D01*
G01*
X103994219Y-166844118D01*
G75*
G02*
X103918452Y-167027037I-129343J-53576D01*
G01*
X103659766Y-167134188D01*
G75*
G02*
X103476847Y-167058421I-53576J129343D01*
G01*
G37*
G36*
G01*
X104363771Y-166691045D02*
X104233659Y-166376926D01*
G75*
G02*
X104309426Y-166194007I129343J53576D01*
G01*
X104568112Y-166086856D01*
G75*
G02*
X104751031Y-166162623I53576J-129343D01*
G01*
X104881143Y-166476742D01*
G75*
G02*
X104805376Y-166659661I-129343J-53576D01*
G01*
X104546690Y-166766812D01*
G75*
G02*
X104363771Y-166691045I-53576J129343D01*
G01*
G37*
G36*
G01*
X157220000Y-146185000D02*
X157220000Y-145815000D01*
G75*
G02*
X157355000Y-145680000I135000J0D01*
G01*
X157625000Y-145680000D01*
G75*
G02*
X157760000Y-145815000I0J-135000D01*
G01*
X157760000Y-146185000D01*
G75*
G02*
X157625000Y-146320000I-135000J0D01*
G01*
X157355000Y-146320000D01*
G75*
G02*
X157220000Y-146185000I0J135000D01*
G01*
G37*
G36*
G01*
X158240000Y-146185000D02*
X158240000Y-145815000D01*
G75*
G02*
X158375000Y-145680000I135000J0D01*
G01*
X158645000Y-145680000D01*
G75*
G02*
X158780000Y-145815000I0J-135000D01*
G01*
X158780000Y-146185000D01*
G75*
G02*
X158645000Y-146320000I-135000J0D01*
G01*
X158375000Y-146320000D01*
G75*
G02*
X158240000Y-146185000I0J135000D01*
G01*
G37*
G36*
G01*
X147085000Y-173080000D02*
X146715000Y-173080000D01*
G75*
G02*
X146580000Y-172945000I0J135000D01*
G01*
X146580000Y-172675000D01*
G75*
G02*
X146715000Y-172540000I135000J0D01*
G01*
X147085000Y-172540000D01*
G75*
G02*
X147220000Y-172675000I0J-135000D01*
G01*
X147220000Y-172945000D01*
G75*
G02*
X147085000Y-173080000I-135000J0D01*
G01*
G37*
G36*
G01*
X147085000Y-172060000D02*
X146715000Y-172060000D01*
G75*
G02*
X146580000Y-171925000I0J135000D01*
G01*
X146580000Y-171655000D01*
G75*
G02*
X146715000Y-171520000I135000J0D01*
G01*
X147085000Y-171520000D01*
G75*
G02*
X147220000Y-171655000I0J-135000D01*
G01*
X147220000Y-171925000D01*
G75*
G02*
X147085000Y-172060000I-135000J0D01*
G01*
G37*
G36*
G01*
X138700000Y-175000000D02*
X138700000Y-174700000D01*
G75*
G02*
X138850000Y-174550000I150000J0D01*
G01*
X139875000Y-174550000D01*
G75*
G02*
X140025000Y-174700000I0J-150000D01*
G01*
X140025000Y-175000000D01*
G75*
G02*
X139875000Y-175150000I-150000J0D01*
G01*
X138850000Y-175150000D01*
G75*
G02*
X138700000Y-175000000I0J150000D01*
G01*
G37*
G36*
G01*
X138700000Y-175950000D02*
X138700000Y-175650000D01*
G75*
G02*
X138850000Y-175500000I150000J0D01*
G01*
X139875000Y-175500000D01*
G75*
G02*
X140025000Y-175650000I0J-150000D01*
G01*
X140025000Y-175950000D01*
G75*
G02*
X139875000Y-176100000I-150000J0D01*
G01*
X138850000Y-176100000D01*
G75*
G02*
X138700000Y-175950000I0J150000D01*
G01*
G37*
G36*
G01*
X138700000Y-176900000D02*
X138700000Y-176600000D01*
G75*
G02*
X138850000Y-176450000I150000J0D01*
G01*
X139875000Y-176450000D01*
G75*
G02*
X140025000Y-176600000I0J-150000D01*
G01*
X140025000Y-176900000D01*
G75*
G02*
X139875000Y-177050000I-150000J0D01*
G01*
X138850000Y-177050000D01*
G75*
G02*
X138700000Y-176900000I0J150000D01*
G01*
G37*
G36*
G01*
X140975000Y-176900000D02*
X140975000Y-176600000D01*
G75*
G02*
X141125000Y-176450000I150000J0D01*
G01*
X142150000Y-176450000D01*
G75*
G02*
X142300000Y-176600000I0J-150000D01*
G01*
X142300000Y-176900000D01*
G75*
G02*
X142150000Y-177050000I-150000J0D01*
G01*
X141125000Y-177050000D01*
G75*
G02*
X140975000Y-176900000I0J150000D01*
G01*
G37*
G36*
G01*
X140975000Y-175950000D02*
X140975000Y-175650000D01*
G75*
G02*
X141125000Y-175500000I150000J0D01*
G01*
X142150000Y-175500000D01*
G75*
G02*
X142300000Y-175650000I0J-150000D01*
G01*
X142300000Y-175950000D01*
G75*
G02*
X142150000Y-176100000I-150000J0D01*
G01*
X141125000Y-176100000D01*
G75*
G02*
X140975000Y-175950000I0J150000D01*
G01*
G37*
G36*
G01*
X140975000Y-175000000D02*
X140975000Y-174700000D01*
G75*
G02*
X141125000Y-174550000I150000J0D01*
G01*
X142150000Y-174550000D01*
G75*
G02*
X142300000Y-174700000I0J-150000D01*
G01*
X142300000Y-175000000D01*
G75*
G02*
X142150000Y-175150000I-150000J0D01*
G01*
X141125000Y-175150000D01*
G75*
G02*
X140975000Y-175000000I0J150000D01*
G01*
G37*
D10*
X146860000Y-164602000D03*
G36*
G01*
X107986690Y-126692669D02*
X107845097Y-127034504D01*
G75*
G02*
X107668711Y-127107566I-124724J51662D01*
G01*
X107419264Y-127004241D01*
G75*
G02*
X107346202Y-126827855I51662J124724D01*
G01*
X107487795Y-126486020D01*
G75*
G02*
X107664181Y-126412958I124724J-51662D01*
G01*
X107913628Y-126516283D01*
G75*
G02*
X107986690Y-126692669I-51662J-124724D01*
G01*
G37*
G36*
G01*
X107044332Y-126302331D02*
X106902739Y-126644166D01*
G75*
G02*
X106726353Y-126717228I-124724J51662D01*
G01*
X106476906Y-126613903D01*
G75*
G02*
X106403844Y-126437517I51662J124724D01*
G01*
X106545437Y-126095682D01*
G75*
G02*
X106721823Y-126022620I124724J-51662D01*
G01*
X106971270Y-126125945D01*
G75*
G02*
X107044332Y-126302331I-51662J-124724D01*
G01*
G37*
G36*
G01*
X142740000Y-169970000D02*
X142740000Y-169630000D01*
G75*
G02*
X142880000Y-169490000I140000J0D01*
G01*
X143160000Y-169490000D01*
G75*
G02*
X143300000Y-169630000I0J-140000D01*
G01*
X143300000Y-169970000D01*
G75*
G02*
X143160000Y-170110000I-140000J0D01*
G01*
X142880000Y-170110000D01*
G75*
G02*
X142740000Y-169970000I0J140000D01*
G01*
G37*
G36*
G01*
X143700000Y-169970000D02*
X143700000Y-169630000D01*
G75*
G02*
X143840000Y-169490000I140000J0D01*
G01*
X144120000Y-169490000D01*
G75*
G02*
X144260000Y-169630000I0J-140000D01*
G01*
X144260000Y-169970000D01*
G75*
G02*
X144120000Y-170110000I-140000J0D01*
G01*
X143840000Y-170110000D01*
G75*
G02*
X143700000Y-169970000I0J140000D01*
G01*
G37*
G36*
G01*
X182240533Y-117497837D02*
X182502162Y-117759466D01*
G75*
G02*
X182502162Y-117950384I-95459J-95459D01*
G01*
X182311243Y-118141303D01*
G75*
G02*
X182120325Y-118141303I-95459J95459D01*
G01*
X181858696Y-117879674D01*
G75*
G02*
X181858696Y-117688756I95459J95459D01*
G01*
X182049615Y-117497837D01*
G75*
G02*
X182240533Y-117497837I95459J-95459D01*
G01*
G37*
G36*
G01*
X181519285Y-118219085D02*
X181780914Y-118480714D01*
G75*
G02*
X181780914Y-118671632I-95459J-95459D01*
G01*
X181589995Y-118862551D01*
G75*
G02*
X181399077Y-118862551I-95459J95459D01*
G01*
X181137448Y-118600922D01*
G75*
G02*
X181137448Y-118410004I95459J95459D01*
G01*
X181328367Y-118219085D01*
G75*
G02*
X181519285Y-118219085I95459J-95459D01*
G01*
G37*
G36*
G01*
X186890132Y-125922080D02*
X186362341Y-125132183D01*
G75*
G02*
X186431315Y-124785423I207867J138893D01*
G01*
X186847050Y-124507638D01*
G75*
G02*
X187193810Y-124576612I138893J-207867D01*
G01*
X187721601Y-125366509D01*
G75*
G02*
X187652627Y-125713269I-207867J-138893D01*
G01*
X187236892Y-125991054D01*
G75*
G02*
X186890132Y-125922080I-138893J207867D01*
G01*
G37*
G36*
G01*
X188469924Y-124866496D02*
X187942133Y-124076599D01*
G75*
G02*
X188011107Y-123729839I207867J138893D01*
G01*
X188426842Y-123452054D01*
G75*
G02*
X188773602Y-123521028I138893J-207867D01*
G01*
X189301393Y-124310925D01*
G75*
G02*
X189232419Y-124657685I-207867J-138893D01*
G01*
X188816684Y-124935470D01*
G75*
G02*
X188469924Y-124866496I-138893J207867D01*
G01*
G37*
G36*
G01*
X167690165Y-192224408D02*
X167348330Y-192366001D01*
G75*
G02*
X167171944Y-192292939I-51662J124724D01*
G01*
X167068619Y-192043492D01*
G75*
G02*
X167141681Y-191867106I124724J51662D01*
G01*
X167483516Y-191725513D01*
G75*
G02*
X167659902Y-191798575I51662J-124724D01*
G01*
X167763227Y-192048022D01*
G75*
G02*
X167690165Y-192224408I-124724J-51662D01*
G01*
G37*
G36*
G01*
X167299827Y-191282050D02*
X166957992Y-191423643D01*
G75*
G02*
X166781606Y-191350581I-51662J124724D01*
G01*
X166678281Y-191101134D01*
G75*
G02*
X166751343Y-190924748I124724J51662D01*
G01*
X167093178Y-190783155D01*
G75*
G02*
X167269564Y-190856217I51662J-124724D01*
G01*
X167372889Y-191105664D01*
G75*
G02*
X167299827Y-191282050I-124724J-51662D01*
G01*
G37*
D11*
X174145000Y-130830999D03*
G36*
G01*
X137720000Y-151185000D02*
X137720000Y-150815000D01*
G75*
G02*
X137855000Y-150680000I135000J0D01*
G01*
X138125000Y-150680000D01*
G75*
G02*
X138260000Y-150815000I0J-135000D01*
G01*
X138260000Y-151185000D01*
G75*
G02*
X138125000Y-151320000I-135000J0D01*
G01*
X137855000Y-151320000D01*
G75*
G02*
X137720000Y-151185000I0J135000D01*
G01*
G37*
G36*
G01*
X138740000Y-151185000D02*
X138740000Y-150815000D01*
G75*
G02*
X138875000Y-150680000I135000J0D01*
G01*
X139145000Y-150680000D01*
G75*
G02*
X139280000Y-150815000I0J-135000D01*
G01*
X139280000Y-151185000D01*
G75*
G02*
X139145000Y-151320000I-135000J0D01*
G01*
X138875000Y-151320000D01*
G75*
G02*
X138740000Y-151185000I0J135000D01*
G01*
G37*
G36*
G01*
X102265432Y-144544631D02*
X102265432Y-144914631D01*
G75*
G02*
X102130432Y-145049631I-135000J0D01*
G01*
X101860432Y-145049631D01*
G75*
G02*
X101725432Y-144914631I0J135000D01*
G01*
X101725432Y-144544631D01*
G75*
G02*
X101860432Y-144409631I135000J0D01*
G01*
X102130432Y-144409631D01*
G75*
G02*
X102265432Y-144544631I0J-135000D01*
G01*
G37*
G36*
G01*
X101245432Y-144544631D02*
X101245432Y-144914631D01*
G75*
G02*
X101110432Y-145049631I-135000J0D01*
G01*
X100840432Y-145049631D01*
G75*
G02*
X100705432Y-144914631I0J135000D01*
G01*
X100705432Y-144544631D01*
G75*
G02*
X100840432Y-144409631I135000J0D01*
G01*
X101110432Y-144409631D01*
G75*
G02*
X101245432Y-144544631I0J-135000D01*
G01*
G37*
D19*
X165240000Y-179190000D03*
D20*
X165240000Y-181730000D03*
X162700000Y-179190000D03*
X162700000Y-181730000D03*
X160160000Y-179190000D03*
X160160000Y-181730000D03*
X157620000Y-179190000D03*
X157620000Y-181730000D03*
X155080000Y-179190000D03*
X155080000Y-181730000D03*
X152540000Y-179190000D03*
X152540000Y-181730000D03*
X150000000Y-179190000D03*
X150000000Y-181730000D03*
X147460000Y-179190000D03*
X147460000Y-181730000D03*
X144920000Y-179190000D03*
X144920000Y-181730000D03*
X142380000Y-179190000D03*
X142380000Y-181730000D03*
X139840000Y-179190000D03*
X139840000Y-181730000D03*
X137300000Y-179190000D03*
X137300000Y-181730000D03*
X134760000Y-179190000D03*
X134760000Y-181730000D03*
D19*
X189210000Y-138570000D03*
D20*
X186670000Y-138570000D03*
X184130000Y-138570000D03*
X181590000Y-138570000D03*
X179050000Y-138570000D03*
X176510000Y-138570000D03*
X173970000Y-138570000D03*
X171430000Y-138570000D03*
X168890000Y-138570000D03*
X166350000Y-138570000D03*
X163810000Y-138570000D03*
X161270000Y-138570000D03*
X158730000Y-138570000D03*
X156190000Y-138570000D03*
X153650000Y-138570000D03*
X151110000Y-138570000D03*
X148570000Y-138570000D03*
X146030000Y-138570000D03*
X143490000Y-138570000D03*
X140950000Y-138570000D03*
X138410000Y-138570000D03*
X135870000Y-138570000D03*
X133330000Y-138570000D03*
X130790000Y-138570000D03*
D19*
X189210000Y-161430000D03*
D20*
X186670000Y-161430000D03*
X184130000Y-161430000D03*
X181590000Y-161430000D03*
X179050000Y-161430000D03*
X176510000Y-161430000D03*
X173970000Y-161430000D03*
X171430000Y-161430000D03*
X168890000Y-161430000D03*
X166350000Y-161430000D03*
X163810000Y-161430000D03*
X161270000Y-161430000D03*
X158730000Y-161430000D03*
X156190000Y-161430000D03*
X153650000Y-161430000D03*
X151110000Y-161430000D03*
X148570000Y-161430000D03*
X146030000Y-161430000D03*
X143490000Y-161430000D03*
X140950000Y-161430000D03*
X138410000Y-161430000D03*
X135870000Y-161430000D03*
X133330000Y-161430000D03*
X130790000Y-161430000D03*
M02*
