M48
; DRILL file KiCad 10.0.5 date 2026-08-16T13:39:25
; FORMAT={-:-/ absolute / metric / decimal}
; #@! TF.CreationDate,2026-08-16T13:39:25-07:00
; #@! TF.GenerationSoftware,Kicad,Pcbnew,10.0.5
; #@! TF.FileFunction,Plated,1,4,PTH
FMAT,2
METRIC
; #@! TA.AperFunction,Plated,PTH,ViaDrill
T1C0.300
; #@! TA.AperFunction,Plated,PTH,ComponentDrill
T2C1.000
%
G90
G05
T1
X93.93Y-150.0
X96.78Y-147.95
X98.198Y-128.543
X98.198Y-171.457
X98.374Y-151.885
X99.63Y-150.0
X100.047Y-168.472
X101.582Y-131.985
X101.616Y-127.74
X102.779Y-147.834
X103.025Y-171.498
X103.464Y-130.724
X103.464Y-169.276
X105.545Y-166.07
X106.959Y-145.275
X107.202Y-129.929
X108.427Y-162.105
X108.5Y-150.0
X110.353Y-110.353
X110.353Y-189.647
X110.458Y-177.183
X110.918Y-186.183
X111.659Y-134.119
X112.043Y-129.163
X112.162Y-114.828
X112.213Y-165.652
X113.817Y-110.918
X113.997Y-174.056
X114.383Y-114.383
X114.383Y-185.617
X114.828Y-187.838
X115.078Y-181.859
X116.224Y-177.093
X118.141Y-115.078
X121.079Y-121.079
X121.079Y-178.921
X122.869Y-110.493
X122.907Y-116.224
X125.944Y-113.997
X127.74Y-198.384
X128.502Y-103.025
X128.543Y-98.198
X128.543Y-201.802
X129.163Y-187.957
X129.929Y-192.798
X130.724Y-103.464
X130.724Y-196.536
X131.528Y-100.047
X131.985Y-198.418
X132.7Y-162.9
X133.93Y-105.545
X134.119Y-111.659
X134.119Y-188.341
X135.5Y-171.7
X135.9Y-176.0
X137.1Y-174.8
X137.8Y-168.6
X137.8Y-170.3
X137.8Y-171.7
X137.895Y-108.427
X138.062Y-175.8
X139.0Y-163.0
X139.8Y-147.8
X139.8Y-150.2
X139.8Y-183.6
X140.6Y-144.2
X141.3Y-145.8
X141.8Y-168.3
X142.7Y-172.3
X143.0Y-175.5
X143.0Y-177.2
X143.3Y-171.7
X143.7Y-150.2
X143.7Y-174.6
X144.4Y-150.1
X144.45Y-168.45
X144.535Y-146.8
X145.275Y-193.041
X145.425Y-143.95
X145.43Y-169.8
X145.625Y-150.075
X145.625Y-155.925
X146.1Y-175.1
X146.2Y-173.6
X146.2Y-180.1
X146.3Y-183.1
X146.562Y-175.8
X147.834Y-197.221
X147.9Y-171.7
X147.95Y-203.22
X148.115Y-98.374
X149.275Y-168.45
X150.0Y-93.93
X150.0Y-99.63
X150.0Y-109.1
X150.0Y-191.5
X150.0Y-200.37
X150.0Y-206.07
X151.1Y-171.7
X151.3Y-149.0
X151.535Y-159.2
X151.885Y-201.626
X152.05Y-96.78
X152.166Y-102.779
X152.3Y-176.1
X153.1Y-171.7
X153.312Y-167.0
X153.7Y-176.5
X153.8Y-170.3
X153.8Y-183.2
X154.0Y-127.525
X154.375Y-150.725
X154.725Y-106.959
X155.1Y-150.4
X155.1Y-155.9
X155.9Y-165.4
X156.2Y-159.2
X157.0Y-129.525
X158.275Y-168.45
X159.9Y-169.8
X161.8Y-169.3
X161.9Y-170.3
X161.9Y-171.7
X162.105Y-191.573
X163.1Y-170.2
X165.652Y-187.787
X165.881Y-111.659
X166.07Y-194.455
X167.275Y-168.45
X168.015Y-101.582
X168.2Y-176.5
X168.472Y-199.953
X169.276Y-103.464
X169.276Y-196.536
X169.8Y-176.5
X170.071Y-107.202
X170.837Y-112.043
X171.457Y-98.198
X171.457Y-201.802
X171.498Y-196.975
X172.26Y-101.616
X172.7Y-150.3
X172.7Y-151.7
X174.056Y-186.003
X175.1Y-139.6
X175.1Y-140.9
X177.093Y-183.776
X177.131Y-189.507
X178.921Y-121.079
X178.921Y-178.921
X181.859Y-184.922
X183.776Y-122.907
X184.922Y-118.141
X185.172Y-112.162
X185.617Y-114.383
X185.617Y-185.617
X186.003Y-125.944
X186.183Y-189.082
X187.787Y-134.348
X187.838Y-185.172
X187.957Y-170.837
X188.341Y-165.881
X189.082Y-113.817
X189.542Y-122.817
X189.647Y-110.353
X189.647Y-189.647
X191.5Y-150.0
X191.573Y-137.895
X192.798Y-170.071
X193.041Y-154.725
X194.455Y-133.93
X196.536Y-130.724
X196.536Y-169.276
X196.975Y-128.502
X197.221Y-152.166
X198.384Y-172.26
X198.418Y-168.015
X199.953Y-131.528
X200.37Y-150.0
X201.626Y-148.115
X201.802Y-128.543
X201.802Y-171.457
X203.22Y-152.05
X206.07Y-150.0
T2
X130.79Y-138.57
X130.79Y-161.43
X133.33Y-138.57
X133.33Y-161.43
X134.76Y-179.19
X134.76Y-181.73
X135.87Y-138.57
X135.87Y-161.43
X137.3Y-179.19
X137.3Y-181.73
X138.41Y-138.57
X138.41Y-161.43
X139.84Y-179.19
X139.84Y-181.73
X140.95Y-138.57
X140.95Y-161.43
X142.38Y-179.19
X142.38Y-181.73
X143.49Y-138.57
X143.49Y-161.43
X144.92Y-179.19
X144.92Y-181.73
X146.03Y-138.57
X146.03Y-161.43
X147.46Y-179.19
X147.46Y-181.73
X148.57Y-138.57
X148.57Y-161.43
X150.0Y-179.19
X150.0Y-181.73
X151.11Y-138.57
X151.11Y-161.43
X152.54Y-179.19
X152.54Y-181.73
X153.65Y-138.57
X153.65Y-161.43
X155.08Y-179.19
X155.08Y-181.73
X156.19Y-138.57
X156.19Y-161.43
X157.62Y-179.19
X157.62Y-181.73
X158.73Y-138.57
X158.73Y-161.43
X160.16Y-179.19
X160.16Y-181.73
X161.27Y-138.57
X161.27Y-161.43
X162.7Y-179.19
X162.7Y-181.73
X163.81Y-138.57
X163.81Y-161.43
X165.24Y-179.19
X165.24Y-181.73
X166.35Y-138.57
X166.35Y-161.43
X168.89Y-138.57
X168.89Y-161.43
X171.43Y-138.57
X171.43Y-161.43
X173.97Y-138.57
X173.97Y-161.43
X176.51Y-138.57
X176.51Y-161.43
X179.05Y-138.57
X179.05Y-161.43
X181.59Y-138.57
X181.59Y-161.43
X184.13Y-138.57
X184.13Y-161.43
X186.67Y-138.57
X186.67Y-161.43
X189.21Y-138.57
X189.21Y-161.43
M30
