%TF.GenerationSoftware,KiCad,Pcbnew,10.0.5*%
%TF.CreationDate,2026-08-05T00:19:12-07:00*%
%TF.ProjectId,microphone_array_v2,6d696372-6f70-4686-9f6e-655f61727261,A*%
%TF.SameCoordinates,Original*%
%TF.FileFunction,Legend,Top*%
%TF.FilePolarity,Positive*%
%FSLAX46Y46*%
G04 Gerber Fmt 4.6, Leading zero omitted, Abs format (unit mm)*
G04 Created by KiCad (PCBNEW 10.0.5) date 2026-08-05 00:19:12*
%MOMM*%
%LPD*%
G01*
G04 APERTURE LIST*
G04 Aperture macros list*
%AMRoundRect*
0 Rectangle with rounded corners*
0 $1 Rounding radius*
0 $2 $3 $4 $5 $6 $7 $8 $9 X,Y pos of 4 corners*
0 Add a 4 corners polygon primitive as box body*
4,1,4,$2,$3,$4,$5,$6,$7,$8,$9,$2,$3,0*
0 Add four circle primitives for the rounded corners*
1,1,$1+$1,$2,$3*
1,1,$1+$1,$4,$5*
1,1,$1+$1,$6,$7*
1,1,$1+$1,$8,$9*
0 Add four rect primitives between the rounded corners*
20,1,$1+$1,$2,$3,$4,$5,0*
20,1,$1+$1,$4,$5,$6,$7,0*
20,1,$1+$1,$6,$7,$8,$9,0*
20,1,$1+$1,$8,$9,$2,$3,0*%
%AMRotRect*
0 Rectangle, with rotation*
0 The origin of the aperture is its center*
0 $1 length*
0 $2 width*
0 $3 Rotation angle, in degrees counterclockwise*
0 Add horizontal line*
21,1,$1,$2,0,0,$3*%
G04 Aperture macros list end*
%ADD10C,0.150000*%
%ADD11C,0.160000*%
%ADD12C,0.120000*%
%ADD13C,0.225000*%
%ADD14C,0.224999*%
%ADD15RoundRect,0.140000X0.170000X-0.140000X0.170000X0.140000X-0.170000X0.140000X-0.170000X-0.140000X0*%
%ADD16RoundRect,0.135000X0.185000X-0.135000X0.185000X0.135000X-0.185000X0.135000X-0.185000X-0.135000X0*%
%ADD17RoundRect,0.135000X-0.119255X0.195520X-0.222580X-0.053927X0.119255X-0.195520X0.222580X0.053927X0*%
%ADD18RoundRect,0.135000X-0.135000X-0.185000X0.135000X-0.185000X0.135000X0.185000X-0.135000X0.185000X0*%
%ADD19RoundRect,0.225000X-0.225000X-0.250000X0.225000X-0.250000X0.225000X0.250000X-0.225000X0.250000X0*%
%ADD20RoundRect,0.250000X-0.250000X-0.475000X0.250000X-0.475000X0.250000X0.475000X-0.250000X0.475000X0*%
%ADD21C,1.000000*%
%ADD22C,3.200000*%
%ADD23RoundRect,0.135000X0.226274X0.035355X0.035355X0.226274X-0.226274X-0.035355X-0.035355X-0.226274X0*%
%ADD24RoundRect,0.150000X-0.512500X-0.150000X0.512500X-0.150000X0.512500X0.150000X-0.512500X0.150000X0*%
%ADD25RoundRect,0.135000X-0.185000X0.135000X-0.185000X-0.135000X0.185000X-0.135000X0.185000X0.135000X0*%
%ADD26R,0.400000X0.950000*%
%ADD27R,1.300000X0.350000*%
%ADD28R,0.350000X2.300000*%
%ADD29RoundRect,0.140000X0.021213X-0.219203X0.219203X-0.021213X-0.021213X0.219203X-0.219203X0.021213X0*%
%ADD30RotRect,0.400000X0.950000X112.500000*%
%ADD31RotRect,1.300000X0.350000X112.500000*%
%ADD32RotRect,0.350000X2.300000X112.500000*%
%ADD33RoundRect,0.140000X0.140000X0.170000X-0.140000X0.170000X-0.140000X-0.170000X0.140000X-0.170000X0*%
%ADD34RoundRect,0.135000X-0.053927X-0.222580X0.195520X-0.119255X0.053927X0.222580X-0.195520X0.119255X0*%
%ADD35C,1.500000*%
%ADD36RoundRect,0.250000X1.000000X0.650000X-1.000000X0.650000X-1.000000X-0.650000X1.000000X-0.650000X0*%
%ADD37RoundRect,0.135000X0.195520X0.119255X-0.053927X0.222580X-0.195520X-0.119255X0.053927X-0.222580X0*%
%ADD38RoundRect,0.135000X0.135000X0.185000X-0.135000X0.185000X-0.135000X-0.185000X0.135000X-0.185000X0*%
%ADD39RoundRect,0.135000X-0.222580X0.053927X-0.119255X-0.195520X0.222580X-0.053927X0.119255X0.195520X0*%
%ADD40RotRect,0.400000X0.950000X67.500000*%
%ADD41RotRect,1.300000X0.350000X67.500000*%
%ADD42RotRect,0.350000X2.300000X67.500000*%
%ADD43RoundRect,0.140000X-0.140000X-0.170000X0.140000X-0.170000X0.140000X0.170000X-0.140000X0.170000X0*%
%ADD44RotRect,0.400000X0.950000X247.500000*%
%ADD45RotRect,1.300000X0.350000X247.500000*%
%ADD46RotRect,0.350000X2.300000X247.500000*%
%ADD47RotRect,0.400000X0.950000X135.000000*%
%ADD48RotRect,1.300000X0.350000X135.000000*%
%ADD49RotRect,0.350000X2.300000X135.000000*%
%ADD50RoundRect,0.135000X-0.035355X0.226274X-0.226274X0.035355X0.035355X-0.226274X0.226274X-0.035355X0*%
%ADD51RoundRect,0.135000X-0.226274X-0.035355X-0.035355X-0.226274X0.226274X0.035355X0.035355X0.226274X0*%
%ADD52RoundRect,0.140000X0.219203X0.021213X0.021213X0.219203X-0.219203X-0.021213X-0.021213X-0.219203X0*%
%ADD53RoundRect,0.140000X0.064287X0.210635X-0.194399X0.103484X-0.064287X-0.210635X0.194399X-0.103484X0*%
%ADD54RoundRect,0.135000X0.222580X-0.053927X0.119255X0.195520X-0.222580X0.053927X-0.119255X-0.195520X0*%
%ADD55R,0.950000X0.400000*%
%ADD56R,0.350000X1.300000*%
%ADD57R,2.300000X0.350000*%
%ADD58RotRect,0.400000X0.950000X157.500000*%
%ADD59RotRect,1.300000X0.350000X157.500000*%
%ADD60RotRect,0.350000X2.300000X157.500000*%
%ADD61RoundRect,0.135000X-0.195520X-0.119255X0.053927X-0.222580X0.195520X0.119255X-0.053927X0.222580X0*%
%ADD62RotRect,0.400000X0.950000X225.000000*%
%ADD63RotRect,1.300000X0.350000X225.000000*%
%ADD64RotRect,0.350000X2.300000X225.000000*%
%ADD65RotRect,0.400000X0.950000X292.500000*%
%ADD66RotRect,1.300000X0.350000X292.500000*%
%ADD67RotRect,0.350000X2.300000X292.500000*%
%ADD68RotRect,0.400000X0.950000X45.000000*%
%ADD69RotRect,1.300000X0.350000X45.000000*%
%ADD70RotRect,0.350000X2.300000X45.000000*%
%ADD71RoundRect,0.135000X0.119255X-0.195520X0.222580X0.053927X-0.119255X0.195520X-0.222580X-0.053927X0*%
%ADD72RoundRect,0.135000X0.053927X0.222580X-0.195520X0.119255X-0.053927X-0.222580X0.195520X-0.119255X0*%
%ADD73RotRect,0.400000X0.950000X337.500000*%
%ADD74RotRect,1.300000X0.350000X337.500000*%
%ADD75RotRect,0.350000X2.300000X337.500000*%
%ADD76RoundRect,0.140000X0.210635X-0.064287X0.103484X0.194399X-0.210635X0.064287X-0.103484X-0.194399X0*%
%ADD77RoundRect,0.250000X0.056028X-0.533841X0.471763X-0.256056X-0.056028X0.533841X-0.471763X0.256056X0*%
%ADD78RoundRect,0.140000X-0.103484X0.194399X-0.210635X-0.064287X0.103484X-0.194399X0.210635X0.064287X0*%
%ADD79RoundRect,0.140000X-0.170000X0.140000X-0.170000X-0.140000X0.170000X-0.140000X0.170000X0.140000X0*%
%ADD80RoundRect,0.140000X-0.064287X-0.210635X0.194399X-0.103484X0.064287X0.210635X-0.194399X0.103484X0*%
%ADD81RoundRect,0.140000X0.194399X0.103484X-0.064287X0.210635X-0.194399X-0.103484X0.064287X-0.210635X0*%
%ADD82RoundRect,0.140000X-0.194399X-0.103484X0.064287X-0.210635X0.194399X0.103484X-0.064287X0.210635X0*%
%ADD83RotRect,0.400000X0.950000X202.500000*%
%ADD84RotRect,1.300000X0.350000X202.500000*%
%ADD85RotRect,0.350000X2.300000X202.500000*%
%ADD86RoundRect,0.140000X-0.210635X0.064287X-0.103484X-0.194399X0.210635X-0.064287X0.103484X0.194399X0*%
%ADD87RoundRect,0.140000X-0.219203X-0.021213X-0.021213X-0.219203X0.219203X0.021213X0.021213X0.219203X0*%
%ADD88RoundRect,0.140000X0.103484X-0.194399X0.210635X0.064287X-0.103484X0.194399X-0.210635X-0.064287X0*%
%ADD89RoundRect,0.250000X-0.312500X-1.450000X0.312500X-1.450000X0.312500X1.450000X-0.312500X1.450000X0*%
%ADD90RoundRect,0.140000X-0.021213X0.219203X-0.219203X0.021213X0.021213X-0.219203X0.219203X-0.021213X0*%
%ADD91RoundRect,0.250000X-0.056028X0.533841X-0.471763X0.256056X0.056028X-0.533841X0.471763X-0.256056X0*%
%ADD92RoundRect,0.218750X-0.218750X-0.381250X0.218750X-0.381250X0.218750X0.381250X-0.218750X0.381250X0*%
%ADD93RoundRect,0.135000X0.035355X-0.226274X0.226274X-0.035355X-0.035355X0.226274X-0.226274X0.035355X0*%
%ADD94RoundRect,0.100000X-0.637500X-0.100000X0.637500X-0.100000X0.637500X0.100000X-0.637500X0.100000X0*%
%ADD95RotRect,0.400000X0.950000X22.500000*%
%ADD96RotRect,1.300000X0.350000X22.500000*%
%ADD97RotRect,0.350000X2.300000X22.500000*%
%ADD98R,1.300000X1.200000*%
%ADD99RoundRect,0.250000X0.533841X0.056028X0.256056X0.471763X-0.533841X-0.056028X-0.256056X-0.471763X0*%
%ADD100RoundRect,0.250000X-0.533841X-0.056028X-0.256056X-0.471763X0.533841X0.056028X0.256056X0.471763X0*%
%ADD101RotRect,0.400000X0.950000X315.000000*%
%ADD102RotRect,1.300000X0.350000X315.000000*%
%ADD103RotRect,0.350000X2.300000X315.000000*%
%ADD104R,1.700000X1.700000*%
%ADD105C,1.700000*%
G04 APERTURE END LIST*
D10*
X91440476Y-150396319D02*
X91388095Y-150448700D01*
X91388095Y-150448700D02*
X91230952Y-150501080D01*
X91230952Y-150501080D02*
X91126190Y-150501080D01*
X91126190Y-150501080D02*
X90969047Y-150448700D01*
X90969047Y-150448700D02*
X90864285Y-150343938D01*
X90864285Y-150343938D02*
X90811904Y-150239176D01*
X90811904Y-150239176D02*
X90759523Y-150029652D01*
X90759523Y-150029652D02*
X90759523Y-149872509D01*
X90759523Y-149872509D02*
X90811904Y-149662985D01*
X90811904Y-149662985D02*
X90864285Y-149558223D01*
X90864285Y-149558223D02*
X90969047Y-149453461D01*
X90969047Y-149453461D02*
X91126190Y-149401080D01*
X91126190Y-149401080D02*
X91230952Y-149401080D01*
X91230952Y-149401080D02*
X91388095Y-149453461D01*
X91388095Y-149453461D02*
X91440476Y-149505842D01*
X91911904Y-150501080D02*
X91911904Y-149401080D01*
X91911904Y-149924890D02*
X92540476Y-149924890D01*
X92540476Y-150501080D02*
X92540476Y-149401080D01*
X93221428Y-149872509D02*
X93116666Y-149820128D01*
X93116666Y-149820128D02*
X93064285Y-149767747D01*
X93064285Y-149767747D02*
X93011904Y-149662985D01*
X93011904Y-149662985D02*
X93011904Y-149610604D01*
X93011904Y-149610604D02*
X93064285Y-149505842D01*
X93064285Y-149505842D02*
X93116666Y-149453461D01*
X93116666Y-149453461D02*
X93221428Y-149401080D01*
X93221428Y-149401080D02*
X93430952Y-149401080D01*
X93430952Y-149401080D02*
X93535714Y-149453461D01*
X93535714Y-149453461D02*
X93588095Y-149505842D01*
X93588095Y-149505842D02*
X93640476Y-149610604D01*
X93640476Y-149610604D02*
X93640476Y-149662985D01*
X93640476Y-149662985D02*
X93588095Y-149767747D01*
X93588095Y-149767747D02*
X93535714Y-149820128D01*
X93535714Y-149820128D02*
X93430952Y-149872509D01*
X93430952Y-149872509D02*
X93221428Y-149872509D01*
X93221428Y-149872509D02*
X93116666Y-149924890D01*
X93116666Y-149924890D02*
X93064285Y-149977271D01*
X93064285Y-149977271D02*
X93011904Y-150082033D01*
X93011904Y-150082033D02*
X93011904Y-150291557D01*
X93011904Y-150291557D02*
X93064285Y-150396319D01*
X93064285Y-150396319D02*
X93116666Y-150448700D01*
X93116666Y-150448700D02*
X93221428Y-150501080D01*
X93221428Y-150501080D02*
X93430952Y-150501080D01*
X93430952Y-150501080D02*
X93535714Y-150448700D01*
X93535714Y-150448700D02*
X93588095Y-150396319D01*
X93588095Y-150396319D02*
X93640476Y-150291557D01*
X93640476Y-150291557D02*
X93640476Y-150082033D01*
X93640476Y-150082033D02*
X93588095Y-149977271D01*
X93588095Y-149977271D02*
X93535714Y-149924890D01*
X93535714Y-149924890D02*
X93430952Y-149872509D01*
X95840239Y-128277216D02*
X95787858Y-128329597D01*
X95787858Y-128329597D02*
X95630715Y-128381977D01*
X95630715Y-128381977D02*
X95525953Y-128381977D01*
X95525953Y-128381977D02*
X95368810Y-128329597D01*
X95368810Y-128329597D02*
X95264048Y-128224835D01*
X95264048Y-128224835D02*
X95211667Y-128120073D01*
X95211667Y-128120073D02*
X95159286Y-127910549D01*
X95159286Y-127910549D02*
X95159286Y-127753406D01*
X95159286Y-127753406D02*
X95211667Y-127543882D01*
X95211667Y-127543882D02*
X95264048Y-127439120D01*
X95264048Y-127439120D02*
X95368810Y-127334358D01*
X95368810Y-127334358D02*
X95525953Y-127281977D01*
X95525953Y-127281977D02*
X95630715Y-127281977D01*
X95630715Y-127281977D02*
X95787858Y-127334358D01*
X95787858Y-127334358D02*
X95840239Y-127386739D01*
X96311667Y-128381977D02*
X96311667Y-127281977D01*
X96311667Y-127805787D02*
X96940239Y-127805787D01*
X96940239Y-128381977D02*
X96940239Y-127281977D01*
X97359286Y-127281977D02*
X98092620Y-127281977D01*
X98092620Y-127281977D02*
X97621191Y-128381977D01*
X95840239Y-172515421D02*
X95787858Y-172567802D01*
X95787858Y-172567802D02*
X95630715Y-172620182D01*
X95630715Y-172620182D02*
X95525953Y-172620182D01*
X95525953Y-172620182D02*
X95368810Y-172567802D01*
X95368810Y-172567802D02*
X95264048Y-172463040D01*
X95264048Y-172463040D02*
X95211667Y-172358278D01*
X95211667Y-172358278D02*
X95159286Y-172148754D01*
X95159286Y-172148754D02*
X95159286Y-171991611D01*
X95159286Y-171991611D02*
X95211667Y-171782087D01*
X95211667Y-171782087D02*
X95264048Y-171677325D01*
X95264048Y-171677325D02*
X95368810Y-171572563D01*
X95368810Y-171572563D02*
X95525953Y-171520182D01*
X95525953Y-171520182D02*
X95630715Y-171520182D01*
X95630715Y-171520182D02*
X95787858Y-171572563D01*
X95787858Y-171572563D02*
X95840239Y-171624944D01*
X96311667Y-172620182D02*
X96311667Y-171520182D01*
X96311667Y-172043992D02*
X96940239Y-172043992D01*
X96940239Y-172620182D02*
X96940239Y-171520182D01*
X97516429Y-172620182D02*
X97725953Y-172620182D01*
X97725953Y-172620182D02*
X97830715Y-172567802D01*
X97830715Y-172567802D02*
X97883096Y-172515421D01*
X97883096Y-172515421D02*
X97987858Y-172358278D01*
X97987858Y-172358278D02*
X98040239Y-172148754D01*
X98040239Y-172148754D02*
X98040239Y-171729706D01*
X98040239Y-171729706D02*
X97987858Y-171624944D01*
X97987858Y-171624944D02*
X97935477Y-171572563D01*
X97935477Y-171572563D02*
X97830715Y-171520182D01*
X97830715Y-171520182D02*
X97621191Y-171520182D01*
X97621191Y-171520182D02*
X97516429Y-171572563D01*
X97516429Y-171572563D02*
X97464048Y-171624944D01*
X97464048Y-171624944D02*
X97411667Y-171729706D01*
X97411667Y-171729706D02*
X97411667Y-171991611D01*
X97411667Y-171991611D02*
X97464048Y-172096373D01*
X97464048Y-172096373D02*
X97516429Y-172148754D01*
X97516429Y-172148754D02*
X97621191Y-172201135D01*
X97621191Y-172201135D02*
X97830715Y-172201135D01*
X97830715Y-172201135D02*
X97935477Y-172148754D01*
X97935477Y-172148754D02*
X97987858Y-172096373D01*
X97987858Y-172096373D02*
X98040239Y-171991611D01*
X108369704Y-109525547D02*
X108317323Y-109577928D01*
X108317323Y-109577928D02*
X108160180Y-109630308D01*
X108160180Y-109630308D02*
X108055418Y-109630308D01*
X108055418Y-109630308D02*
X107898275Y-109577928D01*
X107898275Y-109577928D02*
X107793513Y-109473166D01*
X107793513Y-109473166D02*
X107741132Y-109368404D01*
X107741132Y-109368404D02*
X107688751Y-109158880D01*
X107688751Y-109158880D02*
X107688751Y-109001737D01*
X107688751Y-109001737D02*
X107741132Y-108792213D01*
X107741132Y-108792213D02*
X107793513Y-108687451D01*
X107793513Y-108687451D02*
X107898275Y-108582689D01*
X107898275Y-108582689D02*
X108055418Y-108530308D01*
X108055418Y-108530308D02*
X108160180Y-108530308D01*
X108160180Y-108530308D02*
X108317323Y-108582689D01*
X108317323Y-108582689D02*
X108369704Y-108635070D01*
X108841132Y-109630308D02*
X108841132Y-108530308D01*
X108841132Y-109054118D02*
X109469704Y-109054118D01*
X109469704Y-109630308D02*
X109469704Y-108530308D01*
X110464942Y-108530308D02*
X110255418Y-108530308D01*
X110255418Y-108530308D02*
X110150656Y-108582689D01*
X110150656Y-108582689D02*
X110098275Y-108635070D01*
X110098275Y-108635070D02*
X109993513Y-108792213D01*
X109993513Y-108792213D02*
X109941132Y-109001737D01*
X109941132Y-109001737D02*
X109941132Y-109420785D01*
X109941132Y-109420785D02*
X109993513Y-109525547D01*
X109993513Y-109525547D02*
X110045894Y-109577928D01*
X110045894Y-109577928D02*
X110150656Y-109630308D01*
X110150656Y-109630308D02*
X110360180Y-109630308D01*
X110360180Y-109630308D02*
X110464942Y-109577928D01*
X110464942Y-109577928D02*
X110517323Y-109525547D01*
X110517323Y-109525547D02*
X110569704Y-109420785D01*
X110569704Y-109420785D02*
X110569704Y-109158880D01*
X110569704Y-109158880D02*
X110517323Y-109054118D01*
X110517323Y-109054118D02*
X110464942Y-109001737D01*
X110464942Y-109001737D02*
X110360180Y-108949356D01*
X110360180Y-108949356D02*
X110150656Y-108949356D01*
X110150656Y-108949356D02*
X110045894Y-109001737D01*
X110045894Y-109001737D02*
X109993513Y-109054118D01*
X109993513Y-109054118D02*
X109941132Y-109158880D01*
X107845895Y-191267090D02*
X107793514Y-191319471D01*
X107793514Y-191319471D02*
X107636371Y-191371851D01*
X107636371Y-191371851D02*
X107531609Y-191371851D01*
X107531609Y-191371851D02*
X107374466Y-191319471D01*
X107374466Y-191319471D02*
X107269704Y-191214709D01*
X107269704Y-191214709D02*
X107217323Y-191109947D01*
X107217323Y-191109947D02*
X107164942Y-190900423D01*
X107164942Y-190900423D02*
X107164942Y-190743280D01*
X107164942Y-190743280D02*
X107217323Y-190533756D01*
X107217323Y-190533756D02*
X107269704Y-190428994D01*
X107269704Y-190428994D02*
X107374466Y-190324232D01*
X107374466Y-190324232D02*
X107531609Y-190271851D01*
X107531609Y-190271851D02*
X107636371Y-190271851D01*
X107636371Y-190271851D02*
X107793514Y-190324232D01*
X107793514Y-190324232D02*
X107845895Y-190376613D01*
X108317323Y-191371851D02*
X108317323Y-190271851D01*
X108317323Y-190795661D02*
X108945895Y-190795661D01*
X108945895Y-191371851D02*
X108945895Y-190271851D01*
X110045895Y-191371851D02*
X109417323Y-191371851D01*
X109731609Y-191371851D02*
X109731609Y-190271851D01*
X109731609Y-190271851D02*
X109626847Y-190428994D01*
X109626847Y-190428994D02*
X109522085Y-190533756D01*
X109522085Y-190533756D02*
X109417323Y-190586137D01*
X110726847Y-190271851D02*
X110831609Y-190271851D01*
X110831609Y-190271851D02*
X110936371Y-190324232D01*
X110936371Y-190324232D02*
X110988752Y-190376613D01*
X110988752Y-190376613D02*
X111041133Y-190481375D01*
X111041133Y-190481375D02*
X111093514Y-190690899D01*
X111093514Y-190690899D02*
X111093514Y-190952804D01*
X111093514Y-190952804D02*
X111041133Y-191162328D01*
X111041133Y-191162328D02*
X110988752Y-191267090D01*
X110988752Y-191267090D02*
X110936371Y-191319471D01*
X110936371Y-191319471D02*
X110831609Y-191371851D01*
X110831609Y-191371851D02*
X110726847Y-191371851D01*
X110726847Y-191371851D02*
X110622085Y-191319471D01*
X110622085Y-191319471D02*
X110569704Y-191267090D01*
X110569704Y-191267090D02*
X110517323Y-191162328D01*
X110517323Y-191162328D02*
X110464942Y-190952804D01*
X110464942Y-190952804D02*
X110464942Y-190690899D01*
X110464942Y-190690899D02*
X110517323Y-190481375D01*
X110517323Y-190481375D02*
X110569704Y-190376613D01*
X110569704Y-190376613D02*
X110622085Y-190324232D01*
X110622085Y-190324232D02*
X110726847Y-190271851D01*
X127121373Y-96996082D02*
X127068992Y-97048463D01*
X127068992Y-97048463D02*
X126911849Y-97100843D01*
X126911849Y-97100843D02*
X126807087Y-97100843D01*
X126807087Y-97100843D02*
X126649944Y-97048463D01*
X126649944Y-97048463D02*
X126545182Y-96943701D01*
X126545182Y-96943701D02*
X126492801Y-96838939D01*
X126492801Y-96838939D02*
X126440420Y-96629415D01*
X126440420Y-96629415D02*
X126440420Y-96472272D01*
X126440420Y-96472272D02*
X126492801Y-96262748D01*
X126492801Y-96262748D02*
X126545182Y-96157986D01*
X126545182Y-96157986D02*
X126649944Y-96053224D01*
X126649944Y-96053224D02*
X126807087Y-96000843D01*
X126807087Y-96000843D02*
X126911849Y-96000843D01*
X126911849Y-96000843D02*
X127068992Y-96053224D01*
X127068992Y-96053224D02*
X127121373Y-96105605D01*
X127592801Y-97100843D02*
X127592801Y-96000843D01*
X127592801Y-96524653D02*
X128221373Y-96524653D01*
X128221373Y-97100843D02*
X128221373Y-96000843D01*
X129268992Y-96000843D02*
X128745182Y-96000843D01*
X128745182Y-96000843D02*
X128692801Y-96524653D01*
X128692801Y-96524653D02*
X128745182Y-96472272D01*
X128745182Y-96472272D02*
X128849944Y-96419891D01*
X128849944Y-96419891D02*
X129111849Y-96419891D01*
X129111849Y-96419891D02*
X129216611Y-96472272D01*
X129216611Y-96472272D02*
X129268992Y-96524653D01*
X129268992Y-96524653D02*
X129321373Y-96629415D01*
X129321373Y-96629415D02*
X129321373Y-96891320D01*
X129321373Y-96891320D02*
X129268992Y-96996082D01*
X129268992Y-96996082D02*
X129216611Y-97048463D01*
X129216611Y-97048463D02*
X129111849Y-97100843D01*
X129111849Y-97100843D02*
X128849944Y-97100843D01*
X128849944Y-97100843D02*
X128745182Y-97048463D01*
X128745182Y-97048463D02*
X128692801Y-96996082D01*
X126597564Y-203796555D02*
X126545183Y-203848936D01*
X126545183Y-203848936D02*
X126388040Y-203901316D01*
X126388040Y-203901316D02*
X126283278Y-203901316D01*
X126283278Y-203901316D02*
X126126135Y-203848936D01*
X126126135Y-203848936D02*
X126021373Y-203744174D01*
X126021373Y-203744174D02*
X125968992Y-203639412D01*
X125968992Y-203639412D02*
X125916611Y-203429888D01*
X125916611Y-203429888D02*
X125916611Y-203272745D01*
X125916611Y-203272745D02*
X125968992Y-203063221D01*
X125968992Y-203063221D02*
X126021373Y-202958459D01*
X126021373Y-202958459D02*
X126126135Y-202853697D01*
X126126135Y-202853697D02*
X126283278Y-202801316D01*
X126283278Y-202801316D02*
X126388040Y-202801316D01*
X126388040Y-202801316D02*
X126545183Y-202853697D01*
X126545183Y-202853697D02*
X126597564Y-202906078D01*
X127068992Y-203901316D02*
X127068992Y-202801316D01*
X127068992Y-203325126D02*
X127697564Y-203325126D01*
X127697564Y-203901316D02*
X127697564Y-202801316D01*
X128797564Y-203901316D02*
X128168992Y-203901316D01*
X128483278Y-203901316D02*
X128483278Y-202801316D01*
X128483278Y-202801316D02*
X128378516Y-202958459D01*
X128378516Y-202958459D02*
X128273754Y-203063221D01*
X128273754Y-203063221D02*
X128168992Y-203115602D01*
X129845183Y-203901316D02*
X129216611Y-203901316D01*
X129530897Y-203901316D02*
X129530897Y-202801316D01*
X129530897Y-202801316D02*
X129426135Y-202958459D01*
X129426135Y-202958459D02*
X129321373Y-203063221D01*
X129321373Y-203063221D02*
X129216611Y-203115602D01*
X149240476Y-92596319D02*
X149188095Y-92648700D01*
X149188095Y-92648700D02*
X149030952Y-92701080D01*
X149030952Y-92701080D02*
X148926190Y-92701080D01*
X148926190Y-92701080D02*
X148769047Y-92648700D01*
X148769047Y-92648700D02*
X148664285Y-92543938D01*
X148664285Y-92543938D02*
X148611904Y-92439176D01*
X148611904Y-92439176D02*
X148559523Y-92229652D01*
X148559523Y-92229652D02*
X148559523Y-92072509D01*
X148559523Y-92072509D02*
X148611904Y-91862985D01*
X148611904Y-91862985D02*
X148664285Y-91758223D01*
X148664285Y-91758223D02*
X148769047Y-91653461D01*
X148769047Y-91653461D02*
X148926190Y-91601080D01*
X148926190Y-91601080D02*
X149030952Y-91601080D01*
X149030952Y-91601080D02*
X149188095Y-91653461D01*
X149188095Y-91653461D02*
X149240476Y-91705842D01*
X149711904Y-92701080D02*
X149711904Y-91601080D01*
X149711904Y-92124890D02*
X150340476Y-92124890D01*
X150340476Y-92701080D02*
X150340476Y-91601080D01*
X151335714Y-91967747D02*
X151335714Y-92701080D01*
X151073809Y-91548700D02*
X150811904Y-92334414D01*
X150811904Y-92334414D02*
X151492857Y-92334414D01*
X148716667Y-208196319D02*
X148664286Y-208248700D01*
X148664286Y-208248700D02*
X148507143Y-208301080D01*
X148507143Y-208301080D02*
X148402381Y-208301080D01*
X148402381Y-208301080D02*
X148245238Y-208248700D01*
X148245238Y-208248700D02*
X148140476Y-208143938D01*
X148140476Y-208143938D02*
X148088095Y-208039176D01*
X148088095Y-208039176D02*
X148035714Y-207829652D01*
X148035714Y-207829652D02*
X148035714Y-207672509D01*
X148035714Y-207672509D02*
X148088095Y-207462985D01*
X148088095Y-207462985D02*
X148140476Y-207358223D01*
X148140476Y-207358223D02*
X148245238Y-207253461D01*
X148245238Y-207253461D02*
X148402381Y-207201080D01*
X148402381Y-207201080D02*
X148507143Y-207201080D01*
X148507143Y-207201080D02*
X148664286Y-207253461D01*
X148664286Y-207253461D02*
X148716667Y-207305842D01*
X149188095Y-208301080D02*
X149188095Y-207201080D01*
X149188095Y-207724890D02*
X149816667Y-207724890D01*
X149816667Y-208301080D02*
X149816667Y-207201080D01*
X150916667Y-208301080D02*
X150288095Y-208301080D01*
X150602381Y-208301080D02*
X150602381Y-207201080D01*
X150602381Y-207201080D02*
X150497619Y-207358223D01*
X150497619Y-207358223D02*
X150392857Y-207462985D01*
X150392857Y-207462985D02*
X150288095Y-207515366D01*
X151335714Y-207305842D02*
X151388095Y-207253461D01*
X151388095Y-207253461D02*
X151492857Y-207201080D01*
X151492857Y-207201080D02*
X151754762Y-207201080D01*
X151754762Y-207201080D02*
X151859524Y-207253461D01*
X151859524Y-207253461D02*
X151911905Y-207305842D01*
X151911905Y-207305842D02*
X151964286Y-207410604D01*
X151964286Y-207410604D02*
X151964286Y-207515366D01*
X151964286Y-207515366D02*
X151911905Y-207672509D01*
X151911905Y-207672509D02*
X151283333Y-208301080D01*
X151283333Y-208301080D02*
X151964286Y-208301080D01*
X171359578Y-96996082D02*
X171307197Y-97048463D01*
X171307197Y-97048463D02*
X171150054Y-97100843D01*
X171150054Y-97100843D02*
X171045292Y-97100843D01*
X171045292Y-97100843D02*
X170888149Y-97048463D01*
X170888149Y-97048463D02*
X170783387Y-96943701D01*
X170783387Y-96943701D02*
X170731006Y-96838939D01*
X170731006Y-96838939D02*
X170678625Y-96629415D01*
X170678625Y-96629415D02*
X170678625Y-96472272D01*
X170678625Y-96472272D02*
X170731006Y-96262748D01*
X170731006Y-96262748D02*
X170783387Y-96157986D01*
X170783387Y-96157986D02*
X170888149Y-96053224D01*
X170888149Y-96053224D02*
X171045292Y-96000843D01*
X171045292Y-96000843D02*
X171150054Y-96000843D01*
X171150054Y-96000843D02*
X171307197Y-96053224D01*
X171307197Y-96053224D02*
X171359578Y-96105605D01*
X171831006Y-97100843D02*
X171831006Y-96000843D01*
X171831006Y-96524653D02*
X172459578Y-96524653D01*
X172459578Y-97100843D02*
X172459578Y-96000843D01*
X172878625Y-96000843D02*
X173559578Y-96000843D01*
X173559578Y-96000843D02*
X173192911Y-96419891D01*
X173192911Y-96419891D02*
X173350054Y-96419891D01*
X173350054Y-96419891D02*
X173454816Y-96472272D01*
X173454816Y-96472272D02*
X173507197Y-96524653D01*
X173507197Y-96524653D02*
X173559578Y-96629415D01*
X173559578Y-96629415D02*
X173559578Y-96891320D01*
X173559578Y-96891320D02*
X173507197Y-96996082D01*
X173507197Y-96996082D02*
X173454816Y-97048463D01*
X173454816Y-97048463D02*
X173350054Y-97100843D01*
X173350054Y-97100843D02*
X173035768Y-97100843D01*
X173035768Y-97100843D02*
X172931006Y-97048463D01*
X172931006Y-97048463D02*
X172878625Y-96996082D01*
X170835769Y-203796555D02*
X170783388Y-203848936D01*
X170783388Y-203848936D02*
X170626245Y-203901316D01*
X170626245Y-203901316D02*
X170521483Y-203901316D01*
X170521483Y-203901316D02*
X170364340Y-203848936D01*
X170364340Y-203848936D02*
X170259578Y-203744174D01*
X170259578Y-203744174D02*
X170207197Y-203639412D01*
X170207197Y-203639412D02*
X170154816Y-203429888D01*
X170154816Y-203429888D02*
X170154816Y-203272745D01*
X170154816Y-203272745D02*
X170207197Y-203063221D01*
X170207197Y-203063221D02*
X170259578Y-202958459D01*
X170259578Y-202958459D02*
X170364340Y-202853697D01*
X170364340Y-202853697D02*
X170521483Y-202801316D01*
X170521483Y-202801316D02*
X170626245Y-202801316D01*
X170626245Y-202801316D02*
X170783388Y-202853697D01*
X170783388Y-202853697D02*
X170835769Y-202906078D01*
X171307197Y-203901316D02*
X171307197Y-202801316D01*
X171307197Y-203325126D02*
X171935769Y-203325126D01*
X171935769Y-203901316D02*
X171935769Y-202801316D01*
X173035769Y-203901316D02*
X172407197Y-203901316D01*
X172721483Y-203901316D02*
X172721483Y-202801316D01*
X172721483Y-202801316D02*
X172616721Y-202958459D01*
X172616721Y-202958459D02*
X172511959Y-203063221D01*
X172511959Y-203063221D02*
X172407197Y-203115602D01*
X173402435Y-202801316D02*
X174083388Y-202801316D01*
X174083388Y-202801316D02*
X173716721Y-203220364D01*
X173716721Y-203220364D02*
X173873864Y-203220364D01*
X173873864Y-203220364D02*
X173978626Y-203272745D01*
X173978626Y-203272745D02*
X174031007Y-203325126D01*
X174031007Y-203325126D02*
X174083388Y-203429888D01*
X174083388Y-203429888D02*
X174083388Y-203691793D01*
X174083388Y-203691793D02*
X174031007Y-203796555D01*
X174031007Y-203796555D02*
X173978626Y-203848936D01*
X173978626Y-203848936D02*
X173873864Y-203901316D01*
X173873864Y-203901316D02*
X173559578Y-203901316D01*
X173559578Y-203901316D02*
X173454816Y-203848936D01*
X173454816Y-203848936D02*
X173402435Y-203796555D01*
X190111247Y-109525547D02*
X190058866Y-109577928D01*
X190058866Y-109577928D02*
X189901723Y-109630308D01*
X189901723Y-109630308D02*
X189796961Y-109630308D01*
X189796961Y-109630308D02*
X189639818Y-109577928D01*
X189639818Y-109577928D02*
X189535056Y-109473166D01*
X189535056Y-109473166D02*
X189482675Y-109368404D01*
X189482675Y-109368404D02*
X189430294Y-109158880D01*
X189430294Y-109158880D02*
X189430294Y-109001737D01*
X189430294Y-109001737D02*
X189482675Y-108792213D01*
X189482675Y-108792213D02*
X189535056Y-108687451D01*
X189535056Y-108687451D02*
X189639818Y-108582689D01*
X189639818Y-108582689D02*
X189796961Y-108530308D01*
X189796961Y-108530308D02*
X189901723Y-108530308D01*
X189901723Y-108530308D02*
X190058866Y-108582689D01*
X190058866Y-108582689D02*
X190111247Y-108635070D01*
X190582675Y-109630308D02*
X190582675Y-108530308D01*
X190582675Y-109054118D02*
X191211247Y-109054118D01*
X191211247Y-109630308D02*
X191211247Y-108530308D01*
X191682675Y-108635070D02*
X191735056Y-108582689D01*
X191735056Y-108582689D02*
X191839818Y-108530308D01*
X191839818Y-108530308D02*
X192101723Y-108530308D01*
X192101723Y-108530308D02*
X192206485Y-108582689D01*
X192206485Y-108582689D02*
X192258866Y-108635070D01*
X192258866Y-108635070D02*
X192311247Y-108739832D01*
X192311247Y-108739832D02*
X192311247Y-108844594D01*
X192311247Y-108844594D02*
X192258866Y-109001737D01*
X192258866Y-109001737D02*
X191630294Y-109630308D01*
X191630294Y-109630308D02*
X192311247Y-109630308D01*
X189587438Y-191267090D02*
X189535057Y-191319471D01*
X189535057Y-191319471D02*
X189377914Y-191371851D01*
X189377914Y-191371851D02*
X189273152Y-191371851D01*
X189273152Y-191371851D02*
X189116009Y-191319471D01*
X189116009Y-191319471D02*
X189011247Y-191214709D01*
X189011247Y-191214709D02*
X188958866Y-191109947D01*
X188958866Y-191109947D02*
X188906485Y-190900423D01*
X188906485Y-190900423D02*
X188906485Y-190743280D01*
X188906485Y-190743280D02*
X188958866Y-190533756D01*
X188958866Y-190533756D02*
X189011247Y-190428994D01*
X189011247Y-190428994D02*
X189116009Y-190324232D01*
X189116009Y-190324232D02*
X189273152Y-190271851D01*
X189273152Y-190271851D02*
X189377914Y-190271851D01*
X189377914Y-190271851D02*
X189535057Y-190324232D01*
X189535057Y-190324232D02*
X189587438Y-190376613D01*
X190058866Y-191371851D02*
X190058866Y-190271851D01*
X190058866Y-190795661D02*
X190687438Y-190795661D01*
X190687438Y-191371851D02*
X190687438Y-190271851D01*
X191787438Y-191371851D02*
X191158866Y-191371851D01*
X191473152Y-191371851D02*
X191473152Y-190271851D01*
X191473152Y-190271851D02*
X191368390Y-190428994D01*
X191368390Y-190428994D02*
X191263628Y-190533756D01*
X191263628Y-190533756D02*
X191158866Y-190586137D01*
X192730295Y-190638518D02*
X192730295Y-191371851D01*
X192468390Y-190219471D02*
X192206485Y-191005185D01*
X192206485Y-191005185D02*
X192887438Y-191005185D01*
X202640712Y-128277216D02*
X202588331Y-128329597D01*
X202588331Y-128329597D02*
X202431188Y-128381977D01*
X202431188Y-128381977D02*
X202326426Y-128381977D01*
X202326426Y-128381977D02*
X202169283Y-128329597D01*
X202169283Y-128329597D02*
X202064521Y-128224835D01*
X202064521Y-128224835D02*
X202012140Y-128120073D01*
X202012140Y-128120073D02*
X201959759Y-127910549D01*
X201959759Y-127910549D02*
X201959759Y-127753406D01*
X201959759Y-127753406D02*
X202012140Y-127543882D01*
X202012140Y-127543882D02*
X202064521Y-127439120D01*
X202064521Y-127439120D02*
X202169283Y-127334358D01*
X202169283Y-127334358D02*
X202326426Y-127281977D01*
X202326426Y-127281977D02*
X202431188Y-127281977D01*
X202431188Y-127281977D02*
X202588331Y-127334358D01*
X202588331Y-127334358D02*
X202640712Y-127386739D01*
X203112140Y-128381977D02*
X203112140Y-127281977D01*
X203112140Y-127805787D02*
X203740712Y-127805787D01*
X203740712Y-128381977D02*
X203740712Y-127281977D01*
X204840712Y-128381977D02*
X204212140Y-128381977D01*
X204526426Y-128381977D02*
X204526426Y-127281977D01*
X204526426Y-127281977D02*
X204421664Y-127439120D01*
X204421664Y-127439120D02*
X204316902Y-127543882D01*
X204316902Y-127543882D02*
X204212140Y-127596263D01*
X202116903Y-172515421D02*
X202064522Y-172567802D01*
X202064522Y-172567802D02*
X201907379Y-172620182D01*
X201907379Y-172620182D02*
X201802617Y-172620182D01*
X201802617Y-172620182D02*
X201645474Y-172567802D01*
X201645474Y-172567802D02*
X201540712Y-172463040D01*
X201540712Y-172463040D02*
X201488331Y-172358278D01*
X201488331Y-172358278D02*
X201435950Y-172148754D01*
X201435950Y-172148754D02*
X201435950Y-171991611D01*
X201435950Y-171991611D02*
X201488331Y-171782087D01*
X201488331Y-171782087D02*
X201540712Y-171677325D01*
X201540712Y-171677325D02*
X201645474Y-171572563D01*
X201645474Y-171572563D02*
X201802617Y-171520182D01*
X201802617Y-171520182D02*
X201907379Y-171520182D01*
X201907379Y-171520182D02*
X202064522Y-171572563D01*
X202064522Y-171572563D02*
X202116903Y-171624944D01*
X202588331Y-172620182D02*
X202588331Y-171520182D01*
X202588331Y-172043992D02*
X203216903Y-172043992D01*
X203216903Y-172620182D02*
X203216903Y-171520182D01*
X204316903Y-172620182D02*
X203688331Y-172620182D01*
X204002617Y-172620182D02*
X204002617Y-171520182D01*
X204002617Y-171520182D02*
X203897855Y-171677325D01*
X203897855Y-171677325D02*
X203793093Y-171782087D01*
X203793093Y-171782087D02*
X203688331Y-171834468D01*
X205312141Y-171520182D02*
X204788331Y-171520182D01*
X204788331Y-171520182D02*
X204735950Y-172043992D01*
X204735950Y-172043992D02*
X204788331Y-171991611D01*
X204788331Y-171991611D02*
X204893093Y-171939230D01*
X204893093Y-171939230D02*
X205154998Y-171939230D01*
X205154998Y-171939230D02*
X205259760Y-171991611D01*
X205259760Y-171991611D02*
X205312141Y-172043992D01*
X205312141Y-172043992D02*
X205364522Y-172148754D01*
X205364522Y-172148754D02*
X205364522Y-172410659D01*
X205364522Y-172410659D02*
X205312141Y-172515421D01*
X205312141Y-172515421D02*
X205259760Y-172567802D01*
X205259760Y-172567802D02*
X205154998Y-172620182D01*
X205154998Y-172620182D02*
X204893093Y-172620182D01*
X204893093Y-172620182D02*
X204788331Y-172567802D01*
X204788331Y-172567802D02*
X204735950Y-172515421D01*
X207040476Y-150396319D02*
X206988095Y-150448700D01*
X206988095Y-150448700D02*
X206830952Y-150501080D01*
X206830952Y-150501080D02*
X206726190Y-150501080D01*
X206726190Y-150501080D02*
X206569047Y-150448700D01*
X206569047Y-150448700D02*
X206464285Y-150343938D01*
X206464285Y-150343938D02*
X206411904Y-150239176D01*
X206411904Y-150239176D02*
X206359523Y-150029652D01*
X206359523Y-150029652D02*
X206359523Y-149872509D01*
X206359523Y-149872509D02*
X206411904Y-149662985D01*
X206411904Y-149662985D02*
X206464285Y-149558223D01*
X206464285Y-149558223D02*
X206569047Y-149453461D01*
X206569047Y-149453461D02*
X206726190Y-149401080D01*
X206726190Y-149401080D02*
X206830952Y-149401080D01*
X206830952Y-149401080D02*
X206988095Y-149453461D01*
X206988095Y-149453461D02*
X207040476Y-149505842D01*
X207511904Y-150501080D02*
X207511904Y-149401080D01*
X207511904Y-149924890D02*
X208140476Y-149924890D01*
X208140476Y-150501080D02*
X208140476Y-149401080D01*
X208873809Y-149401080D02*
X208978571Y-149401080D01*
X208978571Y-149401080D02*
X209083333Y-149453461D01*
X209083333Y-149453461D02*
X209135714Y-149505842D01*
X209135714Y-149505842D02*
X209188095Y-149610604D01*
X209188095Y-149610604D02*
X209240476Y-149820128D01*
X209240476Y-149820128D02*
X209240476Y-150082033D01*
X209240476Y-150082033D02*
X209188095Y-150291557D01*
X209188095Y-150291557D02*
X209135714Y-150396319D01*
X209135714Y-150396319D02*
X209083333Y-150448700D01*
X209083333Y-150448700D02*
X208978571Y-150501080D01*
X208978571Y-150501080D02*
X208873809Y-150501080D01*
X208873809Y-150501080D02*
X208769047Y-150448700D01*
X208769047Y-150448700D02*
X208716666Y-150396319D01*
X208716666Y-150396319D02*
X208664285Y-150291557D01*
X208664285Y-150291557D02*
X208611904Y-150082033D01*
X208611904Y-150082033D02*
X208611904Y-149820128D01*
X208611904Y-149820128D02*
X208664285Y-149610604D01*
X208664285Y-149610604D02*
X208716666Y-149505842D01*
X208716666Y-149505842D02*
X208769047Y-149453461D01*
X208769047Y-149453461D02*
X208873809Y-149401080D01*
D11*
X139228570Y-129932537D02*
X139171427Y-129989680D01*
X139171427Y-129989680D02*
X138999999Y-130046822D01*
X138999999Y-130046822D02*
X138885713Y-130046822D01*
X138885713Y-130046822D02*
X138714284Y-129989680D01*
X138714284Y-129989680D02*
X138599999Y-129875394D01*
X138599999Y-129875394D02*
X138542856Y-129761108D01*
X138542856Y-129761108D02*
X138485713Y-129532537D01*
X138485713Y-129532537D02*
X138485713Y-129361108D01*
X138485713Y-129361108D02*
X138542856Y-129132537D01*
X138542856Y-129132537D02*
X138599999Y-129018251D01*
X138599999Y-129018251D02*
X138714284Y-128903965D01*
X138714284Y-128903965D02*
X138885713Y-128846822D01*
X138885713Y-128846822D02*
X138999999Y-128846822D01*
X138999999Y-128846822D02*
X139171427Y-128903965D01*
X139171427Y-128903965D02*
X139228570Y-128961108D01*
X139742856Y-130046822D02*
X139742856Y-128846822D01*
X139742856Y-129418251D02*
X140428570Y-129418251D01*
X140428570Y-130046822D02*
X140428570Y-128846822D01*
X141228570Y-128846822D02*
X141342856Y-128846822D01*
X141342856Y-128846822D02*
X141457142Y-128903965D01*
X141457142Y-128903965D02*
X141514285Y-128961108D01*
X141514285Y-128961108D02*
X141571427Y-129075394D01*
X141571427Y-129075394D02*
X141628570Y-129303965D01*
X141628570Y-129303965D02*
X141628570Y-129589680D01*
X141628570Y-129589680D02*
X141571427Y-129818251D01*
X141571427Y-129818251D02*
X141514285Y-129932537D01*
X141514285Y-129932537D02*
X141457142Y-129989680D01*
X141457142Y-129989680D02*
X141342856Y-130046822D01*
X141342856Y-130046822D02*
X141228570Y-130046822D01*
X141228570Y-130046822D02*
X141114285Y-129989680D01*
X141114285Y-129989680D02*
X141057142Y-129932537D01*
X141057142Y-129932537D02*
X140999999Y-129818251D01*
X140999999Y-129818251D02*
X140942856Y-129589680D01*
X140942856Y-129589680D02*
X140942856Y-129303965D01*
X140942856Y-129303965D02*
X140999999Y-129075394D01*
X140999999Y-129075394D02*
X141057142Y-128961108D01*
X141057142Y-128961108D02*
X141114285Y-128903965D01*
X141114285Y-128903965D02*
X141228570Y-128846822D01*
X142142856Y-129932537D02*
X142199999Y-129989680D01*
X142199999Y-129989680D02*
X142142856Y-130046822D01*
X142142856Y-130046822D02*
X142085713Y-129989680D01*
X142085713Y-129989680D02*
X142142856Y-129932537D01*
X142142856Y-129932537D02*
X142142856Y-130046822D01*
X142714285Y-129932537D02*
X142771428Y-129989680D01*
X142771428Y-129989680D02*
X142714285Y-130046822D01*
X142714285Y-130046822D02*
X142657142Y-129989680D01*
X142657142Y-129989680D02*
X142714285Y-129932537D01*
X142714285Y-129932537D02*
X142714285Y-130046822D01*
X143971428Y-129932537D02*
X143914285Y-129989680D01*
X143914285Y-129989680D02*
X143742857Y-130046822D01*
X143742857Y-130046822D02*
X143628571Y-130046822D01*
X143628571Y-130046822D02*
X143457142Y-129989680D01*
X143457142Y-129989680D02*
X143342857Y-129875394D01*
X143342857Y-129875394D02*
X143285714Y-129761108D01*
X143285714Y-129761108D02*
X143228571Y-129532537D01*
X143228571Y-129532537D02*
X143228571Y-129361108D01*
X143228571Y-129361108D02*
X143285714Y-129132537D01*
X143285714Y-129132537D02*
X143342857Y-129018251D01*
X143342857Y-129018251D02*
X143457142Y-128903965D01*
X143457142Y-128903965D02*
X143628571Y-128846822D01*
X143628571Y-128846822D02*
X143742857Y-128846822D01*
X143742857Y-128846822D02*
X143914285Y-128903965D01*
X143914285Y-128903965D02*
X143971428Y-128961108D01*
X144485714Y-130046822D02*
X144485714Y-128846822D01*
X144485714Y-129418251D02*
X145171428Y-129418251D01*
X145171428Y-130046822D02*
X145171428Y-128846822D01*
X146371428Y-130046822D02*
X145685714Y-130046822D01*
X146028571Y-130046822D02*
X146028571Y-128846822D01*
X146028571Y-128846822D02*
X145914285Y-129018251D01*
X145914285Y-129018251D02*
X145800000Y-129132537D01*
X145800000Y-129132537D02*
X145685714Y-129189680D01*
X147457142Y-128846822D02*
X146885714Y-128846822D01*
X146885714Y-128846822D02*
X146828571Y-129418251D01*
X146828571Y-129418251D02*
X146885714Y-129361108D01*
X146885714Y-129361108D02*
X147000000Y-129303965D01*
X147000000Y-129303965D02*
X147285714Y-129303965D01*
X147285714Y-129303965D02*
X147400000Y-129361108D01*
X147400000Y-129361108D02*
X147457142Y-129418251D01*
X147457142Y-129418251D02*
X147514285Y-129532537D01*
X147514285Y-129532537D02*
X147514285Y-129818251D01*
X147514285Y-129818251D02*
X147457142Y-129932537D01*
X147457142Y-129932537D02*
X147400000Y-129989680D01*
X147400000Y-129989680D02*
X147285714Y-130046822D01*
X147285714Y-130046822D02*
X147000000Y-130046822D01*
X147000000Y-130046822D02*
X146885714Y-129989680D01*
X146885714Y-129989680D02*
X146828571Y-129932537D01*
X149628571Y-129932537D02*
X149571428Y-129989680D01*
X149571428Y-129989680D02*
X149400000Y-130046822D01*
X149400000Y-130046822D02*
X149285714Y-130046822D01*
X149285714Y-130046822D02*
X149114285Y-129989680D01*
X149114285Y-129989680D02*
X149000000Y-129875394D01*
X149000000Y-129875394D02*
X148942857Y-129761108D01*
X148942857Y-129761108D02*
X148885714Y-129532537D01*
X148885714Y-129532537D02*
X148885714Y-129361108D01*
X148885714Y-129361108D02*
X148942857Y-129132537D01*
X148942857Y-129132537D02*
X149000000Y-129018251D01*
X149000000Y-129018251D02*
X149114285Y-128903965D01*
X149114285Y-128903965D02*
X149285714Y-128846822D01*
X149285714Y-128846822D02*
X149400000Y-128846822D01*
X149400000Y-128846822D02*
X149571428Y-128903965D01*
X149571428Y-128903965D02*
X149628571Y-128961108D01*
X150828571Y-129932537D02*
X150771428Y-129989680D01*
X150771428Y-129989680D02*
X150600000Y-130046822D01*
X150600000Y-130046822D02*
X150485714Y-130046822D01*
X150485714Y-130046822D02*
X150314285Y-129989680D01*
X150314285Y-129989680D02*
X150200000Y-129875394D01*
X150200000Y-129875394D02*
X150142857Y-129761108D01*
X150142857Y-129761108D02*
X150085714Y-129532537D01*
X150085714Y-129532537D02*
X150085714Y-129361108D01*
X150085714Y-129361108D02*
X150142857Y-129132537D01*
X150142857Y-129132537D02*
X150200000Y-129018251D01*
X150200000Y-129018251D02*
X150314285Y-128903965D01*
X150314285Y-128903965D02*
X150485714Y-128846822D01*
X150485714Y-128846822D02*
X150600000Y-128846822D01*
X150600000Y-128846822D02*
X150771428Y-128903965D01*
X150771428Y-128903965D02*
X150828571Y-128961108D01*
X151228571Y-128846822D02*
X151514285Y-130046822D01*
X151514285Y-130046822D02*
X151742857Y-129189680D01*
X151742857Y-129189680D02*
X151971428Y-130046822D01*
X151971428Y-130046822D02*
X152257143Y-128846822D01*
X154028572Y-129418251D02*
X153628572Y-129418251D01*
X153628572Y-130046822D02*
X153628572Y-128846822D01*
X153628572Y-128846822D02*
X154200000Y-128846822D01*
X155342857Y-130046822D02*
X154942857Y-129475394D01*
X154657143Y-130046822D02*
X154657143Y-128846822D01*
X154657143Y-128846822D02*
X155114286Y-128846822D01*
X155114286Y-128846822D02*
X155228571Y-128903965D01*
X155228571Y-128903965D02*
X155285714Y-128961108D01*
X155285714Y-128961108D02*
X155342857Y-129075394D01*
X155342857Y-129075394D02*
X155342857Y-129246822D01*
X155342857Y-129246822D02*
X155285714Y-129361108D01*
X155285714Y-129361108D02*
X155228571Y-129418251D01*
X155228571Y-129418251D02*
X155114286Y-129475394D01*
X155114286Y-129475394D02*
X154657143Y-129475394D01*
X156085714Y-128846822D02*
X156314286Y-128846822D01*
X156314286Y-128846822D02*
X156428571Y-128903965D01*
X156428571Y-128903965D02*
X156542857Y-129018251D01*
X156542857Y-129018251D02*
X156600000Y-129246822D01*
X156600000Y-129246822D02*
X156600000Y-129646822D01*
X156600000Y-129646822D02*
X156542857Y-129875394D01*
X156542857Y-129875394D02*
X156428571Y-129989680D01*
X156428571Y-129989680D02*
X156314286Y-130046822D01*
X156314286Y-130046822D02*
X156085714Y-130046822D01*
X156085714Y-130046822D02*
X155971429Y-129989680D01*
X155971429Y-129989680D02*
X155857143Y-129875394D01*
X155857143Y-129875394D02*
X155800000Y-129646822D01*
X155800000Y-129646822D02*
X155800000Y-129246822D01*
X155800000Y-129246822D02*
X155857143Y-129018251D01*
X155857143Y-129018251D02*
X155971429Y-128903965D01*
X155971429Y-128903965D02*
X156085714Y-128846822D01*
X157114286Y-130046822D02*
X157114286Y-128846822D01*
X157114286Y-128846822D02*
X157514286Y-129703965D01*
X157514286Y-129703965D02*
X157914286Y-128846822D01*
X157914286Y-128846822D02*
X157914286Y-130046822D01*
X159400001Y-129589680D02*
X160314287Y-129589680D01*
X159857144Y-130046822D02*
X159857144Y-129132537D01*
X160771429Y-128846822D02*
X161571429Y-130046822D01*
X161571429Y-128846822D02*
X160771429Y-130046822D01*
X135199999Y-135046822D02*
X135199999Y-133846822D01*
X135199999Y-133846822D02*
X135657142Y-133846822D01*
X135657142Y-133846822D02*
X135771427Y-133903965D01*
X135771427Y-133903965D02*
X135828570Y-133961108D01*
X135828570Y-133961108D02*
X135885713Y-134075394D01*
X135885713Y-134075394D02*
X135885713Y-134246822D01*
X135885713Y-134246822D02*
X135828570Y-134361108D01*
X135828570Y-134361108D02*
X135771427Y-134418251D01*
X135771427Y-134418251D02*
X135657142Y-134475394D01*
X135657142Y-134475394D02*
X135199999Y-134475394D01*
X136628570Y-133846822D02*
X136857142Y-133846822D01*
X136857142Y-133846822D02*
X136971427Y-133903965D01*
X136971427Y-133903965D02*
X137085713Y-134018251D01*
X137085713Y-134018251D02*
X137142856Y-134246822D01*
X137142856Y-134246822D02*
X137142856Y-134646822D01*
X137142856Y-134646822D02*
X137085713Y-134875394D01*
X137085713Y-134875394D02*
X136971427Y-134989680D01*
X136971427Y-134989680D02*
X136857142Y-135046822D01*
X136857142Y-135046822D02*
X136628570Y-135046822D01*
X136628570Y-135046822D02*
X136514285Y-134989680D01*
X136514285Y-134989680D02*
X136399999Y-134875394D01*
X136399999Y-134875394D02*
X136342856Y-134646822D01*
X136342856Y-134646822D02*
X136342856Y-134246822D01*
X136342856Y-134246822D02*
X136399999Y-134018251D01*
X136399999Y-134018251D02*
X136514285Y-133903965D01*
X136514285Y-133903965D02*
X136628570Y-133846822D01*
X138342856Y-135046822D02*
X137942856Y-134475394D01*
X137657142Y-135046822D02*
X137657142Y-133846822D01*
X137657142Y-133846822D02*
X138114285Y-133846822D01*
X138114285Y-133846822D02*
X138228570Y-133903965D01*
X138228570Y-133903965D02*
X138285713Y-133961108D01*
X138285713Y-133961108D02*
X138342856Y-134075394D01*
X138342856Y-134075394D02*
X138342856Y-134246822D01*
X138342856Y-134246822D02*
X138285713Y-134361108D01*
X138285713Y-134361108D02*
X138228570Y-134418251D01*
X138228570Y-134418251D02*
X138114285Y-134475394D01*
X138114285Y-134475394D02*
X137657142Y-134475394D01*
X138685713Y-133846822D02*
X139371428Y-133846822D01*
X139028570Y-135046822D02*
X139028570Y-133846822D01*
X139714285Y-134989680D02*
X139885714Y-135046822D01*
X139885714Y-135046822D02*
X140171428Y-135046822D01*
X140171428Y-135046822D02*
X140285714Y-134989680D01*
X140285714Y-134989680D02*
X140342856Y-134932537D01*
X140342856Y-134932537D02*
X140399999Y-134818251D01*
X140399999Y-134818251D02*
X140399999Y-134703965D01*
X140399999Y-134703965D02*
X140342856Y-134589680D01*
X140342856Y-134589680D02*
X140285714Y-134532537D01*
X140285714Y-134532537D02*
X140171428Y-134475394D01*
X140171428Y-134475394D02*
X139942856Y-134418251D01*
X139942856Y-134418251D02*
X139828571Y-134361108D01*
X139828571Y-134361108D02*
X139771428Y-134303965D01*
X139771428Y-134303965D02*
X139714285Y-134189680D01*
X139714285Y-134189680D02*
X139714285Y-134075394D01*
X139714285Y-134075394D02*
X139771428Y-133961108D01*
X139771428Y-133961108D02*
X139828571Y-133903965D01*
X139828571Y-133903965D02*
X139942856Y-133846822D01*
X139942856Y-133846822D02*
X140228571Y-133846822D01*
X140228571Y-133846822D02*
X140399999Y-133903965D01*
X142228571Y-134418251D02*
X141828571Y-134418251D01*
X141828571Y-135046822D02*
X141828571Y-133846822D01*
X141828571Y-133846822D02*
X142399999Y-133846822D01*
X142799999Y-134703965D02*
X143371428Y-134703965D01*
X142685713Y-135046822D02*
X143085713Y-133846822D01*
X143085713Y-133846822D02*
X143485713Y-135046822D01*
X144571427Y-134932537D02*
X144514284Y-134989680D01*
X144514284Y-134989680D02*
X144342856Y-135046822D01*
X144342856Y-135046822D02*
X144228570Y-135046822D01*
X144228570Y-135046822D02*
X144057141Y-134989680D01*
X144057141Y-134989680D02*
X143942856Y-134875394D01*
X143942856Y-134875394D02*
X143885713Y-134761108D01*
X143885713Y-134761108D02*
X143828570Y-134532537D01*
X143828570Y-134532537D02*
X143828570Y-134361108D01*
X143828570Y-134361108D02*
X143885713Y-134132537D01*
X143885713Y-134132537D02*
X143942856Y-134018251D01*
X143942856Y-134018251D02*
X144057141Y-133903965D01*
X144057141Y-133903965D02*
X144228570Y-133846822D01*
X144228570Y-133846822D02*
X144342856Y-133846822D01*
X144342856Y-133846822D02*
X144514284Y-133903965D01*
X144514284Y-133903965D02*
X144571427Y-133961108D01*
X145085713Y-134418251D02*
X145485713Y-134418251D01*
X145657141Y-135046822D02*
X145085713Y-135046822D01*
X145085713Y-135046822D02*
X145085713Y-133846822D01*
X145085713Y-133846822D02*
X145657141Y-133846822D01*
X147085713Y-133846822D02*
X147085713Y-134818251D01*
X147085713Y-134818251D02*
X147142856Y-134932537D01*
X147142856Y-134932537D02*
X147199999Y-134989680D01*
X147199999Y-134989680D02*
X147314284Y-135046822D01*
X147314284Y-135046822D02*
X147542856Y-135046822D01*
X147542856Y-135046822D02*
X147657141Y-134989680D01*
X147657141Y-134989680D02*
X147714284Y-134932537D01*
X147714284Y-134932537D02*
X147771427Y-134818251D01*
X147771427Y-134818251D02*
X147771427Y-133846822D01*
X148342856Y-135046822D02*
X148342856Y-133846822D01*
X148342856Y-133846822D02*
X148799999Y-133846822D01*
X148799999Y-133846822D02*
X148914284Y-133903965D01*
X148914284Y-133903965D02*
X148971427Y-133961108D01*
X148971427Y-133961108D02*
X149028570Y-134075394D01*
X149028570Y-134075394D02*
X149028570Y-134246822D01*
X149028570Y-134246822D02*
X148971427Y-134361108D01*
X148971427Y-134361108D02*
X148914284Y-134418251D01*
X148914284Y-134418251D02*
X148799999Y-134475394D01*
X148799999Y-134475394D02*
X148342856Y-134475394D01*
X150457142Y-134589680D02*
X151371428Y-134589680D01*
X152857142Y-135046822D02*
X152857142Y-133846822D01*
X152857142Y-133846822D02*
X153142856Y-133846822D01*
X153142856Y-133846822D02*
X153314285Y-133903965D01*
X153314285Y-133903965D02*
X153428570Y-134018251D01*
X153428570Y-134018251D02*
X153485713Y-134132537D01*
X153485713Y-134132537D02*
X153542856Y-134361108D01*
X153542856Y-134361108D02*
X153542856Y-134532537D01*
X153542856Y-134532537D02*
X153485713Y-134761108D01*
X153485713Y-134761108D02*
X153428570Y-134875394D01*
X153428570Y-134875394D02*
X153314285Y-134989680D01*
X153314285Y-134989680D02*
X153142856Y-135046822D01*
X153142856Y-135046822D02*
X152857142Y-135046822D01*
X154285713Y-133846822D02*
X154514285Y-133846822D01*
X154514285Y-133846822D02*
X154628570Y-133903965D01*
X154628570Y-133903965D02*
X154742856Y-134018251D01*
X154742856Y-134018251D02*
X154799999Y-134246822D01*
X154799999Y-134246822D02*
X154799999Y-134646822D01*
X154799999Y-134646822D02*
X154742856Y-134875394D01*
X154742856Y-134875394D02*
X154628570Y-134989680D01*
X154628570Y-134989680D02*
X154514285Y-135046822D01*
X154514285Y-135046822D02*
X154285713Y-135046822D01*
X154285713Y-135046822D02*
X154171428Y-134989680D01*
X154171428Y-134989680D02*
X154057142Y-134875394D01*
X154057142Y-134875394D02*
X153999999Y-134646822D01*
X153999999Y-134646822D02*
X153999999Y-134246822D01*
X153999999Y-134246822D02*
X154057142Y-134018251D01*
X154057142Y-134018251D02*
X154171428Y-133903965D01*
X154171428Y-133903965D02*
X154285713Y-133846822D01*
X156228571Y-135046822D02*
X156228571Y-133846822D01*
X156228571Y-133846822D02*
X156914285Y-135046822D01*
X156914285Y-135046822D02*
X156914285Y-133846822D01*
X157714285Y-133846822D02*
X157942857Y-133846822D01*
X157942857Y-133846822D02*
X158057142Y-133903965D01*
X158057142Y-133903965D02*
X158171428Y-134018251D01*
X158171428Y-134018251D02*
X158228571Y-134246822D01*
X158228571Y-134246822D02*
X158228571Y-134646822D01*
X158228571Y-134646822D02*
X158171428Y-134875394D01*
X158171428Y-134875394D02*
X158057142Y-134989680D01*
X158057142Y-134989680D02*
X157942857Y-135046822D01*
X157942857Y-135046822D02*
X157714285Y-135046822D01*
X157714285Y-135046822D02*
X157600000Y-134989680D01*
X157600000Y-134989680D02*
X157485714Y-134875394D01*
X157485714Y-134875394D02*
X157428571Y-134646822D01*
X157428571Y-134646822D02*
X157428571Y-134246822D01*
X157428571Y-134246822D02*
X157485714Y-134018251D01*
X157485714Y-134018251D02*
X157600000Y-133903965D01*
X157600000Y-133903965D02*
X157714285Y-133846822D01*
X158571428Y-133846822D02*
X159257143Y-133846822D01*
X158914285Y-135046822D02*
X158914285Y-133846822D01*
X160457143Y-133846822D02*
X160742857Y-135046822D01*
X160742857Y-135046822D02*
X160971429Y-134189680D01*
X160971429Y-134189680D02*
X161200000Y-135046822D01*
X161200000Y-135046822D02*
X161485715Y-133846822D01*
X161885715Y-134703965D02*
X162457144Y-134703965D01*
X161771429Y-135046822D02*
X162171429Y-133846822D01*
X162171429Y-133846822D02*
X162571429Y-135046822D01*
X162914286Y-134989680D02*
X163085715Y-135046822D01*
X163085715Y-135046822D02*
X163371429Y-135046822D01*
X163371429Y-135046822D02*
X163485715Y-134989680D01*
X163485715Y-134989680D02*
X163542857Y-134932537D01*
X163542857Y-134932537D02*
X163600000Y-134818251D01*
X163600000Y-134818251D02*
X163600000Y-134703965D01*
X163600000Y-134703965D02*
X163542857Y-134589680D01*
X163542857Y-134589680D02*
X163485715Y-134532537D01*
X163485715Y-134532537D02*
X163371429Y-134475394D01*
X163371429Y-134475394D02*
X163142857Y-134418251D01*
X163142857Y-134418251D02*
X163028572Y-134361108D01*
X163028572Y-134361108D02*
X162971429Y-134303965D01*
X162971429Y-134303965D02*
X162914286Y-134189680D01*
X162914286Y-134189680D02*
X162914286Y-134075394D01*
X162914286Y-134075394D02*
X162971429Y-133961108D01*
X162971429Y-133961108D02*
X163028572Y-133903965D01*
X163028572Y-133903965D02*
X163142857Y-133846822D01*
X163142857Y-133846822D02*
X163428572Y-133846822D01*
X163428572Y-133846822D02*
X163600000Y-133903965D01*
X164114286Y-135046822D02*
X164114286Y-133846822D01*
X164114286Y-134418251D02*
X164800000Y-134418251D01*
X164800000Y-135046822D02*
X164800000Y-133846822D01*
X132800000Y-150106013D02*
X133866667Y-150106013D01*
X134400000Y-149239346D02*
X135333333Y-150639346D01*
X135333333Y-149239346D02*
X134400000Y-150639346D01*
X134833332Y-132639346D02*
X134033332Y-132639346D01*
X134433332Y-132639346D02*
X134433332Y-131239346D01*
X134433332Y-131239346D02*
X134299999Y-131439346D01*
X134299999Y-131439346D02*
X134166666Y-131572680D01*
X134166666Y-131572680D02*
X134033332Y-131639346D01*
X136033332Y-131239346D02*
X135766665Y-131239346D01*
X135766665Y-131239346D02*
X135633332Y-131306013D01*
X135633332Y-131306013D02*
X135566665Y-131372680D01*
X135566665Y-131372680D02*
X135433332Y-131572680D01*
X135433332Y-131572680D02*
X135366665Y-131839346D01*
X135366665Y-131839346D02*
X135366665Y-132372680D01*
X135366665Y-132372680D02*
X135433332Y-132506013D01*
X135433332Y-132506013D02*
X135499999Y-132572680D01*
X135499999Y-132572680D02*
X135633332Y-132639346D01*
X135633332Y-132639346D02*
X135899999Y-132639346D01*
X135899999Y-132639346D02*
X136033332Y-132572680D01*
X136033332Y-132572680D02*
X136099999Y-132506013D01*
X136099999Y-132506013D02*
X136166665Y-132372680D01*
X136166665Y-132372680D02*
X136166665Y-132039346D01*
X136166665Y-132039346D02*
X136099999Y-131906013D01*
X136099999Y-131906013D02*
X136033332Y-131839346D01*
X136033332Y-131839346D02*
X135899999Y-131772680D01*
X135899999Y-131772680D02*
X135633332Y-131772680D01*
X135633332Y-131772680D02*
X135499999Y-131839346D01*
X135499999Y-131839346D02*
X135433332Y-131906013D01*
X135433332Y-131906013D02*
X135366665Y-132039346D01*
X136766665Y-132106013D02*
X137833332Y-132106013D01*
X139299998Y-132506013D02*
X139233331Y-132572680D01*
X139233331Y-132572680D02*
X139033331Y-132639346D01*
X139033331Y-132639346D02*
X138899998Y-132639346D01*
X138899998Y-132639346D02*
X138699998Y-132572680D01*
X138699998Y-132572680D02*
X138566665Y-132439346D01*
X138566665Y-132439346D02*
X138499998Y-132306013D01*
X138499998Y-132306013D02*
X138433331Y-132039346D01*
X138433331Y-132039346D02*
X138433331Y-131839346D01*
X138433331Y-131839346D02*
X138499998Y-131572680D01*
X138499998Y-131572680D02*
X138566665Y-131439346D01*
X138566665Y-131439346D02*
X138699998Y-131306013D01*
X138699998Y-131306013D02*
X138899998Y-131239346D01*
X138899998Y-131239346D02*
X139033331Y-131239346D01*
X139033331Y-131239346D02*
X139233331Y-131306013D01*
X139233331Y-131306013D02*
X139299998Y-131372680D01*
X139899998Y-132639346D02*
X139899998Y-131239346D01*
X139899998Y-131906013D02*
X140699998Y-131906013D01*
X140699998Y-132639346D02*
X140699998Y-131239346D01*
X142433332Y-132639346D02*
X142433332Y-131239346D01*
X142433332Y-131239346D02*
X142966665Y-131239346D01*
X142966665Y-131239346D02*
X143099999Y-131306013D01*
X143099999Y-131306013D02*
X143166665Y-131372680D01*
X143166665Y-131372680D02*
X143233332Y-131506013D01*
X143233332Y-131506013D02*
X143233332Y-131706013D01*
X143233332Y-131706013D02*
X143166665Y-131839346D01*
X143166665Y-131839346D02*
X143099999Y-131906013D01*
X143099999Y-131906013D02*
X142966665Y-131972680D01*
X142966665Y-131972680D02*
X142433332Y-131972680D01*
X143833332Y-132639346D02*
X143833332Y-131239346D01*
X143833332Y-131239346D02*
X144166665Y-131239346D01*
X144166665Y-131239346D02*
X144366665Y-131306013D01*
X144366665Y-131306013D02*
X144499999Y-131439346D01*
X144499999Y-131439346D02*
X144566665Y-131572680D01*
X144566665Y-131572680D02*
X144633332Y-131839346D01*
X144633332Y-131839346D02*
X144633332Y-132039346D01*
X144633332Y-132039346D02*
X144566665Y-132306013D01*
X144566665Y-132306013D02*
X144499999Y-132439346D01*
X144499999Y-132439346D02*
X144366665Y-132572680D01*
X144366665Y-132572680D02*
X144166665Y-132639346D01*
X144166665Y-132639346D02*
X143833332Y-132639346D01*
X145233332Y-132639346D02*
X145233332Y-131239346D01*
X145233332Y-131239346D02*
X145699999Y-132239346D01*
X145699999Y-132239346D02*
X146166665Y-131239346D01*
X146166665Y-131239346D02*
X146166665Y-132639346D01*
X147899999Y-132639346D02*
X147899999Y-131239346D01*
X147899999Y-131239346D02*
X148366666Y-132239346D01*
X148366666Y-132239346D02*
X148833332Y-131239346D01*
X148833332Y-131239346D02*
X148833332Y-132639346D01*
X149499999Y-132639346D02*
X149499999Y-131239346D01*
X150966666Y-132506013D02*
X150899999Y-132572680D01*
X150899999Y-132572680D02*
X150699999Y-132639346D01*
X150699999Y-132639346D02*
X150566666Y-132639346D01*
X150566666Y-132639346D02*
X150366666Y-132572680D01*
X150366666Y-132572680D02*
X150233333Y-132439346D01*
X150233333Y-132439346D02*
X150166666Y-132306013D01*
X150166666Y-132306013D02*
X150099999Y-132039346D01*
X150099999Y-132039346D02*
X150099999Y-131839346D01*
X150099999Y-131839346D02*
X150166666Y-131572680D01*
X150166666Y-131572680D02*
X150233333Y-131439346D01*
X150233333Y-131439346D02*
X150366666Y-131306013D01*
X150366666Y-131306013D02*
X150566666Y-131239346D01*
X150566666Y-131239346D02*
X150699999Y-131239346D01*
X150699999Y-131239346D02*
X150899999Y-131306013D01*
X150899999Y-131306013D02*
X150966666Y-131372680D01*
X152566666Y-132239346D02*
X153233333Y-132239346D01*
X152433333Y-132639346D02*
X152900000Y-131239346D01*
X152900000Y-131239346D02*
X153366666Y-132639346D01*
X154633333Y-132639346D02*
X154166666Y-131972680D01*
X153833333Y-132639346D02*
X153833333Y-131239346D01*
X153833333Y-131239346D02*
X154366666Y-131239346D01*
X154366666Y-131239346D02*
X154500000Y-131306013D01*
X154500000Y-131306013D02*
X154566666Y-131372680D01*
X154566666Y-131372680D02*
X154633333Y-131506013D01*
X154633333Y-131506013D02*
X154633333Y-131706013D01*
X154633333Y-131706013D02*
X154566666Y-131839346D01*
X154566666Y-131839346D02*
X154500000Y-131906013D01*
X154500000Y-131906013D02*
X154366666Y-131972680D01*
X154366666Y-131972680D02*
X153833333Y-131972680D01*
X156033333Y-132639346D02*
X155566666Y-131972680D01*
X155233333Y-132639346D02*
X155233333Y-131239346D01*
X155233333Y-131239346D02*
X155766666Y-131239346D01*
X155766666Y-131239346D02*
X155900000Y-131306013D01*
X155900000Y-131306013D02*
X155966666Y-131372680D01*
X155966666Y-131372680D02*
X156033333Y-131506013D01*
X156033333Y-131506013D02*
X156033333Y-131706013D01*
X156033333Y-131706013D02*
X155966666Y-131839346D01*
X155966666Y-131839346D02*
X155900000Y-131906013D01*
X155900000Y-131906013D02*
X155766666Y-131972680D01*
X155766666Y-131972680D02*
X155233333Y-131972680D01*
X156566666Y-132239346D02*
X157233333Y-132239346D01*
X156433333Y-132639346D02*
X156900000Y-131239346D01*
X156900000Y-131239346D02*
X157366666Y-132639346D01*
X158100000Y-131972680D02*
X158100000Y-132639346D01*
X157633333Y-131239346D02*
X158100000Y-131972680D01*
X158100000Y-131972680D02*
X158566666Y-131239346D01*
X161166667Y-132639346D02*
X161166667Y-131706013D01*
X161166667Y-131972680D02*
X161233334Y-131839346D01*
X161233334Y-131839346D02*
X161300000Y-131772680D01*
X161300000Y-131772680D02*
X161433334Y-131706013D01*
X161433334Y-131706013D02*
X161566667Y-131706013D01*
X162566667Y-132572680D02*
X162433334Y-132639346D01*
X162433334Y-132639346D02*
X162166667Y-132639346D01*
X162166667Y-132639346D02*
X162033334Y-132572680D01*
X162033334Y-132572680D02*
X161966667Y-132439346D01*
X161966667Y-132439346D02*
X161966667Y-131906013D01*
X161966667Y-131906013D02*
X162033334Y-131772680D01*
X162033334Y-131772680D02*
X162166667Y-131706013D01*
X162166667Y-131706013D02*
X162433334Y-131706013D01*
X162433334Y-131706013D02*
X162566667Y-131772680D01*
X162566667Y-131772680D02*
X162633334Y-131906013D01*
X162633334Y-131906013D02*
X162633334Y-132039346D01*
X162633334Y-132039346D02*
X161966667Y-132172680D01*
X163100001Y-131706013D02*
X163433334Y-132639346D01*
X163433334Y-132639346D02*
X163766667Y-131706013D01*
X165300001Y-132239346D02*
X165966668Y-132239346D01*
X165166668Y-132639346D02*
X165633335Y-131239346D01*
X165633335Y-131239346D02*
X166100001Y-132639346D01*
X178800000Y-150106013D02*
X179866667Y-150106013D01*
X179333333Y-150639346D02*
X179333333Y-149572680D01*
X180400000Y-149239346D02*
X181333333Y-150639346D01*
X181333333Y-149239346D02*
X180400000Y-150639346D01*
%TO.C,CM13*%
D12*
X147426286Y-198857599D02*
X147426286Y-198641927D01*
X148146286Y-198857599D02*
X148146286Y-198641927D01*
%TO.C,RH4*%
X143920000Y-172453641D02*
X143920000Y-172146359D01*
X144680000Y-172453641D02*
X144680000Y-172146359D01*
%TO.C,RD4*%
X166928477Y-108138056D02*
X166810884Y-108421947D01*
X167630624Y-108428895D02*
X167513031Y-108712786D01*
%TO.C,RC4*%
X138346359Y-148120000D02*
X138653641Y-148120000D01*
X138346359Y-148880000D02*
X138653641Y-148880000D01*
%TO.C,C2*%
X157359420Y-166490000D02*
X157640580Y-166490000D01*
X157359420Y-167510000D02*
X157640580Y-167510000D01*
%TO.C,C3*%
X157238748Y-169065000D02*
X157761252Y-169065000D01*
X157238748Y-170535000D02*
X157761252Y-170535000D01*
%TO.C,RH6*%
X149120000Y-172453641D02*
X149120000Y-172146359D01*
X149880000Y-172453641D02*
X149880000Y-172146359D01*
%TO.C,RV7*%
X119261674Y-112345648D02*
X119044393Y-112128367D01*
X119799075Y-111808247D02*
X119581794Y-111590966D01*
%TO.C,U1*%
X152090000Y-165440000D02*
X153910000Y-165440000D01*
X152090000Y-165490000D02*
X152090000Y-165440000D01*
X152090000Y-168560000D02*
X152090000Y-168510000D01*
X153910000Y-165440000D02*
X153910000Y-165490000D01*
X153910000Y-166610000D02*
X153910000Y-167390000D01*
X153910000Y-168510000D02*
X153910000Y-168560000D01*
X153910000Y-168560000D02*
X152090000Y-168560000D01*
X151550000Y-165490000D02*
X151310000Y-165160000D01*
X151790000Y-165160000D01*
X151550000Y-165490000D01*
G36*
X151550000Y-165490000D02*
G01*
X151310000Y-165160000D01*
X151790000Y-165160000D01*
X151550000Y-165490000D01*
G37*
%TO.C,RC1*%
X157846359Y-148120000D02*
X158153641Y-148120000D01*
X157846359Y-148880000D02*
X158153641Y-148880000D01*
%TO.C,RV13*%
X144349631Y-198360926D02*
X144349631Y-198668208D01*
X145109631Y-198360926D02*
X145109631Y-198668208D01*
%TO.C,MK13*%
D13*
X148362500Y-201070000D02*
G75*
G02*
X148137500Y-201070000I-112500J0D01*
G01*
X148137500Y-201070000D02*
G75*
G02*
X148362500Y-201070000I112500J0D01*
G01*
%TO.C,CM11*%
D12*
X113632569Y-182727649D02*
X113785072Y-182575146D01*
X114141686Y-183236766D02*
X114294189Y-183084263D01*
%TO.C,RH7*%
X151720000Y-172453641D02*
X151720000Y-172146359D01*
X152480000Y-172453641D02*
X152480000Y-172146359D01*
%TO.C,MK10*%
D14*
X102260275Y-167926853D02*
G75*
G02*
X102035277Y-167926853I-112499J0D01*
G01*
X102035277Y-167926853D02*
G75*
G02*
X102260275Y-167926853I112499J0D01*
G01*
%TO.C,CM1*%
D12*
X198857599Y-151853713D02*
X198641927Y-151853713D01*
X198857599Y-152573713D02*
X198641927Y-152573713D01*
%TO.C,RV2*%
X196551133Y-136011187D02*
X196835024Y-135893594D01*
X196841972Y-136713334D02*
X197125863Y-136595741D01*
%TO.C,C9*%
X166359420Y-166490000D02*
X166640580Y-166490000D01*
X166359420Y-167510000D02*
X166640580Y-167510000D01*
%TO.C,D1*%
X140010000Y-165350000D02*
X134500000Y-165350000D01*
X140010000Y-168650000D02*
X134500000Y-168650000D01*
X140010000Y-168650000D02*
X140010000Y-165350000D01*
%TO.C,RV8*%
X107191793Y-126974963D02*
X106907902Y-126857370D01*
X107482632Y-126272816D02*
X107198741Y-126155223D01*
%TO.C,RV5*%
X154890368Y-101639073D02*
X154890368Y-101331791D01*
X155650368Y-101639073D02*
X155650368Y-101331791D01*
%TO.C,RV9*%
X101639073Y-144349631D02*
X101331791Y-144349631D01*
X101639073Y-145109631D02*
X101331791Y-145109631D01*
%TO.C,RH2*%
X138720000Y-172453641D02*
X138720000Y-172146359D01*
X139480000Y-172453641D02*
X139480000Y-172146359D01*
%TO.C,RD6*%
X132369375Y-108428895D02*
X132486968Y-108712786D01*
X133071522Y-108138056D02*
X133189115Y-108421947D01*
%TO.C,MK8*%
D13*
X103599668Y-128839567D02*
G75*
G02*
X103374668Y-128839567I-112500J0D01*
G01*
X103374668Y-128839567D02*
G75*
G02*
X103599668Y-128839567I112500J0D01*
G01*
%TO.C,CM9*%
D12*
X101142400Y-147426286D02*
X101358072Y-147426286D01*
X101142400Y-148146286D02*
X101358072Y-148146286D01*
%TO.C,MK16*%
D13*
X196625331Y-171160432D02*
G75*
G02*
X196400331Y-171160432I-112500J0D01*
G01*
X196400331Y-171160432D02*
G75*
G02*
X196625331Y-171160432I112500J0D01*
G01*
%TO.C,RH8*%
D12*
X154320000Y-172453641D02*
X154320000Y-172146359D01*
X155080000Y-172453641D02*
X155080000Y-172146359D01*
%TO.C,RC8*%
X157846359Y-150620000D02*
X158153641Y-150620000D01*
X157846359Y-151380000D02*
X158153641Y-151380000D01*
%TO.C,MK11*%
D13*
X112763120Y-184874506D02*
G75*
G02*
X112538120Y-184874506I-112500J0D01*
G01*
X112538120Y-184874506D02*
G75*
G02*
X112763120Y-184874506I112500J0D01*
G01*
%TO.C,RD3*%
D12*
X181659745Y-117802853D02*
X181442464Y-118020134D01*
X182197146Y-118340254D02*
X181979865Y-118557535D01*
%TO.C,RV15*%
X180200924Y-188191752D02*
X180418205Y-188409033D01*
X180738325Y-187654351D02*
X180955606Y-187871632D01*
%TO.C,C7*%
X154059420Y-158690000D02*
X154340580Y-158690000D01*
X154059420Y-159710000D02*
X154340580Y-159710000D01*
%TO.C,RC7*%
X157846359Y-153120000D02*
X158153641Y-153120000D01*
X157846359Y-153880000D02*
X158153641Y-153880000D01*
%TO.C,RC5*%
X138346359Y-150620000D02*
X138653641Y-150620000D01*
X138346359Y-151380000D02*
X138653641Y-151380000D01*
%TO.C,CM15*%
X182727649Y-186367430D02*
X182575146Y-186214927D01*
X183236766Y-185858313D02*
X183084263Y-185705810D01*
%TO.C,RC2*%
X157846359Y-145620000D02*
X158153641Y-145620000D01*
X157846359Y-146380000D02*
X158153641Y-146380000D01*
%TO.C,RH1*%
X136120000Y-172453641D02*
X136120000Y-172146359D01*
X136880000Y-172453641D02*
X136880000Y-172146359D01*
%TO.C,CM2*%
X195847921Y-133015613D02*
X195648666Y-133098146D01*
X196123454Y-133680808D02*
X195924199Y-133763341D01*
%TO.C,RD9*%
X104846359Y-149620000D02*
X105153641Y-149620000D01*
X104846359Y-150380000D02*
X105153641Y-150380000D01*
%TO.C,RV6*%
X136011187Y-103448866D02*
X135893594Y-103164975D01*
X136713334Y-103158027D02*
X136595741Y-102874136D01*
%TO.C,MK9*%
D13*
X99042500Y-148250000D02*
G75*
G02*
X98817500Y-148250000I-112500J0D01*
G01*
X98817500Y-148250000D02*
G75*
G02*
X99042500Y-148250000I112500J0D01*
G01*
%TO.C,RV1*%
D12*
X198360926Y-154890368D02*
X198668208Y-154890368D01*
X198360926Y-155650368D02*
X198668208Y-155650368D01*
%TO.C,RD7*%
X117802853Y-118340254D02*
X118020134Y-118557535D01*
X118340254Y-117802853D02*
X118557535Y-118020134D01*
%TO.C,RC3*%
X138346359Y-145620000D02*
X138653641Y-145620000D01*
X138346359Y-146380000D02*
X138653641Y-146380000D01*
%TO.C,RD15*%
X181659745Y-182197146D02*
X181442464Y-181979865D01*
X182197146Y-181659745D02*
X181979865Y-181442464D01*
%TO.C,RD5*%
X149620000Y-104846359D02*
X149620000Y-105153641D01*
X150380000Y-104846359D02*
X150380000Y-105153641D01*
%TO.C,MK12*%
D13*
X128952067Y-196512831D02*
G75*
G02*
X128727067Y-196512831I-112500J0D01*
G01*
X128727067Y-196512831D02*
G75*
G02*
X128952067Y-196512831I112500J0D01*
G01*
%TO.C,RV16*%
D12*
X192517367Y-173727183D02*
X192801258Y-173844776D01*
X192808206Y-173025036D02*
X193092097Y-173142629D01*
%TO.C,R1*%
X147846359Y-142620000D02*
X148153641Y-142620000D01*
X147846359Y-143380000D02*
X148153641Y-143380000D01*
%TO.C,MK5*%
D13*
X151862500Y-98930000D02*
G75*
G02*
X151637500Y-98930000I-112500J0D01*
G01*
X151637500Y-98930000D02*
G75*
G02*
X151862500Y-98930000I112500J0D01*
G01*
%TO.C,U3*%
D12*
X139590000Y-174240000D02*
X141410000Y-174240000D01*
X139590000Y-174290000D02*
X139590000Y-174240000D01*
X139590000Y-177360000D02*
X139590000Y-177310000D01*
X141410000Y-174240000D02*
X141410000Y-174290000D01*
X141410000Y-177310000D02*
X141410000Y-177360000D01*
X141410000Y-177360000D02*
X139590000Y-177360000D01*
X139050000Y-174290000D02*
X138810000Y-173960000D01*
X139290000Y-173960000D01*
X139050000Y-174290000D01*
G36*
X139050000Y-174290000D02*
G01*
X138810000Y-173960000D01*
X139290000Y-173960000D01*
X139050000Y-174290000D01*
G37*
%TO.C,RV14*%
X163286665Y-196841972D02*
X163404258Y-197125863D01*
X163988812Y-196551133D02*
X164106405Y-196835024D01*
%TO.C,MK15*%
D13*
X184987006Y-187349379D02*
G75*
G02*
X184762006Y-187349379I-112500J0D01*
G01*
X184762006Y-187349379D02*
G75*
G02*
X184987006Y-187349379I112500J0D01*
G01*
%TO.C,C8*%
D12*
X142892164Y-146440000D02*
X143107836Y-146440000D01*
X142892164Y-147160000D02*
X143107836Y-147160000D01*
%TO.C,MK2*%
D14*
X197964722Y-132073146D02*
G75*
G02*
X197739724Y-132073146I-112499J0D01*
G01*
X197739724Y-132073146D02*
G75*
G02*
X197964722Y-132073146I112499J0D01*
G01*
%TO.C,RD1*%
D12*
X195153641Y-149620000D02*
X194846359Y-149620000D01*
X195153641Y-150380000D02*
X194846359Y-150380000D01*
%TO.C,MK7*%
D13*
X115237993Y-112650620D02*
G75*
G02*
X115012993Y-112650620I-112500J0D01*
G01*
X115012993Y-112650620D02*
G75*
G02*
X115237993Y-112650620I112500J0D01*
G01*
%TO.C,RV4*%
D12*
X173025036Y-107191793D02*
X173142629Y-106907902D01*
X173727183Y-107482632D02*
X173844776Y-107198741D01*
%TO.C,RD2*%
X191571104Y-132369375D02*
X191287213Y-132486968D01*
X191861943Y-133071522D02*
X191578052Y-133189115D01*
%TO.C,MK4*%
D13*
X171272932Y-103487168D02*
G75*
G02*
X171047932Y-103487168I-112500J0D01*
G01*
X171047932Y-103487168D02*
G75*
G02*
X171272932Y-103487168I112500J0D01*
G01*
%TO.C,CM14*%
D12*
X166319191Y-196123454D02*
X166236658Y-195924199D01*
X166984386Y-195847921D02*
X166901853Y-195648666D01*
%TO.C,CB1*%
X187206300Y-124255568D02*
X187640746Y-123965280D01*
X188022988Y-125477828D02*
X188457434Y-125187540D01*
%TO.C,RC6*%
X138346359Y-153120000D02*
X138653641Y-153120000D01*
X138346359Y-153880000D02*
X138653641Y-153880000D01*
%TO.C,CM4*%
X170409600Y-105570848D02*
X170327067Y-105770103D01*
X171074795Y-105846381D02*
X170992262Y-106045636D01*
%TO.C,RH3*%
X141320000Y-172453641D02*
X141320000Y-172146359D01*
X142080000Y-172453641D02*
X142080000Y-172146359D01*
%TO.C,MK1*%
D13*
X201182500Y-151750000D02*
G75*
G02*
X200957500Y-151750000I-112500J0D01*
G01*
X200957500Y-151750000D02*
G75*
G02*
X201182500Y-151750000I112500J0D01*
G01*
%TO.C,CM5*%
D12*
X151853713Y-101142400D02*
X151853713Y-101358072D01*
X152573713Y-101142400D02*
X152573713Y-101358072D01*
%TO.C,CM10*%
X103876545Y-166319191D02*
X104075800Y-166236658D01*
X104152078Y-166984386D02*
X104351333Y-166901853D01*
%TO.C,CM16*%
X194153618Y-171074795D02*
X193954363Y-170992262D01*
X194429151Y-170409600D02*
X194229896Y-170327067D01*
%TO.C,RD8*%
X108138056Y-133071522D02*
X108421947Y-133189115D01*
X108428895Y-132369375D02*
X108712786Y-132486968D01*
%TO.C,C5*%
X143392164Y-169440000D02*
X143607836Y-169440000D01*
X143392164Y-170160000D02*
X143607836Y-170160000D01*
%TO.C,CM8*%
X105570848Y-129590399D02*
X105770103Y-129672932D01*
X105846381Y-128925204D02*
X106045636Y-129007737D01*
%TO.C,RV11*%
X111808247Y-180200924D02*
X111590966Y-180418205D01*
X112345648Y-180738325D02*
X112128367Y-180955606D01*
%TO.C,C1*%
X148359420Y-166490000D02*
X148640580Y-166490000D01*
X148359420Y-167510000D02*
X148640580Y-167510000D01*
%TO.C,MK14*%
D14*
X168039352Y-197852223D02*
G75*
G02*
X167814354Y-197852223I-112499J0D01*
G01*
X167814354Y-197852223D02*
G75*
G02*
X168039352Y-197852223I112499J0D01*
G01*
%TO.C,RD13*%
D12*
X149620000Y-195153641D02*
X149620000Y-194846359D01*
X150380000Y-195153641D02*
X150380000Y-194846359D01*
%TO.C,CM6*%
X133015613Y-104152078D02*
X133098146Y-104351333D01*
X133680808Y-103876545D02*
X133763341Y-104075800D01*
%TO.C,CM7*%
X116763233Y-114141686D02*
X116915736Y-114294189D01*
X117272350Y-113632569D02*
X117424853Y-113785072D01*
%TO.C,RV10*%
X103158027Y-163286665D02*
X102874136Y-163404258D01*
X103448866Y-163988812D02*
X103164975Y-164106405D01*
%TO.C,RD12*%
X132369375Y-191571104D02*
X132486968Y-191287213D01*
X133071522Y-191861943D02*
X133189115Y-191578052D01*
%TO.C,CM12*%
X128925204Y-194153618D02*
X129007737Y-193954363D01*
X129590399Y-194429151D02*
X129672932Y-194229896D01*
%TO.C,RH5*%
X146520000Y-172453641D02*
X146520000Y-172146359D01*
X147280000Y-172453641D02*
X147280000Y-172146359D01*
%TO.C,F1*%
X127613748Y-165290000D02*
X130386252Y-165290000D01*
X127613748Y-168710000D02*
X130386252Y-168710000D01*
%TO.C,RV12*%
X126272816Y-192517367D02*
X126155223Y-192801258D01*
X126974963Y-192808206D02*
X126857370Y-193092097D01*
%TO.C,CM3*%
X185858313Y-116763233D02*
X185705810Y-116915736D01*
X186367430Y-117272350D02*
X186214927Y-117424853D01*
%TO.C,CB3*%
X111977011Y-174522171D02*
X111542565Y-174812459D01*
X112793699Y-175744431D02*
X112359253Y-176034719D01*
%TO.C,FB1*%
X162100378Y-166440000D02*
X162899622Y-166440000D01*
X162100378Y-167560000D02*
X162899622Y-167560000D01*
%TO.C,RV3*%
X187654351Y-119261674D02*
X187871632Y-119044393D01*
X188191752Y-119799075D02*
X188409033Y-119581794D01*
%TO.C,U2*%
X147690000Y-149615000D02*
X152310000Y-149615000D01*
X152310000Y-156385000D02*
X147690000Y-156385000D01*
X146140000Y-150070000D02*
X145810000Y-150310000D01*
X145810000Y-149830000D01*
X146140000Y-150070000D01*
G36*
X146140000Y-150070000D02*
G01*
X145810000Y-150310000D01*
X145810000Y-149830000D01*
X146140000Y-150070000D01*
G37*
%TO.C,MK6*%
D14*
X132185645Y-102147776D02*
G75*
G02*
X131960647Y-102147776I-112499J0D01*
G01*
X131960647Y-102147776D02*
G75*
G02*
X132185645Y-102147776I112499J0D01*
G01*
%TO.C,C6*%
D12*
X149892164Y-158840000D02*
X150107836Y-158840000D01*
X149892164Y-159560000D02*
X150107836Y-159560000D01*
%TO.C,X1*%
D10*
X141250000Y-141350000D02*
X144750000Y-141350000D01*
X141250000Y-144650000D02*
X144750000Y-144650000D01*
D13*
X141162500Y-144650000D02*
G75*
G02*
X140937500Y-144650000I-112500J0D01*
G01*
X140937500Y-144650000D02*
G75*
G02*
X141162500Y-144650000I112500J0D01*
G01*
%TO.C,CB2*%
D12*
X124255568Y-112793699D02*
X123965280Y-112359253D01*
X125477828Y-111977011D02*
X125187540Y-111542565D01*
%TO.C,U4*%
X148090000Y-174240000D02*
X149910000Y-174240000D01*
X148090000Y-174290000D02*
X148090000Y-174240000D01*
X148090000Y-177360000D02*
X148090000Y-177310000D01*
X149910000Y-174240000D02*
X149910000Y-174290000D01*
X149910000Y-177310000D02*
X149910000Y-177360000D01*
X149910000Y-177360000D02*
X148090000Y-177360000D01*
X147550000Y-174290000D02*
X147310000Y-173960000D01*
X147790000Y-173960000D01*
X147550000Y-174290000D01*
G36*
X147550000Y-174290000D02*
G01*
X147310000Y-173960000D01*
X147790000Y-173960000D01*
X147550000Y-174290000D01*
G37*
%TO.C,RD10*%
X108138056Y-166928477D02*
X108421947Y-166810884D01*
X108428895Y-167630624D02*
X108712786Y-167513031D01*
%TO.C,C4*%
X143238748Y-166265000D02*
X143761252Y-166265000D01*
X143238748Y-167735000D02*
X143761252Y-167735000D01*
%TO.C,CB4*%
X174522171Y-188022988D02*
X174812459Y-188457434D01*
X175744431Y-187206300D02*
X176034719Y-187640746D01*
%TO.C,RD16*%
X191571104Y-167630624D02*
X191287213Y-167513031D01*
X191861943Y-166928477D02*
X191578052Y-166810884D01*
%TO.C,RD14*%
X166928477Y-191861943D02*
X166810884Y-191578052D01*
X167630624Y-191571104D02*
X167513031Y-191287213D01*
%TO.C,RD11*%
X117802853Y-181659745D02*
X118020134Y-181442464D01*
X118340254Y-182197146D02*
X118557535Y-181979865D01*
%TO.C,R2*%
X142346359Y-150620000D02*
X142653641Y-150620000D01*
X142346359Y-151380000D02*
X142653641Y-151380000D01*
%TO.C,MK3*%
D13*
X187461879Y-115125493D02*
G75*
G02*
X187236879Y-115125493I-112500J0D01*
G01*
X187236879Y-115125493D02*
G75*
G02*
X187461879Y-115125493I112500J0D01*
G01*
%TD*%
%LPC*%
D15*
%TO.C,CM13*%
X147786286Y-199229763D03*
X147786286Y-198269763D03*
%TD*%
D16*
%TO.C,RH4*%
X144300000Y-172810000D03*
X144300000Y-171790000D03*
%TD*%
D17*
%TO.C,RD4*%
X167415923Y-107954242D03*
X167025585Y-108896600D03*
%TD*%
D18*
%TO.C,RC4*%
X137990000Y-148500000D03*
X139010000Y-148500000D03*
%TD*%
D19*
%TO.C,C2*%
X156725000Y-167000000D03*
X158275000Y-167000000D03*
%TD*%
D20*
%TO.C,C3*%
X156550000Y-169800000D03*
X158450000Y-169800000D03*
%TD*%
D21*
%TO.C,TP14*%
X152600000Y-169900000D03*
%TD*%
D22*
%TO.C,H1*%
X181595845Y-128888331D03*
%TD*%
D16*
%TO.C,RH6*%
X149500000Y-172810000D03*
X149500000Y-171790000D03*
%TD*%
D23*
%TO.C,RV7*%
X119782358Y-112328931D03*
X119061110Y-111607683D03*
%TD*%
D24*
%TO.C,U1*%
X151862500Y-166050000D03*
X151862500Y-167000000D03*
X151862500Y-167950000D03*
X154137500Y-167950000D03*
X154137500Y-166050000D03*
%TD*%
D18*
%TO.C,RC1*%
X157490000Y-148500000D03*
X158510000Y-148500000D03*
%TD*%
D21*
%TO.C,TP1*%
X146860416Y-164602083D03*
%TD*%
D25*
%TO.C,RV13*%
X144729631Y-198004567D03*
X144729631Y-199024567D03*
%TD*%
D26*
%TO.C,MK13*%
X149550000Y-202545000D03*
X149550000Y-203895000D03*
X150450000Y-203895000D03*
X150450000Y-202545000D03*
D27*
X150000000Y-201495000D03*
D28*
X148775000Y-203220000D03*
D27*
X150000000Y-204945000D03*
D28*
X151225000Y-203220000D03*
%TD*%
D29*
%TO.C,CM11*%
X113623968Y-183245367D03*
X114302790Y-182566545D03*
%TD*%
D16*
%TO.C,RH7*%
X152100000Y-172810000D03*
X152100000Y-171790000D03*
%TD*%
D30*
%TO.C,MK10*%
X101282542Y-169692355D03*
X100035305Y-170208978D03*
X100379720Y-171040469D03*
X101626957Y-170523846D03*
D31*
X102424823Y-169706283D03*
D32*
X100362344Y-169234660D03*
D31*
X99237439Y-171026541D03*
D32*
X101299918Y-171498164D03*
%TD*%
D33*
%TO.C,CM1*%
X199229763Y-152213713D03*
X198269763Y-152213713D03*
%TD*%
D34*
%TO.C,RV2*%
X196367319Y-136498633D03*
X197309677Y-136108295D03*
%TD*%
D35*
%TO.C,TP4*%
X154000000Y-126000000D03*
%TD*%
D19*
%TO.C,C9*%
X165725000Y-167000000D03*
X167275000Y-167000000D03*
%TD*%
D35*
%TO.C,TP6*%
X189130256Y-133791716D03*
%TD*%
D36*
%TO.C,D1*%
X138500000Y-167000000D03*
X134500000Y-167000000D03*
%TD*%
D37*
%TO.C,RV8*%
X107666446Y-126760262D03*
X106724088Y-126369924D03*
%TD*%
D16*
%TO.C,RV5*%
X155270368Y-101995432D03*
X155270368Y-100975432D03*
%TD*%
D38*
%TO.C,RV9*%
X101995432Y-144729631D03*
X100975432Y-144729631D03*
%TD*%
D16*
%TO.C,RH2*%
X139100000Y-172810000D03*
X139100000Y-171790000D03*
%TD*%
D39*
%TO.C,RD6*%
X132584076Y-107954242D03*
X132974414Y-108896600D03*
%TD*%
D40*
%TO.C,MK8*%
X101626957Y-129476153D03*
X100379720Y-128959530D03*
X100035305Y-129791021D03*
X101282542Y-130307644D03*
D41*
X102424823Y-130293716D03*
D42*
X101299918Y-128501835D03*
D41*
X99237439Y-128973458D03*
D42*
X100362344Y-130765339D03*
%TD*%
D43*
%TO.C,CM9*%
X100770236Y-147786286D03*
X101730236Y-147786286D03*
%TD*%
D44*
%TO.C,MK16*%
X198373042Y-170523846D03*
X199620279Y-171040469D03*
X199964694Y-170208978D03*
X198717457Y-169692355D03*
D45*
X197575176Y-169706283D03*
D46*
X198700081Y-171498164D03*
D45*
X200762560Y-171026541D03*
D46*
X199637655Y-169234660D03*
%TD*%
D16*
%TO.C,RH8*%
X154700000Y-172810000D03*
X154700000Y-171790000D03*
%TD*%
D18*
%TO.C,RC8*%
X157490000Y-151000000D03*
X158510000Y-151000000D03*
%TD*%
D47*
%TO.C,MK11*%
X112526876Y-186836727D03*
X111572282Y-187791321D03*
X112208678Y-188427717D03*
X113163272Y-187473123D03*
D48*
X113587536Y-186412463D03*
D49*
X111501571Y-186766016D03*
D48*
X111148018Y-188851981D03*
D49*
X113233983Y-188498428D03*
%TD*%
D50*
%TO.C,RD3*%
X182180429Y-117819570D03*
X181459181Y-118540818D03*
%TD*%
D51*
%TO.C,RV15*%
X180217641Y-187671068D03*
X180938889Y-188392316D03*
%TD*%
D19*
%TO.C,C7*%
X153425000Y-159200000D03*
X154975000Y-159200000D03*
%TD*%
D18*
%TO.C,RC7*%
X157490000Y-153500000D03*
X158510000Y-153500000D03*
%TD*%
%TO.C,RC5*%
X137990000Y-151000000D03*
X139010000Y-151000000D03*
%TD*%
D52*
%TO.C,CM15*%
X183245367Y-186376031D03*
X182566545Y-185697209D03*
%TD*%
D18*
%TO.C,RC2*%
X157490000Y-146000000D03*
X158510000Y-146000000D03*
%TD*%
D16*
%TO.C,RH1*%
X136500000Y-172810000D03*
X136500000Y-171790000D03*
%TD*%
D53*
%TO.C,CM2*%
X196329522Y-133205789D03*
X195442598Y-133573165D03*
%TD*%
D18*
%TO.C,RD9*%
X104490000Y-150000000D03*
X105510000Y-150000000D03*
%TD*%
D54*
%TO.C,RV6*%
X136498633Y-103632680D03*
X136108295Y-102690322D03*
%TD*%
D55*
%TO.C,MK9*%
X97455000Y-149550000D03*
X96105000Y-149550000D03*
X96105000Y-150450000D03*
X97455000Y-150450000D03*
D56*
X98505000Y-150000000D03*
D57*
X96780000Y-148775000D03*
D56*
X95055000Y-150000000D03*
D57*
X96780000Y-151225000D03*
%TD*%
D18*
%TO.C,RV1*%
X198004567Y-155270368D03*
X199024567Y-155270368D03*
%TD*%
D51*
%TO.C,RD7*%
X117819570Y-117819570D03*
X118540818Y-118540818D03*
%TD*%
D18*
%TO.C,RC3*%
X137990000Y-146000000D03*
X139010000Y-146000000D03*
%TD*%
D23*
%TO.C,RD15*%
X182180429Y-182180429D03*
X181459181Y-181459181D03*
%TD*%
D25*
%TO.C,RD5*%
X150000000Y-104490000D03*
X150000000Y-105510000D03*
%TD*%
D58*
%TO.C,MK12*%
X129476153Y-198373042D03*
X128959530Y-199620279D03*
X129791021Y-199964694D03*
X130307644Y-198717457D03*
D59*
X130293716Y-197575176D03*
D60*
X128501835Y-198700081D03*
D59*
X128973458Y-200762560D03*
D60*
X130765339Y-199637655D03*
%TD*%
D61*
%TO.C,RV16*%
X192333553Y-173239737D03*
X193275911Y-173630075D03*
%TD*%
D18*
%TO.C,R1*%
X147490000Y-143000000D03*
X148510000Y-143000000D03*
%TD*%
D35*
%TO.C,TP8*%
X150000000Y-107645714D03*
%TD*%
D26*
%TO.C,MK5*%
X150450000Y-97455000D03*
X150450000Y-96105000D03*
X149550000Y-96105000D03*
X149550000Y-97455000D03*
D27*
X150000000Y-98505000D03*
D28*
X151225000Y-96780000D03*
D27*
X150000000Y-95055000D03*
D28*
X148775000Y-96780000D03*
%TD*%
D24*
%TO.C,U3*%
X139362500Y-174850000D03*
X139362500Y-175800000D03*
X139362500Y-176750000D03*
X141637500Y-176750000D03*
X141637500Y-175800000D03*
X141637500Y-174850000D03*
%TD*%
D39*
%TO.C,RV14*%
X163501366Y-196367319D03*
X163891704Y-197309677D03*
%TD*%
D35*
%TO.C,TP9*%
X120050996Y-120050996D03*
%TD*%
D62*
%TO.C,MK15*%
X186836727Y-187473123D03*
X187791321Y-188427717D03*
X188427717Y-187791321D03*
X187473123Y-186836727D03*
D63*
X186412463Y-186412463D03*
D64*
X186766016Y-188498428D03*
D63*
X188851981Y-188851981D03*
D64*
X188498428Y-186766016D03*
%TD*%
D43*
%TO.C,C8*%
X142520000Y-146800000D03*
X143480000Y-146800000D03*
%TD*%
D65*
%TO.C,MK2*%
X198717457Y-130307644D03*
X199964694Y-129791021D03*
X199620279Y-128959530D03*
X198373042Y-129476153D03*
D66*
X197575176Y-130293716D03*
D67*
X199637655Y-130765339D03*
D66*
X200762560Y-128973458D03*
D67*
X198700081Y-128501835D03*
%TD*%
D38*
%TO.C,RD1*%
X195510000Y-150000000D03*
X194490000Y-150000000D03*
%TD*%
D68*
%TO.C,MK7*%
X113163272Y-112526876D03*
X112208678Y-111572282D03*
X111572282Y-112208678D03*
X112526876Y-113163272D03*
D69*
X113587536Y-113587536D03*
D70*
X113233983Y-111501571D03*
D69*
X111148018Y-111148018D03*
D70*
X111501571Y-113233983D03*
%TD*%
D35*
%TO.C,TP7*%
X179949001Y-120050996D03*
%TD*%
%TO.C,TP11*%
X120050996Y-179949001D03*
%TD*%
D71*
%TO.C,RV4*%
X173239737Y-107666446D03*
X173630075Y-106724088D03*
%TD*%
D72*
%TO.C,RD2*%
X192045757Y-132584076D03*
X191103399Y-132974414D03*
%TD*%
D73*
%TO.C,MK4*%
X170523846Y-101626957D03*
X171040469Y-100379720D03*
X170208978Y-100035305D03*
X169692355Y-101282542D03*
D74*
X169706283Y-102424823D03*
D75*
X171498164Y-101299918D03*
D74*
X171026541Y-99237439D03*
D75*
X169234660Y-100362344D03*
%TD*%
D76*
%TO.C,CM14*%
X166794210Y-196329522D03*
X166426834Y-195442598D03*
%TD*%
D77*
%TO.C,CB1*%
X187041971Y-125249346D03*
X188621763Y-124193762D03*
%TD*%
D18*
%TO.C,RC6*%
X137990000Y-153500000D03*
X139010000Y-153500000D03*
%TD*%
D78*
%TO.C,CM4*%
X170884619Y-105364780D03*
X170517243Y-106251704D03*
%TD*%
D16*
%TO.C,RH3*%
X141700000Y-172810000D03*
X141700000Y-171790000D03*
%TD*%
D55*
%TO.C,MK1*%
X202545000Y-150450000D03*
X203895000Y-150450000D03*
X203895000Y-149550000D03*
X202545000Y-149550000D03*
D56*
X201495000Y-150000000D03*
D57*
X203220000Y-151225000D03*
D56*
X204945000Y-150000000D03*
D57*
X203220000Y-148775000D03*
%TD*%
D79*
%TO.C,CM5*%
X152213713Y-100770236D03*
X152213713Y-101730236D03*
%TD*%
D80*
%TO.C,CM10*%
X103670477Y-166794210D03*
X104557401Y-166426834D03*
%TD*%
D35*
%TO.C,TP5*%
X157000000Y-128000000D03*
%TD*%
D81*
%TO.C,CM16*%
X194635219Y-170884619D03*
X193748295Y-170517243D03*
%TD*%
D35*
%TO.C,TP2*%
X174144641Y-130831494D03*
%TD*%
D61*
%TO.C,RD8*%
X107954242Y-132584076D03*
X108896600Y-132974414D03*
%TD*%
D43*
%TO.C,C5*%
X143020000Y-169800000D03*
X143980000Y-169800000D03*
%TD*%
D82*
%TO.C,CM8*%
X105364780Y-129115380D03*
X106251704Y-129482756D03*
%TD*%
D50*
%TO.C,RV11*%
X112328931Y-180217641D03*
X111607683Y-180938889D03*
%TD*%
D19*
%TO.C,C1*%
X147725000Y-167000000D03*
X149275000Y-167000000D03*
%TD*%
D83*
%TO.C,MK14*%
X169692355Y-198717457D03*
X170208978Y-199964694D03*
X171040469Y-199620279D03*
X170523846Y-198373042D03*
D84*
X169706283Y-197575176D03*
D85*
X169234660Y-199637655D03*
D84*
X171026541Y-200762560D03*
D85*
X171498164Y-198700081D03*
%TD*%
D16*
%TO.C,RD13*%
X150000000Y-195510000D03*
X150000000Y-194490000D03*
%TD*%
D86*
%TO.C,CM6*%
X133205789Y-103670477D03*
X133573165Y-104557401D03*
%TD*%
D35*
%TO.C,TP13*%
X179949002Y-179949002D03*
%TD*%
%TO.C,TP12*%
X166208282Y-189130256D03*
%TD*%
D22*
%TO.C,H2*%
X128888331Y-118404154D03*
%TD*%
D87*
%TO.C,CM7*%
X116754632Y-113623968D03*
X117433454Y-114302790D03*
%TD*%
D72*
%TO.C,RV10*%
X103632680Y-163501366D03*
X102690322Y-163891704D03*
%TD*%
D71*
%TO.C,RD12*%
X132584076Y-192045757D03*
X132974414Y-191103399D03*
%TD*%
D88*
%TO.C,CM12*%
X129115380Y-194635219D03*
X129482756Y-193748295D03*
%TD*%
D35*
%TO.C,TP3*%
X166876923Y-164723076D03*
%TD*%
D16*
%TO.C,RH5*%
X146900000Y-172810000D03*
X146900000Y-171790000D03*
%TD*%
D89*
%TO.C,F1*%
X126862500Y-167000000D03*
X131137500Y-167000000D03*
%TD*%
D17*
%TO.C,RV12*%
X126760262Y-192333553D03*
X126369924Y-193275911D03*
%TD*%
D22*
%TO.C,H3*%
X118404154Y-171111668D03*
%TD*%
D90*
%TO.C,CM3*%
X186376031Y-116754632D03*
X185697209Y-117433454D03*
%TD*%
D91*
%TO.C,CB3*%
X112958028Y-174750653D03*
X111378236Y-175806237D03*
%TD*%
D92*
%TO.C,FB1*%
X161437500Y-167000000D03*
X163562500Y-167000000D03*
%TD*%
D93*
%TO.C,RV3*%
X187671068Y-119782358D03*
X188392316Y-119061110D03*
%TD*%
D94*
%TO.C,U2*%
X147137500Y-150075000D03*
X147137500Y-150725000D03*
X147137500Y-151375000D03*
X147137500Y-152025000D03*
X147137500Y-152675000D03*
X147137500Y-153325000D03*
X147137500Y-153975000D03*
X147137500Y-154625000D03*
X147137500Y-155275000D03*
X147137500Y-155925000D03*
X152862500Y-155925000D03*
X152862500Y-155275000D03*
X152862500Y-154625000D03*
X152862500Y-153975000D03*
X152862500Y-153325000D03*
X152862500Y-152675000D03*
X152862500Y-152025000D03*
X152862500Y-151375000D03*
X152862500Y-150725000D03*
X152862500Y-150075000D03*
%TD*%
D95*
%TO.C,MK6*%
X130307644Y-101282542D03*
X129791021Y-100035305D03*
X128959530Y-100379720D03*
X129476153Y-101626957D03*
D96*
X130293716Y-102424823D03*
D97*
X130765339Y-100362344D03*
D96*
X128973458Y-99237439D03*
D97*
X128501835Y-101299918D03*
%TD*%
D43*
%TO.C,C6*%
X149520000Y-159200000D03*
X150480000Y-159200000D03*
%TD*%
D22*
%TO.C,H4*%
X171111668Y-181595845D03*
%TD*%
D35*
%TO.C,TP10*%
X110869742Y-166208282D03*
%TD*%
D98*
%TO.C,X1*%
X141950000Y-143950000D03*
X144050000Y-143950000D03*
X144050000Y-142050000D03*
X141950000Y-142050000D03*
%TD*%
D99*
%TO.C,CB2*%
X125249346Y-112958028D03*
X124193762Y-111378236D03*
%TD*%
D24*
%TO.C,U4*%
X147862500Y-174850000D03*
X147862500Y-175800000D03*
X147862500Y-176750000D03*
X150137500Y-176750000D03*
X150137500Y-175800000D03*
X150137500Y-174850000D03*
%TD*%
D34*
%TO.C,RD10*%
X107954242Y-167415923D03*
X108896600Y-167025585D03*
%TD*%
D20*
%TO.C,C4*%
X142550000Y-167000000D03*
X144450000Y-167000000D03*
%TD*%
D100*
%TO.C,CB4*%
X174750653Y-187041971D03*
X175806237Y-188621763D03*
%TD*%
D37*
%TO.C,RD16*%
X192045757Y-167415923D03*
X191103399Y-167025585D03*
%TD*%
D54*
%TO.C,RD14*%
X167415923Y-192045757D03*
X167025585Y-191103399D03*
%TD*%
D93*
%TO.C,RD11*%
X117819570Y-182180429D03*
X118540818Y-181459181D03*
%TD*%
D18*
%TO.C,R2*%
X141990000Y-151000000D03*
X143010000Y-151000000D03*
%TD*%
D101*
%TO.C,MK3*%
X187473123Y-113163272D03*
X188427717Y-112208678D03*
X187791321Y-111572282D03*
X186836727Y-112526876D03*
D102*
X186412463Y-113587536D03*
D103*
X188498428Y-113233983D03*
D102*
X188851981Y-111148018D03*
D103*
X186766016Y-111501571D03*
%TD*%
D104*
%TO.C,J1*%
X165240000Y-181730000D03*
D105*
X165240000Y-179190000D03*
X162700000Y-181730000D03*
X162700000Y-179190000D03*
X160160000Y-181730000D03*
X160160000Y-179190000D03*
X157620000Y-181730000D03*
X157620000Y-179190000D03*
X155080000Y-181730000D03*
X155080000Y-179190000D03*
X152540000Y-181730000D03*
X152540000Y-179190000D03*
X150000000Y-181730000D03*
X150000000Y-179190000D03*
X147460000Y-181730000D03*
X147460000Y-179190000D03*
X144920000Y-181730000D03*
X144920000Y-179190000D03*
X142380000Y-181730000D03*
X142380000Y-179190000D03*
X139840000Y-181730000D03*
X139840000Y-179190000D03*
X137300000Y-181730000D03*
X137300000Y-179190000D03*
X134760000Y-181730000D03*
X134760000Y-179190000D03*
%TD*%
D104*
%TO.C,J3*%
X189210000Y-161430000D03*
D105*
X186670000Y-161430000D03*
X184130000Y-161430000D03*
X181590000Y-161430000D03*
X179050000Y-161430000D03*
X176510000Y-161430000D03*
X173970000Y-161430000D03*
X171430000Y-161430000D03*
X168890000Y-161430000D03*
X166350000Y-161430000D03*
X163810000Y-161430000D03*
X161270000Y-161430000D03*
X158730000Y-161430000D03*
X156190000Y-161430000D03*
X153650000Y-161430000D03*
X151110000Y-161430000D03*
X148570000Y-161430000D03*
X146030000Y-161430000D03*
X143490000Y-161430000D03*
X140950000Y-161430000D03*
X138410000Y-161430000D03*
X135870000Y-161430000D03*
X133330000Y-161430000D03*
X130790000Y-161430000D03*
%TD*%
D104*
%TO.C,J2*%
X189210000Y-138570000D03*
D105*
X186670000Y-138570000D03*
X184130000Y-138570000D03*
X181590000Y-138570000D03*
X179050000Y-138570000D03*
X176510000Y-138570000D03*
X173970000Y-138570000D03*
X171430000Y-138570000D03*
X168890000Y-138570000D03*
X166350000Y-138570000D03*
X163810000Y-138570000D03*
X161270000Y-138570000D03*
X158730000Y-138570000D03*
X156190000Y-138570000D03*
X153650000Y-138570000D03*
X151110000Y-138570000D03*
X148570000Y-138570000D03*
X146030000Y-138570000D03*
X143490000Y-138570000D03*
X140950000Y-138570000D03*
X138410000Y-138570000D03*
X135870000Y-138570000D03*
X133330000Y-138570000D03*
X130790000Y-138570000D03*
%TD*%
%LPD*%
M02*
