M48
; DRILL file KiCad 10.0.5 date 2026-08-04T17:41:03
; FORMAT={-:-/ absolute / metric / decimal}
; #@! TF.CreationDate,2026-08-04T17:41:03-07:00
; #@! TF.GenerationSoftware,Kicad,Pcbnew,10.0.5
; #@! TF.FileFunction,Plated,1,4,PTH
FMAT,2
METRIC
; #@! TA.AperFunction,Plated,PTH,ViaDrill
T1C0.300
; #@! TA.AperFunction,Plated,PTH,ComponentDrill
T2C1.000
%
G90
G05
T1
X93.93Y-150.0
X96.78Y-148.05
X96.78Y-151.95
X98.198Y-128.543
X98.198Y-171.457
X99.63Y-150.0
X100.085Y-131.435
X100.085Y-168.565
X101.577Y-127.832
X101.577Y-172.168
X102.779Y-147.834
X103.464Y-130.724
X103.464Y-169.276
X105.545Y-166.07
X106.959Y-145.275
X107.202Y-129.929
X108.427Y-162.105
X108.5Y-150.0
X110.353Y-110.353
X110.353Y-189.647
X110.458Y-177.183
X110.989Y-113.747
X110.989Y-186.253
X111.659Y-134.119
X111.659Y-165.881
X112.043Y-129.163
X113.747Y-110.989
X113.747Y-189.011
X113.997Y-174.056
X114.383Y-114.383
X114.383Y-185.617
X115.078Y-181.859
X116.224Y-177.093
X118.141Y-115.078
X120.655Y-120.655
X120.655Y-179.345
X122.869Y-110.493
X122.907Y-116.224
X125.944Y-113.997
X127.832Y-101.577
X127.832Y-198.423
X128.543Y-98.198
X128.543Y-201.802
X129.163Y-187.957
X129.929Y-192.798
X130.724Y-103.464
X130.724Y-196.536
X130.8Y-164.0
X131.435Y-100.085
X131.435Y-199.915
X133.93Y-105.545
X134.119Y-111.659
X134.119Y-188.341
X137.8Y-168.6
X137.8Y-171.7
X137.895Y-108.427
X137.925Y-175.8
X139.2Y-170.3
X139.2Y-171.7
X139.3Y-169.1
X139.8Y-174.0
X139.8Y-177.2
X140.4Y-163.8
X140.4Y-165.4
X141.1Y-179.9
X141.4Y-182.9
X141.6Y-175.8
X141.7Y-165.4
X142.2Y-150.9
X142.5Y-147.0
X142.5Y-148.6
X142.7Y-171.7
X144.05Y-145.325
X144.4Y-152.1
X144.45Y-168.45
X144.535Y-146.8
X144.6Y-172.7
X144.88Y-169.8
X145.275Y-193.041
X145.625Y-150.075
X145.625Y-155.925
X146.0Y-150.8
X146.0Y-171.7
X146.2Y-148.7
X146.425Y-175.8
X146.6Y-147.2
X147.4Y-171.7
X147.834Y-197.221
X148.05Y-96.78
X148.05Y-203.22
X148.1Y-174.9
X148.2Y-152.0
X148.7Y-173.3
X149.275Y-168.45
X149.6Y-177.3
X150.0Y-93.93
X150.0Y-99.63
X150.0Y-108.5
X150.0Y-173.7
X150.0Y-191.5
X150.0Y-200.37
X150.0Y-206.07
X150.1Y-175.8
X150.976Y-167.156
X151.1Y-152.6
X151.4Y-175.9
X151.4Y-176.7
X151.535Y-159.2
X151.8Y-182.9
X151.9Y-150.0
X151.95Y-96.78
X151.95Y-203.22
X152.166Y-102.779
X152.2Y-170.3
X152.2Y-171.7
X153.8Y-177.7
X153.9Y-172.3
X154.0Y-126.0
X154.375Y-150.725
X154.4Y-172.9
X154.725Y-106.959
X155.4Y-171.7
X155.6Y-163.8
X156.2Y-159.2
X156.2Y-171.7
X157.0Y-128.0
X158.275Y-168.45
X159.35Y-169.8
X162.105Y-191.573
X165.881Y-111.659
X165.881Y-188.341
X166.07Y-194.455
X167.275Y-168.45
X167.62Y-136.2
X167.62Y-163.0
X168.565Y-100.085
X168.565Y-199.915
X169.276Y-103.464
X169.276Y-196.536
X170.071Y-107.202
X170.837Y-112.043
X171.457Y-98.198
X171.457Y-201.802
X172.168Y-101.577
X172.168Y-198.423
X174.056Y-186.003
X177.093Y-183.776
X177.131Y-189.507
X179.345Y-120.655
X179.345Y-179.345
X181.859Y-184.922
X183.776Y-122.907
X184.922Y-118.141
X185.617Y-114.383
X185.617Y-185.617
X186.003Y-125.944
X186.253Y-110.989
X186.253Y-189.011
X187.957Y-170.837
X188.341Y-134.119
X188.341Y-165.881
X189.011Y-113.747
X189.011Y-186.253
X189.542Y-122.817
X189.647Y-110.353
X189.647Y-189.647
X191.5Y-150.0
X191.573Y-137.895
X192.798Y-170.071
X193.041Y-154.725
X194.455Y-133.93
X196.536Y-130.724
X196.536Y-169.276
X197.221Y-152.166
X198.423Y-127.832
X198.423Y-172.168
X199.915Y-131.435
X199.915Y-168.565
X200.37Y-150.0
X201.802Y-128.543
X201.802Y-171.457
X203.22Y-148.05
X203.22Y-151.95
X206.07Y-150.0
T2
X130.79Y-138.57
X130.79Y-161.43
X133.33Y-138.57
X133.33Y-161.43
X134.76Y-179.19
X134.76Y-181.73
X135.87Y-138.57
X135.87Y-161.43
X137.3Y-179.19
X137.3Y-181.73
X138.41Y-138.57
X138.41Y-161.43
X139.84Y-179.19
X139.84Y-181.73
X140.95Y-138.57
X140.95Y-161.43
X142.38Y-179.19
X142.38Y-181.73
X143.49Y-138.57
X143.49Y-161.43
X144.92Y-179.19
X144.92Y-181.73
X146.03Y-138.57
X146.03Y-161.43
X147.46Y-179.19
X147.46Y-181.73
X148.57Y-138.57
X148.57Y-161.43
X150.0Y-179.19
X150.0Y-181.73
X151.11Y-138.57
X151.11Y-161.43
X152.54Y-179.19
X152.54Y-181.73
X153.65Y-138.57
X153.65Y-161.43
X155.08Y-179.19
X155.08Y-181.73
X156.19Y-138.57
X156.19Y-161.43
X157.62Y-179.19
X157.62Y-181.73
X158.73Y-138.57
X158.73Y-161.43
X160.16Y-179.19
X160.16Y-181.73
X161.27Y-138.57
X161.27Y-161.43
X162.7Y-179.19
X162.7Y-181.73
X163.81Y-138.57
X163.81Y-161.43
X165.24Y-179.19
X165.24Y-181.73
X166.35Y-138.57
X166.35Y-161.43
X168.89Y-138.57
X168.89Y-161.43
X171.43Y-138.57
X171.43Y-161.43
X173.97Y-138.57
X173.97Y-161.43
X176.51Y-138.57
X176.51Y-161.43
X179.05Y-138.57
X179.05Y-161.43
X181.59Y-138.57
X181.59Y-161.43
X184.13Y-138.57
X184.13Y-161.43
X186.67Y-138.57
X186.67Y-161.43
X189.21Y-138.57
X189.21Y-161.43
M30
