%TF.GenerationSoftware,KiCad,Pcbnew,10.0.5*%
%TF.CreationDate,2026-08-04T15:39:28-07:00*%
%TF.ProjectId,microphone_array_v2,6d696372-6f70-4686-9f6e-655f61727261,A*%
%TF.SameCoordinates,Original*%
%TF.FileFunction,Other,User*%
%FSLAX46Y46*%
G04 Gerber Fmt 4.6, Leading zero omitted, Abs format (unit mm)*
G04 Created by KiCad (PCBNEW 10.0.5) date 2026-08-04 15:39:28*
%MOMM*%
%LPD*%
G01*
G04 APERTURE LIST*
%ADD10C,0.050000*%
G04 APERTURE END LIST*
%TO.C,CM13*%
D10*
X147326286Y-197839763D02*
X148246286Y-197839763D01*
X148246286Y-199659763D01*
X147326286Y-199659763D01*
X147326286Y-197839763D01*
%TO.C,RH4*%
X143830000Y-171370000D02*
X144770000Y-171370000D01*
X144770000Y-173230000D01*
X143830000Y-173230000D01*
X143830000Y-171370000D01*
%TO.C,RD4*%
X168010873Y-107746074D02*
X167299082Y-109464490D01*
X166430635Y-109104768D01*
X167142426Y-107386352D01*
X168010873Y-107746074D01*
%TO.C,RC4*%
X137570000Y-148030000D02*
X139430000Y-148030000D01*
X139430000Y-148970000D01*
X137570000Y-148970000D01*
X137570000Y-148030000D01*
%TO.C,C2*%
X156020000Y-166270000D02*
X158980000Y-166270000D01*
X158980000Y-167730000D01*
X156020000Y-167730000D01*
X156020000Y-166270000D01*
%TO.C,C3*%
X155800000Y-168820000D02*
X159200000Y-168820000D01*
X159200000Y-170780000D01*
X155800000Y-170780000D01*
X155800000Y-168820000D01*
%TO.C,TP14*%
X153600000Y-169900000D02*
G75*
G02*
X151600000Y-169900000I-1000000J0D01*
G01*
X151600000Y-169900000D02*
G75*
G02*
X153600000Y-169900000I1000000J0D01*
G01*
%TO.C,H1*%
X185045845Y-128888331D02*
G75*
G02*
X178145845Y-128888331I-3450000J0D01*
G01*
X178145845Y-128888331D02*
G75*
G02*
X185045845Y-128888331I3450000J0D01*
G01*
%TO.C,RH6*%
X149030000Y-171370000D02*
X149970000Y-171370000D01*
X149970000Y-173230000D01*
X149030000Y-173230000D01*
X149030000Y-171370000D01*
%TO.C,RV7*%
X119747003Y-112958256D02*
X118431785Y-111643038D01*
X119096465Y-110978358D01*
X120411683Y-112293576D01*
X119747003Y-112958256D01*
%TO.C,U1*%
X150950000Y-165500000D02*
X151950000Y-165500000D01*
X150950000Y-168500000D02*
X150950000Y-165500000D01*
X151950000Y-165300000D02*
X154050000Y-165300000D01*
X151950000Y-165500000D02*
X151950000Y-165300000D01*
X151950000Y-168500000D02*
X150950000Y-168500000D01*
X151950000Y-168700000D02*
X151950000Y-168500000D01*
X154050000Y-165300000D02*
X154050000Y-165500000D01*
X154050000Y-165500000D02*
X155050000Y-165500000D01*
X154050000Y-166610000D02*
X154050000Y-167390000D01*
X154050000Y-167390000D02*
X155050000Y-167390000D01*
X154050000Y-168500000D02*
X154050000Y-168700000D01*
X154050000Y-168700000D02*
X151950000Y-168700000D01*
X155050000Y-165500000D02*
X155050000Y-166610000D01*
X155050000Y-166610000D02*
X154050000Y-166610000D01*
X155050000Y-167390000D02*
X155050000Y-168500000D01*
X155050000Y-168500000D02*
X154050000Y-168500000D01*
%TO.C,RC1*%
X157070000Y-148030000D02*
X158930000Y-148030000D01*
X158930000Y-148970000D01*
X157070000Y-148970000D01*
X157070000Y-148030000D01*
%TO.C,TP1*%
X147860416Y-164602083D02*
G75*
G02*
X145860416Y-164602083I-1000000J0D01*
G01*
X145860416Y-164602083D02*
G75*
G02*
X147860416Y-164602083I1000000J0D01*
G01*
%TO.C,RV13*%
X144259631Y-197584567D02*
X145199631Y-197584567D01*
X145199631Y-199444567D01*
X144259631Y-199444567D01*
X144259631Y-197584567D01*
%TO.C,MK13*%
X148000000Y-200770000D02*
X152000000Y-200770000D01*
X148000000Y-205670000D02*
X148000000Y-200770000D01*
X152000000Y-200770000D02*
X152000000Y-205670000D01*
X152000000Y-205670000D02*
X148000000Y-205670000D01*
%TO.C,CM11*%
X112994643Y-183224154D02*
X114281577Y-181937220D01*
X114932115Y-182587758D01*
X113645181Y-183874692D01*
X112994643Y-183224154D01*
%TO.C,RH7*%
X151630000Y-171370000D02*
X152570000Y-171370000D01*
X152570000Y-173230000D01*
X151630000Y-173230000D01*
X151630000Y-171370000D01*
%TO.C,MK10*%
X97802259Y-169456227D02*
X102329269Y-167581079D01*
X99332993Y-173151745D02*
X97802259Y-169456227D01*
X102329269Y-167581079D02*
X103860003Y-171276597D01*
X103860003Y-171276597D02*
X99332993Y-173151745D01*
%TO.C,CM1*%
X197839763Y-151753713D02*
X199659763Y-151753713D01*
X199659763Y-152673713D01*
X197839763Y-152673713D01*
X197839763Y-151753713D01*
%TO.C,RV2*%
X195799429Y-136225136D02*
X197517845Y-135513345D01*
X197877567Y-136381792D01*
X196159151Y-137093583D01*
X195799429Y-136225136D01*
%TO.C,TP4*%
X155250000Y-126000000D02*
G75*
G02*
X152750000Y-126000000I-1250000J0D01*
G01*
X152750000Y-126000000D02*
G75*
G02*
X155250000Y-126000000I1250000J0D01*
G01*
%TO.C,C9*%
X165020000Y-166270000D02*
X167980000Y-166270000D01*
X167980000Y-167730000D01*
X165020000Y-167730000D01*
X165020000Y-166270000D01*
%TO.C,TP6*%
X190380256Y-133791716D02*
G75*
G02*
X187880256Y-133791716I-1250000J0D01*
G01*
X187880256Y-133791716D02*
G75*
G02*
X190380256Y-133791716I1250000J0D01*
G01*
%TO.C,D1*%
X133000000Y-165250000D02*
X140000000Y-165250000D01*
X133000000Y-168750000D02*
X133000000Y-165250000D01*
X140000000Y-165250000D02*
X140000000Y-168750000D01*
X140000000Y-168750000D02*
X133000000Y-168750000D01*
%TO.C,RV8*%
X107874614Y-127355212D02*
X106156198Y-126643421D01*
X106515920Y-125774974D01*
X108234336Y-126486765D01*
X107874614Y-127355212D01*
%TO.C,RV5*%
X154800368Y-100555432D02*
X155740368Y-100555432D01*
X155740368Y-102415432D01*
X154800368Y-102415432D01*
X154800368Y-100555432D01*
%TO.C,RV9*%
X100555432Y-144259631D02*
X102415432Y-144259631D01*
X102415432Y-145199631D01*
X100555432Y-145199631D01*
X100555432Y-144259631D01*
%TO.C,RH2*%
X138630000Y-171370000D02*
X139570000Y-171370000D01*
X139570000Y-173230000D01*
X138630000Y-173230000D01*
X138630000Y-171370000D01*
%TO.C,RD6*%
X132857573Y-107386352D02*
X133569364Y-109104768D01*
X132700917Y-109464490D01*
X131989126Y-107746074D01*
X132857573Y-107386352D01*
%TO.C,MK8*%
X97802259Y-130543772D02*
X99332993Y-126848254D01*
X99332993Y-126848254D02*
X103860003Y-128723402D01*
X102329269Y-132418920D02*
X97802259Y-130543772D01*
X103860003Y-128723402D02*
X102329269Y-132418920D01*
%TO.C,CM9*%
X100340236Y-147326286D02*
X102160236Y-147326286D01*
X102160236Y-148246286D01*
X100340236Y-148246286D01*
X100340236Y-147326286D01*
%TO.C,MK16*%
X196139996Y-171276597D02*
X197670730Y-167581079D01*
X197670730Y-167581079D02*
X202197740Y-169456227D01*
X200667006Y-173151745D02*
X196139996Y-171276597D01*
X202197740Y-169456227D02*
X200667006Y-173151745D01*
%TO.C,RH8*%
X154230000Y-171370000D02*
X155170000Y-171370000D01*
X155170000Y-173230000D01*
X154230000Y-173230000D01*
X154230000Y-171370000D01*
%TO.C,RC8*%
X157070000Y-150530000D02*
X158930000Y-150530000D01*
X158930000Y-151470000D01*
X157070000Y-151470000D01*
X157070000Y-150530000D01*
%TO.C,MK11*%
X109221152Y-187950420D02*
X112685975Y-184485597D01*
X112049579Y-190778847D02*
X109221152Y-187950420D01*
X112685975Y-184485597D02*
X115514402Y-187314024D01*
X115514402Y-187314024D02*
X112049579Y-190778847D01*
%TO.C,RD3*%
X182809754Y-117854925D02*
X181494536Y-119170143D01*
X180829856Y-118505463D01*
X182145074Y-117190245D01*
X182809754Y-117854925D01*
%TO.C,RV15*%
X180252996Y-187041743D02*
X181568214Y-188356961D01*
X180903534Y-189021641D01*
X179588316Y-187706423D01*
X180252996Y-187041743D01*
%TO.C,C7*%
X152720000Y-158470000D02*
X155680000Y-158470000D01*
X155680000Y-159930000D01*
X152720000Y-159930000D01*
X152720000Y-158470000D01*
%TO.C,RC7*%
X157070000Y-153030000D02*
X158930000Y-153030000D01*
X158930000Y-153970000D01*
X157070000Y-153970000D01*
X157070000Y-153030000D01*
%TO.C,RC5*%
X137570000Y-150530000D02*
X139430000Y-150530000D01*
X139430000Y-151470000D01*
X137570000Y-151470000D01*
X137570000Y-150530000D01*
%TO.C,CM15*%
X183224154Y-187005356D02*
X181937220Y-185718422D01*
X182587758Y-185067884D01*
X183874692Y-186354818D01*
X183224154Y-187005356D01*
%TO.C,RC2*%
X157070000Y-145530000D02*
X158930000Y-145530000D01*
X158930000Y-146470000D01*
X157070000Y-146470000D01*
X157070000Y-145530000D01*
%TO.C,RH1*%
X136030000Y-171370000D02*
X136970000Y-171370000D01*
X136970000Y-173230000D01*
X136030000Y-173230000D01*
X136030000Y-171370000D01*
%TO.C,CM2*%
X196902825Y-133466220D02*
X195221364Y-134162704D01*
X194869295Y-133312734D01*
X196550756Y-132616250D01*
X196902825Y-133466220D01*
%TO.C,RD9*%
X104070000Y-149530000D02*
X105930000Y-149530000D01*
X105930000Y-150470000D01*
X104070000Y-150470000D01*
X104070000Y-149530000D01*
%TO.C,RV6*%
X136225136Y-104200570D02*
X135513345Y-102482154D01*
X136381792Y-102122432D01*
X137093583Y-103840848D01*
X136225136Y-104200570D01*
%TO.C,MK9*%
X94330000Y-148000000D02*
X99230000Y-148000000D01*
X94330000Y-152000000D02*
X94330000Y-148000000D01*
X99230000Y-148000000D02*
X99230000Y-152000000D01*
X99230000Y-152000000D02*
X94330000Y-152000000D01*
%TO.C,RV1*%
X197584567Y-154800368D02*
X199444567Y-154800368D01*
X199444567Y-155740368D01*
X197584567Y-155740368D01*
X197584567Y-154800368D01*
%TO.C,RD7*%
X117854925Y-117190245D02*
X119170143Y-118505463D01*
X118505463Y-119170143D01*
X117190245Y-117854925D01*
X117854925Y-117190245D01*
%TO.C,RC3*%
X137570000Y-145530000D02*
X139430000Y-145530000D01*
X139430000Y-146470000D01*
X137570000Y-146470000D01*
X137570000Y-145530000D01*
%TO.C,RD15*%
X182145074Y-182809754D02*
X180829856Y-181494536D01*
X181494536Y-180829856D01*
X182809754Y-182145074D01*
X182145074Y-182809754D01*
%TO.C,RD5*%
X149530000Y-104070000D02*
X150470000Y-104070000D01*
X150470000Y-105930000D01*
X149530000Y-105930000D01*
X149530000Y-104070000D01*
%TO.C,MK12*%
X126848254Y-200667006D02*
X128723402Y-196139996D01*
X128723402Y-196139996D02*
X132418920Y-197670730D01*
X130543772Y-202197740D02*
X126848254Y-200667006D01*
X132418920Y-197670730D02*
X130543772Y-202197740D01*
%TO.C,RV16*%
X192125385Y-172644787D02*
X193843801Y-173356578D01*
X193484079Y-174225025D01*
X191765663Y-173513234D01*
X192125385Y-172644787D01*
%TO.C,R1*%
X147070000Y-142530000D02*
X148930000Y-142530000D01*
X148930000Y-143470000D01*
X147070000Y-143470000D01*
X147070000Y-142530000D01*
%TO.C,TP8*%
X151250000Y-107645714D02*
G75*
G02*
X148750000Y-107645714I-1250000J0D01*
G01*
X148750000Y-107645714D02*
G75*
G02*
X151250000Y-107645714I1250000J0D01*
G01*
%TO.C,MK5*%
X148000000Y-94330000D02*
X152000000Y-94330000D01*
X148000000Y-99230000D02*
X148000000Y-94330000D01*
X152000000Y-94330000D02*
X152000000Y-99230000D01*
X152000000Y-99230000D02*
X148000000Y-99230000D01*
%TO.C,U3*%
X138450000Y-174300000D02*
X139450000Y-174300000D01*
X138450000Y-177300000D02*
X138450000Y-174300000D01*
X139450000Y-174100000D02*
X141550000Y-174100000D01*
X139450000Y-174300000D02*
X139450000Y-174100000D01*
X139450000Y-177300000D02*
X138450000Y-177300000D01*
X139450000Y-177500000D02*
X139450000Y-177300000D01*
X141550000Y-174100000D02*
X141550000Y-174300000D01*
X141550000Y-174300000D02*
X142550000Y-174300000D01*
X141550000Y-177300000D02*
X141550000Y-177500000D01*
X141550000Y-177500000D02*
X139450000Y-177500000D01*
X142550000Y-174300000D02*
X142550000Y-177300000D01*
X142550000Y-177300000D02*
X141550000Y-177300000D01*
%TO.C,RV14*%
X163774863Y-195799429D02*
X164486654Y-197517845D01*
X163618207Y-197877567D01*
X162906416Y-196159151D01*
X163774863Y-195799429D01*
%TO.C,TP9*%
X121300996Y-120050996D02*
G75*
G02*
X118800996Y-120050996I-1250000J0D01*
G01*
X118800996Y-120050996D02*
G75*
G02*
X121300996Y-120050996I1250000J0D01*
G01*
%TO.C,MK15*%
X184485597Y-187314024D02*
X187314024Y-184485597D01*
X187314024Y-184485597D02*
X190778847Y-187950420D01*
X187950420Y-190778847D02*
X184485597Y-187314024D01*
X190778847Y-187950420D02*
X187950420Y-190778847D01*
%TO.C,C8*%
X142090000Y-146340000D02*
X143910000Y-146340000D01*
X143910000Y-147260000D01*
X142090000Y-147260000D01*
X142090000Y-146340000D01*
%TO.C,MK2*%
X196139996Y-128723402D02*
X200667006Y-126848254D01*
X197670730Y-132418920D02*
X196139996Y-128723402D01*
X200667006Y-126848254D02*
X202197740Y-130543772D01*
X202197740Y-130543772D02*
X197670730Y-132418920D01*
%TO.C,RD1*%
X194070000Y-149530000D02*
X195930000Y-149530000D01*
X195930000Y-150470000D01*
X194070000Y-150470000D01*
X194070000Y-149530000D01*
%TO.C,MK7*%
X109221152Y-112049579D02*
X112049579Y-109221152D01*
X112049579Y-109221152D02*
X115514402Y-112685975D01*
X112685975Y-115514402D02*
X109221152Y-112049579D01*
X115514402Y-112685975D02*
X112685975Y-115514402D01*
%TO.C,TP7*%
X181199001Y-120050996D02*
G75*
G02*
X178699001Y-120050996I-1250000J0D01*
G01*
X178699001Y-120050996D02*
G75*
G02*
X181199001Y-120050996I1250000J0D01*
G01*
%TO.C,TP11*%
X121300996Y-179949001D02*
G75*
G02*
X118800996Y-179949001I-1250000J0D01*
G01*
X118800996Y-179949001D02*
G75*
G02*
X121300996Y-179949001I1250000J0D01*
G01*
%TO.C,RV4*%
X172644787Y-107874614D02*
X173356578Y-106156198D01*
X174225025Y-106515920D01*
X173513234Y-108234336D01*
X172644787Y-107874614D01*
%TO.C,RD2*%
X192613647Y-132857573D02*
X190895231Y-133569364D01*
X190535509Y-132700917D01*
X192253925Y-131989126D01*
X192613647Y-132857573D01*
%TO.C,MK4*%
X167581079Y-102329269D02*
X169456227Y-97802259D01*
X169456227Y-97802259D02*
X173151745Y-99332993D01*
X171276597Y-103860003D02*
X167581079Y-102329269D01*
X173151745Y-99332993D02*
X171276597Y-103860003D01*
%TO.C,CM14*%
X166533779Y-196902825D02*
X165837295Y-195221364D01*
X166687265Y-194869295D01*
X167383749Y-196550756D01*
X166533779Y-196902825D01*
%TO.C,CB1*%
X185873910Y-124851183D02*
X188700907Y-122962244D01*
X189789824Y-124591925D01*
X186962827Y-126480864D01*
X185873910Y-124851183D01*
%TO.C,RC6*%
X137570000Y-153030000D02*
X139430000Y-153030000D01*
X139430000Y-153970000D01*
X137570000Y-153970000D01*
X137570000Y-153030000D01*
%TO.C,CM4*%
X171474158Y-105143546D02*
X170777674Y-106825007D01*
X169927704Y-106472938D01*
X170624188Y-104791477D01*
X171474158Y-105143546D01*
%TO.C,RH3*%
X141230000Y-171370000D02*
X142170000Y-171370000D01*
X142170000Y-173230000D01*
X141230000Y-173230000D01*
X141230000Y-171370000D01*
%TO.C,MK1*%
X200770000Y-148000000D02*
X205670000Y-148000000D01*
X200770000Y-152000000D02*
X200770000Y-148000000D01*
X205670000Y-148000000D02*
X205670000Y-152000000D01*
X205670000Y-152000000D02*
X200770000Y-152000000D01*
%TO.C,CM5*%
X151753713Y-100340236D02*
X152673713Y-100340236D01*
X152673713Y-102160236D01*
X151753713Y-102160236D01*
X151753713Y-100340236D01*
%TO.C,CM10*%
X103097174Y-166533779D02*
X104778635Y-165837295D01*
X105130704Y-166687265D01*
X103449243Y-167383749D01*
X103097174Y-166533779D01*
%TO.C,TP5*%
X158250000Y-128000000D02*
G75*
G02*
X155750000Y-128000000I-1250000J0D01*
G01*
X155750000Y-128000000D02*
G75*
G02*
X158250000Y-128000000I1250000J0D01*
G01*
%TO.C,CM16*%
X194856453Y-171474158D02*
X193174992Y-170777674D01*
X193527061Y-169927704D01*
X195208522Y-170624188D01*
X194856453Y-171474158D01*
%TO.C,TP2*%
X175394641Y-130831494D02*
G75*
G02*
X172894641Y-130831494I-1250000J0D01*
G01*
X172894641Y-130831494D02*
G75*
G02*
X175394641Y-130831494I1250000J0D01*
G01*
%TO.C,RD8*%
X107746074Y-131989126D02*
X109464490Y-132700917D01*
X109104768Y-133569364D01*
X107386352Y-132857573D01*
X107746074Y-131989126D01*
%TO.C,C5*%
X142590000Y-169340000D02*
X144410000Y-169340000D01*
X144410000Y-170260000D01*
X142590000Y-170260000D01*
X142590000Y-169340000D01*
%TO.C,CM8*%
X105143546Y-128525841D02*
X106825007Y-129222325D01*
X106472938Y-130072295D01*
X104791477Y-129375811D01*
X105143546Y-128525841D01*
%TO.C,RV11*%
X112958256Y-180252996D02*
X111643038Y-181568214D01*
X110978358Y-180903534D01*
X112293576Y-179588316D01*
X112958256Y-180252996D01*
%TO.C,C1*%
X147020000Y-166270000D02*
X149980000Y-166270000D01*
X149980000Y-167730000D01*
X147020000Y-167730000D01*
X147020000Y-166270000D01*
%TO.C,MK14*%
X167581079Y-197670730D02*
X171276597Y-196139996D01*
X169456227Y-202197740D02*
X167581079Y-197670730D01*
X171276597Y-196139996D02*
X173151745Y-200667006D01*
X173151745Y-200667006D02*
X169456227Y-202197740D01*
%TO.C,RD13*%
X149530000Y-194070000D02*
X150470000Y-194070000D01*
X150470000Y-195930000D01*
X149530000Y-195930000D01*
X149530000Y-194070000D01*
%TO.C,CM6*%
X133466220Y-103097174D02*
X134162704Y-104778635D01*
X133312734Y-105130704D01*
X132616250Y-103449243D01*
X133466220Y-103097174D01*
%TO.C,TP13*%
X181199002Y-179949002D02*
G75*
G02*
X178699002Y-179949002I-1250000J0D01*
G01*
X178699002Y-179949002D02*
G75*
G02*
X181199002Y-179949002I1250000J0D01*
G01*
%TO.C,TP12*%
X167458282Y-189130256D02*
G75*
G02*
X164958282Y-189130256I-1250000J0D01*
G01*
X164958282Y-189130256D02*
G75*
G02*
X167458282Y-189130256I1250000J0D01*
G01*
%TO.C,H2*%
X132338331Y-118404154D02*
G75*
G02*
X125438331Y-118404154I-3450000J0D01*
G01*
X125438331Y-118404154D02*
G75*
G02*
X132338331Y-118404154I3450000J0D01*
G01*
%TO.C,CM7*%
X116775845Y-112994643D02*
X118062779Y-114281577D01*
X117412241Y-114932115D01*
X116125307Y-113645181D01*
X116775845Y-112994643D01*
%TO.C,RV10*%
X104200570Y-163774863D02*
X102482154Y-164486654D01*
X102122432Y-163618207D01*
X103840848Y-162906416D01*
X104200570Y-163774863D01*
%TO.C,RD12*%
X131989126Y-192253925D02*
X132700917Y-190535509D01*
X133569364Y-190895231D01*
X132857573Y-192613647D01*
X131989126Y-192253925D01*
%TO.C,CM12*%
X128525841Y-194856453D02*
X129222325Y-193174992D01*
X130072295Y-193527061D01*
X129375811Y-195208522D01*
X128525841Y-194856453D01*
%TO.C,TP3*%
X168126923Y-164723076D02*
G75*
G02*
X165626923Y-164723076I-1250000J0D01*
G01*
X165626923Y-164723076D02*
G75*
G02*
X168126923Y-164723076I1250000J0D01*
G01*
%TO.C,RH5*%
X146430000Y-171370000D02*
X147370000Y-171370000D01*
X147370000Y-173230000D01*
X146430000Y-173230000D01*
X146430000Y-171370000D01*
%TO.C,F1*%
X126050000Y-165050000D02*
X131950000Y-165050000D01*
X131950000Y-168950000D01*
X126050000Y-168950000D01*
X126050000Y-165050000D01*
%TO.C,RV12*%
X127355212Y-192125385D02*
X126643421Y-193843801D01*
X125774974Y-193484079D01*
X126486765Y-191765663D01*
X127355212Y-192125385D01*
%TO.C,H3*%
X121854154Y-171111668D02*
G75*
G02*
X114954154Y-171111668I-3450000J0D01*
G01*
X114954154Y-171111668D02*
G75*
G02*
X121854154Y-171111668I3450000J0D01*
G01*
%TO.C,CM3*%
X187005356Y-116775845D02*
X185718422Y-118062779D01*
X185067884Y-117412241D01*
X186354818Y-116125307D01*
X187005356Y-116775845D01*
%TO.C,CB3*%
X114126089Y-175148816D02*
X111299092Y-177037755D01*
X110210175Y-175408074D01*
X113037172Y-173519135D01*
X114126089Y-175148816D01*
%TO.C,FB1*%
X160750000Y-166150000D02*
X164250000Y-166150000D01*
X164250000Y-167850000D01*
X160750000Y-167850000D01*
X160750000Y-166150000D01*
%TO.C,RV3*%
X187041743Y-119747003D02*
X188356961Y-118431785D01*
X189021641Y-119096465D01*
X187706423Y-120411683D01*
X187041743Y-119747003D01*
%TO.C,U2*%
X146150000Y-149620000D02*
X147550000Y-149620000D01*
X146150000Y-156380000D02*
X146150000Y-149620000D01*
X147550000Y-149500000D02*
X152450000Y-149500000D01*
X147550000Y-149620000D02*
X147550000Y-149500000D01*
X147550000Y-156380000D02*
X146150000Y-156380000D01*
X147550000Y-156500000D02*
X147550000Y-156380000D01*
X152450000Y-149500000D02*
X152450000Y-149620000D01*
X152450000Y-149620000D02*
X153850000Y-149620000D01*
X152450000Y-156380000D02*
X152450000Y-156500000D01*
X152450000Y-156500000D02*
X147550000Y-156500000D01*
X153850000Y-149620000D02*
X153850000Y-156380000D01*
X153850000Y-156380000D02*
X152450000Y-156380000D01*
%TO.C,MK6*%
X126848254Y-99332993D02*
X130543772Y-97802259D01*
X128723402Y-103860003D02*
X126848254Y-99332993D01*
X130543772Y-97802259D02*
X132418920Y-102329269D01*
X132418920Y-102329269D02*
X128723402Y-103860003D01*
%TO.C,C6*%
X149090000Y-158740000D02*
X150910000Y-158740000D01*
X150910000Y-159660000D01*
X149090000Y-159660000D01*
X149090000Y-158740000D01*
%TO.C,H4*%
X174561668Y-181595845D02*
G75*
G02*
X167661668Y-181595845I-3450000J0D01*
G01*
X167661668Y-181595845D02*
G75*
G02*
X174561668Y-181595845I3450000J0D01*
G01*
%TO.C,TP10*%
X112119742Y-166208282D02*
G75*
G02*
X109619742Y-166208282I-1250000J0D01*
G01*
X109619742Y-166208282D02*
G75*
G02*
X112119742Y-166208282I1250000J0D01*
G01*
%TO.C,X1*%
X141100000Y-141250000D02*
X144900000Y-141250000D01*
X141100000Y-144750000D02*
X141100000Y-141250000D01*
X144900000Y-141250000D02*
X144900000Y-144750000D01*
X144900000Y-144750000D02*
X141100000Y-144750000D01*
%TO.C,CB2*%
X124851183Y-114126089D02*
X122962244Y-111299092D01*
X124591925Y-110210175D01*
X126480864Y-113037172D01*
X124851183Y-114126089D01*
%TO.C,U4*%
X146950000Y-174300000D02*
X147950000Y-174300000D01*
X146950000Y-177300000D02*
X146950000Y-174300000D01*
X147950000Y-174100000D02*
X150050000Y-174100000D01*
X147950000Y-174300000D02*
X147950000Y-174100000D01*
X147950000Y-177300000D02*
X146950000Y-177300000D01*
X147950000Y-177500000D02*
X147950000Y-177300000D01*
X150050000Y-174100000D02*
X150050000Y-174300000D01*
X150050000Y-174300000D02*
X151050000Y-174300000D01*
X150050000Y-177300000D02*
X150050000Y-177500000D01*
X150050000Y-177500000D02*
X147950000Y-177500000D01*
X151050000Y-174300000D02*
X151050000Y-177300000D01*
X151050000Y-177300000D02*
X150050000Y-177300000D01*
%TO.C,RD10*%
X107386352Y-167142426D02*
X109104768Y-166430635D01*
X109464490Y-167299082D01*
X107746074Y-168010873D01*
X107386352Y-167142426D01*
%TO.C,C4*%
X141800000Y-166020000D02*
X145200000Y-166020000D01*
X145200000Y-167980000D01*
X141800000Y-167980000D01*
X141800000Y-166020000D01*
%TO.C,CB4*%
X175148816Y-185873910D02*
X177037755Y-188700907D01*
X175408074Y-189789824D01*
X173519135Y-186962827D01*
X175148816Y-185873910D01*
%TO.C,RD16*%
X192253925Y-168010873D02*
X190535509Y-167299082D01*
X190895231Y-166430635D01*
X192613647Y-167142426D01*
X192253925Y-168010873D01*
%TO.C,RD14*%
X167142426Y-192613647D02*
X166430635Y-190895231D01*
X167299082Y-190535509D01*
X168010873Y-192253925D01*
X167142426Y-192613647D01*
%TO.C,RD11*%
X117190245Y-182145074D02*
X118505463Y-180829856D01*
X119170143Y-181494536D01*
X117854925Y-182809754D01*
X117190245Y-182145074D01*
%TO.C,R2*%
X141570000Y-150530000D02*
X143430000Y-150530000D01*
X143430000Y-151470000D01*
X141570000Y-151470000D01*
X141570000Y-150530000D01*
%TO.C,MK3*%
X184485597Y-112685975D02*
X187950420Y-109221152D01*
X187314024Y-115514402D02*
X184485597Y-112685975D01*
X187950420Y-109221152D02*
X190778847Y-112049579D01*
X190778847Y-112049579D02*
X187314024Y-115514402D01*
%TD*%
M02*
