%TF.GenerationSoftware,KiCad,Pcbnew,10.0.5*%
%TF.CreationDate,2026-08-04T15:39:28-07:00*%
%TF.ProjectId,microphone_array_v2,6d696372-6f70-4686-9f6e-655f61727261,A*%
%TF.SameCoordinates,Original*%
%TF.FileFunction,AssemblyDrawing,Bot*%
%FSLAX46Y46*%
G04 Gerber Fmt 4.6, Leading zero omitted, Abs format (unit mm)*
G04 Created by KiCad (PCBNEW 10.0.5) date 2026-08-04 15:39:28*
%MOMM*%
%LPD*%
G01*
G04 APERTURE LIST*
%ADD10C,0.150000*%
%ADD11C,0.100000*%
G04 APERTURE END LIST*
D10*
X132834819Y-177340952D02*
X132358628Y-177007619D01*
X132834819Y-176769524D02*
X131834819Y-176769524D01*
X131834819Y-176769524D02*
X131834819Y-177150476D01*
X131834819Y-177150476D02*
X131882438Y-177245714D01*
X131882438Y-177245714D02*
X131930057Y-177293333D01*
X131930057Y-177293333D02*
X132025295Y-177340952D01*
X132025295Y-177340952D02*
X132168152Y-177340952D01*
X132168152Y-177340952D02*
X132263390Y-177293333D01*
X132263390Y-177293333D02*
X132311009Y-177245714D01*
X132311009Y-177245714D02*
X132358628Y-177150476D01*
X132358628Y-177150476D02*
X132358628Y-176769524D01*
X132834819Y-177769524D02*
X131834819Y-177769524D01*
X131834819Y-177769524D02*
X131834819Y-178150476D01*
X131834819Y-178150476D02*
X131882438Y-178245714D01*
X131882438Y-178245714D02*
X131930057Y-178293333D01*
X131930057Y-178293333D02*
X132025295Y-178340952D01*
X132025295Y-178340952D02*
X132168152Y-178340952D01*
X132168152Y-178340952D02*
X132263390Y-178293333D01*
X132263390Y-178293333D02*
X132311009Y-178245714D01*
X132311009Y-178245714D02*
X132358628Y-178150476D01*
X132358628Y-178150476D02*
X132358628Y-177769524D01*
X132834819Y-178769524D02*
X132168152Y-178769524D01*
X131834819Y-178769524D02*
X131882438Y-178721905D01*
X131882438Y-178721905D02*
X131930057Y-178769524D01*
X131930057Y-178769524D02*
X131882438Y-178817143D01*
X131882438Y-178817143D02*
X131834819Y-178769524D01*
X131834819Y-178769524D02*
X131930057Y-178769524D01*
X132930057Y-179007619D02*
X132930057Y-179769523D01*
X132834819Y-180007619D02*
X131834819Y-180007619D01*
X131834819Y-180007619D02*
X131834819Y-180388571D01*
X131834819Y-180388571D02*
X131882438Y-180483809D01*
X131882438Y-180483809D02*
X131930057Y-180531428D01*
X131930057Y-180531428D02*
X132025295Y-180579047D01*
X132025295Y-180579047D02*
X132168152Y-180579047D01*
X132168152Y-180579047D02*
X132263390Y-180531428D01*
X132263390Y-180531428D02*
X132311009Y-180483809D01*
X132311009Y-180483809D02*
X132358628Y-180388571D01*
X132358628Y-180388571D02*
X132358628Y-180007619D01*
X132834819Y-181531428D02*
X132834819Y-180960000D01*
X132834819Y-181245714D02*
X131834819Y-181245714D01*
X131834819Y-181245714D02*
X131977676Y-181150476D01*
X131977676Y-181150476D02*
X132072914Y-181055238D01*
X132072914Y-181055238D02*
X132120533Y-180960000D01*
X132930057Y-181721905D02*
X132930057Y-182483809D01*
X131930057Y-182674286D02*
X131882438Y-182721905D01*
X131882438Y-182721905D02*
X131834819Y-182817143D01*
X131834819Y-182817143D02*
X131834819Y-183055238D01*
X131834819Y-183055238D02*
X131882438Y-183150476D01*
X131882438Y-183150476D02*
X131930057Y-183198095D01*
X131930057Y-183198095D02*
X132025295Y-183245714D01*
X132025295Y-183245714D02*
X132120533Y-183245714D01*
X132120533Y-183245714D02*
X132263390Y-183198095D01*
X132263390Y-183198095D02*
X132834819Y-182626667D01*
X132834819Y-182626667D02*
X132834819Y-183245714D01*
X131834819Y-184102857D02*
X131834819Y-183912381D01*
X131834819Y-183912381D02*
X131882438Y-183817143D01*
X131882438Y-183817143D02*
X131930057Y-183769524D01*
X131930057Y-183769524D02*
X132072914Y-183674286D01*
X132072914Y-183674286D02*
X132263390Y-183626667D01*
X132263390Y-183626667D02*
X132644342Y-183626667D01*
X132644342Y-183626667D02*
X132739580Y-183674286D01*
X132739580Y-183674286D02*
X132787200Y-183721905D01*
X132787200Y-183721905D02*
X132834819Y-183817143D01*
X132834819Y-183817143D02*
X132834819Y-184007619D01*
X132834819Y-184007619D02*
X132787200Y-184102857D01*
X132787200Y-184102857D02*
X132739580Y-184150476D01*
X132739580Y-184150476D02*
X132644342Y-184198095D01*
X132644342Y-184198095D02*
X132406247Y-184198095D01*
X132406247Y-184198095D02*
X132311009Y-184150476D01*
X132311009Y-184150476D02*
X132263390Y-184102857D01*
X132263390Y-184102857D02*
X132215771Y-184007619D01*
X132215771Y-184007619D02*
X132215771Y-183817143D01*
X132215771Y-183817143D02*
X132263390Y-183721905D01*
X132263390Y-183721905D02*
X132311009Y-183674286D01*
X132311009Y-183674286D02*
X132406247Y-183626667D01*
X150333333Y-179914819D02*
X150333333Y-180629104D01*
X150333333Y-180629104D02*
X150380952Y-180771961D01*
X150380952Y-180771961D02*
X150476190Y-180867200D01*
X150476190Y-180867200D02*
X150619047Y-180914819D01*
X150619047Y-180914819D02*
X150714285Y-180914819D01*
X149333333Y-180914819D02*
X149904761Y-180914819D01*
X149619047Y-180914819D02*
X149619047Y-179914819D01*
X149619047Y-179914819D02*
X149714285Y-180057676D01*
X149714285Y-180057676D02*
X149809523Y-180152914D01*
X149809523Y-180152914D02*
X149904761Y-180200533D01*
X127864819Y-156168095D02*
X127864819Y-156739523D01*
X128864819Y-156453809D02*
X127864819Y-156453809D01*
X128864819Y-157501428D02*
X128341009Y-157501428D01*
X128341009Y-157501428D02*
X128245771Y-157453809D01*
X128245771Y-157453809D02*
X128198152Y-157358571D01*
X128198152Y-157358571D02*
X128198152Y-157168095D01*
X128198152Y-157168095D02*
X128245771Y-157072857D01*
X128817200Y-157501428D02*
X128864819Y-157406190D01*
X128864819Y-157406190D02*
X128864819Y-157168095D01*
X128864819Y-157168095D02*
X128817200Y-157072857D01*
X128817200Y-157072857D02*
X128721961Y-157025238D01*
X128721961Y-157025238D02*
X128626723Y-157025238D01*
X128626723Y-157025238D02*
X128531485Y-157072857D01*
X128531485Y-157072857D02*
X128483866Y-157168095D01*
X128483866Y-157168095D02*
X128483866Y-157406190D01*
X128483866Y-157406190D02*
X128436247Y-157501428D01*
X128198152Y-157977619D02*
X128864819Y-157977619D01*
X128293390Y-157977619D02*
X128245771Y-158025238D01*
X128245771Y-158025238D02*
X128198152Y-158120476D01*
X128198152Y-158120476D02*
X128198152Y-158263333D01*
X128198152Y-158263333D02*
X128245771Y-158358571D01*
X128245771Y-158358571D02*
X128341009Y-158406190D01*
X128341009Y-158406190D02*
X128864819Y-158406190D01*
X128198152Y-159310952D02*
X129007676Y-159310952D01*
X129007676Y-159310952D02*
X129102914Y-159263333D01*
X129102914Y-159263333D02*
X129150533Y-159215714D01*
X129150533Y-159215714D02*
X129198152Y-159120476D01*
X129198152Y-159120476D02*
X129198152Y-158977619D01*
X129198152Y-158977619D02*
X129150533Y-158882381D01*
X128817200Y-159310952D02*
X128864819Y-159215714D01*
X128864819Y-159215714D02*
X128864819Y-159025238D01*
X128864819Y-159025238D02*
X128817200Y-158930000D01*
X128817200Y-158930000D02*
X128769580Y-158882381D01*
X128769580Y-158882381D02*
X128674342Y-158834762D01*
X128674342Y-158834762D02*
X128388628Y-158834762D01*
X128388628Y-158834762D02*
X128293390Y-158882381D01*
X128293390Y-158882381D02*
X128245771Y-158930000D01*
X128245771Y-158930000D02*
X128198152Y-159025238D01*
X128198152Y-159025238D02*
X128198152Y-159215714D01*
X128198152Y-159215714D02*
X128245771Y-159310952D01*
X128960057Y-159549048D02*
X128960057Y-160310952D01*
X128864819Y-160549048D02*
X127864819Y-160549048D01*
X127864819Y-160549048D02*
X128864819Y-161120476D01*
X128864819Y-161120476D02*
X127864819Y-161120476D01*
X128864819Y-162025238D02*
X128341009Y-162025238D01*
X128341009Y-162025238D02*
X128245771Y-161977619D01*
X128245771Y-161977619D02*
X128198152Y-161882381D01*
X128198152Y-161882381D02*
X128198152Y-161691905D01*
X128198152Y-161691905D02*
X128245771Y-161596667D01*
X128817200Y-162025238D02*
X128864819Y-161930000D01*
X128864819Y-161930000D02*
X128864819Y-161691905D01*
X128864819Y-161691905D02*
X128817200Y-161596667D01*
X128817200Y-161596667D02*
X128721961Y-161549048D01*
X128721961Y-161549048D02*
X128626723Y-161549048D01*
X128626723Y-161549048D02*
X128531485Y-161596667D01*
X128531485Y-161596667D02*
X128483866Y-161691905D01*
X128483866Y-161691905D02*
X128483866Y-161930000D01*
X128483866Y-161930000D02*
X128436247Y-162025238D01*
X128198152Y-162501429D02*
X128864819Y-162501429D01*
X128293390Y-162501429D02*
X128245771Y-162549048D01*
X128245771Y-162549048D02*
X128198152Y-162644286D01*
X128198152Y-162644286D02*
X128198152Y-162787143D01*
X128198152Y-162787143D02*
X128245771Y-162882381D01*
X128245771Y-162882381D02*
X128341009Y-162930000D01*
X128341009Y-162930000D02*
X128864819Y-162930000D01*
X128864819Y-163549048D02*
X128817200Y-163453810D01*
X128817200Y-163453810D02*
X128769580Y-163406191D01*
X128769580Y-163406191D02*
X128674342Y-163358572D01*
X128674342Y-163358572D02*
X128388628Y-163358572D01*
X128388628Y-163358572D02*
X128293390Y-163406191D01*
X128293390Y-163406191D02*
X128245771Y-163453810D01*
X128245771Y-163453810D02*
X128198152Y-163549048D01*
X128198152Y-163549048D02*
X128198152Y-163691905D01*
X128198152Y-163691905D02*
X128245771Y-163787143D01*
X128245771Y-163787143D02*
X128293390Y-163834762D01*
X128293390Y-163834762D02*
X128388628Y-163882381D01*
X128388628Y-163882381D02*
X128674342Y-163882381D01*
X128674342Y-163882381D02*
X128769580Y-163834762D01*
X128769580Y-163834762D02*
X128817200Y-163787143D01*
X128817200Y-163787143D02*
X128864819Y-163691905D01*
X128864819Y-163691905D02*
X128864819Y-163549048D01*
X128960057Y-164072858D02*
X128960057Y-164834762D01*
X128864819Y-165120477D02*
X128864819Y-165310953D01*
X128864819Y-165310953D02*
X128817200Y-165406191D01*
X128817200Y-165406191D02*
X128769580Y-165453810D01*
X128769580Y-165453810D02*
X128626723Y-165549048D01*
X128626723Y-165549048D02*
X128436247Y-165596667D01*
X128436247Y-165596667D02*
X128055295Y-165596667D01*
X128055295Y-165596667D02*
X127960057Y-165549048D01*
X127960057Y-165549048D02*
X127912438Y-165501429D01*
X127912438Y-165501429D02*
X127864819Y-165406191D01*
X127864819Y-165406191D02*
X127864819Y-165215715D01*
X127864819Y-165215715D02*
X127912438Y-165120477D01*
X127912438Y-165120477D02*
X127960057Y-165072858D01*
X127960057Y-165072858D02*
X128055295Y-165025239D01*
X128055295Y-165025239D02*
X128293390Y-165025239D01*
X128293390Y-165025239D02*
X128388628Y-165072858D01*
X128388628Y-165072858D02*
X128436247Y-165120477D01*
X128436247Y-165120477D02*
X128483866Y-165215715D01*
X128483866Y-165215715D02*
X128483866Y-165406191D01*
X128483866Y-165406191D02*
X128436247Y-165501429D01*
X128436247Y-165501429D02*
X128388628Y-165549048D01*
X128388628Y-165549048D02*
X128293390Y-165596667D01*
X128864819Y-166025239D02*
X127864819Y-166025239D01*
X128864819Y-166596667D02*
X128293390Y-166168096D01*
X127864819Y-166596667D02*
X128436247Y-166025239D01*
X160333333Y-160884819D02*
X160333333Y-161599104D01*
X160333333Y-161599104D02*
X160380952Y-161741961D01*
X160380952Y-161741961D02*
X160476190Y-161837200D01*
X160476190Y-161837200D02*
X160619047Y-161884819D01*
X160619047Y-161884819D02*
X160714285Y-161884819D01*
X159952380Y-160884819D02*
X159333333Y-160884819D01*
X159333333Y-160884819D02*
X159666666Y-161265771D01*
X159666666Y-161265771D02*
X159523809Y-161265771D01*
X159523809Y-161265771D02*
X159428571Y-161313390D01*
X159428571Y-161313390D02*
X159380952Y-161361009D01*
X159380952Y-161361009D02*
X159333333Y-161456247D01*
X159333333Y-161456247D02*
X159333333Y-161694342D01*
X159333333Y-161694342D02*
X159380952Y-161789580D01*
X159380952Y-161789580D02*
X159428571Y-161837200D01*
X159428571Y-161837200D02*
X159523809Y-161884819D01*
X159523809Y-161884819D02*
X159809523Y-161884819D01*
X159809523Y-161884819D02*
X159904761Y-161837200D01*
X159904761Y-161837200D02*
X159952380Y-161789580D01*
X127864819Y-133308095D02*
X127864819Y-133879523D01*
X128864819Y-133593809D02*
X127864819Y-133593809D01*
X128864819Y-134641428D02*
X128341009Y-134641428D01*
X128341009Y-134641428D02*
X128245771Y-134593809D01*
X128245771Y-134593809D02*
X128198152Y-134498571D01*
X128198152Y-134498571D02*
X128198152Y-134308095D01*
X128198152Y-134308095D02*
X128245771Y-134212857D01*
X128817200Y-134641428D02*
X128864819Y-134546190D01*
X128864819Y-134546190D02*
X128864819Y-134308095D01*
X128864819Y-134308095D02*
X128817200Y-134212857D01*
X128817200Y-134212857D02*
X128721961Y-134165238D01*
X128721961Y-134165238D02*
X128626723Y-134165238D01*
X128626723Y-134165238D02*
X128531485Y-134212857D01*
X128531485Y-134212857D02*
X128483866Y-134308095D01*
X128483866Y-134308095D02*
X128483866Y-134546190D01*
X128483866Y-134546190D02*
X128436247Y-134641428D01*
X128198152Y-135117619D02*
X128864819Y-135117619D01*
X128293390Y-135117619D02*
X128245771Y-135165238D01*
X128245771Y-135165238D02*
X128198152Y-135260476D01*
X128198152Y-135260476D02*
X128198152Y-135403333D01*
X128198152Y-135403333D02*
X128245771Y-135498571D01*
X128245771Y-135498571D02*
X128341009Y-135546190D01*
X128341009Y-135546190D02*
X128864819Y-135546190D01*
X128198152Y-136450952D02*
X129007676Y-136450952D01*
X129007676Y-136450952D02*
X129102914Y-136403333D01*
X129102914Y-136403333D02*
X129150533Y-136355714D01*
X129150533Y-136355714D02*
X129198152Y-136260476D01*
X129198152Y-136260476D02*
X129198152Y-136117619D01*
X129198152Y-136117619D02*
X129150533Y-136022381D01*
X128817200Y-136450952D02*
X128864819Y-136355714D01*
X128864819Y-136355714D02*
X128864819Y-136165238D01*
X128864819Y-136165238D02*
X128817200Y-136070000D01*
X128817200Y-136070000D02*
X128769580Y-136022381D01*
X128769580Y-136022381D02*
X128674342Y-135974762D01*
X128674342Y-135974762D02*
X128388628Y-135974762D01*
X128388628Y-135974762D02*
X128293390Y-136022381D01*
X128293390Y-136022381D02*
X128245771Y-136070000D01*
X128245771Y-136070000D02*
X128198152Y-136165238D01*
X128198152Y-136165238D02*
X128198152Y-136355714D01*
X128198152Y-136355714D02*
X128245771Y-136450952D01*
X128960057Y-136689048D02*
X128960057Y-137450952D01*
X128864819Y-137689048D02*
X127864819Y-137689048D01*
X127864819Y-137689048D02*
X128864819Y-138260476D01*
X128864819Y-138260476D02*
X127864819Y-138260476D01*
X128864819Y-139165238D02*
X128341009Y-139165238D01*
X128341009Y-139165238D02*
X128245771Y-139117619D01*
X128245771Y-139117619D02*
X128198152Y-139022381D01*
X128198152Y-139022381D02*
X128198152Y-138831905D01*
X128198152Y-138831905D02*
X128245771Y-138736667D01*
X128817200Y-139165238D02*
X128864819Y-139070000D01*
X128864819Y-139070000D02*
X128864819Y-138831905D01*
X128864819Y-138831905D02*
X128817200Y-138736667D01*
X128817200Y-138736667D02*
X128721961Y-138689048D01*
X128721961Y-138689048D02*
X128626723Y-138689048D01*
X128626723Y-138689048D02*
X128531485Y-138736667D01*
X128531485Y-138736667D02*
X128483866Y-138831905D01*
X128483866Y-138831905D02*
X128483866Y-139070000D01*
X128483866Y-139070000D02*
X128436247Y-139165238D01*
X128198152Y-139641429D02*
X128864819Y-139641429D01*
X128293390Y-139641429D02*
X128245771Y-139689048D01*
X128245771Y-139689048D02*
X128198152Y-139784286D01*
X128198152Y-139784286D02*
X128198152Y-139927143D01*
X128198152Y-139927143D02*
X128245771Y-140022381D01*
X128245771Y-140022381D02*
X128341009Y-140070000D01*
X128341009Y-140070000D02*
X128864819Y-140070000D01*
X128864819Y-140689048D02*
X128817200Y-140593810D01*
X128817200Y-140593810D02*
X128769580Y-140546191D01*
X128769580Y-140546191D02*
X128674342Y-140498572D01*
X128674342Y-140498572D02*
X128388628Y-140498572D01*
X128388628Y-140498572D02*
X128293390Y-140546191D01*
X128293390Y-140546191D02*
X128245771Y-140593810D01*
X128245771Y-140593810D02*
X128198152Y-140689048D01*
X128198152Y-140689048D02*
X128198152Y-140831905D01*
X128198152Y-140831905D02*
X128245771Y-140927143D01*
X128245771Y-140927143D02*
X128293390Y-140974762D01*
X128293390Y-140974762D02*
X128388628Y-141022381D01*
X128388628Y-141022381D02*
X128674342Y-141022381D01*
X128674342Y-141022381D02*
X128769580Y-140974762D01*
X128769580Y-140974762D02*
X128817200Y-140927143D01*
X128817200Y-140927143D02*
X128864819Y-140831905D01*
X128864819Y-140831905D02*
X128864819Y-140689048D01*
X128960057Y-141212858D02*
X128960057Y-141974762D01*
X128864819Y-142260477D02*
X128864819Y-142450953D01*
X128864819Y-142450953D02*
X128817200Y-142546191D01*
X128817200Y-142546191D02*
X128769580Y-142593810D01*
X128769580Y-142593810D02*
X128626723Y-142689048D01*
X128626723Y-142689048D02*
X128436247Y-142736667D01*
X128436247Y-142736667D02*
X128055295Y-142736667D01*
X128055295Y-142736667D02*
X127960057Y-142689048D01*
X127960057Y-142689048D02*
X127912438Y-142641429D01*
X127912438Y-142641429D02*
X127864819Y-142546191D01*
X127864819Y-142546191D02*
X127864819Y-142355715D01*
X127864819Y-142355715D02*
X127912438Y-142260477D01*
X127912438Y-142260477D02*
X127960057Y-142212858D01*
X127960057Y-142212858D02*
X128055295Y-142165239D01*
X128055295Y-142165239D02*
X128293390Y-142165239D01*
X128293390Y-142165239D02*
X128388628Y-142212858D01*
X128388628Y-142212858D02*
X128436247Y-142260477D01*
X128436247Y-142260477D02*
X128483866Y-142355715D01*
X128483866Y-142355715D02*
X128483866Y-142546191D01*
X128483866Y-142546191D02*
X128436247Y-142641429D01*
X128436247Y-142641429D02*
X128388628Y-142689048D01*
X128388628Y-142689048D02*
X128293390Y-142736667D01*
X128864819Y-143165239D02*
X127864819Y-143165239D01*
X128864819Y-143736667D02*
X128293390Y-143308096D01*
X127864819Y-143736667D02*
X128436247Y-143165239D01*
X160333333Y-138024819D02*
X160333333Y-138739104D01*
X160333333Y-138739104D02*
X160380952Y-138881961D01*
X160380952Y-138881961D02*
X160476190Y-138977200D01*
X160476190Y-138977200D02*
X160619047Y-139024819D01*
X160619047Y-139024819D02*
X160714285Y-139024819D01*
X159904761Y-138120057D02*
X159857142Y-138072438D01*
X159857142Y-138072438D02*
X159761904Y-138024819D01*
X159761904Y-138024819D02*
X159523809Y-138024819D01*
X159523809Y-138024819D02*
X159428571Y-138072438D01*
X159428571Y-138072438D02*
X159380952Y-138120057D01*
X159380952Y-138120057D02*
X159333333Y-138215295D01*
X159333333Y-138215295D02*
X159333333Y-138310533D01*
X159333333Y-138310533D02*
X159380952Y-138453390D01*
X159380952Y-138453390D02*
X159952380Y-139024819D01*
X159952380Y-139024819D02*
X159333333Y-139024819D01*
%TO.C,J1*%
D11*
X133490000Y-177920000D02*
X133490000Y-183000000D01*
X133490000Y-183000000D02*
X165240000Y-183000000D01*
X165240000Y-183000000D02*
X166510000Y-181730000D01*
X166510000Y-177920000D02*
X133490000Y-177920000D01*
X166510000Y-181730000D02*
X166510000Y-177920000D01*
%TO.C,J3*%
X129520000Y-160160000D02*
X129520000Y-162700000D01*
X129520000Y-162700000D02*
X189845000Y-162700000D01*
X189845000Y-162700000D02*
X190480000Y-162065000D01*
X190480000Y-160160000D02*
X129520000Y-160160000D01*
X190480000Y-162065000D02*
X190480000Y-160160000D01*
%TO.C,J2*%
X129520000Y-137300000D02*
X129520000Y-139840000D01*
X129520000Y-139840000D02*
X189845000Y-139840000D01*
X189845000Y-139840000D02*
X190480000Y-139205000D01*
X190480000Y-137300000D02*
X129520000Y-137300000D01*
X190480000Y-139205000D02*
X190480000Y-137300000D01*
%TD*%
M02*
