%TF.GenerationSoftware,KiCad,Pcbnew,10.0.5*%
%TF.CreationDate,2026-08-04T17:37:16-07:00*%
%TF.ProjectId,microphone_array_v2,6d696372-6f70-4686-9f6e-655f61727261,A*%
%TF.SameCoordinates,Original*%
%TF.FileFunction,Soldermask,Bot*%
%TF.FilePolarity,Negative*%
%FSLAX46Y46*%
G04 Gerber Fmt 4.6, Leading zero omitted, Abs format (unit mm)*
G04 Created by KiCad (PCBNEW 10.0.5) date 2026-08-04 17:37:16*
%MOMM*%
%LPD*%
G01*
G04 APERTURE LIST*
%ADD10C,3.200000*%
%ADD11R,1.700000X1.700000*%
%ADD12C,1.700000*%
G04 APERTURE END LIST*
D10*
%TO.C,H1*%
X181595845Y-128888331D03*
%TD*%
%TO.C,H2*%
X128888331Y-118404154D03*
%TD*%
%TO.C,H3*%
X118404154Y-171111668D03*
%TD*%
%TO.C,H4*%
X171111668Y-181595845D03*
%TD*%
D11*
%TO.C,J1*%
X165240000Y-181730000D03*
D12*
X165240000Y-179190000D03*
X162700000Y-181730000D03*
X162700000Y-179190000D03*
X160160000Y-181730000D03*
X160160000Y-179190000D03*
X157620000Y-181730000D03*
X157620000Y-179190000D03*
X155080000Y-181730000D03*
X155080000Y-179190000D03*
X152540000Y-181730000D03*
X152540000Y-179190000D03*
X150000000Y-181730000D03*
X150000000Y-179190000D03*
X147460000Y-181730000D03*
X147460000Y-179190000D03*
X144920000Y-181730000D03*
X144920000Y-179190000D03*
X142380000Y-181730000D03*
X142380000Y-179190000D03*
X139840000Y-181730000D03*
X139840000Y-179190000D03*
X137300000Y-181730000D03*
X137300000Y-179190000D03*
X134760000Y-181730000D03*
X134760000Y-179190000D03*
%TD*%
D11*
%TO.C,J3*%
X189210000Y-161430000D03*
D12*
X186670000Y-161430000D03*
X184130000Y-161430000D03*
X181590000Y-161430000D03*
X179050000Y-161430000D03*
X176510000Y-161430000D03*
X173970000Y-161430000D03*
X171430000Y-161430000D03*
X168890000Y-161430000D03*
X166350000Y-161430000D03*
X163810000Y-161430000D03*
X161270000Y-161430000D03*
X158730000Y-161430000D03*
X156190000Y-161430000D03*
X153650000Y-161430000D03*
X151110000Y-161430000D03*
X148570000Y-161430000D03*
X146030000Y-161430000D03*
X143490000Y-161430000D03*
X140950000Y-161430000D03*
X138410000Y-161430000D03*
X135870000Y-161430000D03*
X133330000Y-161430000D03*
X130790000Y-161430000D03*
%TD*%
D11*
%TO.C,J2*%
X189210000Y-138570000D03*
D12*
X186670000Y-138570000D03*
X184130000Y-138570000D03*
X181590000Y-138570000D03*
X179050000Y-138570000D03*
X176510000Y-138570000D03*
X173970000Y-138570000D03*
X171430000Y-138570000D03*
X168890000Y-138570000D03*
X166350000Y-138570000D03*
X163810000Y-138570000D03*
X161270000Y-138570000D03*
X158730000Y-138570000D03*
X156190000Y-138570000D03*
X153650000Y-138570000D03*
X151110000Y-138570000D03*
X148570000Y-138570000D03*
X146030000Y-138570000D03*
X143490000Y-138570000D03*
X140950000Y-138570000D03*
X138410000Y-138570000D03*
X135870000Y-138570000D03*
X133330000Y-138570000D03*
X130790000Y-138570000D03*
%TD*%
M02*
