%TF.GenerationSoftware,KiCad,Pcbnew,10.0.5*%
%TF.CreationDate,2026-08-03T07:07:46-07:00*%
%TF.ProjectId,microphone_array_v2,6d696372-6f70-4686-9f6e-655f61727261,A*%
%TF.SameCoordinates,Original*%
%TF.FileFunction,Copper,L4,Bot*%
%TF.FilePolarity,Positive*%
%FSLAX46Y46*%
G04 Gerber Fmt 4.6, Leading zero omitted, Abs format (unit mm)*
G04 Created by KiCad (PCBNEW 10.0.5) date 2026-08-03 07:07:46*
%MOMM*%
%LPD*%
G01*
G04 APERTURE LIST*
%TA.AperFunction,ComponentPad*%
%ADD10R,1.700000X1.700000*%
%TD*%
%TA.AperFunction,ComponentPad*%
%ADD11C,1.700000*%
%TD*%
%TA.AperFunction,ViaPad*%
%ADD12C,0.450000*%
%TD*%
%TA.AperFunction,Conductor*%
%ADD13C,0.200000*%
%TD*%
%TA.AperFunction,Conductor*%
%ADD14C,0.150000*%
%TD*%
%TA.AperFunction,Conductor*%
%ADD15C,0.250000*%
%TD*%
%TA.AperFunction,Conductor*%
%ADD16C,0.600000*%
%TD*%
G04 APERTURE END LIST*
D10*
%TO.P,J1,1*%
%TO.N,unconnected-(J1-P1_NC-Pad1)*%
X165240000Y-181730000D03*
D11*
%TO.P,J1,2*%
%TO.N,PI_5V*%
X165240000Y-179190000D03*
%TO.P,J1,3*%
%TO.N,unconnected-(J1-P3_NC-Pad3)*%
X162700000Y-181730000D03*
%TO.P,J1,4*%
%TO.N,PI_5V*%
X162700000Y-179190000D03*
%TO.P,J1,5*%
%TO.N,unconnected-(J1-P5_NC-Pad5)*%
X160160000Y-181730000D03*
%TO.P,J1,6*%
%TO.N,GND*%
X160160000Y-179190000D03*
%TO.P,J1,7*%
%TO.N,unconnected-(J1-P7_NC-Pad7)*%
X157620000Y-181730000D03*
%TO.P,J1,8*%
%TO.N,unconnected-(J1-P8_NC-Pad8)*%
X157620000Y-179190000D03*
%TO.P,J1,9*%
%TO.N,GND*%
X155080000Y-181730000D03*
%TO.P,J1,10*%
%TO.N,unconnected-(J1-P10_NC-Pad10)*%
X155080000Y-179190000D03*
%TO.P,J1,11*%
%TO.N,unconnected-(J1-P11_NC-Pad11)*%
X152540000Y-181730000D03*
%TO.P,J1,12*%
%TO.N,unconnected-(J1-P12_NC-Pad12)*%
X152540000Y-179190000D03*
%TO.P,J1,13*%
%TO.N,unconnected-(J1-P13_NC-Pad13)*%
X150000000Y-181730000D03*
%TO.P,J1,14*%
%TO.N,GND*%
X150000000Y-179190000D03*
%TO.P,J1,15*%
%TO.N,unconnected-(J1-P15_NC-Pad15)*%
X147460000Y-181730000D03*
%TO.P,J1,16*%
%TO.N,PI_SYNC*%
X147460000Y-179190000D03*
%TO.P,J1,17*%
%TO.N,unconnected-(J1-P17_NC-Pad17)*%
X144920000Y-181730000D03*
%TO.P,J1,18*%
%TO.N,PI_STATUS*%
X144920000Y-179190000D03*
%TO.P,J1,19*%
%TO.N,PI_MOSI*%
X142380000Y-181730000D03*
%TO.P,J1,20*%
%TO.N,GND*%
X142380000Y-179190000D03*
%TO.P,J1,21*%
%TO.N,PI_MISO*%
X139840000Y-181730000D03*
%TO.P,J1,22*%
%TO.N,PI_IRQ*%
X139840000Y-179190000D03*
%TO.P,J1,23*%
%TO.N,PI_SCLK*%
X137300000Y-181730000D03*
%TO.P,J1,24*%
%TO.N,PI_CS_N*%
X137300000Y-179190000D03*
%TO.P,J1,25*%
%TO.N,GND*%
X134760000Y-181730000D03*
%TO.P,J1,26*%
%TO.N,PI_RESET_N*%
X134760000Y-179190000D03*
%TD*%
D10*
%TO.P,J3,1*%
%TO.N,PDM_D7*%
X189210000Y-161430000D03*
D11*
%TO.P,J3,2*%
%TO.N,unconnected-(J3-P2_FPGA86-Pad2)*%
X186670000Y-161430000D03*
%TO.P,J3,3*%
%TO.N,unconnected-(J3-P3_FPGA85-Pad3)*%
X184130000Y-161430000D03*
%TO.P,J3,4*%
%TO.N,unconnected-(J3-P4_FPGA84-Pad4)*%
X181590000Y-161430000D03*
%TO.P,J3,5*%
%TO.N,unconnected-(J3-P5_FPGA83-Pad5)*%
X179050000Y-161430000D03*
%TO.P,J3,6*%
%TO.N,unconnected-(J3-P6_FPGA82-Pad6)*%
X176510000Y-161430000D03*
%TO.P,J3,7*%
%TO.N,unconnected-(J3-P7_FPGA81-Pad7)*%
X173970000Y-161430000D03*
%TO.P,J3,8*%
%TO.N,unconnected-(J3-P8_FPGA80-Pad8)*%
X171430000Y-161430000D03*
%TO.P,J3,9*%
%TO.N,unconnected-(J3-P9_FPGA79-Pad9)*%
X168890000Y-161430000D03*
%TO.P,J3,10*%
%TO.N,PDM_D6*%
X166350000Y-161430000D03*
%TO.P,J3,11*%
%TO.N,HOST_SYNC*%
X163810000Y-161430000D03*
%TO.P,J3,12*%
%TO.N,unconnected-(J3-P12_FPGA75-Pad12)*%
X161270000Y-161430000D03*
%TO.P,J3,13*%
%TO.N,HOST_STATUS*%
X158730000Y-161430000D03*
%TO.P,J3,14*%
%TO.N,SPI_MOSI*%
X156190000Y-161430000D03*
%TO.P,J3,15*%
%TO.N,HOST_IRQ*%
X153650000Y-161430000D03*
%TO.P,J3,16*%
%TO.N,SPI_CS_N*%
X151110000Y-161430000D03*
%TO.P,J3,17*%
%TO.N,HOST_RESET_N*%
X148570000Y-161430000D03*
%TO.P,J3,18*%
%TO.N,+5V*%
X146030000Y-161430000D03*
%TO.P,J3,19*%
%TO.N,SPI_SCLK*%
X143490000Y-161430000D03*
%TO.P,J3,20*%
%TO.N,SPI_MISO*%
X140950000Y-161430000D03*
%TO.P,J3,21*%
%TO.N,PDM_D5*%
X138410000Y-161430000D03*
%TO.P,J3,22*%
%TO.N,PDM_D4*%
X135870000Y-161430000D03*
%TO.P,J3,23*%
%TO.N,GND*%
X133330000Y-161430000D03*
%TO.P,J3,24*%
%TO.N,TANG_3V3*%
X130790000Y-161430000D03*
%TD*%
D10*
%TO.P,J2,1*%
%TO.N,unconnected-(J2-P1_FPGA38-Pad1)*%
X189210000Y-138570000D03*
D11*
%TO.P,J2,2*%
%TO.N,unconnected-(J2-P2_FPGA37-Pad2)*%
X186670000Y-138570000D03*
%TO.P,J2,3*%
%TO.N,unconnected-(J2-P3_FPGA36-Pad3)*%
X184130000Y-138570000D03*
%TO.P,J2,4*%
%TO.N,unconnected-(J2-P4_FPGA39-Pad4)*%
X181590000Y-138570000D03*
%TO.P,J2,5*%
%TO.N,PDM_D0*%
X179050000Y-138570000D03*
%TO.P,J2,6*%
%TO.N,unconnected-(J2-P6_FPGA26-Pad6)*%
X176510000Y-138570000D03*
%TO.P,J2,7*%
%TO.N,unconnected-(J2-P7_FPGA27-Pad7)*%
X173970000Y-138570000D03*
%TO.P,J2,8*%
%TO.N,unconnected-(J2-P8_FPGA28-Pad8)*%
X171430000Y-138570000D03*
%TO.P,J2,9*%
%TO.N,PDM_D1*%
X168890000Y-138570000D03*
%TO.P,J2,10*%
%TO.N,unconnected-(J2-P10_FPGA30-Pad10)*%
X166350000Y-138570000D03*
%TO.P,J2,11*%
%TO.N,unconnected-(J2-P11_FPGA33-Pad11)*%
X163810000Y-138570000D03*
%TO.P,J2,12*%
%TO.N,unconnected-(J2-P12_FPGA34-Pad12)*%
X161270000Y-138570000D03*
%TO.P,J2,13*%
%TO.N,unconnected-(J2-P13_FPGA40-Pad13)*%
X158730000Y-138570000D03*
%TO.P,J2,14*%
%TO.N,PDM_CLK_FPGA*%
X156190000Y-138570000D03*
%TO.P,J2,15*%
%TO.N,unconnected-(J2-P15_FPGA41-Pad15)*%
X153650000Y-138570000D03*
%TO.P,J2,16*%
%TO.N,unconnected-(J2-P16_FPGA42-Pad16)*%
X151110000Y-138570000D03*
%TO.P,J2,17*%
%TO.N,AUDIO_MCLK*%
X148570000Y-138570000D03*
%TO.P,J2,18*%
%TO.N,unconnected-(J2-P18_FPGA53-Pad18)*%
X146030000Y-138570000D03*
%TO.P,J2,19*%
%TO.N,PDM_D2*%
X143490000Y-138570000D03*
%TO.P,J2,20*%
%TO.N,unconnected-(J2-P20_FPGA55-Pad20)*%
X140950000Y-138570000D03*
%TO.P,J2,21*%
%TO.N,unconnected-(J2-P21_FPGA56-Pad21)*%
X138410000Y-138570000D03*
%TO.P,J2,22*%
%TO.N,unconnected-(J2-P22_FPGA57-Pad22)*%
X135870000Y-138570000D03*
%TO.P,J2,23*%
%TO.N,PDM_D3*%
X133330000Y-138570000D03*
%TO.P,J2,24*%
%TO.N,unconnected-(J2-P24_FPGA69-Pad24)*%
X130790000Y-138570000D03*
%TD*%
D12*
%TO.N,GND*%
X145625000Y-150075000D03*
X158275000Y-168450000D03*
X144050000Y-145325000D03*
X203220000Y-148050000D03*
X118141122Y-115078487D03*
X133930118Y-105544864D03*
X110352523Y-110352523D03*
X186253364Y-110988919D03*
X151535000Y-159200000D03*
X171457059Y-98198075D03*
X144880000Y-169800000D03*
X150000000Y-200370000D03*
X194455134Y-133930118D03*
X198422636Y-172167977D03*
X201801924Y-128542940D03*
X146425000Y-175800000D03*
X114383031Y-185616968D03*
X127832022Y-198422636D03*
X171457059Y-201801924D03*
X201801924Y-171457059D03*
X203220000Y-151950000D03*
X156200000Y-159200000D03*
X168564847Y-100084899D03*
X154375000Y-150725000D03*
X150000000Y-206070000D03*
X185616968Y-185616968D03*
X110988919Y-186253364D03*
X181858876Y-184921511D03*
X159350000Y-169800000D03*
X199915100Y-131435152D03*
X144450000Y-168450000D03*
X100084899Y-131435152D03*
X189011080Y-186253364D03*
X127832022Y-101577363D03*
X101577363Y-127832022D03*
X98198075Y-128542940D03*
X107202350Y-129928593D03*
X128542940Y-98198075D03*
X149275000Y-168450000D03*
X98198075Y-171457059D03*
X147834389Y-197220865D03*
X172167977Y-101577363D03*
X145625000Y-155925000D03*
X169275765Y-103464187D03*
X150000000Y-93930000D03*
X148050000Y-96780000D03*
X100084899Y-168564847D03*
X122868795Y-110492921D03*
X186253364Y-189011080D03*
X151950000Y-203220000D03*
X154000000Y-126000000D03*
X130724234Y-103464187D03*
X166069880Y-194455134D03*
X110352523Y-189647476D03*
X130724234Y-196535812D03*
X184921511Y-118141122D03*
X131435152Y-100084899D03*
X110988919Y-113746635D03*
X167275000Y-168450000D03*
X144535000Y-146800000D03*
X189647476Y-189647476D03*
X102779133Y-147834389D03*
X110458433Y-177182818D03*
X196535812Y-130724234D03*
X114383031Y-114383031D03*
X128542940Y-201801924D03*
X103464187Y-130724234D03*
X96780000Y-151950000D03*
X115078487Y-181858876D03*
X150976173Y-167156283D03*
X103464187Y-169275765D03*
X172167977Y-198422636D03*
X198422636Y-127832022D03*
X200370000Y-150000000D03*
X96780000Y-148050000D03*
X177131203Y-189507077D03*
X150000000Y-99630000D03*
X101577363Y-172167977D03*
X105544864Y-166069880D03*
X157000000Y-128000000D03*
X197220865Y-152165609D03*
X185616968Y-114383031D03*
X189647476Y-110352523D03*
X129928593Y-192797648D03*
X189011080Y-113746635D03*
X206070000Y-150000000D03*
X152165609Y-102779133D03*
X189541565Y-122817180D03*
X169275765Y-196535812D03*
X99630000Y-150000000D03*
X148050000Y-203220000D03*
X113746635Y-189011080D03*
X131435152Y-199915100D03*
X168564847Y-199915100D03*
X137925000Y-175800000D03*
X199915100Y-168564847D03*
X151950000Y-96780000D03*
X113746635Y-110988919D03*
X93930000Y-150000000D03*
X170071405Y-107202350D03*
X192797648Y-170071405D03*
X196535812Y-169275765D03*
%TO.N,PI_MISO*%
X144600000Y-172700000D03*
X141400000Y-182900000D03*
X150000000Y-173700000D03*
%TO.N,SPI_MISO*%
X142700000Y-171700000D03*
%TO.N,PDM_D1*%
X165881361Y-111658999D03*
X179344930Y-120655068D03*
%TO.N,+3V3A*%
X137894539Y-108426597D03*
X106958624Y-145274534D03*
X187956688Y-170836981D03*
X145274534Y-193041375D03*
X177093439Y-183776256D03*
X112043311Y-129163018D03*
X183776256Y-122906559D03*
X108426596Y-162105459D03*
X174056190Y-186002634D03*
X162105460Y-191573402D03*
X191573402Y-137894539D03*
X122906560Y-116223743D03*
X154725464Y-106958624D03*
X167620000Y-136200000D03*
X170836981Y-112043311D03*
X167620000Y-163000000D03*
X116223742Y-177093439D03*
X186002634Y-125943808D03*
X125943809Y-113997365D03*
X113997365Y-174056190D03*
X129163017Y-187956688D03*
X193041375Y-154725464D03*
%TO.N,HOST_STATUS*%
X152200000Y-171700000D03*
X152200000Y-170300000D03*
%TO.N,PI_MOSI*%
X151800000Y-182900000D03*
X153800000Y-177700000D03*
%TO.N,SPI_MOSI*%
X156200000Y-171700000D03*
%TO.N,PI_STATUS*%
X153900000Y-172300000D03*
X149600000Y-177300000D03*
X151400000Y-176700000D03*
%TO.N,+3V3_CLK*%
X151900000Y-150000000D03*
X146200000Y-148700000D03*
X151100000Y-152600000D03*
X142500000Y-147000000D03*
X142500000Y-148600000D03*
%TO.N,PDM_D0*%
X188341000Y-134118637D03*
X191500000Y-150000000D03*
%TO.N,PI_SCLK*%
X139800000Y-177200000D03*
X141100000Y-179900000D03*
X139800000Y-174000000D03*
%TO.N,SPI_SCLK*%
X139200000Y-171700000D03*
X141700000Y-165400000D03*
X139200000Y-170300000D03*
%TO.N,PDM_D2*%
X134118637Y-111658999D03*
X150000000Y-108500000D03*
%TO.N,PI_SYNC*%
X154400000Y-172900000D03*
X151400000Y-175900000D03*
%TO.N,HOST_SYNC*%
X155400000Y-171700000D03*
X155600000Y-163800000D03*
%TO.N,HOST_RESET_N*%
X140400000Y-163800000D03*
X140400000Y-165400000D03*
X137800000Y-171700000D03*
X137800000Y-168600000D03*
%TO.N,PDM_D4*%
X111658999Y-165881361D03*
X108500000Y-150000000D03*
%TO.N,PDM_D3*%
X120655068Y-120655068D03*
X111658999Y-134118637D03*
%TO.N,PDM_D7*%
X179344931Y-179344931D03*
X188341000Y-165881362D03*
%TO.N,TANG_3V3*%
X139300000Y-169100000D03*
X130800000Y-164000000D03*
X150100000Y-175800000D03*
X141600000Y-175800000D03*
%TO.N,PDM_D5*%
X134118637Y-188341000D03*
X120655068Y-179344930D03*
%TO.N,SPI_CS_N*%
X146000000Y-171700000D03*
%TO.N,PDM_D6*%
X150000000Y-191500000D03*
X165881362Y-188341000D03*
%TO.N,PI_IRQ*%
X148100000Y-174900000D03*
X148700000Y-173300000D03*
%TO.N,HOST_IRQ*%
X147400000Y-171700000D03*
%TO.N,PDM_CLK_IN*%
X144400000Y-152100000D03*
X148200000Y-152000000D03*
X146000000Y-150800000D03*
%TO.N,PDM_CLK_FPGA*%
X142200000Y-150900000D03*
X146600000Y-147200000D03*
%TD*%
%TO.N,PI_MISO*%
D13*
X150000000Y-173700000D02*
X148900000Y-172600000D01*
X148600000Y-172600000D02*
X148500000Y-172700000D01*
X148500000Y-172700000D02*
X144600000Y-172700000D01*
X148900000Y-172600000D02*
X148600000Y-172600000D01*
X140200000Y-181700000D02*
X141400000Y-182900000D01*
%TO.N,SPI_MISO*%
X142700000Y-171700000D02*
X141000000Y-170000000D01*
X141000000Y-170000000D02*
X141000000Y-161400000D01*
%TO.N,PDM_D1*%
X165881361Y-111658999D02*
X168890000Y-114667638D01*
D14*
X168895000Y-133985000D02*
X168900000Y-138600000D01*
D13*
X179344930Y-120655068D02*
X168890000Y-131109998D01*
X168890000Y-114667638D02*
X168895000Y-133985000D01*
%TO.N,+3V3A*%
D15*
X167620000Y-163000000D02*
X167620000Y-136200000D01*
D16*
X120049106Y-181270337D02*
X116223742Y-177093439D01*
X190351735Y-165704376D02*
X187956688Y-170836981D01*
X108707545Y-136968377D02*
X112043311Y-129163018D01*
X106958624Y-145274534D02*
X108707545Y-136968377D01*
X129163017Y-187956688D02*
X124386939Y-184912191D01*
X192056353Y-160303064D02*
X190351735Y-165704376D01*
X183776256Y-122906559D02*
X186002634Y-125943808D01*
X181270337Y-179950892D02*
X177093439Y-183776256D01*
X189245577Y-131705885D02*
X191573402Y-137894539D01*
X162105460Y-191573402D02*
X153762288Y-193136239D01*
X137894539Y-108426597D02*
X146237710Y-106863760D01*
X116223742Y-177093439D02*
X113997365Y-174056190D01*
X184912191Y-175613060D02*
X181270337Y-179950892D01*
X134295623Y-190351735D02*
X129163017Y-187956688D01*
X122906560Y-116223743D02*
X125943809Y-113997365D01*
X153762288Y-193136239D02*
X145274534Y-193041375D01*
X170836981Y-112043311D02*
X175613059Y-115087807D01*
X174056190Y-186002634D02*
X168294114Y-189245577D01*
X115087808Y-124386939D02*
X118729662Y-120049107D01*
X124386939Y-184912191D02*
X120049106Y-181270337D01*
X193041375Y-154725464D02*
X192056353Y-160303064D01*
X193136239Y-146237710D02*
X193041375Y-154725464D01*
X191573402Y-137894539D02*
X193136239Y-146237710D01*
X108426596Y-162105459D02*
X106863760Y-153762288D01*
X125943809Y-113997365D02*
X131705885Y-110754422D01*
X113997365Y-174056190D02*
X110754421Y-168294113D01*
X168294114Y-189245577D02*
X162105460Y-191573402D01*
X112043311Y-129163018D02*
X115087808Y-124386939D01*
X187956688Y-170836981D02*
X184912191Y-175613060D01*
X186002634Y-125943808D02*
X189245577Y-131705885D01*
X179950892Y-118729661D02*
X183776256Y-122906559D01*
X139696934Y-192056353D02*
X134295623Y-190351735D01*
X177093439Y-183776256D02*
X174056190Y-186002634D01*
X110754421Y-168294113D02*
X108426596Y-162105459D01*
X118729662Y-120049107D02*
X122906560Y-116223743D01*
X175613059Y-115087807D02*
X179950892Y-118729661D01*
X145274534Y-193041375D02*
X139696934Y-192056353D01*
X106863760Y-153762288D02*
X106958624Y-145274534D01*
X131705885Y-110754422D02*
X137894539Y-108426597D01*
X146237710Y-106863760D02*
X154725464Y-106958624D01*
%TO.N,HOST_STATUS*%
D13*
X152200000Y-171700000D02*
X152200000Y-170300000D01*
%TO.N,PI_MOSI*%
X152200000Y-183000000D02*
X153100000Y-183000000D01*
X152100000Y-182900000D02*
X152200000Y-183000000D01*
X151800000Y-182900000D02*
X152100000Y-182900000D01*
X153800000Y-182300000D02*
X153800000Y-177700000D01*
X153100000Y-183000000D02*
X153800000Y-182300000D01*
%TO.N,SPI_MOSI*%
X156200000Y-171700000D02*
X156200000Y-161400000D01*
%TO.N,PI_STATUS*%
X155100000Y-173100000D02*
X155100000Y-172700000D01*
X149100000Y-177800000D02*
X149600000Y-177300000D01*
X144900000Y-179200000D02*
X145600000Y-179200000D01*
X147000000Y-177800000D02*
X149100000Y-177800000D01*
X151600000Y-176500000D02*
X151700000Y-176500000D01*
X154000000Y-172200000D02*
X153900000Y-172300000D01*
X151700000Y-176500000D02*
X155100000Y-173100000D01*
X145600000Y-179200000D02*
X147000000Y-177800000D01*
X154600000Y-172200000D02*
X154000000Y-172200000D01*
X151400000Y-176700000D02*
X151600000Y-176500000D01*
X155100000Y-172700000D02*
X154600000Y-172200000D01*
%TO.N,+3V3_CLK*%
D16*
X142500000Y-148600000D02*
X142500000Y-147000000D01*
X151100000Y-150800000D02*
X150200000Y-150800000D01*
X150200000Y-150800000D02*
X148100000Y-148700000D01*
X148100000Y-148700000D02*
X146200000Y-148700000D01*
D13*
X151100000Y-152600000D02*
X151100000Y-150800000D01*
X151100000Y-150800000D02*
X151900000Y-150000000D01*
%TO.N,PDM_D0*%
X179050000Y-133170000D02*
X179050000Y-138570000D01*
X179050000Y-143970000D02*
X179050000Y-140668994D01*
X187392363Y-133170000D02*
X179050000Y-133170000D01*
X179120000Y-140640000D02*
X179250000Y-140770000D01*
X188341000Y-134118637D02*
X187392363Y-133170000D01*
X180320000Y-140770000D02*
X180320000Y-136620000D01*
X180143223Y-136546776D02*
X180320000Y-136620000D01*
X179050000Y-140668994D02*
X179120000Y-140640000D01*
X180143223Y-136546776D02*
X179050000Y-137640000D01*
X185470000Y-143970000D02*
X179050000Y-143970000D01*
X191500000Y-150000000D02*
X185470000Y-143970000D01*
X179250000Y-140770000D02*
X180320000Y-140770000D01*
%TO.N,PI_SCLK*%
X141100000Y-179900000D02*
X141100000Y-178500000D01*
X141100000Y-178500000D02*
X139800000Y-177200000D01*
X139800000Y-177200000D02*
X139800000Y-174000000D01*
%TO.N,SPI_SCLK*%
X141700000Y-165400000D02*
X141700000Y-163200000D01*
X139200000Y-171700000D02*
X139200000Y-170300000D01*
X141700000Y-163200000D02*
X143500000Y-161400000D01*
%TO.N,PDM_D2*%
X143490000Y-115010000D02*
X143495000Y-134785000D01*
X150000000Y-108500000D02*
X143490000Y-115010000D01*
X134118637Y-111658999D02*
X143490000Y-121030362D01*
D14*
X143495000Y-134785000D02*
X143500000Y-138600000D01*
%TO.N,PI_SYNC*%
D13*
X151400000Y-175900000D02*
X154400000Y-172900000D01*
%TO.N,HOST_SYNC*%
X155400000Y-164000000D02*
X155600000Y-163800000D01*
X155400000Y-171700000D02*
X155400000Y-164000000D01*
%TO.N,HOST_RESET_N*%
X137800000Y-171700000D02*
X137800000Y-168600000D01*
X140400000Y-165400000D02*
X140400000Y-163800000D01*
%TO.N,PDM_D4*%
X137140000Y-159230000D02*
X137140000Y-163380000D01*
X135870000Y-159331005D02*
X135940000Y-159360000D01*
X137140000Y-163380000D02*
X136963223Y-163453223D01*
X136070000Y-159230000D02*
X137140000Y-159230000D01*
X112607637Y-166829999D02*
X135870000Y-166829999D01*
X135870000Y-161430000D02*
X135870000Y-166829999D01*
X135940000Y-159360000D02*
X136070000Y-159230000D01*
X111658999Y-165881361D02*
X112607637Y-166829999D01*
X136963223Y-163453223D02*
X135870000Y-162360000D01*
X114530000Y-156030000D02*
X135870000Y-156030000D01*
X108500000Y-150000000D02*
X114530000Y-156030000D01*
X135870000Y-156030000D02*
X135870000Y-159331005D01*
%TO.N,PDM_D3*%
D14*
X133314999Y-135585000D02*
X133300000Y-138600000D01*
D13*
X133329999Y-133329999D02*
X133314999Y-135585000D01*
X120655068Y-120655068D02*
X133329999Y-133329999D01*
X111658999Y-134118637D02*
X113110362Y-135570000D01*
X113110362Y-135570000D02*
X133314999Y-135585000D01*
%TO.N,PDM_D7*%
X179344931Y-179344931D02*
X179344931Y-164430000D01*
D14*
X189205000Y-164415000D02*
X189200000Y-161400000D01*
D13*
X188341000Y-165881362D02*
X189210000Y-165012362D01*
X189210000Y-165012362D02*
X189205000Y-164415000D01*
X179344931Y-164430000D02*
X189205000Y-164415000D01*
%TO.N,TANG_3V3*%
D16*
X141600000Y-171700000D02*
X140200000Y-170300000D01*
X130800000Y-164000000D02*
X130800000Y-161400000D01*
X148100000Y-173800000D02*
X150100000Y-175800000D01*
X140200000Y-170000000D02*
X139300000Y-169100000D01*
X140200000Y-170300000D02*
X140200000Y-170000000D01*
X141600000Y-173800000D02*
X148100000Y-173800000D01*
X141600000Y-175800000D02*
X141600000Y-171700000D01*
%TO.N,PDM_D5*%
D13*
X138454000Y-176100500D02*
X138405000Y-163415000D01*
D14*
X138405000Y-163415000D02*
X138400000Y-161400000D01*
D13*
X134118637Y-188341000D02*
X138549818Y-183930000D01*
X120655068Y-179344930D02*
X132369998Y-167630000D01*
X138549818Y-183930000D02*
X138570000Y-176990000D01*
X138410000Y-176830000D02*
X138454000Y-176100500D01*
X132369998Y-167630000D02*
X138410000Y-167630000D01*
X138570000Y-176990000D02*
X138410000Y-176830000D01*
%TO.N,SPI_CS_N*%
X146000000Y-166500000D02*
X151100000Y-161400000D01*
X146000000Y-171700000D02*
X146000000Y-166500000D01*
%TO.N,PDM_D6*%
X166550000Y-187672000D02*
X166550000Y-175000000D01*
X166350000Y-174800000D02*
X166375000Y-165215000D01*
X161430000Y-176990000D02*
X166350000Y-172070000D01*
X166550000Y-187672000D02*
X165881362Y-188341000D01*
D14*
X166375000Y-165215000D02*
X166400000Y-161400000D01*
D13*
X161430000Y-183930000D02*
X161430000Y-176990000D01*
X166550000Y-175000000D02*
X166350000Y-174800000D01*
X157570000Y-183930000D02*
X161430000Y-183930000D01*
X150000000Y-191500000D02*
X157570000Y-183930000D01*
%TO.N,PI_IRQ*%
X150800000Y-175400000D02*
X148700000Y-173300000D01*
X148200000Y-174900000D02*
X149800000Y-176500000D01*
X150400000Y-176500000D02*
X150800000Y-176100000D01*
X149800000Y-176500000D02*
X150400000Y-176500000D01*
X150800000Y-176100000D02*
X150800000Y-175400000D01*
%TO.N,HOST_IRQ*%
X147400000Y-167600000D02*
X153600000Y-161400000D01*
X147400000Y-171700000D02*
X147400000Y-167600000D01*
%TO.N,PDM_CLK_IN*%
D14*
X147200000Y-152000000D02*
X146000000Y-150800000D01*
X144700000Y-152100000D02*
X144400000Y-152100000D01*
X146000000Y-150800000D02*
X144700000Y-152100000D01*
X148200000Y-152000000D02*
X147200000Y-152000000D01*
%TO.N,PDM_CLK_FPGA*%
X144700000Y-148400000D02*
X145400000Y-148400000D01*
X142200000Y-150900000D02*
X144700000Y-148400000D01*
X145400000Y-148400000D02*
X146600000Y-147200000D01*
%TD*%
M02*
